<svg width="24" height="24" viewBox="0 0 24 24" xmlns="http://www.w3.org/2000/svg">
<g id="pause-1">
<path id="Subtract" fill-rule="evenodd" clip-rule="evenodd" d="M24 12C24 18.6274 18.6274 24 12 24C5.37258 24 0 18.6274 0 12C0 5.37258 5.37258 0 12 0C18.6274 0 24 5.37258 24 12ZM23 12C23 18.0751 18.0751 23 12 23C5.92487 23 1 18.0751 1 12C1 5.92487 5.92487 1 12 1C18.0751 1 23 5.92487 23 12Z" fill="black"/>
<g id="Group 1">
<path id="Rectangle 4 Copy 3" fill-rule="evenodd" clip-rule="evenodd" d="M14.4375 5H17.4375V19H14.4375V5Z" fill="black"/>
<path id="Rectangle 4 Copy 4" fill-rule="evenodd" clip-rule="evenodd" d="M6.5625 5H9.5625V19H6.5625V5Z" fill="black"/>
</g>
</g>
</svg>
