<?xml version="1.0" encoding="UTF-8" standalone="no"?>
<svg width="24px" height="24px" viewBox="0 0 24 24" version="1.1" xmlns="http://www.w3.org/2000/svg" xmlns:xlink="http://www.w3.org/1999/xlink">
    <title>rss-feed</title>
    <defs></defs>
    <g id="rss-feed" stroke="none" stroke-width="1" fill="none" fill-rule="evenodd">
        <path d="M19.0021 18.7853C19.4747 20.4807 19.7111 22.2187 19.7111 24H24C24 21.8048 23.713 19.6663 23.1387 17.5841C22.5645 15.5021 21.7617 13.5842 20.7307 11.83C19.6992 10.0763 18.4455 8.46297 16.9689 6.99046C15.4921 5.51769 13.8749 4.26986 12.1172 3.24622C10.3594 2.22309 8.44533 1.42591 6.37497 0.855695C4.30461 0.285485 2.17954 0 0 0V4.47682C1.78892 4.47682 3.53301 4.70936 5.23226 5.17394C6.93151 5.63877 8.50207 6.287 9.94345 7.11939C11.3848 7.95128 12.713 8.96707 13.9279 10.1663C15.1425 11.3654 16.1738 12.6779 17.0216 14.1035C17.8692 15.5294 18.5294 17.0901 19.0021 18.7853ZM13.711 24C13.711 22.1485 13.3478 20.3849 12.621 18.7093C11.8945 17.0331 10.92 15.596 9.69722 14.3966C8.47446 13.1974 7.01738 12.2444 5.32624 11.5372C3.63459 10.8302 1.85935 10.4768 0 10.4768V6.18768C1.63263 6.18768 3.2265 6.39869 4.7811 6.82046C6.33571 7.24223 7.77126 7.83423 9.088 8.59594C10.4042 9.35766 11.6151 10.2833 12.7208 11.3733C13.826 12.4628 14.7676 13.6582 15.5448 14.9592C16.3222 16.26 16.9259 17.6838 17.3555 19.2306C17.7851 20.7776 17.9999 22.3674 17.9999 24H13.711ZM4.75197 23.1798C4.20886 23.7267 3.55454 24 2.78902 24C2.02324 24 1.3669 23.7267 0.82024 23.1798C0.273329 22.6331 0 21.9768 0 21.2113C0 20.4455 0.273329 19.7912 0.82024 19.2481C1.3669 18.7052 2.02324 18.4337 2.78902 18.4337C3.55454 18.4337 4.20886 18.7052 4.75197 19.2481C5.29483 19.7912 5.56638 20.4455 5.56638 21.2113C5.56638 21.9768 5.29483 22.6331 4.75197 23.1798Z" id="Fill-1" fill="#000000"></path>
    </g>
</svg>