<?xml version="1.0" encoding="UTF-8"?>
<svg width="280px" height="72px" viewBox="0 0 280 72" version="1.1" xmlns="http://www.w3.org/2000/svg" xmlns:xlink="http://www.w3.org/1999/xlink">
    <!-- Generator: Sketch 54.1 (76490) - https://sketchapp.com -->
    <title>blse-logo</title>
    <desc>Created with Sketch.</desc>
    <defs>
        <polygon id="path-1" points="0 0.0001125 65.266875 0.0001125 65.266875 72 0 72"></polygon>
        <polygon id="path-3" points="0.286258592 0.463542857 9.60195718 0.463542857 9.60195718 16 0.286258592 16"></polygon>
    </defs>
    <g id="blse-logo" stroke="none" stroke-width="1" fill="none" fill-rule="evenodd">
        <g id="Group-3">
            <g id="Group">
                <g id="Group-68">
                    <mask id="mask-2" fill="white">
                        <use xlink:href="#path-1"></use>
                    </mask>
                    <g id="Clip-67"></g>
                    <path d="M1.62675,1.6268625 L1.62675,32.9817375 C1.62675,33.0346125 1.702125,38.6618625 5.585625,46.0396125 C9.147375,52.8087375 16.731,62.4702375 32.652,70.1956125 C48.585375,62.4679875 56.158875,52.8064875 59.709375,46.0384875 C63.5805,38.6618625 63.64125,33.0357375 63.64125,32.9806125 L63.64125,1.6268625 L1.62675,1.6268625 Z M32.652,72.0001125 L32.299875,71.8313625 C15.6825,63.8607375 7.790625,53.7661125 4.095,46.7011125 C0.061875,38.9892375 0,33.2247375 0,32.9839875 L0,0.0001125 L65.266875,0.0001125 L65.266875,32.9817375 C65.266875,33.2224875 65.221875,38.9858625 61.201125,46.6977375 C57.51675,53.7616125 49.633875,63.8573625 33.003,71.8313625 L32.652,72.0001125 Z" id="Fill-66" fill="#0D395F" mask="url(#mask-2)"></path>
                </g>
                <path d="M20.8918125,12.257775 C20.1571875,11.2734 19.1806875,10.482525 18.0455625,9.97965 C18.4798125,10.608525 18.8465625,11.380275 19.1289375,12.257775 L20.8918125,12.257775 Z" id="Fill-69" fill="#0D395F"></path>
                <path d="M15.7633875,9.5182875 L15.7633875,12.2576625 L17.8491375,12.2576625 C17.3226375,10.8244125 16.5576375,9.8524125 15.7633875,9.5182875" id="Fill-71" fill="#0D395F"></path>
                <path d="M11.7820125,15.92055 L14.5438875,15.92055 L14.5438875,13.478175 L12.0981375,13.478175 C11.9282625,14.213925 11.8168875,15.032925 11.7820125,15.92055" id="Fill-73" fill="#0D395F"></path>
                <path d="M12.4581375,12.257775 L14.5438875,12.257775 L14.5438875,9.5184 C13.7496375,9.852525 12.9846375,10.824525 12.4581375,12.257775" id="Fill-75" fill="#0D395F"></path>
                <path d="M12.0983625,19.584 L14.5441125,19.584 L14.5441125,17.1405 L11.7822375,17.1405 C11.8171125,18.028125 11.9284875,18.847125 12.0983625,19.584" id="Fill-77" fill="#0D395F"></path>
                <path d="M14.5438875,23.5434375 L14.5438875,20.8040625 L12.4581375,20.8040625 C12.9846375,22.2373125 13.7496375,23.2093125 14.5438875,23.5434375" id="Fill-79" fill="#0D395F"></path>
                <path d="M10.5625125,17.1406125 L8.0200125,17.1406125 C8.0942625,18.0091125 8.3248875,18.8303625 8.6815125,19.5841125 L10.8572625,19.5841125 C10.6963875,18.8202375 10.5951375,18.0012375 10.5625125,17.1406125" id="Fill-81" fill="#0D395F"></path>
                <path d="M18.2084625,13.477725 L15.7638375,13.477725 L15.7638375,15.9201 L18.5257125,15.9201 C18.4897125,15.0336 18.3794625,14.2146 18.2084625,13.477725" id="Fill-83" fill="#0D395F"></path>
                <path d="M10.8563625,13.477725 L8.6817375,13.477725 C8.3251125,14.23035 8.0933625,15.052725 8.0202375,15.9201 L10.5627375,15.9201 C10.5953625,15.0606 10.6954875,14.2416 10.8563625,13.477725" id="Fill-85" fill="#0D395F"></path>
                <path d="M9.4165875,20.80395 C10.1500875,21.7872 11.1265875,22.57695 12.2617125,23.079825 C11.8274625,22.452075 11.4607125,21.680325 11.1783375,20.80395 L9.4165875,20.80395 Z" id="Fill-87" fill="#0D395F"></path>
                <path d="M19.7454375,15.92055 L22.2879375,15.92055 C22.2136875,15.053175 21.9830625,14.2308 21.6264375,13.478175 L19.4506875,13.478175 C19.6115625,14.240925 19.7116875,15.059925 19.7454375,15.92055" id="Fill-89" fill="#0D395F"></path>
                <path d="M12.2610375,9.980775 C11.1270375,10.48365 10.1505375,11.274525 9.4159125,12.257775 L11.1787875,12.257775 C11.4611625,11.380275 11.8267875,10.60965 12.2610375,9.980775" id="Fill-91" fill="#0D395F"></path>
                <path d="M19.4504625,19.584 L21.6262125,19.584 C21.9817125,18.831375 22.2145875,18.009 22.2877125,17.1405 L19.7452125,17.1405 C19.7114625,18.001125 19.6113375,18.820125 19.4504625,19.584" id="Fill-93" fill="#0D395F"></path>
                <path d="M57.6196875,20.2366125 L49.8009375,24.8221125 L41.9765625,20.2366125 L41.9765625,11.3839875 L43.1971875,11.3839875 L43.1971875,19.5379875 L49.8009375,23.4079875 L56.4001875,19.5379875 L56.4001875,11.3839875 L57.6196875,11.3839875 L57.6196875,20.2366125 Z M44.4268125,10.6099875 C44.4268125,10.6099875 47.6814375,10.6628625 49.1428125,13.3538625 L49.1428125,21.5303625 C47.6814375,18.8393625 44.4268125,18.7864875 44.4268125,18.7864875 C44.4268125,18.7864875 44.3806875,10.5571125 44.4268125,10.6099875 L44.4268125,10.6099875 Z M50.3544375,13.4236125 C51.8315625,10.7337375 55.1199375,10.6808625 55.1199375,10.6808625 C55.1683125,10.6279875 55.1199375,18.8573625 55.1199375,18.8573625 C55.1199375,18.8573625 51.8315625,18.9091125 50.3544375,21.6001125 L50.3544375,13.4236125 Z M39.7119375,26.0281125 L25.5560625,26.0281125 L25.5560625,24.6049875 L27.6991875,24.6049875 L27.6991875,17.6086125 L37.5665625,17.6086125 L37.5665625,24.6049875 L39.7119375,24.6049875 L39.7119375,26.0281125 Z M15.1543125,24.9154875 C10.5305625,24.9154875 6.7685625,21.1534875 6.7685625,16.5308625 C6.7685625,11.9071125 10.5305625,8.1451125 15.1543125,8.1451125 C19.7769375,8.1451125 23.5389375,11.9071125 23.5389375,16.5308625 C23.5389375,21.1534875 19.7769375,24.9154875 15.1543125,24.9154875 L15.1543125,24.9154875 Z M33.3455625,3.6147375 L33.3455625,4.4269875 C33.9654375,4.6936125 34.4030625,5.2842375 34.4030625,5.9817375 C34.4030625,6.6769875 33.9654375,7.2687375 33.3455625,7.5342375 L33.3455625,8.5208625 C34.2770625,8.8617375 35.9600625,9.6773625 36.7284375,11.3344875 C37.4484375,12.8858625 37.5800625,14.2291125 37.5879375,14.9648625 L38.2505625,14.9648625 L38.2505625,16.3879875 L27.0174375,16.3879875 L27.0174375,14.9648625 L27.6800625,14.9648625 C27.6868125,14.2291125 27.8184375,12.8858625 28.5384375,11.3344875 C29.3068125,9.6807375 30.9886875,8.8617375 31.9224375,8.5197375 L31.9224375,7.5331125 C31.3014375,7.2676125 30.8638125,6.6769875 30.8638125,5.9817375 C30.8638125,5.2842375 31.3014375,4.6947375 31.9224375,4.4281125 L31.9224375,3.6147375 L3.9954375,3.6147375 L3.9954375,32.1132375 C3.9954375,32.1132375 3.9999375,33.3946125 4.4240625,35.5287375 C4.4724375,35.5118625 4.5219375,35.4949875 4.5714375,35.4781125 C7.6246875,34.4363625 13.1349375,32.6487375 16.7833125,32.6487375 C20.4316875,32.6487375 21.7715625,33.6173625 25.2725625,33.6173625 C25.6753125,33.6173625 26.0645625,33.6252375 26.4470625,33.6398625 L26.4470625,27.2397375 L38.8209375,27.2397375 L38.8209375,33.8491125 C41.2993125,33.7737375 43.1454375,33.8468625 45.3774375,34.2496125 C48.4678125,34.8087375 50.3668125,36.8191125 52.5628125,37.1543625 C54.7599375,37.4884875 56.6949375,37.0047375 59.0416875,37.1172375 C59.6458125,37.1453625 60.0856875,37.1656125 60.4771875,37.1847375 C61.2703125,34.0729875 61.2725625,32.1132375 61.2725625,32.1132375 L61.2725625,3.6147375 L33.3455625,3.6147375 Z" id="Fill-95" fill="#0D395F"></path>
                <path d="M18.5259375,17.1406125 L15.7629375,17.1406125 L15.7629375,19.5841125 L18.2086875,19.5841125 C18.3796875,18.8472375 18.4899375,18.0282375 18.5259375,17.1406125" id="Fill-97" fill="#0D395F"></path>
                <path d="M15.7633875,23.542875 C16.5576375,23.207625 17.3226375,22.23675 17.8491375,20.8035 L15.7633875,20.8035 L15.7633875,23.542875 Z" id="Fill-99" fill="#0D395F"></path>
                <path d="M18.0453375,23.08095 C19.1804625,22.578075 20.1569625,21.7872 20.8915875,20.80395 L19.1287125,20.80395 C18.8452125,21.68145 18.4795875,22.452075 18.0453375,23.08095" id="Fill-101" fill="#0D395F"></path>
                <polygon id="Fill-103" fill="#0D395F" points="31.314375 33.066 33.9525 33.066 33.9525 28.501875 31.314375 28.501875"></polygon>
                <path d="M30.8525625,54.6111 C30.6511875,54.450225 30.3384375,54.28935 29.8153125,54.072225 C29.4215625,54.281475 29.1403125,54.603225 29.1403125,55.068975 C29.1403125,55.631475 29.5419375,55.993725 30.1696875,55.993725 C30.7321875,55.993725 31.1180625,55.6641 31.1180625,55.190475 C31.1180625,54.940725 31.0303125,54.747225 30.8525625,54.6111" id="Fill-105" fill="#0D395F"></path>
                <path d="M30.1768875,53.3246625 C30.5301375,53.1469125 30.9497625,52.8667875 30.9497625,52.4235375 C30.9497625,51.9971625 30.6358875,51.7406625 30.0970125,51.7406625 C29.5817625,51.7406625 29.2442625,52.0219125 29.2442625,52.4392875 C29.2442625,52.9061625 29.8000125,53.1716625 30.1768875,53.3246625" id="Fill-106" fill="#0D395F"></path>
                <path d="M33.9336,52.439625 C33.804225,52.785 33.7491,53.242875 33.7491,53.814375 C33.7491,54.354375 33.788475,54.772875 33.860475,55.069875 C34.0056,55.6965 34.294725,55.962 34.632225,55.962 C34.97085,55.962 35.2431,55.672875 35.38935,55.206 C35.49285,54.860625 35.541225,54.40275 35.541225,53.86275 C35.541225,53.339625 35.50185,52.9785 35.42085,52.632 C35.26785,52.005375 34.994475,51.764625 34.641225,51.764625 C34.32735,51.764625 34.085475,52.014375 33.9336,52.439625 Z" id="Fill-107" fill="#0D395F"></path>
                <path d="M39.1275,56.6215875 C37.71225,56.6215875 37.26225,54.9723375 37.26225,53.8225875 C37.26225,52.2385875 38.066625,51.0967125 39.1365,51.0967125 C40.5765,51.0967125 41.025375,52.6807125 41.025375,53.8462125 C41.025375,55.5123375 40.253625,56.6215875 39.1275,56.6215875 L39.1275,56.6215875 Z M34.62525,56.6215875 C33.208875,56.6215875 32.758875,54.9723375 32.758875,53.8225875 C32.758875,52.2385875 33.56325,51.0967125 34.632,51.0967125 C36.072,51.0967125 36.523125,52.6807125 36.523125,53.8462125 C36.523125,55.5123375 35.751375,56.6215875 34.62525,56.6215875 L34.62525,56.6215875 Z M30.08025,56.6530875 C29.156625,56.6530875 28.182375,56.1952125 28.182375,55.1343375 C28.182375,54.4829625 28.61775,53.9598375 29.212875,53.7505875 C28.72125,53.5503375 28.35225,53.0587125 28.35225,52.5198375 C28.35225,51.4983375 29.300625,51.0967125 30.177,51.0967125 C31.190625,51.0967125 31.890375,51.6355875 31.890375,52.4242125 C31.890375,53.0823375 31.375125,53.4535875 30.8205,53.6617125 C31.60125,53.9834625 32.09175,54.3693375 32.09175,55.0375875 C32.09175,56.0748375 31.005,56.6530875 30.08025,56.6530875 L30.08025,56.6530875 Z M27.40275,56.5012125 L24.8535,56.5012125 L24.8535,55.7857125 L25.786125,55.7857125 L25.786125,52.2138375 C25.70625,52.2633375 25.4565,52.4242125 25.239375,52.5277125 C25.02225,52.6323375 24.72525,52.7605875 24.6285,52.7932125 L24.411375,52.3195875 L26.028,51.1844625 L26.65575,51.1844625 L26.65575,55.7857125 L27.40275,55.7857125 L27.40275,56.5012125 Z M40.869,44.5188375 L40.869,44.5469625 L24.427125,44.5469625 L12.51225,52.0102125 C16.756875,57.2020875 23.112,62.6144625 32.6385,67.1774625 C42.1875,62.6054625 48.54825,57.1829625 52.78725,51.9843375 L40.869,44.5188375 Z" id="Fill-108" fill="#0D395F"></path>
                <path d="M39.143925,51.764625 C38.83005,51.764625 38.5893,52.014375 38.4363,52.439625 C38.306925,52.785 38.2518,53.242875 38.2518,53.814375 C38.2518,54.354375 38.291175,54.772875 38.3643,55.069875 C38.5083,55.6965 38.797425,55.962 39.13605,55.962 C39.47355,55.962 39.746925,55.672875 39.89205,55.206 C39.996675,54.860625 40.043925,54.40275 40.043925,53.86275 C40.043925,53.339625 40.00455,52.9785 39.92355,52.632 C39.77055,52.005375 39.497175,51.764625 39.143925,51.764625" id="Fill-109" fill="#0D395F"></path>
                <polygon id="Fill-110" fill="#0D395F" points="24.14475 36.277875 41.122125 36.277875 41.122125 35.058375 24.14475 35.058375"></polygon>
                <path d="M27.46125,41.695875 L37.80675,41.695875 L37.80675,39.22425 L27.46125,39.22425 L27.46125,41.695875 Z M26.240625,42.9165 L39.02625,42.9165 L39.02625,38.00475 L26.240625,38.00475 L26.240625,42.9165 Z" id="Fill-111" fill="#0D395F"></path>
                <polygon id="Fill-112" fill="#0D395F" points="31.314375 23.058 33.9525 23.058 33.9525 18.963 31.314375 18.963"></polygon>
                <polygon id="Fill-113" fill="#0D395F" points="29.080125 23.05575 29.8935 23.05575 29.8935 18.968625 29.080125 18.968625"></polygon>
                <polygon id="Fill-114" fill="#0D395F" points="35.37225 23.05575 36.185625 23.05575 36.185625 18.968625 35.37225 18.968625"></polygon>
                <path d="M33.4085625,5.9823 C33.4085625,6.386175 33.0620625,6.714675 32.6345625,6.714675 C32.2059375,6.714675 31.8594375,6.386175 31.8594375,5.9823 C31.8594375,5.57505 32.2059375,5.24655 32.6345625,5.24655 C33.0620625,5.24655 33.4085625,5.57505 33.4085625,5.9823" id="Fill-115" fill="#0D395F"></path>
                <path d="M24.3981,40.1257125 L10.28385,49.0255875 C10.584225,49.4654625 10.899225,49.9064625 11.22885,50.3519625 L24.3981,42.0483375 L24.3981,40.1257125 Z" id="Fill-116" fill="#0D395F"></path>
                <path d="M40.868325,42.117525 L54.01395,50.42565 C54.3447,49.98015 54.6597,49.53915 54.9612,49.099275 L40.868325,40.19265 L40.868325,42.117525 Z" id="Fill-117" fill="#0D395F"></path>
            </g>
        </g>
        <g id="Group-70" transform="translate(77.000000, 9.000000)">
            <path d="M127.461298,5.6484 C126.262169,5.6484 125.315788,6.31868571 124.431166,7.80554286 C124.428879,7.78268571 124.424876,7.75982857 124.423732,7.73754286 L124.426591,7.49125714 C124.434025,7.38382857 124.446034,7.2764 124.458042,7.16897143 C124.484918,6.93468571 124.511794,6.69982857 124.53867,6.46554286 C124.576983,6.12268571 124.615867,5.77982857 124.655324,5.43697143 L120.941853,5.8164 L120.941853,6.47011429 L122.629898,6.7444 L122.86149,8.36725714 L122.86149,12.7106857 L122.629898,14.3135429 L121.153431,14.5872571 L121.153431,15.2409714 L126.574388,15.2409714 L126.574388,14.5872571 L124.886915,14.3135429 L124.655324,12.7106857 L124.655324,12.2061143 L124.655324,10.8352571 L124.655324,9.31354286 L124.655324,8.89582857 L124.655324,8.72325714 C124.655324,8.69582857 124.657039,8.66725714 124.659326,8.63754286 C125.270614,7.88211429 126.090619,7.60954286 126.722493,7.60954286 C127.165662,7.60954286 127.608831,7.7564 127.967369,7.92497143 L128.495741,5.79582857 C128.052,5.66897143 127.840994,5.6484 127.461298,5.6484" id="Fill-1" fill="#000000"></path>
            <polygon id="Fill-3" fill="#000000" points="0.308216901 14.5864571 2.01970704 14.2487429 2.23071268 12.1167429 2.23071268 4.53845714 2.01970704 2.40645714 0.308216901 2.06874286 0.308216901 1.4356 4.87085634 1.4356 5.94875775 4.53845714 9.13843099 12.8344571 12.4121634 4.51731429 13.4054338 1.4356 17.9680732 1.4356 17.9680732 2.06874286 16.2777408 2.40645714 16.0455775 4.53845714 16.0455775 12.1167429 16.2777408 14.2487429 17.9680732 14.5864571 17.9680732 15.2413143 12.1382563 15.2413143 12.1382563 14.5864571 13.8280169 14.2487429 14.0607521 12.1167429 14.0607521 2.87102857 10.4267662 12.1167429 9.35000845 15.2413143 7.97704225 15.2413143 6.83623944 12.1167429 3.18109577 2.87102857 3.18109577 12.1167429 3.41325915 14.2487429 5.10359155 14.5864571 5.10359155 15.2413143 0.308216901 15.2413143"></polygon>
            <path d="M20.6872439,1.62548571 C20.6872439,0.907771429 21.2785172,0.2952 22.0184665,0.2952 C22.7361144,0.2952 23.3491172,0.8872 23.3491172,1.64662857 C23.3491172,2.32205714 22.7995876,2.9552 22.0184665,2.9552 C21.2996749,2.9552 20.6872439,2.4272 20.6872439,1.62548571 L20.6872439,1.62548571 Z M19.5893285,14.5866286 L21.0675115,14.3123429 L21.2785172,12.7077714 L21.2785172,8.3592 L21.0675115,6.73405714 L19.3771792,6.4592 L19.3771792,5.80491429 L23.3068017,5.42548571 L23.0952242,8.3592 L23.0952242,12.7077714 L23.3068017,14.3123429 L24.7849848,14.5866286 L24.7849848,15.2409143 L19.5893285,15.2409143 L19.5893285,14.5866286 Z" id="Fill-5" fill="#000000"></path>
            <path d="M32.315427,12.9190286 L32.315427,6.67045714 C31.7241538,6.41731429 31.2592552,6.29102857 30.6039369,6.29102857 C28.6179679,6.29102857 27.5200524,7.93731429 27.5200524,10.5333143 C27.5200524,12.8344571 28.3652186,14.2281714 30.0126637,14.2281714 C30.752613,14.2281714 31.5337341,13.8898857 32.315427,12.9190286 M25.6187144,10.9773143 C25.6187144,7.6836 27.6893144,5.36188571 30.6885679,5.36188571 C31.2798411,5.36188571 31.7447397,5.42531429 32.315427,5.5516 L32.315427,3.08188571 L32.0826918,1.45617143 L30.3929313,1.18245714 L30.3929313,0.5276 L34.3431397,0.1476 L34.1104045,3.08188571 L34.1104045,12.7076 L34.3431397,14.3121714 L35.7161059,14.5864571 L35.7161059,15.2407429 L32.315427,15.6841714 L32.6322214,13.6790286 C31.6601087,14.9881714 30.667982,15.6841714 29.2732862,15.6841714 C27.1397848,15.6841714 25.6187144,13.8476 25.6187144,10.9773143" id="Fill-7" fill="#000000"></path>
            <path d="M43.1754696,12.9190286 L43.1754696,6.67045714 C42.5841963,6.41731429 42.1192977,6.29102857 41.4639794,6.29102857 C39.4780104,6.29102857 38.3800949,7.93731429 38.3800949,10.5333143 C38.3800949,12.8344571 39.2252611,14.2281714 40.8727062,14.2281714 C41.6126555,14.2281714 42.3937766,13.8898857 43.1754696,12.9190286 M36.4787569,10.9773143 C36.4787569,7.6836 38.5493569,5.36188571 41.5486104,5.36188571 C42.1398837,5.36188571 42.6047823,5.42531429 43.1754696,5.5516 L43.1754696,3.08188571 L42.9427344,1.45617143 L41.2529738,1.18245714 L41.2529738,0.5276 L45.2031823,0.1476 L44.970447,3.08188571 L44.970447,12.7076 L45.2031823,14.3121714 L46.5761485,14.5864571 L46.5761485,15.2407429 L43.1754696,15.6841714 L43.4922639,13.6790286 C42.5201513,14.9881714 41.5280245,15.6841714 40.1333287,15.6841714 C37.9998273,15.6841714 36.4787569,13.8476 36.4787569,10.9773143" id="Fill-9" fill="#000000"></path>
            <polygon id="Fill-11" fill="#000000" points="47.9098299 14.5864571 49.388013 14.3127429 49.62132 12.7076 49.62132 3.08188571 49.388013 1.45617143 47.6988242 1.18245714 47.6988242 0.5276 51.6278749 0.1476 51.4162975 3.08188571 51.4162975 12.7076 51.6490327 14.3127429 53.1066299 14.5864571 53.1066299 15.2413143 47.9098299 15.2413143"></polygon>
            <path d="M58.4691465,8.95057143 L59.9050141,8.73914286 C59.9050141,7.07171429 59.1233211,6.20657143 57.9613606,6.20657143 C56.7788141,6.20657143 55.9553775,7.09285714 55.7226423,8.95057143 L58.4691465,8.95057143 Z M53.8636197,10.618 C53.8636197,7.40942857 55.4904789,5.362 58.1306225,5.362 C60.3487549,5.362 61.8909831,6.79742857 61.8063521,9.79514286 L55.7014845,9.79514286 C55.7014845,9.79514286 55.6808986,10.0905714 55.6808986,10.2597143 C55.6808986,12.6442857 56.8422873,14.3334286 59.0815775,14.3334286 C59.7574817,14.3334286 60.5180169,14.1648571 61.2568225,13.6157143 L61.6799775,14.1854286 C60.4751296,15.2837143 59.567062,15.6842857 58.0459915,15.6842857 C55.5322225,15.6842857 53.8636197,13.8688571 53.8636197,10.618 L53.8636197,10.618 Z" id="Fill-13" fill="#000000"></path>
            <path d="M70.4758817,10.4494286 C70.4758817,8.27514286 69.5460845,6.79742857 68.1313746,6.79742857 C67.2656225,6.79742857 66.4410423,7.15571429 65.680507,8.04314286 L65.680507,12.7077143 L65.8915127,14.5448571 C66.3992986,14.7134286 66.7578366,14.798 67.3073662,14.798 C69.4837549,14.798 70.4758817,12.8557143 70.4758817,10.4494286 M63.8638,15.2408571 L63.8638,3.082 L63.6522225,1.45628571 L61.9630338,1.18257143 L61.9630338,0.527714286 L65.8915127,0.147714286 L65.680507,3.082 L65.680507,7.05057143 C66.4616282,6.01628571 67.6030028,5.362 68.8919099,5.362 C70.9196225,5.362 72.3349042,7.09285714 72.3349042,9.774 C72.3349042,13.046 70.370093,15.6842857 66.5674169,15.6842857 C65.680507,15.6842857 65.0680761,15.6842857 63.8638,15.2408571" id="Fill-15" fill="#000000"></path>
            <path d="M74.7858862,12.3914286 L74.7858862,8.35942857 L74.553151,6.73428571 L72.9051341,6.45942857 L72.9051341,5.80514286 L76.8135989,5.42571429 L76.6020214,8.35942857 L76.6020214,11.9057143 C76.6020214,13.3622857 77.2773538,14.2485714 78.6091482,14.2485714 C79.5172158,14.2485714 80.3412242,13.7 80.9324975,12.9822857 L80.9324975,8.35942857 L80.7214918,6.73428571 L79.0734749,6.45942857 L79.0734749,5.80514286 L82.9813679,5.42571429 L82.7492045,8.35942857 L82.7492045,12.708 L82.9813679,14.3125714 L84.5024383,14.5862857 L84.5024383,15.2411429 L80.9324975,15.6211429 L81.1652327,13.7217143 C80.1719623,15.0937143 79.2844806,15.6845714 77.7851397,15.6845714 C75.9255454,15.6845714 74.7858862,14.5022857 74.7858862,12.3914286" id="Fill-17" fill="#000000"></path>
            <polygon id="Fill-19" fill="#000000" points="94.9719203 20.2441143 94.9719203 19.5264 97.0842639 19.1886857 97.9923315 17.7109714 98.9015428 15.5789714 95.9434611 8.35954286 95.077709 6.71268571 94.1267541 6.45954286 94.1267541 5.80468571 98.7528668 5.80468571 98.7528668 6.45954286 97.4010583 6.71268571 97.9088442 8.35954286 99.8096104 13.2355429 101.584002 8.35954286 102.048329 6.71268571 100.71825 6.45954286 100.71825 5.80468571 104.520354 5.80468571 104.520354 6.45954286 103.443025 6.71268571 102.640746 8.35954286 98.0352189 20.5184"></polygon>
            <path d="M92.1530223,5.64502857 C90.9538927,5.64502857 90.0075124,6.31588571 89.1228899,7.80217143 C89.1206025,7.77931429 89.1165997,7.75702857 89.1154561,7.73417143 L89.1183152,7.48788571 C89.125749,7.38045714 89.1377575,7.27302857 89.1497659,7.16617143 C89.176642,6.93131429 89.203518,6.69702857 89.2303941,6.46217143 C89.2687068,6.11988571 89.3075913,5.77645714 89.3470476,5.4336 L85.6330054,5.81302857 L85.6330054,6.46674286 L87.3216223,6.74102857 L87.5532138,8.36445714 L87.5532138,12.7073143 L87.3216223,14.3101714 L85.8451546,14.5838857 L85.8451546,15.2381714 L91.2661124,15.2381714 L91.2661124,14.5838857 L89.5786392,14.3101714 L89.3470476,12.7073143 L89.3470476,12.2027429 L89.3470476,10.8318857 L89.3470476,9.31017143 L89.3470476,8.89245714 L89.3470476,8.71988571 C89.3470476,8.69245714 89.3487631,8.66388571 89.3510504,8.63474286 C89.9623377,7.87931429 90.7823434,7.60617143 91.4142166,7.60617143 C91.8573856,7.60617143 92.3005546,7.7536 92.6590927,7.92217143 L93.1874645,5.79245714 C92.7437237,5.66617143 92.532718,5.64502857 92.1530223,5.64502857" id="Fill-21" fill="#000000"></path>
            <path d="M118.158466,11.3358857 C118.158466,9.66788571 117.335029,8.42274286 114.800103,8.42274286 L113.595826,8.42274286 L113.595826,12.1170286 L113.828562,14.1010286 C114.229415,14.2701714 114.630841,14.3753143 115.18037,14.3753143 C116.996505,14.3753143 118.158466,13.2147429 118.158466,11.3358857 L118.158466,11.3358857 Z M114.292317,7.51474286 C116.489863,7.51474286 117.440246,6.52274286 117.440246,4.79188571 C117.440246,3.3776 116.573922,2.32217143 114.736629,2.32217143 L113.595826,2.32217143 L113.595826,7.51474286 L114.292317,7.51474286 Z M109.730249,14.5861714 L111.398852,14.2490286 L111.631015,12.1170286 L111.631015,4.53817143 L111.398852,2.40674286 L109.730249,2.06902857 L109.730249,1.43531429 L115.771643,1.43531429 C118.559891,1.43531429 119.574319,2.76502857 119.574319,4.55988571 C119.574319,5.99474286 118.538734,7.32502857 116.764342,7.83131429 C119.130007,7.7896 120.249652,9.18217143 120.249652,11.1033143 C120.249652,13.4890286 118.707995,15.2410286 114.905891,15.2410286 L109.730249,15.2410286 L109.730249,14.5861714 Z" id="Fill-23" fill="#000000"></path>
            <path d="M133.659317,8.95057143 L135.096328,8.73914286 C135.096328,7.07171429 134.314635,6.20657143 133.152675,6.20657143 C131.970128,6.20657143 131.145548,7.09285714 130.913385,8.95057143 L133.659317,8.95057143 Z M129.054362,10.618 C129.054362,7.40942857 130.68065,5.362 133.321937,5.362 C135.540069,5.362 137.081726,6.79742857 136.997666,9.79514286 L130.891655,9.79514286 C130.891655,9.79514286 130.871069,10.0905714 130.871069,10.2597143 C130.871069,12.6442857 132.032458,14.3334286 134.27232,14.3334286 C134.948796,14.3334286 135.709331,14.1648571 136.448137,13.6157143 L136.87072,14.1854286 C135.666444,15.2837143 134.758376,15.6842857 133.237306,15.6842857 C130.723537,15.6842857 129.054362,13.8688571 129.054362,10.618 L129.054362,10.618 Z" id="Fill-25" fill="#000000"></path>
            <path d="M143.876908,12.7290286 L143.876908,10.6816 C142.630316,10.6816 141.743978,10.8501714 141.172719,11.2090286 C140.602603,11.5261714 140.306967,12.0324571 140.306967,12.6867429 C140.306967,13.5101714 140.877654,14.1856 141.701663,14.1856 C142.398725,14.1856 143.243891,13.6576 143.876908,12.7290286 M138.532575,13.1301714 C138.532575,12.2016 138.934001,11.4204571 139.779167,10.8078857 C140.602603,10.1958857 141.954984,9.87931429 143.876908,9.87931429 L143.876908,8.73931429 C143.876908,7.4096 143.074629,6.62845714 141.785722,6.62845714 C141.004029,6.62845714 140.222336,6.94502857 139.525846,7.57817143 L138.998046,7.00845714 C139.947857,5.93188571 141.236764,5.25645714 142.736105,5.25645714 C144.426437,5.25645714 145.651299,6.16388571 145.651299,8.2536 L145.651299,12.7078857 L145.884034,14.3124571 L147.299316,14.5861714 L147.299316,15.2410286 L143.835164,15.6210286 L144.215432,13.2993143 C143.43431,14.7347429 142.41931,15.6844571 140.982871,15.6844571 C139.589319,15.6844571 138.532575,14.7347429 138.532575,13.1301714" id="Fill-27" fill="#000000"></path>
            <path d="M154.757879,12.9190286 L154.757879,6.67045714 C154.166034,6.41731429 153.701707,6.29045714 153.046961,6.29045714 C151.06042,6.29045714 149.962505,7.93731429 149.962505,10.5333143 C149.962505,12.8344571 150.807671,14.2281714 152.455688,14.2281714 C153.194493,14.2281714 153.975614,13.8898857 154.757879,12.9190286 M148.061166,10.9773143 C148.061166,7.6836 150.131766,5.36188571 153.13102,5.36188571 C153.722293,5.36188571 154.187764,5.42531429 154.757879,5.5516 L154.757879,3.08188571 L154.525144,1.45617143 L152.835955,1.18245714 L152.835955,0.5276 L156.786164,0.1476 L156.553428,3.08188571 L156.553428,12.7081714 L156.786164,14.3121714 L158.158558,14.5864571 L158.158558,15.2407429 L154.757879,15.6841714 L155.074674,13.6790286 C154.102561,14.9881714 153.10929,15.6841714 151.715738,15.6841714 C149.582237,15.6841714 148.061166,13.8476 148.061166,10.9773143" id="Fill-29" fill="#000000"></path>
            <polygon id="Fill-31" fill="#000000" points="163.464349 14.5864571 165.175839 14.2487429 165.386845 12.1167429 165.386845 4.53845714 165.175839 2.40645714 163.464349 2.06874286 163.464349 1.4356 169.294166 1.4356 169.294166 2.06874286 167.583819 2.40645714 167.372242 4.53845714 167.372242 12.0961714 167.583819 13.9744571 169.210107 14.3127429 170.561915 14.3127429 172.358036 13.9744571 172.822363 11.9058857 173.730431 11.9058857 173.519425 15.2413143 163.464349 15.2413143"></polygon>
            <path d="M182.113073,10.4703429 C182.113073,7.66291429 181.205005,6.22748571 179.536402,6.22748571 C177.84607,6.22748571 176.916273,7.5572 176.916273,10.4914857 C176.916273,13.3623429 177.824912,14.7977714 179.472929,14.7977714 C181.162118,14.7977714 182.113073,13.4046286 182.113073,10.4703429 M174.867402,10.6394857 C174.867402,7.59948571 176.514847,5.34062857 179.642191,5.34062857 C182.345808,5.34062857 184.140785,7.15605714 184.140785,10.4492 C184.140785,13.6577714 182.218861,15.7057714 179.408884,15.7057714 C176.705267,15.7057714 174.867402,13.7846286 174.867402,10.6394857" id="Fill-33" fill="#000000"></path>
            <path d="M190.607336,12.7290286 L190.607336,10.6816 C189.360745,10.6816 188.474406,10.8501714 187.903147,11.2090286 C187.333032,11.5261714 187.037395,12.0324571 187.037395,12.6867429 C187.037395,13.5101714 187.608083,14.1856 188.432091,14.1856 C189.129153,14.1856 189.974319,13.6576 190.607336,12.7290286 M185.263004,13.1301714 C185.263004,12.2016 185.664429,11.4204571 186.509595,10.8078857 C187.333032,10.1958857 188.685412,9.87931429 190.607336,9.87931429 L190.607336,8.73931429 C190.607336,7.4096 189.805057,6.62845714 188.51615,6.62845714 C187.734457,6.62845714 186.952764,6.94502857 186.256274,7.57817143 L185.728474,7.00845714 C186.678285,5.93188571 187.967192,5.25645714 189.466533,5.25645714 C191.156866,5.25645714 192.381728,6.16388571 192.381728,8.2536 L192.381728,12.7078857 L192.614463,14.3124571 L194.029745,14.5861714 L194.029745,15.2410286 L190.565592,15.6210286 L190.94586,13.2993143 C190.164739,14.7347429 189.149739,15.6844571 187.713299,15.6844571 C186.319747,15.6844571 185.263004,14.7347429 185.263004,13.1301714" id="Fill-35" fill="#000000"></path>
            <path d="M195.119997,14.5864571 L196.577595,14.3127429 L196.809186,12.7081714 L196.809186,6.69217143 L195.07711,6.69217143 L195.07711,5.9316 L196.809186,5.59388571 L196.852074,4.20074286 C196.936705,1.8156 198.689938,0.000171428571 200.9704,0.000171428571 C201.625719,0.000171428571 202.090617,0.127028571 202.555516,0.2956 L201.858454,2.04817143 C201.308924,1.83674286 200.738809,1.66817143 200.126378,1.66817143 C198.900944,1.66817143 198.204454,2.13217143 198.415459,3.67274286 L198.605307,5.80474286 L201.076189,5.80474286 L201.076189,6.69217143 L198.605307,6.69217143 L198.605307,12.7081714 L198.837471,14.3127429 L200.527803,14.5864571 L200.527803,15.2413143 L195.119997,15.2413143 L195.119997,14.5864571 Z" id="Fill-37" fill="#000000"></path>
            <path d="M0.253492676,38.058 L0.0424870423,34.8494286 L1.11981662,34.8494286 L1.54182789,37.066 C2.26061944,37.4037143 2.91479408,37.6785714 3.78111803,37.6785714 C5.7036138,37.6785714 7.09773775,36.7494286 7.09773775,35.166 C7.09773775,33.3928571 5.40797718,32.738 3.78111803,32.126 C1.7745631,31.3665714 0.000171549296,30.5642857 0.000171549296,28.1368571 C0.000171549296,26.0048571 1.62645887,24.0625714 4.77438845,24.0625714 C5.85171803,24.0625714 7.18236873,24.358 8.32259972,24.7802857 L8.55533493,27.9677143 L7.4991631,27.9677143 L7.03426451,25.7094286 C6.37951803,25.3082857 5.36566169,25.0757143 4.73207296,25.0757143 C2.64088704,25.0757143 1.60530113,26.2368571 1.60530113,27.4397143 C1.60530113,29.15 3.08405606,29.6357143 4.56338282,30.2265714 C6.71747014,31.0922857 8.74575465,31.9997143 8.74575465,34.5962857 C8.74575465,37.1082857 6.71747014,38.7551429 3.6753293,38.7551429 C2.64088704,38.7551429 1.75340535,38.6494286 0.253492676,38.058" id="Fill-39" fill="#000000"></path>
            <path d="M10.0952758,33.8152571 C10.0952758,30.6906857 11.8913969,28.4952571 14.5950138,28.4952571 C15.5030814,28.4952571 16.1789856,28.6009714 17.3409462,29.0021143 L17.5736814,31.5352571 L16.749673,31.5352571 L16.2636166,29.9101143 C15.7569744,29.6986857 15.1651293,29.4878286 14.4892251,29.4878286 C13.0316279,29.4878286 11.8913969,30.5009714 11.8913969,33.1398286 C11.8913969,35.7569714 13.0527856,37.4461143 15.1228138,37.4461143 C15.798718,37.4461143 16.6015687,37.2135429 17.3409462,36.6855429 L17.8058448,37.2769714 C16.6232983,38.3112571 15.3767068,38.8181143 14.1301152,38.8181143 C11.7221349,38.8181143 10.0952758,36.9392571 10.0952758,33.8152571" id="Fill-41" fill="#000000"></path>
            <path d="M18.8919234,37.7203429 L20.3706783,37.4460571 L20.6028417,35.8420571 L20.6028417,26.2157714 L20.3706783,24.5900571 L18.6803459,24.3157714 L18.6803459,23.6614857 L22.6093966,23.2814857 L22.398391,26.2157714 L22.398391,30.1843429 C23.1377685,29.1077714 24.3208868,28.4952 25.5669065,28.4952 C27.4682445,28.4952 28.6090473,29.6563429 28.6090473,31.7889143 L28.6090473,35.8420571 L28.8412107,37.4460571 L30.2988079,37.7203429 L30.2988079,38.3752 L25.3770586,38.3752 L25.3770586,37.7203429 L26.5807628,37.4460571 L26.813498,35.8420571 L26.813498,32.2952 C26.813498,30.8597714 26.1587515,29.9306286 24.7640558,29.9306286 C23.7507713,29.9306286 22.9902361,30.5432 22.398391,31.2186286 L22.398391,35.8420571 L22.6305544,37.4460571 L23.8348304,37.7203429 L23.8348304,38.3752 L18.8919234,38.3752 L18.8919234,37.7203429 Z" id="Fill-43" fill="#000000"></path>
            <path d="M38.0579825,33.6037143 C38.0579825,30.7962857 37.1499149,29.3608571 35.4807403,29.3608571 C33.7909797,29.3608571 32.8617544,30.6905714 32.8617544,33.6254286 C32.8617544,36.4962857 33.769822,37.9311429 35.4178389,37.9311429 C37.1075994,37.9311429 38.0579825,36.5385714 38.0579825,33.6037143 M30.8123121,33.7728571 C30.8123121,30.7334286 32.460329,28.4745714 35.586529,28.4745714 C38.2901459,28.4745714 40.0856952,30.2894286 40.0856952,33.5831429 C40.0856952,36.7911429 38.1637713,38.8391429 35.3537938,38.8391429 C32.6501769,38.8391429 30.8123121,36.9185714 30.8123121,33.7728571" id="Fill-45" fill="#000000"></path>
            <path d="M48.6039183,33.6037143 C48.6039183,30.7962857 47.6958507,29.3608571 46.0266761,29.3608571 C44.3369155,29.3608571 43.4076901,30.6905714 43.4076901,33.6254286 C43.4076901,36.4962857 44.3157577,37.9311429 45.9637746,37.9311429 C47.6535352,37.9311429 48.6039183,36.5385714 48.6039183,33.6037143 M41.3582479,33.7728571 C41.3582479,30.7334286 43.0062648,28.4745714 46.1324648,28.4745714 C48.8360817,28.4745714 50.631631,30.2894286 50.631631,33.5831429 C50.631631,36.7911429 48.709707,38.8391429 45.8997296,38.8391429 C43.1961127,38.8391429 41.3582479,36.9185714 41.3582479,33.7728571" id="Fill-47" fill="#000000"></path>
            <polygon id="Fill-49" fill="#000000" points="51.1855637 37.7203429 52.6643186 37.4460571 52.896482 35.8420571 52.896482 26.2157714 52.6643186 24.5900571 50.9739862 24.3157714 50.9739862 23.6614857 54.9030369 23.2814857 54.6920313 26.2157714 54.6920313 35.8420571 54.9241946 37.4460571 56.3817918 37.7203429 56.3817918 38.3752 51.1855637 38.3752"></polygon>
            <path d="M67.6435456,36.2426857 C68.3411794,35.1872571 68.742033,33.7729714 68.742033,32.1261143 C68.742033,30.6489714 68.4246668,29.7198286 67.4748555,29.7198286 C66.7560639,29.7198286 66.1647907,30.0581143 65.5523597,30.9015429 C64.7918245,31.9152571 64.3480837,33.7518286 64.3480837,35.2929714 C64.3480837,36.7066857 64.7712386,37.5512571 65.6369907,37.5512571 C66.3969541,37.5512571 67.0728583,37.1084 67.6435456,36.2426857 M62.5531062,35.7146857 C62.5531062,33.1821143 63.3971287,31.1129714 65.3830977,29.5506857 C66.1859485,28.9175429 67.3473372,28.4324 68.2136611,28.4324 C69.6506724,28.4324 70.4952668,29.5089714 70.4952668,31.6832571 C70.4952668,33.6255429 69.8828358,35.5038286 68.6362442,36.7912571 C67.4748555,38.0581143 66.1013175,38.7969714 64.7712386,38.7969714 C63.4188583,38.7969714 62.5531062,37.7621143 62.5531062,35.7146857" id="Fill-51" fill="#000000"></path>
            <path d="M67.1487975,43.3989143 L67.5502228,41.5829143 C68.2055411,41.8372 68.9237608,42.0269143 69.5361918,42.0269143 C70.0851496,42.0269143 70.5077327,41.8154857 70.824527,41.3514857 C71.1201637,40.9080571 71.3528989,40.2954857 71.521589,39.4726286 L73.4652425,29.8463429 L71.5850623,29.8463429 L71.5850623,28.9383429 L73.6550904,28.9383429 L73.7185637,28.6646286 C74.1628763,26.6589143 74.6483608,25.4977714 75.7039608,24.5269143 C76.5920144,23.7034857 77.7110876,23.2812 78.5768397,23.2812 C79.1052115,23.2812 79.5277946,23.3446286 80.2671721,23.4926286 L79.844589,25.4349143 C78.9571073,25.0337714 78.0490397,24.8017714 77.4577665,24.8017714 C77.0557693,24.8017714 76.6126003,24.9280571 76.190589,25.3926286 C75.7256904,25.8989143 75.429482,26.9120571 75.3242651,28.9383429 L77.5212397,28.9383429 L77.5212397,29.8463429 L75.1761608,29.8463429 L73.4440848,38.6069143 C73.1478763,40.0634857 72.4508144,41.3514857 71.436958,42.2377714 C70.4654172,43.1029143 69.4721468,43.5463429 68.4165468,43.5463429 C68.1626538,43.5463429 67.5290651,43.5046286 67.1487975,43.3989143" id="Fill-53" fill="#000000"></path>
            <polygon id="Fill-55" fill="#000000" points="84.6639234 37.7203429 86.3748417 37.3820571 86.5864192 35.2506286 86.5864192 27.6723429 86.3748417 25.5403429 84.6639234 25.2026286 84.6639234 24.5689143 94.592053 24.5689143 94.8247882 28.0946286 93.8738332 28.0946286 93.4300924 25.8357714 91.4870107 25.4980571 88.5718163 25.4980571 88.5718163 30.8386286 90.15636 30.8386286 91.7614896 30.6066286 91.9724952 28.8969143 92.7541882 28.8969143 92.7541882 33.6672 91.9724952 33.6672 91.7614896 31.9574857 90.15636 31.7466286 88.5718163 31.7466286 88.5718163 35.2294857 88.782822 37.1083429 90.4096811 37.4460571 91.9724952 37.4460571 93.7474586 37.1083429 94.2123572 35.0397714 95.1204248 35.0397714 94.9094192 38.3752 84.6639234 38.3752"></polygon>
            <path d="M96.2194839,37.7203429 L97.697667,37.4460571 L97.9298304,35.8420571 L97.9298304,31.4929143 L97.697667,29.8677714 L96.0084783,29.5929143 L96.0084783,28.9386286 L99.7259515,28.5592 L99.4937882,30.4586286 C100.35954,29.1283429 101.458028,28.4952 102.894467,28.4952 C104.711746,28.4952 105.894292,29.6986286 105.894292,31.7889143 L105.894292,35.8420571 L106.105298,37.4460571 L107.605211,37.7203429 L107.605211,38.3752 L102.640574,38.3752 L102.640574,37.7203429 L103.845422,37.4460571 L104.056428,35.8420571 L104.056428,32.2952 C104.056428,30.8809143 103.379952,29.9306286 102.049301,29.9306286 C101.247022,29.9306286 100.655749,30.1632 99.7259515,31.1974857 L99.7259515,35.8420571 L99.9581149,37.4460571 L101.162391,37.7203429 L101.162391,38.3752 L96.2194839,38.3752 L96.2194839,37.7203429 Z" id="Fill-57" fill="#000000"></path>
            <g id="Group-61" transform="translate(108.076056, 27.884171)">
                <mask id="mask-4" fill="white">
                    <use xlink:href="#path-3"></use>
                </mask>
                <g id="Clip-60"></g>
                <path d="M6.37054028,4.22125714 C6.37054028,2.55382857 5.79985296,1.32868571 4.42688676,1.32868571 C3.20145296,1.32868571 2.54670648,2.36354286 2.54670648,4.09382857 C2.54670648,5.76182857 3.20145296,6.7544 4.53267549,6.7544 C5.71522197,6.7544 6.37054028,5.78297143 6.37054028,4.22125714 M8.16608958,13.0235429 C8.16608958,12.2218286 7.63771775,11.7572571 5.35668394,11.3766857 L3.32839944,11.0395429 C2.7371262,11.3766857 1.91254592,12.0944 1.91254592,12.8972571 C1.91254592,14.1212571 3.13855155,14.9235429 5.01873183,14.9235429 C6.79255155,14.9235429 8.16608958,14.1424 8.16608958,13.0235429 M0.286258592,13.4458286 C0.286258592,12.3275429 1.38474592,11.3349714 2.50439099,10.8709714 C1.4693769,10.6378286 0.77231493,10.1109714 0.77231493,9.35097143 C0.77231493,8.44354286 1.53227831,7.78868571 2.67308113,7.2184 C1.40590366,6.71211429 0.624210704,5.52982857 0.624210704,4.0104 C0.624210704,2.15211429 1.99774873,0.526971429 4.46920225,0.526971429 C5.27148113,0.526971429 6.01085859,0.674971429 6.8137093,1.18125714 L9.60195718,0.463542857 L9.60195718,1.8144 L7.42671211,1.8144 C7.95451211,2.4904 8.25014873,3.01782857 8.25014873,4.09382857 C8.25014873,5.97268571 6.68733465,7.57782857 4.51094592,7.57782857 C4.2153093,7.57782857 3.83504169,7.55611429 3.49766141,7.47154286 C2.90581634,7.76754286 2.42033183,8.2104 2.42033183,8.54868571 C2.42033183,9.28697143 3.53940507,9.4144 5.18742197,9.66697143 C7.1939769,9.98411429 9.3697938,10.0681143 9.3697938,12.2846857 C9.3697938,14.3326857 7.42671211,16.0001143 4.23646704,16.0001143 C1.95486141,16.0001143 0.286258592,15.0292571 0.286258592,13.4458286" id="Fill-59" fill="#000000" mask="url(#mask-4)"></path>
            </g>
            <polygon id="Fill-62" fill="#000000" points="118.009904 37.7203429 119.488087 37.4460571 119.720251 35.8420571 119.720251 26.2157714 119.488087 24.5900571 117.798899 24.3157714 117.798899 23.6614857 121.727377 23.2814857 121.516372 26.2157714 121.516372 35.8420571 121.748535 37.4460571 123.206704 37.7203429 123.206704 38.3752 118.009904 38.3752"></polygon>
            <path d="M125.497917,24.7591429 C125.497917,24.0414286 126.08919,23.4288571 126.828567,23.4288571 C127.546787,23.4288571 128.159218,24.0202857 128.159218,24.7802857 C128.159218,25.4557143 127.609688,26.0888571 126.828567,26.0888571 C126.109776,26.0888571 125.497917,25.5608571 125.497917,24.7591429 L125.497917,24.7591429 Z M124.399429,37.7202857 L125.877612,37.446 L126.08919,35.842 L126.08919,31.4928571 L125.877612,29.8677143 L124.188424,29.5928571 L124.188424,28.9385714 L128.116903,28.5591429 L127.905897,31.4928571 L127.905897,35.842 L128.116903,37.446 L129.596229,37.7202857 L129.596229,38.3751429 L124.399429,38.3751429 L124.399429,37.7202857 Z" id="Fill-64" fill="#000000"></path>
            <path d="M130.995042,38.2477143 L130.826352,35.7785714 L131.755577,35.7785714 L132.114687,37.4037143 C132.770006,37.6991429 133.276648,37.8682857 134.08007,37.8682857 C135.220301,37.8682857 135.939093,37.2985714 135.939093,36.3277143 C135.939093,35.1025714 134.776561,34.7437143 133.677501,34.3425714 C132.346851,33.794 130.784037,33.3294286 130.784037,31.4294286 C130.784037,29.8254286 132.094101,28.3688571 134.33282,28.3688571 C135.283775,28.3688571 136.213572,28.5591429 137.142225,28.9808571 L137.354375,31.4505714 L136.424577,31.4505714 L135.959679,29.7831429 C135.367834,29.5088571 134.755975,29.3608571 134.08007,29.3608571 C132.960425,29.3608571 132.325693,29.8254286 132.325693,30.7751429 C132.325693,31.9362857 133.509383,32.2951429 134.543825,32.6962857 C136.04431,33.266 137.460163,33.7311429 137.460163,35.6934286 C137.460163,37.4671429 136.023152,38.8602857 133.889651,38.8602857 C133.192017,38.8602857 132.008899,38.6494286 130.995042,38.2477143" id="Fill-66" fill="#000000"></path>
            <path d="M138.284229,37.7203429 L139.763556,37.4460571 L139.995147,35.8420571 L139.995147,26.2157714 L139.763556,24.5900571 L138.073223,24.3157714 L138.073223,23.6614857 L142.002274,23.2814857 L141.791268,26.2157714 L141.791268,30.1843429 C142.530074,29.1077714 143.713764,28.4952 144.960356,28.4952 C146.86055,28.4952 148.001353,29.6563429 148.001353,31.7889143 L148.001353,35.8420571 L148.233516,37.4460571 L149.691685,37.7203429 L149.691685,38.3752 L144.769936,38.3752 L144.769936,37.7203429 L145.97364,37.4460571 L146.205804,35.8420571 L146.205804,32.2952 C146.205804,30.8597714 145.551629,29.9306286 144.156933,29.9306286 C143.143077,29.9306286 142.382542,30.5432 141.791268,31.2186286 L141.791268,35.8420571 L142.023432,37.4460571 L143.22828,37.7203429 L143.22828,38.3752 L138.284229,38.3752 L138.284229,37.7203429 Z" id="Fill-68" fill="#000000"></path>
        </g>
    </g>
</svg>