<svg width="277px" height="72px" viewBox="0 0 277 72" version="1.1" xmlns="http://www.w3.org/2000/svg" xmlns:xlink="http://www.w3.org/1999/xlink">
    <!-- Generator: Sketch 51.3 (57544) - http://www.bohemiancoding.com/sketch -->
    <desc>Created with Sketch.</desc>
    <defs>
        <polygon id="path-1" points="0 0.0003 65.1185 0.0003 65.1185 72 0 72"></polygon>
        <polygon id="path-3" points="0 72 276.286 72 276.286 0 0 0"></polygon>
    </defs>
    <g id="top-level" stroke="none" stroke-width="1" fill="none" fill-rule="evenodd">
        <g id="college-768-copy-4" transform="translate(-32.000000, -24.000000)">
            <g id="Group-Copy-4" transform="translate(32.000000, 24.000000)">
                <polygon id="Fill-1" fill="#FFFFFF" points="59.2627 19.6839 59.2627 10.2229 57.9587 10.2229 57.9587 18.9369 50.9067 23.0729 43.8487 18.9369 43.8487 10.2229 42.5447 10.2229 42.5447 19.6839 50.9067 24.5839"></polygon>
                <g id="Group-53">
                    <path d="M50.2031,21.0662 L50.2031,12.3272 C48.6411,9.4522 45.1631,9.3962 45.1631,9.3962 C45.1141,9.3392 45.1631,18.1342 45.1631,18.1342 C45.1631,18.1342 48.6411,18.1912 50.2031,21.0662" id="Fill-2" fill="#FFFFFF"></path>
                    <path d="M56.5913,18.2093 C56.5913,18.2093 56.6433,9.4143 56.5913,9.4713 C56.5913,9.4713 53.0773,9.5273 51.4983,12.4023 L51.4983,21.1413 C53.0773,18.2653 56.5913,18.2093 56.5913,18.2093" id="Fill-4" fill="#FFFFFF"></path>
                    <path d="M40.3164,57.0565 C40.1614,57.5555 39.8694,57.8655 39.5094,57.8655 C39.1474,57.8655 38.8374,57.5805 38.6834,56.9105 C38.6064,56.5925 38.5634,56.1455 38.5634,55.5695 C38.5634,54.9585 38.6234,54.4695 38.7604,54.0995 C38.9244,53.6445 39.1814,53.3775 39.5174,53.3775 C39.8954,53.3775 40.1874,53.6355 40.3504,54.3055 C40.4374,54.6755 40.4794,55.0625 40.4794,55.6205 C40.4794,56.1975 40.4284,56.6865 40.3164,57.0565 M39.5094,52.6645 C38.3654,52.6645 37.5054,53.8845 37.5054,55.5775 C37.5054,56.8065 37.9874,58.5695 39.4994,58.5695 C40.7034,58.5695 41.5284,57.3825 41.5284,55.6035 C41.5284,54.3575 41.0474,52.6645 39.5094,52.6645" id="Fill-6" fill="#FFFFFF"></path>
                    <path d="M21.5024,15.0706 L18.7854,15.0706 C18.7504,14.1516 18.6424,13.2766 18.4704,12.4606 L20.7954,12.4606 C21.1764,13.2646 21.4234,14.1426 21.5024,15.0706 Z M20.7954,18.9866 L18.4704,18.9866 C18.6424,18.1696 18.7504,17.2946 18.7854,16.3746 L21.5024,16.3746 C21.4234,17.3026 21.1764,18.1806 20.7954,18.9866 Z M16.9684,22.7236 C17.4334,22.0516 17.8244,21.2276 18.1264,20.2896 L20.0104,20.2896 C19.2254,21.3416 18.1814,22.1856 16.9684,22.7236 Z M14.5304,23.2166 L14.5304,20.2896 L16.7584,20.2896 C16.1954,21.8206 15.3784,22.8596 14.5304,23.2166 Z M14.5304,16.3746 L17.4824,16.3746 C17.4444,17.3226 17.3254,18.1976 17.1434,18.9866 L14.5304,18.9866 L14.5304,16.3746 Z M14.5304,12.4606 L17.1434,12.4606 C17.3254,13.2476 17.4444,14.1226 17.4824,15.0706 L14.5304,15.0706 L14.5304,12.4606 Z M14.5304,8.2286 C15.3784,8.5866 16.1964,9.6246 16.7584,11.1566 L14.5304,11.1566 L14.5304,8.2286 Z M20.0104,11.1566 L18.1264,11.1566 C17.8244,10.2186 17.4334,9.3936 16.9684,8.7216 C18.1814,9.2596 19.2254,10.1046 20.0104,11.1566 Z M13.2264,11.1566 L10.9974,11.1566 C11.5604,9.6236 12.3774,8.5856 13.2264,8.2286 L13.2264,11.1566 Z M13.2264,15.0706 L10.2744,15.0706 C10.3124,14.1226 10.4314,13.2476 10.6134,12.4606 L13.2264,12.4606 L13.2264,15.0706 Z M13.2264,18.9866 L10.6134,18.9866 C10.4314,18.1976 10.3124,17.3226 10.2744,16.3746 L13.2264,16.3746 L13.2264,18.9866 Z M13.2264,23.2176 C12.3774,22.8606 11.5604,21.8216 10.9984,20.2896 L13.2264,20.2896 L13.2264,23.2176 Z M7.7464,20.2896 L9.6304,20.2896 C9.9324,21.2266 10.3224,22.0506 10.7874,22.7226 C9.5744,22.1846 8.5314,21.3406 7.7464,20.2896 Z M6.9614,18.9866 C6.5804,18.1806 6.3334,17.3026 6.2534,16.3746 L8.9714,16.3746 C9.0064,17.2946 9.1144,18.1696 9.2864,18.9866 L6.9614,18.9866 Z M6.9614,12.4606 L9.2854,12.4606 C9.1144,13.2766 9.0064,14.1516 8.9714,15.0706 L6.2534,15.0706 C6.3334,14.1426 6.5804,13.2646 6.9614,12.4606 Z M10.7864,8.7226 C10.3224,9.3946 9.9324,10.2186 9.6304,11.1566 L7.7464,11.1566 C8.5314,10.1056 9.5744,9.2606 10.7864,8.7226 Z M13.8784,6.7616 C8.9374,6.7616 4.9174,10.7806 4.9174,15.7226 C4.9174,20.6636 8.9374,24.6836 13.8784,24.6836 C18.8194,24.6836 22.8394,20.6636 22.8394,15.7226 C22.8394,10.7806 18.8194,6.7616 13.8784,6.7616 Z" id="Fill-8" fill="#FFFFFF"></path>
                    <path d="M35.5039,57.0565 C35.3489,57.5555 35.0569,57.8655 34.6959,57.8655 C34.3359,57.8655 34.0259,57.5805 33.8709,56.9105 C33.7939,56.5925 33.7509,56.1455 33.7509,55.5695 C33.7509,54.9585 33.8109,54.4695 33.9489,54.0995 C34.1119,53.6445 34.3699,53.3775 34.7049,53.3775 C35.0829,53.3775 35.3749,53.6355 35.5389,54.3055 C35.6239,54.6755 35.6679,55.0625 35.6679,55.6205 C35.6679,56.1975 35.6159,56.6865 35.5039,57.0565 M34.6959,52.6645 C33.5529,52.6645 32.6939,53.8845 32.6939,55.5775 C32.6939,56.8065 33.1749,58.5695 34.6879,58.5695 C35.8909,58.5695 36.7159,57.3825 36.7159,55.6035 C36.7159,54.3575 36.2339,52.6645 34.6959,52.6645" id="Fill-10" fill="#FFFFFF"></path>
                    <g id="Group-14">
                        <mask id="mask-2" fill="white">
                            <use xlink:href="#path-1"></use>
                        </mask>
                        <g id="Clip-13"></g>
                        <path d="M63.1665,32.3763 C63.1665,32.3763 63.1645,34.4713 62.3155,37.7963 C61.8975,37.7763 61.4275,37.7543 60.7825,37.7243 C58.2745,37.6043 56.2065,38.1223 53.8575,37.7633 C51.5115,37.4053 49.4815,35.2563 46.1785,34.6603 C43.7935,34.2293 41.8205,34.1513 39.1715,34.2313 L39.1715,27.1683 L25.9475,27.1683 L25.9475,34.0073 C25.5395,33.9933 25.1235,33.9833 24.6915,33.9833 C20.9515,33.9833 19.5195,32.9493 15.6195,32.9493 C11.7205,32.9493 5.8315,34.8583 2.5685,35.9733 C2.5165,35.9913 2.4635,36.0083 2.4115,36.0263 C1.9575,33.7463 1.9535,32.3763 1.9535,32.3763 L1.9535,1.9193 L31.7985,1.9193 L31.7985,2.7883 C31.1365,3.0723 30.6685,3.7043 30.6685,4.4483 C30.6685,5.1923 31.1365,5.8233 31.7985,6.1073 L31.7985,7.1623 C30.8015,7.5273 29.0035,8.4023 28.1835,10.1693 C27.4145,11.8283 27.2725,13.2633 27.2655,14.0493 L26.5575,14.0493 L26.5575,15.5703 L38.5625,15.5703 L38.5625,14.0493 L37.8545,14.0493 C37.8465,13.2633 37.7055,11.8283 36.9365,10.1693 C36.1135,8.3993 34.3165,7.5273 33.3195,7.1633 L33.3195,6.1083 C33.9825,5.8243 34.4505,5.1923 34.4505,4.4483 C34.4505,3.7043 33.9825,3.0723 33.3195,2.7873 L33.3195,1.9193 L63.1665,1.9193 L63.1665,32.3763 Z M55.4095,51.9463 L41.3595,43.0683 L41.3595,41.0113 L56.4215,50.5303 C56.1005,50.9993 55.7625,51.4713 55.4095,51.9463 Z M32.5645,69.8493 C22.3835,64.9743 15.5915,59.1893 11.0555,53.6413 L23.7895,45.6653 L41.3605,45.6653 L41.3605,45.6343 L54.0985,53.6143 C49.5675,59.1683 42.7705,64.9643 32.5645,69.8493 Z M25.7275,43.9213 L39.3915,43.9213 L39.3915,38.6723 L25.7275,38.6723 L25.7275,43.9213 Z M31.1495,33.3943 L33.9685,33.3943 L33.9685,28.5163 L31.1495,28.5163 L31.1495,33.3943 Z M23.4865,36.8283 L41.6315,36.8283 L41.6315,35.5243 L23.4865,35.5243 L23.4865,36.8283 Z M8.6735,50.4513 L23.7585,40.9393 L23.7585,42.9953 L9.6845,51.8693 C9.3315,51.3933 8.9955,50.9203 8.6735,50.4513 Z M32.5605,3.6633 C33.0175,3.6633 33.3875,4.0153 33.3875,4.4493 C33.3875,4.8813 33.0175,5.2323 32.5605,5.2323 C32.1025,5.2323 31.7315,4.8813 31.7315,4.4493 C31.7315,4.0153 32.1025,3.6633 32.5605,3.6633 Z M-0.0005,0.0003 L-0.0005,32.9233 C0.0005,32.9793 0.0795,38.8883 4.1565,46.6353 C7.8975,53.7433 15.8605,63.8893 32.5785,72.0003 C49.3095,63.8863 57.2625,53.7413 60.9915,46.6343 C65.0555,38.8883 65.1185,32.9813 65.1185,32.9223 L65.1185,0.0003 L-0.0005,0.0003 Z" id="Fill-12" fill="#FFFFFF" mask="url(#mask-2)"></path>
                    </g>
                    <path d="M29.9262,57.8983 C29.2552,57.8983 28.8252,57.5113 28.8252,56.9103 C28.8252,56.4123 29.1272,56.0683 29.5482,55.8443 C30.1062,56.0773 30.4412,56.2493 30.6562,56.4203 C30.8452,56.5663 30.9402,56.7733 30.9402,57.0393 C30.9402,57.5453 30.5272,57.8983 29.9262,57.8983 M29.8482,53.3523 C30.4252,53.3523 30.7592,53.6273 30.7592,54.0833 C30.7592,54.5553 30.3122,54.8563 29.9342,55.0443 C29.5302,54.8813 28.9372,54.5983 28.9372,54.0993 C28.9372,53.6533 29.2982,53.3523 29.8482,53.3523 M30.6212,55.4063 C31.2152,55.1823 31.7652,54.7873 31.7652,54.0833 C31.7652,53.2413 31.0172,52.6653 29.9342,52.6653 C28.9982,52.6653 27.9832,53.0943 27.9832,54.1853 C27.9832,54.7613 28.3792,55.2863 28.9032,55.5013 C28.2672,55.7243 27.8032,56.2833 27.8032,56.9793 C27.8032,58.1143 28.8432,58.6033 29.8312,58.6033 C30.8192,58.6033 31.9802,57.9853 31.9802,56.8763 C31.9802,56.1623 31.4552,55.7503 30.6212,55.4063" id="Fill-15" fill="#FFFFFF"></path>
                    <mask id="mask-4" fill="white">
                        <use xlink:href="#path-3"></use>
                    </mask>
                    <g id="Clip-18"></g>
                    <polygon id="Fill-17" fill="#FFFFFF" mask="url(#mask-4)" points="27.032 42.618 38.088 42.618 38.088 39.976 27.032 39.976"></polygon>
                    <path d="M35.486,22.697 L36.355,22.697 L36.355,18.329 L35.486,18.329 L35.486,22.697 Z M31.15,22.699 L33.969,22.699 L33.969,18.323 L31.15,18.323 L31.15,22.699 Z M28.763,22.697 L29.632,22.697 L29.632,18.329 L28.763,18.329 L28.763,22.697 Z M37.832,16.874 L27.286,16.874 L27.286,24.353 L24.995,24.353 L24.995,25.874 L40.124,25.874 L40.124,24.353 L37.832,24.353 L37.832,16.874 Z" id="Fill-19" fill="#FFFFFF" mask="url(#mask-4)"></path>
                    <path d="M26.1699,52.7586 L25.4999,52.7586 L23.7729,53.9716 L24.0039,54.4776 C24.1069,54.4436 24.4259,54.3056 24.6569,54.1946 C24.8889,54.0826 25.1559,53.9106 25.2419,53.8596 L25.2419,57.6756 L24.2449,57.6756 L24.2449,58.4406 L26.9689,58.4406 L26.9689,57.6756 L26.1699,57.6756 L26.1699,52.7586 Z" id="Fill-20" fill="#FFFFFF" mask="url(#mask-4)"></path>
                    <path d="M185.2607,37.0203 C184.0167,37.0203 183.0347,37.7163 182.1167,39.2603 C182.1147,39.2363 182.1107,39.2123 182.1097,39.1893 L182.1127,38.9333 C182.1197,38.8223 182.1317,38.7103 182.1447,38.5993 C182.1727,38.3563 182.1997,38.1123 182.2277,37.8693 C182.2687,37.5133 182.3087,37.1573 182.3497,36.8013 L178.4957,37.1953 L178.4957,37.8743 L180.2477,38.1583 L180.4887,39.8433 L180.4887,44.3533 L180.2477,46.0173 L178.7157,46.3013 L178.7157,46.9803 L184.3407,46.9803 L184.3407,46.3013 L182.5897,46.0173 L182.3497,44.3533 L182.3497,43.8293 L182.3497,42.4063 L182.3497,40.8263 L182.3497,40.3923 L182.3497,40.2123 C182.3497,40.1843 182.3517,40.1553 182.3537,40.1243 C182.9877,39.3393 183.8387,39.0563 184.4937,39.0563 C184.9537,39.0563 185.4127,39.2093 185.7857,39.3843 L186.3337,37.1733 C185.8737,37.0413 185.6557,37.0203 185.2607,37.0203" id="Fill-21" fill="#FFFFFF" mask="url(#mask-4)"></path>
                    <path d="M266.4619,13.0013 C265.2179,13.0013 264.2359,13.6973 263.3179,15.2413 C263.3159,15.2173 263.3119,15.1933 263.3109,15.1703 L263.3139,14.9143 C263.3209,14.8033 263.3339,14.6913 263.3469,14.5803 C263.3739,14.3363 263.4009,14.0933 263.4299,13.8503 C263.4699,13.4943 263.5109,13.1383 263.5509,12.7823 L259.6969,13.1753 L259.6969,13.8543 L261.4489,14.1393 L261.6899,15.8243 L261.6899,20.3343 L261.4489,21.9983 L259.9169,22.2823 L259.9169,22.9613 L265.5419,22.9613 L265.5419,22.2823 L263.7909,21.9983 L263.5509,20.3343 L263.5509,19.8103 L263.5509,18.3863 L263.5509,16.8063 L263.5509,16.3733 L263.5509,16.1933 C263.5509,16.1653 263.5529,16.1353 263.5549,16.1053 C264.1889,15.3203 265.0399,15.0373 265.6949,15.0373 C266.1549,15.0373 266.6149,15.1903 266.9869,15.3653 L267.5349,13.1543 C267.0749,13.0223 266.8569,13.0013 266.4619,13.0013" id="Fill-22" fill="#FFFFFF" mask="url(#mask-4)"></path>
                    <path d="M275.2129,13.0013 C273.9689,13.0013 272.9869,13.6973 272.0689,15.2413 C272.0669,15.2173 272.0629,15.1933 272.0619,15.1703 L272.0649,14.9143 C272.0719,14.8033 272.0849,14.6913 272.0979,14.5803 C272.1249,14.3363 272.1519,14.0933 272.1809,13.8503 C272.2209,13.4943 272.2609,13.1383 272.3019,12.7823 L268.4479,13.1753 L268.4479,13.8543 L270.1999,14.1393 L270.4409,15.8243 L270.4409,20.3343 L270.1999,21.9983 L268.6679,22.2823 L268.6679,22.9613 L274.2929,22.9613 L274.2929,22.2823 L272.5419,21.9983 L272.3019,20.3343 L272.3019,19.8103 L272.3019,18.3863 L272.3019,16.8063 L272.3019,16.3733 L272.3019,16.1933 C272.3019,16.1653 272.3039,16.1353 272.3059,16.1053 C272.9399,15.3203 273.7909,15.0373 274.4459,15.0373 C274.9059,15.0373 275.3659,15.1903 275.7379,15.3653 L276.2859,13.1543 C275.8259,13.0223 275.6079,13.0013 275.2129,13.0013" id="Fill-23" fill="#FFFFFF" mask="url(#mask-4)"></path>
                    <polygon id="Fill-24" fill="#FFFFFF" mask="url(#mask-4)" points="80.6343 22.282 82.4093 21.931 82.6283 19.718 82.6283 11.849 82.4093 9.636 80.6343 9.285 80.6343 8.628 85.3683 8.628 86.4863 11.849 89.7963 20.463 93.1923 11.827 94.2233 8.628 98.9573 8.628 98.9573 9.285 97.2033 9.636 96.9623 11.849 96.9623 19.718 97.2033 21.931 98.9573 22.282 98.9573 22.962 92.9083 22.962 92.9083 22.282 94.6613 21.931 94.9033 19.718 94.9033 10.118 91.1333 19.718 90.0153 22.962 88.5913 22.962 87.4063 19.718 83.6153 10.118 83.6153 19.718 83.8563 21.931 85.6093 22.282 85.6093 22.962 80.6343 22.962"></polygon>
                    <path d="M101.7783,8.825 C101.7783,8.079 102.3923,7.444 103.1593,7.444 C103.9043,7.444 104.5403,8.058 104.5403,8.846 C104.5403,9.548 103.9703,10.205 103.1593,10.205 C102.4133,10.205 101.7783,9.658 101.7783,8.825 Z M100.6383,22.282 L102.1733,21.997 L102.3923,20.331 L102.3923,15.816 L102.1733,14.129 L100.4193,13.844 L100.4193,13.164 L104.4963,12.77 L104.2773,15.816 L104.2773,20.331 L104.4963,21.997 L106.0293,22.282 L106.0293,22.962 L100.6383,22.962 L100.6383,22.282 Z" id="Fill-25" fill="#FFFFFF" mask="url(#mask-4)"></path>
                    <path d="M113.8432,20.5506 L113.8432,14.0626 C113.2292,13.8006 112.7472,13.6686 112.0672,13.6686 C110.0072,13.6686 108.8672,15.3786 108.8672,18.0736 C108.8672,20.4626 109.7442,21.9096 111.4542,21.9096 C112.2212,21.9096 113.0322,21.5586 113.8432,20.5506 M106.8942,18.5346 C106.8942,15.1146 109.0432,12.7036 112.1552,12.7036 C112.7692,12.7036 113.2512,12.7706 113.8432,12.9016 L113.8432,10.3376 L113.6012,8.6496 L111.8482,8.3646 L111.8482,7.6846 L115.9472,7.2906 L115.7052,10.3376 L115.7052,20.3316 L115.9472,21.9976 L117.3712,22.2816 L117.3712,22.9616 L113.8432,23.4216 L114.1712,21.3396 C113.1632,22.6986 112.1342,23.4216 110.6862,23.4216 C108.4732,23.4216 106.8942,21.5146 106.8942,18.5346" id="Fill-26" fill="#FFFFFF" mask="url(#mask-4)"></path>
                    <path d="M125.1108,20.5506 L125.1108,14.0626 C124.4978,13.8006 124.0148,13.6686 123.3358,13.6686 C121.2748,13.6686 120.1348,15.3786 120.1348,18.0736 C120.1348,20.4626 121.0118,21.9096 122.7218,21.9096 C123.4888,21.9096 124.2998,21.5586 125.1108,20.5506 M118.1628,18.5346 C118.1628,15.1146 120.3108,12.7036 123.4238,12.7036 C124.0368,12.7036 124.5188,12.7706 125.1108,12.9016 L125.1108,10.3376 L124.8688,8.6496 L123.1158,8.3646 L123.1158,7.6846 L127.2148,7.2906 L126.9738,10.3376 L126.9738,20.3316 L127.2148,21.9976 L128.6398,22.2816 L128.6398,22.9616 L125.1108,23.4216 L125.4398,21.3396 C124.4308,22.6986 123.4018,23.4216 121.9548,23.4216 C119.7408,23.4216 118.1628,21.5146 118.1628,18.5346" id="Fill-27" fill="#FFFFFF" mask="url(#mask-4)"></path>
                    <polygon id="Fill-28" fill="#FFFFFF" mask="url(#mask-4)" points="130.0229 22.282 131.5569 21.997 131.7989 20.331 131.7989 10.337 131.5569 8.649 129.8039 8.365 129.8039 7.685 133.8809 7.29 133.6609 10.337 133.6609 20.331 133.9029 21.997 135.4149 22.282 135.4149 22.962 130.0229 22.962"></polygon>
                    <path d="M140.9785,16.4305 L142.4685,16.2105 C142.4685,14.4795 141.6575,13.5805 140.4525,13.5805 C139.2255,13.5805 138.3705,14.5015 138.1285,16.4305 L140.9785,16.4305 Z M136.2005,18.1615 C136.2005,14.8305 137.8885,12.7035 140.6275,12.7035 C142.9285,12.7035 144.5295,14.1945 144.4415,17.3065 L138.1075,17.3065 C138.1075,17.3065 138.0855,17.6135 138.0855,17.7895 C138.0855,20.2655 139.2915,22.0185 141.6145,22.0185 C142.3155,22.0185 143.1045,21.8445 143.8715,21.2735 L144.3105,21.8655 C143.0605,23.0055 142.1185,23.4215 140.5405,23.4215 C137.9315,23.4215 136.2005,21.5365 136.2005,18.1615 Z" id="Fill-29" fill="#FFFFFF" mask="url(#mask-4)"></path>
                    <path d="M153.4365,17.9866 C153.4365,15.7286 152.4715,14.1946 151.0035,14.1946 C150.1055,14.1946 149.2495,14.5676 148.4605,15.4876 L148.4605,20.3316 L148.6795,22.2386 C149.2075,22.4136 149.5785,22.5016 150.1485,22.5016 C152.4065,22.5016 153.4365,20.4856 153.4365,17.9866 M146.5765,22.9616 L146.5765,10.3376 L146.3565,8.6496 L144.6035,8.3646 L144.6035,7.6846 L148.6795,7.2906 L148.4605,10.3376 L148.4605,14.4576 C149.2715,13.3836 150.4555,12.7036 151.7925,12.7036 C153.8975,12.7036 155.3655,14.5016 155.3655,17.2846 C155.3655,20.6826 153.3275,23.4216 149.3805,23.4216 C148.4605,23.4216 147.8255,23.4216 146.5765,22.9616" id="Fill-30" fill="#FFFFFF" mask="url(#mask-4)"></path>
                    <path d="M157.9082,20.0027 L157.9082,15.8157 L157.6662,14.1287 L155.9572,13.8437 L155.9572,13.1647 L160.0122,12.7707 L159.7922,15.8157 L159.7922,19.4987 C159.7922,21.0107 160.4932,21.9317 161.8752,21.9317 C162.8172,21.9317 163.6722,21.3617 164.2852,20.6167 L164.2852,15.8157 L164.0662,14.1287 L162.3562,13.8437 L162.3562,13.1647 L166.4112,12.7707 L166.1712,15.8157 L166.1712,20.3317 L166.4112,21.9977 L167.9892,22.2817 L167.9892,22.9617 L164.2852,23.3567 L164.5272,21.3837 C163.4962,22.8087 162.5762,23.4217 161.0202,23.4217 C159.0912,23.4217 157.9082,22.1947 157.9082,20.0027" id="Fill-31" fill="#FFFFFF" mask="url(#mask-4)"></path>
                    <polygon id="Fill-32" fill="#FFFFFF" mask="url(#mask-4)" points="178.8525 28.1561 178.8525 27.4111 181.0435 27.0601 181.9865 25.5261 182.9295 23.3121 179.8605 15.8161 178.9615 14.1071 177.9755 13.8441 177.9755 13.1641 182.7755 13.1641 182.7755 13.8441 181.3735 14.1071 181.8995 15.8161 183.8715 20.8791 185.7125 15.8161 186.1945 14.1071 184.8145 13.8441 184.8145 13.1641 188.7585 13.1641 188.7585 13.8441 187.6415 14.1071 186.8085 15.8161 182.0305 28.4411"></polygon>
                    <path d="M175.9277,12.9984 C174.6837,12.9984 173.7007,13.6944 172.7837,15.2384 C172.7817,15.2144 172.7777,15.1914 172.7757,15.1674 L172.7797,14.9114 C172.7857,14.8004 172.7987,14.6884 172.8117,14.5774 C172.8387,14.3334 172.8667,14.0904 172.8947,13.8474 C172.9357,13.4914 172.9757,13.1354 173.0157,12.7794 L169.1627,13.1724 L169.1627,13.8514 L170.9137,14.1364 L171.1557,15.8214 L171.1557,20.3314 L170.9137,21.9954 L169.3827,22.2794 L169.3827,22.9584 L175.0077,22.9584 L175.0077,22.2794 L173.2567,21.9954 L173.0157,20.3314 L173.0157,19.8074 L173.0157,18.3834 L173.0157,16.8044 L173.0157,16.3704 L173.0157,16.1904 C173.0157,16.1624 173.0177,16.1324 173.0207,16.1024 C173.6547,15.3174 174.5047,15.0344 175.1607,15.0344 C175.6207,15.0344 176.0797,15.1874 176.4527,15.3624 L176.9997,13.1514 C176.5397,13.0194 176.3217,12.9984 175.9277,12.9984" id="Fill-33" fill="#FFFFFF" mask="url(#mask-4)"></path>
                    <path d="M194.4111,15.8382 C194.4111,11.8052 196.6911,8.2762 201.9731,8.2762 C203.3321,8.2762 204.5151,8.3862 206.3121,8.7582 L206.5321,12.0902 L205.4581,12.0902 L204.9541,9.6352 C204.1211,9.3502 203.0691,9.1532 201.9071,9.1532 C198.5541,9.1532 196.6251,11.5862 196.6251,15.4432 C196.6251,19.4322 198.5541,22.4352 202.1261,22.4352 C203.0251,22.4352 204.2531,22.2162 205.1291,21.8432 L205.6331,19.4992 L206.7071,19.4992 L206.4881,22.8522 C204.9751,23.1152 203.9451,23.3122 201.7101,23.3122 C196.5381,23.3122 194.4111,20.1122 194.4111,15.8382" id="Fill-34" fill="#FFFFFF" mask="url(#mask-4)"></path>
                    <path d="M208.4619,21.8651 C208.4619,21.1421 209.0319,20.4631 209.8639,20.4631 C210.5879,20.4631 211.2669,21.0321 211.2669,21.8651 C211.2669,22.5671 210.7189,23.2461 209.8639,23.2461 C209.1419,23.2461 208.4619,22.7201 208.4619,21.8651" id="Fill-35" fill="#FFFFFF" mask="url(#mask-4)"></path>
                    <polygon id="Fill-36" fill="#FFFFFF" mask="url(#mask-4)" points="215.5341 19.7176 212.7951 11.8486 211.8521 9.6346 210.2531 9.2846 210.2531 8.6276 215.9731 8.6276 215.9731 9.2846 214.3501 9.6346 214.8991 11.8486 218.0771 20.9886 221.1011 11.8486 221.5841 9.6346 219.8751 9.2846 219.8751 8.6276 224.7401 8.6276 224.7401 9.2846 223.1391 9.6346 222.1541 11.8936 219.5231 19.7176 218.5151 23.2246 216.6301 23.2246"></polygon>
                    <path d="M222.664,21.8651 C222.664,21.1421 223.234,20.4631 224.067,20.4631 C224.79,20.4631 225.47,21.0321 225.47,21.8651 C225.47,22.5671 224.922,23.2461 224.067,23.2461 C223.344,23.2461 222.664,22.7201 222.664,21.8651" id="Fill-37" fill="#FFFFFF" mask="url(#mask-4)"></path>
                    <path d="M232.1347,22.6326 L231.9147,19.3016 L233.0327,19.3016 L233.4717,21.6026 C234.2167,21.9526 234.8967,22.2376 235.7947,22.2376 C237.7887,22.2376 239.2367,21.2736 239.2367,19.6296 C239.2367,17.7896 237.4827,17.1096 235.7947,16.4736 C233.7117,15.6846 231.8717,14.8516 231.8717,12.3316 C231.8717,10.1176 233.5597,8.1016 236.8247,8.1016 C237.9437,8.1016 239.3227,8.4076 240.5067,8.8456 L240.7487,12.1556 L239.6527,12.1556 L239.1697,9.8106 C238.4897,9.3946 237.4397,9.1536 236.7807,9.1536 C234.6117,9.1536 233.5377,10.3586 233.5377,11.6086 C233.5377,13.3836 235.0717,13.8876 236.6057,14.5016 C238.8417,15.4006 240.9467,16.3416 240.9467,19.0376 C240.9467,21.6466 238.8417,23.3556 235.6857,23.3556 C234.6117,23.3556 233.6907,23.2466 232.1347,22.6326" id="Fill-38" fill="#FFFFFF" mask="url(#mask-4)"></path>
                    <path d="M243.5781,21.0545 L243.5781,14.0855 L241.8691,14.0855 L241.8691,13.2955 L243.5781,12.9445 L243.5781,10.4245 L245.4641,10.0745 L245.4641,13.1635 L248.1381,13.1635 L248.1381,14.0855 L245.4641,14.0855 L245.4641,20.3315 C245.4641,21.4495 245.8581,21.9525 246.6691,21.9525 C247.0191,21.9525 247.6111,21.8435 248.1161,21.5145 L248.5321,22.2165 C247.4361,23.0935 246.7131,23.4215 245.7261,23.4215 C244.6521,23.4215 243.5781,22.8735 243.5781,21.0545" id="Fill-39" fill="#FFFFFF" mask="url(#mask-4)"></path>
                    <path d="M255.2021,20.3528 L255.2021,18.2278 C253.9091,18.2278 252.9891,18.4028 252.3971,18.7748 C251.8061,19.1038 251.4981,19.6298 251.4981,20.3098 C251.4981,21.1638 252.0901,21.8648 252.9451,21.8648 C253.6691,21.8648 254.5461,21.3178 255.2021,20.3528 M249.6571,20.7698 C249.6571,19.8058 250.0741,18.9948 250.9511,18.3578 C251.8061,17.7228 253.2081,17.3948 255.2021,17.3948 L255.2021,16.2108 C255.2021,14.8298 254.3701,14.0188 253.0321,14.0188 C252.2221,14.0188 251.4101,14.3478 250.6871,15.0058 L250.1401,14.4138 C251.1261,13.2958 252.4631,12.5948 254.0181,12.5948 C255.7721,12.5948 257.0431,13.5368 257.0431,15.7068 L257.0431,20.3318 L257.2851,21.9978 L258.7541,22.2818 L258.7541,22.9608 L255.1591,23.3558 L255.5541,20.9448 C254.7431,22.4358 253.6901,23.4218 252.2001,23.4218 C250.7541,23.4218 249.6571,22.4358 249.6571,20.7698" id="Fill-40" fill="#FFFFFF" mask="url(#mask-4)"></path>
                    <path d="M80.605,46.6522 L80.386,43.3202 L81.503,43.3202 L81.942,45.6222 C82.688,45.9722 83.367,46.2572 84.265,46.2572 C86.26,46.2572 87.707,45.2932 87.707,43.6492 C87.707,41.8082 85.953,41.1292 84.265,40.4932 C82.183,39.7042 80.342,38.8712 80.342,36.3502 C80.342,34.1372 82.03,32.1202 85.295,32.1202 C86.413,32.1202 87.794,32.4272 88.978,32.8652 L89.219,36.1752 L88.123,36.1752 L87.641,33.8302 C86.961,33.4142 85.909,33.1722 85.251,33.1722 C83.082,33.1722 82.008,34.3782 82.008,35.6272 C82.008,37.4032 83.542,37.9072 85.077,38.5202 C87.312,39.4192 89.416,40.3612 89.416,43.0572 C89.416,45.6662 87.312,47.3752 84.156,47.3752 C83.082,47.3752 82.161,47.2652 80.605,46.6522" id="Fill-41" fill="#FFFFFF" mask="url(#mask-4)"></path>
                    <path d="M90.8164,42.2469 C90.8164,39.0029 92.6794,36.7239 95.4854,36.7239 C96.4274,36.7239 97.1284,36.8329 98.3344,37.2489 L98.5754,39.8789 L97.7204,39.8789 L97.2164,38.1919 C96.6904,37.9729 96.0764,37.7529 95.3754,37.7529 C93.8624,37.7529 92.6794,38.8059 92.6794,41.5449 C92.6794,44.2629 93.8854,46.0169 96.0324,46.0169 C96.7334,46.0169 97.5664,45.7749 98.3344,45.2269 L98.8164,45.8409 C97.5894,46.9149 96.2954,47.4409 95.0034,47.4409 C92.5044,47.4409 90.8164,45.4899 90.8164,42.2469" id="Fill-42" fill="#FFFFFF" mask="url(#mask-4)"></path>
                    <path d="M99.9433,46.3006 L101.4773,46.0166 L101.7183,44.3506 L101.7183,34.3556 L101.4773,32.6686 L99.7233,32.3836 L99.7233,31.7046 L103.8003,31.3096 L103.5813,34.3556 L103.5813,38.4766 C104.3483,37.3586 105.5753,36.7236 106.8693,36.7236 C108.8413,36.7236 110.0253,37.9286 110.0253,40.1426 L110.0253,44.3506 L110.2663,46.0166 L111.7783,46.3006 L111.7783,46.9806 L106.6723,46.9806 L106.6723,46.3006 L107.9213,46.0166 L108.1623,44.3506 L108.1623,40.6676 C108.1623,39.1776 107.4823,38.2136 106.0363,38.2136 C104.9843,38.2136 104.1953,38.8496 103.5813,39.5506 L103.5813,44.3506 L103.8223,46.0166 L105.0713,46.3006 L105.0713,46.9806 L99.9433,46.9806 L99.9433,46.3006 Z" id="Fill-43" fill="#FFFFFF" mask="url(#mask-4)"></path>
                    <path d="M119.8291,42.0272 C119.8291,39.1122 118.8871,37.6222 117.1551,37.6222 C115.4021,37.6222 114.4371,39.0032 114.4371,42.0482 C114.4371,45.0302 115.3801,46.5202 117.0891,46.5202 C118.8431,46.5202 119.8291,45.0742 119.8291,42.0272 M112.3111,42.2032 C112.3111,39.0472 114.0211,36.7012 117.2651,36.7012 C120.0701,36.7012 121.9331,38.5862 121.9331,42.0062 C121.9331,45.3372 119.9391,47.4632 117.0231,47.4632 C114.2181,47.4632 112.3111,45.4682 112.3111,42.2032" id="Fill-44" fill="#FFFFFF" mask="url(#mask-4)"></path>
                    <path d="M130.771,42.0272 C130.771,39.1122 129.829,37.6222 128.097,37.6222 C126.344,37.6222 125.379,39.0032 125.379,42.0482 C125.379,45.0302 126.322,46.5202 128.032,46.5202 C129.785,46.5202 130.771,45.0742 130.771,42.0272 M123.253,42.2032 C123.253,39.0472 124.963,36.7012 128.207,36.7012 C131.012,36.7012 132.875,38.5862 132.875,42.0062 C132.875,45.3372 130.881,47.4632 127.965,47.4632 C125.16,47.4632 123.253,45.4682 123.253,42.2032" id="Fill-45" fill="#FFFFFF" mask="url(#mask-4)"></path>
                    <polygon id="Fill-46" fill="#FFFFFF" mask="url(#mask-4)" points="133.4497 46.3006 134.9837 46.0166 135.2247 44.3506 135.2247 34.3556 134.9837 32.6686 133.2297 32.3836 133.2297 31.7046 137.3067 31.3096 137.0877 34.3556 137.0877 44.3506 137.3287 46.0166 138.8407 46.3006 138.8407 46.9806 133.4497 46.9806"></polygon>
                    <path d="M140.5127,46.8494 L140.3377,44.2844 L141.3017,44.2844 L141.6737,45.9724 C142.3537,46.2794 142.8797,46.4544 143.7127,46.4544 C144.8967,46.4544 145.6417,45.8634 145.6417,44.8544 C145.6417,43.5824 144.4367,43.2104 143.2957,42.7934 C141.9147,42.2244 140.2937,41.7424 140.2937,39.7694 C140.2937,38.1044 141.6527,36.5924 143.9757,36.5924 C144.9617,36.5924 145.9257,36.7894 146.8907,37.2274 L147.1107,39.7904 L146.1457,39.7904 L145.6627,38.0604 C145.0497,37.7754 144.4137,37.6214 143.7127,37.6214 C142.5507,37.6214 141.8937,38.1044 141.8937,39.0894 C141.8937,40.2954 143.1207,40.6674 144.1957,41.0844 C145.7507,41.6764 147.2197,42.1594 147.2197,44.1974 C147.2197,46.0374 145.7287,47.4844 143.5157,47.4844 C142.7917,47.4844 141.5647,47.2654 140.5127,46.8494" id="Fill-47" fill="#FFFFFF" mask="url(#mask-4)"></path>
                    <path d="M161.4912,40.5154 L159.5402,34.7944 L157.5022,40.5154 L161.4912,40.5154 Z M152.6802,46.3004 L154.3452,45.9514 L155.3102,43.7374 L159.4302,32.4274 L160.8112,32.4274 L164.7782,43.7374 L165.7202,45.9514 L167.2772,46.3004 L167.2772,46.9804 L161.6222,46.9804 L161.6222,46.3004 L163.2012,45.9514 L162.6092,43.7374 L161.7982,41.4354 L157.1952,41.4354 L156.3412,43.7374 L155.7702,45.9514 L157.3922,46.3004 L157.3922,46.9804 L152.6802,46.9804 L152.6802,46.3004 Z" id="Fill-48" fill="#FFFFFF" mask="url(#mask-4)"></path>
                    <path d="M175.624,42.0057 C175.624,39.7477 174.66,38.2137 173.191,38.2137 C172.293,38.2137 171.438,38.5857 170.649,39.5067 L170.649,44.3507 L170.868,46.2577 C171.395,46.4327 171.767,46.5207 172.337,46.5207 C174.594,46.5207 175.624,44.5047 175.624,42.0057 M168.764,46.9807 L168.764,34.3557 L168.545,32.6687 L166.791,32.3837 L166.791,31.7047 L170.868,31.3097 L170.649,34.3557 L170.649,38.4767 C171.46,37.4027 172.644,36.7237 173.98,36.7237 C176.085,36.7237 177.553,38.5207 177.553,41.3047 C177.553,44.7007 175.515,47.4417 171.569,47.4417 C170.649,47.4417 170.014,47.4417 168.764,46.9807" id="Fill-49" fill="#FFFFFF" mask="url(#mask-4)"></path>
                    <path d="M194.5078,42.0272 C194.5078,39.1122 193.5668,37.6222 191.8348,37.6222 C190.0808,37.6222 189.1168,39.0032 189.1168,42.0482 C189.1168,45.0302 190.0598,46.5202 191.7688,46.5202 C193.5228,46.5202 194.5078,45.0742 194.5078,42.0272 M186.9898,42.2032 C186.9898,39.0472 188.6998,36.7012 191.9448,36.7012 C194.7488,36.7012 196.6118,38.5862 196.6118,42.0062 C196.6118,45.3372 194.6178,47.4632 191.7028,47.4632 C188.8978,47.4632 186.9898,45.4682 186.9898,42.2032" id="Fill-50" fill="#FFFFFF" mask="url(#mask-4)"></path>
                    <path d="M203.6504,44.3719 L203.6504,42.2469 C202.3574,42.2469 201.4374,42.4219 200.8454,42.7939 C200.2544,43.1229 199.9464,43.6489 199.9464,44.3289 C199.9464,45.1839 200.5384,45.8849 201.3934,45.8849 C202.1174,45.8849 202.9934,45.3369 203.6504,44.3719 M198.1054,44.7889 C198.1054,43.8249 198.5224,43.0139 199.3984,42.3779 C200.2544,41.7419 201.6564,41.4139 203.6504,41.4139 L203.6504,40.2299 C203.6504,38.8499 202.8184,38.0379 201.4814,38.0379 C200.6704,38.0379 199.8594,38.3669 199.1354,39.0239 L198.5884,38.4329 C199.5744,37.3149 200.9114,36.6139 202.4674,36.6139 C204.2204,36.6139 205.4924,37.5559 205.4924,39.7259 L205.4924,44.3509 L205.7334,46.0169 L207.2014,46.3009 L207.2014,46.9799 L203.6064,47.3749 L204.0014,44.9639 C203.1904,46.4549 202.1384,47.4409 200.6484,47.4409 C199.2014,47.4409 198.1054,46.4549 198.1054,44.7889" id="Fill-51" fill="#FFFFFF" mask="url(#mask-4)"></path>
                    <path d="M215.0498,44.5692 L215.0498,38.0822 C214.4368,37.8192 213.9538,37.6872 213.2748,37.6872 C211.2138,37.6872 210.0738,39.3972 210.0738,42.0922 C210.0738,44.4812 210.9508,45.9282 212.6608,45.9282 C213.4278,45.9282 214.2388,45.5782 215.0498,44.5692 M208.1018,42.5532 C208.1018,39.1342 210.2498,36.7232 213.3628,36.7232 C213.9758,36.7232 214.4578,36.7892 215.0498,36.9212 L215.0498,34.3562 L214.8088,32.6682 L213.0558,32.3842 L213.0558,31.7042 L217.1538,31.3102 L216.9128,34.3562 L216.9128,44.3502 L217.1538,46.0162 L218.5788,46.3002 L218.5788,46.9802 L215.0498,47.4412 L215.3788,45.3582 C214.3698,46.7172 213.3398,47.4412 211.8938,47.4412 C209.6798,47.4412 208.1018,45.5342 208.1018,42.5532" id="Fill-52" fill="#FFFFFF" mask="url(#mask-4)"></path>
                </g>
            </g>
        </g>
    </g>
</svg>
