<svg width="243" height="32" viewBox="0 0 243 32" fill="none" xmlns="http://www.w3.org/2000/svg">
<g clip-path="url(#clip0_479_1009)">
<path d="M0 28.1034H4.26596V5.07588H0V1.67871H13.1978L20.27 22.1616H20.45L27.4355 1.67871H40.4067V5.07588H35.9141V28.0967H40.4067V31.4939H26.209V28.0967H30.0617V5.66206H29.6551L20.45 31.4939H17.7771L8.34529 5.66206H7.93869V28.0967H11.978V31.4939H0V28.0967V28.1034Z" fill="white"/>
<path d="M43.0467 28.1432H46.6728V13.8684H43.0467V10.5179H51.9786V28.1499H55.6046V31.5071H43.04V28.1499L43.0467 28.1432ZM45.5863 3.4438C45.5863 1.45212 46.9927 0 49.0324 0C51.072 0 52.4318 1.31224 52.4318 3.31057C52.4318 5.30891 51.072 6.75437 49.0324 6.75437C46.9927 6.75437 45.5863 5.3955 45.5863 3.4438Z" fill="white"/>
<path d="M59.9433 29.7289C57.9502 27.7372 56.9971 24.6065 56.9971 21.256C56.9971 17.7189 58.1769 14.3684 60.0832 12.4167C61.5763 10.9645 63.4827 10.1519 65.709 10.1519C68.7485 10.1519 70.7881 11.604 72.1012 13.7755V3.81049H68.7018V0.273438H77.407V28.1435H80.3999V31.5007H72.3279V27.151C70.8748 30.2351 68.4752 31.9537 65.389 31.9537C63.2094 31.9537 61.3097 31.0944 59.9499 29.7356L59.9433 29.7289ZM72.3279 20.9828C72.3279 16.9462 70.8281 13.4624 67.4753 13.4624C64.3425 13.4624 62.7561 16.2268 62.7561 21.0761C62.7561 25.9254 64.7091 28.5965 67.4753 28.5965C70.2416 28.5965 72.3279 25.6523 72.3279 20.9828Z" fill="white"/>
<path d="M84.7997 29.7289C82.8067 27.7372 81.8535 24.6065 81.8535 21.256C81.8535 17.7189 83.0333 14.3684 84.9397 12.4167C86.4328 10.9645 88.3391 10.1519 90.5654 10.1519C93.6049 10.1519 95.6446 11.604 96.9577 13.7755V3.81049H93.5583V0.273438H102.263V28.1435H105.256V31.5007H97.1843V27.151C95.7312 30.2351 93.3316 31.9537 90.2455 31.9537C88.0658 31.9537 86.1661 31.0944 84.8064 29.7356L84.7997 29.7289ZM97.1843 20.9828C97.1843 16.9462 95.6846 13.4624 92.3318 13.4624C89.199 13.4624 87.6126 16.2268 87.6126 21.0761C87.6126 25.9254 89.5656 28.5965 92.3318 28.5965C95.098 28.5965 97.1843 25.6523 97.1843 20.9828Z" fill="white"/>
<path d="M116.728 21.9819H118.227C120.72 27.6505 124.26 30.3216 128.706 30.3216C132.105 30.3216 134.738 28.3699 134.738 24.4731C134.738 20.21 131.792 19.1709 126.619 17.8586C121.767 16.633 117.141 15.0943 117.141 9.51892C117.141 4.66963 120.587 1.27246 125.986 1.27246C129.299 1.27246 131.972 2.72458 133.745 4.66963L134.651 1.40568H136.238V10.7446H134.745C132.752 5.03599 129.259 2.90443 125.766 2.90443C122.727 2.90443 119.96 4.80951 119.96 8.52642C119.96 12.8295 123.226 13.782 127.486 14.9144C133.065 16.4065 137.551 17.5855 137.551 23.2075C137.551 28.3765 133.785 32.0002 128.479 32.0002C124.58 32.0002 121.72 30.4615 119.32 27.9702L118.321 31.867H116.734V21.9885L116.728 21.9819Z" fill="white"/>
<path d="M146.496 5.12207V11.197H153.075V13.0088H146.496V26.3311C146.496 28.3694 147.403 29.595 149.129 29.595C150.855 29.595 151.848 28.4626 152.668 25.9247L153.981 26.3777C152.895 30.3677 150.989 31.6799 148.496 31.6799C145.23 31.6799 143.596 29.6416 143.596 26.1512V13.0088H139.424V11.197H143.596V5.57503L146.496 5.12207Z" fill="white"/>
<path d="M156.048 21.4353C156.048 15.0873 160.4 10.7842 165.48 10.7842C170.559 10.7842 174.911 14.8208 174.911 21.0689C174.911 27.3171 170.559 31.6734 165.48 31.6734C160.4 31.6734 156.048 27.6834 156.048 21.4286V21.4353ZM171.785 21.2088C171.785 15.1339 168.519 12.4162 165.346 12.4162C162.174 12.4162 159.181 15.2738 159.181 21.3021C159.181 27.3304 162.447 30.0481 165.62 30.0481C168.792 30.0481 171.785 27.2371 171.785 21.2088Z" fill="white"/>
<path d="M176.884 29.4616H180.33V13.0087H176.884V11.1969H183.143V15.9596C184.683 12.5624 187.042 10.8838 189.402 10.8838C191.308 10.8838 192.395 12.196 192.395 13.7414C192.395 15.007 191.488 16.0994 190.175 16.0994C188.995 16.0994 188.089 15.2402 188.089 14.0145C188.089 13.6548 188.182 13.3351 188.315 13.0153C185.909 12.7422 183.783 16.0062 183.236 17.6848V29.4683H187.315V31.2801H176.884V29.4683V29.4616Z" fill="white"/>
<path d="M194.788 29.4621H198.687V13.0091H194.788V11.1973H201.594V29.4621H205.493V31.2739H194.788V29.4621ZM197.648 4.12318C197.648 2.85757 198.554 1.8584 199.867 1.8584C201 1.8584 202 2.76431 202 4.07655C202 5.38879 201.047 6.34133 199.867 6.34133C198.594 6.34133 197.648 5.48205 197.648 4.12318Z" fill="white"/>
<path d="M209.979 21.3489C210.025 26.791 212.792 29.6886 216.598 29.6886C219.091 29.6886 221.27 28.7827 222.497 25.5654H224.176C222.91 29.5554 220.05 31.6869 216.151 31.6869C210.572 31.6869 206.853 27.5637 206.853 21.4421C206.853 15.3206 211.072 10.791 216.151 10.791C221.863 10.791 224.45 16.0067 224.316 21.3489H209.985H209.979ZM210.072 19.5371H221.23C220.91 14.9609 219.097 12.423 216.058 12.423C213.018 12.423 210.525 15.0941 210.072 19.5371Z" fill="white"/>
<path d="M227.669 24.0666H229.169C230.255 27.8768 232.568 30.0949 236.108 30.0949C238.647 30.0949 240.507 28.7827 240.507 26.6978C240.507 24.4796 238.967 23.567 234.928 22.4346C229.942 21.0292 228.036 19.4438 228.036 16.4996C228.036 13.5554 230.715 10.791 234.654 10.791C237.101 10.791 239.1 11.6969 240.14 13.2823L240.687 10.791H242.14V17.6786H240.733C239.28 14.1416 237.834 12.3764 234.654 12.3764C232.475 12.3764 230.662 13.602 230.662 15.5471C230.662 17.4921 232.295 18.6778 236.061 19.7169C241.14 21.169 243 22.4346 243 25.7452C243 28.7827 240.414 31.6803 236.241 31.6803C233.295 31.6803 231.028 30.5013 229.622 28.7361L229.122 31.6803H227.669V24.0666Z" fill="white"/>
</g>
<defs>
<clipPath id="clip0_479_1009">
<rect width="243" height="32" fill="white"/>
</clipPath>
</defs>
</svg>
