<?xml version="1.0" encoding="UTF-8"?>
<svg width="66px" height="72px" viewBox="0 0 66 72" version="1.1" xmlns="http://www.w3.org/2000/svg" xmlns:xlink="http://www.w3.org/1999/xlink">
    <!-- Generator: Sketch 54.1 (76490) - https://sketchapp.com -->
    <title>midd-shield-navy</title>
    <desc>Created with Sketch.</desc>
    <defs>
        <polygon id="path-1" points="0.0004 0.0005 65.267 0.0005 65.267 71.9995 0.0004 71.9995"></polygon>
        <polygon id="path-3" points="0 72 65.267 72 65.267 0 0 0"></polygon>
    </defs>
    <g id="logos" stroke="none" stroke-width="1" fill="none" fill-rule="evenodd">
        <g id="midd-office-logo">
            <g id="Group-9">
                <g id="midd-shield-navy">
                    <polygon id="Fill-1" fill="#FFFFFF" points="1.2166 1.0125 1.2166 24.4835 1.2166 35.0585 2.4666 40.8025 9.4116 53.3255 16.7716 60.6625 25.8056 67.5365 32.3416 71.0785 38.0566 68.6485 44.6556 64.0645 50.6036 59.1345 54.8956 55.3845 57.8696 50.7325 61.5216 44.5185 63.0196 40.8875 64.8246 33.6875 64.8246 1.0125"></polygon>
                    <g id="Group-54" transform="translate(0.250000, 0.000000)">
                        <g id="Group-4">
                            <mask id="mask-2" fill="white">
                                <use xlink:href="#path-1"></use>
                            </mask>
                            <g id="Clip-3"></g>
                            <path d="M1.6264,1.6265 L1.6264,32.9815 C1.6264,33.0345 1.7024,38.6615 5.5844,46.0395 C9.1474,52.8085 16.7304,62.4715 32.6514,70.1945 C48.5844,62.4685 56.1594,52.8065 59.7094,46.0385 C63.5804,38.6615 63.6404,33.0365 63.6404,32.9805 L63.6404,1.6265 L1.6264,1.6265 Z M32.6514,71.9995 L32.2994,71.8315 C15.6824,63.8605 7.7904,53.7665 4.0944,46.7005 C0.0624,38.9895 0.0004,33.2255 0.0004,32.9835 L0.0004,0.0005 L65.2674,0.0005 L65.2674,32.9815 C65.2674,33.2235 65.2224,38.9855 61.2004,46.6965 C57.5174,53.7625 49.6344,63.8565 33.0024,71.8315 L32.6514,71.9995 Z" id="Fill-2" fill="#022543" mask="url(#mask-2)"></path>
                        </g>
                        <path d="M20.8916,12.2579 C20.1576,11.2739 19.1806,10.4829 18.0446,9.9799 C18.4796,10.6089 18.8466,11.3809 19.1286,12.2579 L20.8916,12.2579 Z" id="Fill-5" fill="#022543"></path>
                        <path d="M15.7636,9.5186 L15.7636,12.2576 L17.8486,12.2576 C17.3226,10.8246 16.5576,9.8526 15.7636,9.5186" id="Fill-7" fill="#022543"></path>
                        <path d="M11.7817,15.9205 L14.5437,15.9205 L14.5437,13.4775 L12.0987,13.4775 C11.9277,14.2145 11.8167,15.0335 11.7817,15.9205" id="Fill-9" fill="#022543"></path>
                        <path d="M12.4585,12.2579 L14.5435,12.2579 L14.5435,9.5179 C13.7495,9.8519 12.9845,10.8239 12.4585,12.2579" id="Fill-11" fill="#022543"></path>
                        <path d="M12.0986,19.584 L14.5436,19.584 L14.5436,17.14 L11.7816,17.14 C11.8166,18.028 11.9286,18.847 12.0986,19.584" id="Fill-13" fill="#022543"></path>
                        <path d="M14.5439,23.543 L14.5439,20.804 L12.4589,20.804 C12.9849,22.237 13.7499,23.209 14.5439,23.543" id="Fill-15" fill="#022543"></path>
                        <path d="M10.5625,17.1402 L8.0205,17.1402 C8.0935,18.0092 8.3255,18.8302 8.6815,19.5842 L10.8565,19.5842 C10.6955,18.8202 10.5955,18.0012 10.5625,17.1402" id="Fill-17" fill="#022543"></path>
                        <path d="M18.2085,13.4776 L15.7635,13.4776 L15.7635,15.9206 L18.5255,15.9206 C18.4905,15.0336 18.3785,14.2146 18.2085,13.4776" id="Fill-19" fill="#022543"></path>
                        <path d="M10.8564,13.4776 L8.6814,13.4776 C8.3244,14.2306 8.0934,15.0526 8.0204,15.9206 L10.5624,15.9206 C10.5954,15.0606 10.6954,14.2416 10.8564,13.4776" id="Fill-21" fill="#022543"></path>
                        <path d="M9.4165,20.8038 C10.1505,21.7868 11.1265,22.5768 12.2615,23.0798 C11.8275,22.4518 11.4615,21.6808 11.1785,20.8038 L9.4165,20.8038 Z" id="Fill-23" fill="#022543"></path>
                        <path d="M19.7451,15.9205 L22.2871,15.9205 C22.2141,15.0525 21.9831,14.2315 21.6261,13.4775 L19.4511,13.4775 C19.6111,14.2415 19.7121,15.0605 19.7451,15.9205" id="Fill-25" fill="#022543"></path>
                        <path d="M12.2612,9.981 C11.1262,10.484 10.1502,11.274 9.4162,12.258 L11.1782,12.258 C11.4612,11.38 11.8272,10.609 12.2612,9.981" id="Fill-27" fill="#022543"></path>
                        <path d="M19.4507,19.584 L21.6257,19.584 C21.9827,18.831 22.2137,18.009 22.2877,17.14 L19.7447,17.14 C19.7127,18.001 19.6117,18.82 19.4507,19.584" id="Fill-29" fill="#022543"></path>
                        <path d="M57.6196,20.2369 L49.8016,24.8219 L41.9766,20.2369 L41.9766,11.3839 L43.1966,11.3839 L43.1966,19.5379 L49.8016,23.4079 L56.3996,19.5379 L56.3996,11.3839 L57.6196,11.3839 L57.6196,20.2369 Z M44.4276,10.6109 C44.4276,10.6109 47.6816,10.6629 49.1426,13.3539 L49.1426,21.5299 C47.6816,18.8399 44.4276,18.7869 44.4276,18.7869 C44.4276,18.7869 44.3806,10.5569 44.4276,10.6109 L44.4276,10.6109 Z M50.3546,13.4239 C51.8316,10.7339 55.1196,10.6809 55.1196,10.6809 C55.1686,10.6279 55.1196,18.8569 55.1196,18.8569 C55.1196,18.8569 51.8316,18.9099 50.3546,21.6009 L50.3546,13.4239 Z M39.7116,26.0289 L25.5556,26.0289 L25.5556,24.6059 L27.6996,24.6059 L27.6996,17.6089 L37.5666,17.6089 L37.5666,24.6059 L39.7116,24.6059 L39.7116,26.0289 Z M15.1546,24.9159 C10.5306,24.9159 6.7686,21.1539 6.7686,16.5299 C6.7686,11.9069 10.5306,8.1459 15.1546,8.1459 C19.7776,8.1459 23.5386,11.9069 23.5386,16.5299 C23.5386,21.1539 19.7776,24.9159 15.1546,24.9159 L15.1546,24.9159 Z M33.3456,3.6149 L33.3456,4.4269 C33.9656,4.6929 34.4036,5.2849 34.4036,5.9819 C34.4036,6.6769 33.9656,7.2689 33.3456,7.5339 L33.3456,8.5219 C34.2776,8.8619 35.9596,9.6779 36.7286,11.3339 C37.4486,12.8859 37.5806,14.2289 37.5876,14.9649 L38.2506,14.9649 L38.2506,16.3879 L27.0166,16.3879 L27.0166,14.9649 L27.6806,14.9649 C27.6866,14.2289 27.8186,12.8859 28.5386,11.3339 C29.3066,9.6809 30.9886,8.8619 31.9216,8.5199 L31.9216,7.5329 C31.3026,7.2679 30.8646,6.6769 30.8646,5.9819 C30.8646,5.2849 31.3026,4.6939 31.9216,4.4279 L31.9216,3.6149 L3.9956,3.6149 L3.9956,32.1129 C3.9956,32.1129 3.9996,33.3949 4.4236,35.5279 C4.4726,35.5109 4.5226,35.4959 4.5716,35.4789 C7.6246,34.4359 13.1346,32.6489 16.7836,32.6489 C20.4316,32.6489 21.7716,33.6169 25.2716,33.6169 C25.6756,33.6169 26.0646,33.6259 26.4466,33.6389 L26.4466,27.2399 L38.8206,27.2399 L38.8206,33.8489 C41.2986,33.7739 43.1456,33.8459 45.3766,34.2499 C48.4676,34.8079 50.3666,36.8189 52.5626,37.1539 C54.7596,37.4889 56.6956,37.0059 59.0406,37.1169 C59.6456,37.1459 60.0856,37.1659 60.4766,37.1839 C61.2706,34.0739 61.2726,32.1129 61.2726,32.1129 L61.2726,3.6149 L33.3456,3.6149 Z" id="Fill-31" fill="#022543"></path>
                        <path d="M18.5258,17.1402 L15.7638,17.1402 L15.7638,19.5842 L18.2088,19.5842 C18.3788,18.8472 18.4898,18.0282 18.5258,17.1402" id="Fill-33" fill="#022543"></path>
                        <path d="M15.7636,23.543 C16.5576,23.208 17.3226,22.237 17.8486,20.804 L15.7636,20.804 L15.7636,23.543 Z" id="Fill-35" fill="#022543"></path>
                        <path d="M18.0449,23.0811 C19.1799,22.5781 20.1569,21.7881 20.8909,20.8041 L19.1279,20.8041 C18.8459,21.6811 18.4799,22.4531 18.0449,23.0811" id="Fill-37" fill="#022543"></path>
                        <mask id="mask-4" fill="white">
                            <use xlink:href="#path-3"></use>
                        </mask>
                        <g id="Clip-40"></g>
                        <polygon id="Fill-39" fill="#022543" mask="url(#mask-4)" points="31.315 33.066 33.953 33.066 33.953 28.502 31.315 28.502"></polygon>
                        <path d="M30.8525,54.6109 C30.6515,54.4509 30.3385,54.2899 29.8155,54.0719 C29.4215,54.2819 29.1395,54.6029 29.1395,55.0689 C29.1395,55.6319 29.5415,55.9939 30.1695,55.9939 C30.7325,55.9939 31.1185,55.6649 31.1185,55.1899 C31.1185,54.9409 31.0305,54.7479 30.8525,54.6109" id="Fill-41" fill="#022543" mask="url(#mask-4)"></path>
                        <path d="M30.1772,53.3248 C30.5312,53.1468 30.9492,52.8658 30.9492,52.4238 C30.9492,51.9978 30.6362,51.7398 30.0972,51.7398 C29.5822,51.7398 29.2442,52.0208 29.2442,52.4398 C29.2442,52.9068 29.7992,53.1718 30.1772,53.3248" id="Fill-42" fill="#022543" mask="url(#mask-4)"></path>
                        <path d="M34.6411,51.7642 C34.3271,51.7642 34.0861,52.0142 33.9331,52.4402 C33.8051,52.7852 33.7481,53.2432 33.7481,53.8152 C33.7481,54.3542 33.7881,54.7722 33.8611,55.0692 C34.0061,55.6972 34.2951,55.9622 34.6331,55.9622 C34.9711,55.9622 35.2441,55.6722 35.3891,55.2052 C35.4931,54.8602 35.5421,54.4022 35.5421,53.8632 C35.5421,53.3402 35.5011,52.9792 35.4211,52.6322 C35.2681,52.0052 34.9951,51.7642 34.6411,51.7642" id="Fill-43" fill="#022543" mask="url(#mask-4)"></path>
                        <path d="M39.1274,56.6216 C37.7124,56.6216 37.2614,54.9736 37.2614,53.8226 C37.2614,52.2386 38.0664,51.0976 39.1364,51.0976 C40.5754,51.0976 41.0254,52.6816 41.0254,53.8476 C41.0254,55.5116 40.2544,56.6216 39.1274,56.6216 L39.1274,56.6216 Z M34.6254,56.6216 C33.2094,56.6216 32.7594,54.9736 32.7594,53.8226 C32.7594,52.2386 33.5634,51.0976 34.6324,51.0976 C36.0724,51.0976 36.5224,52.6816 36.5224,53.8476 C36.5224,55.5116 35.7504,56.6216 34.6254,56.6216 L34.6254,56.6216 Z M30.0814,56.6536 C29.1564,56.6536 28.1834,56.1956 28.1834,55.1336 C28.1834,54.4826 28.6174,53.9596 29.2114,53.7506 C28.7224,53.5506 28.3524,53.0586 28.3524,52.5196 C28.3524,51.4996 29.3014,51.0976 30.1774,51.0976 C31.1904,51.0976 31.8904,51.6356 31.8904,52.4236 C31.8904,53.0826 31.3754,53.4526 30.8204,53.6616 C31.6004,53.9836 32.0914,54.3696 32.0914,55.0366 C32.0914,56.0746 31.0054,56.6536 30.0814,56.6536 L30.0814,56.6536 Z M27.4024,56.5006 L24.8534,56.5006 L24.8534,55.7856 L25.7864,55.7856 L25.7864,52.2146 C25.7064,52.2636 25.4564,52.4236 25.2394,52.5276 C25.0234,52.6326 24.7254,52.7616 24.6274,52.7936 L24.4114,52.3186 L26.0274,51.1846 L26.6554,51.1846 L26.6554,55.7856 L27.4024,55.7856 L27.4024,56.5006 Z M40.8694,44.5176 L40.8694,44.5466 L24.4274,44.5466 L12.5124,52.0116 C16.7564,57.2016 23.1124,62.6146 32.6384,67.1776 C42.1874,62.6056 48.5474,57.1836 52.7874,51.9846 L40.8694,44.5176 Z" id="Fill-44" fill="#022543" mask="url(#mask-4)"></path>
                        <path d="M39.144,51.7642 C38.83,51.7642 38.589,52.0142 38.436,52.4402 C38.308,52.7852 38.251,53.2432 38.251,53.8152 C38.251,54.3542 38.291,54.7722 38.364,55.0692 C38.508,55.6972 38.798,55.9622 39.136,55.9622 C39.474,55.9622 39.747,55.6722 39.892,55.2052 C39.997,54.8602 40.044,54.4022 40.044,53.8632 C40.044,53.3402 40.004,52.9792 39.924,52.6322 C39.771,52.0052 39.498,51.7642 39.144,51.7642" id="Fill-45" fill="#022543" mask="url(#mask-4)"></path>
                        <polygon id="Fill-46" fill="#022543" mask="url(#mask-4)" points="24.145 36.278 41.123 36.278 41.123 35.058 24.145 35.058"></polygon>
                        <path d="M27.461,41.696 L37.806,41.696 L37.806,39.224 L27.461,39.224 L27.461,41.696 Z M26.241,42.916 L39.026,42.916 L39.026,38.005 L26.241,38.005 L26.241,42.916 Z" id="Fill-47" fill="#022543" mask="url(#mask-4)"></path>
                        <polygon id="Fill-48" fill="#022543" mask="url(#mask-4)" points="31.315 23.058 33.953 23.058 33.953 18.963 31.315 18.963"></polygon>
                        <polygon id="Fill-49" fill="#022543" mask="url(#mask-4)" points="29.082 23.056 29.895 23.056 29.895 18.969 29.082 18.969"></polygon>
                        <polygon id="Fill-50" fill="#022543" mask="url(#mask-4)" points="35.373 23.056 36.186 23.056 36.186 18.969 35.373 18.969"></polygon>
                        <path d="M33.4082,5.982 C33.4082,6.386 33.0612,6.714 32.6342,6.714 C32.2062,6.714 31.8592,6.386 31.8592,5.982 C31.8592,5.576 32.2062,5.247 32.6342,5.247 C33.0612,5.247 33.4082,5.576 33.4082,5.982" id="Fill-51" fill="#022543" mask="url(#mask-4)"></path>
                        <path d="M24.3984,40.1255 L10.2834,49.0255 C10.5844,49.4645 10.8994,49.9065 11.2294,50.3525 L24.3984,42.0485 L24.3984,40.1255 Z" id="Fill-52" fill="#022543" mask="url(#mask-4)"></path>
                        <path d="M40.8681,42.1168 L54.0141,50.4258 C54.3441,49.9808 54.6601,49.5388 54.9611,49.0998 L40.8681,40.1928 L40.8681,42.1168 Z" id="Fill-53" fill="#022543" mask="url(#mask-4)"></path>
                    </g>
                </g>
            </g>
        </g>
    </g>
</svg>
