<svg width="184" height="33" viewBox="0 0 184 33" fill="none" xmlns="http://www.w3.org/2000/svg">
<path d="M184 20.6879C184 29.0348 179.647 32.6698 172.646 32.6698C168.967 32.6698 165.197 32.0415 162.729 31.0094V1.25653L170.717 0V12.5204C172.063 11.1293 173.903 9.73812 176.371 9.73812C180.814 9.73812 184 13.1487 184 20.6879ZM176.057 21.2713C176.057 17.9953 175.025 16.8285 173.499 16.8285C172.467 16.8285 171.614 17.4568 170.717 18.3543V26.073C171.39 26.2974 171.794 26.3872 172.422 26.3872C174.397 26.3872 176.057 25.1306 176.057 21.2713Z" fill="white"/>
<path d="M158.78 32.4005H151.599L151.106 29.4387C149.131 31.4581 147.202 32.8493 144.554 32.8493C140.47 32.8493 138.316 30.2914 138.316 25.8486V10.1869H146.304V23.6048C146.304 24.9062 146.843 25.8486 148.144 25.8486C149.086 25.8486 149.894 25.355 150.792 24.5024V10.1869H158.78V32.4005Z" fill="white"/>
<path d="M134.054 32.4005H124.854V20.5981H116.283V32.4005H107.083V1.43603H116.283V12.6551H124.854V1.43603H134.054V32.4005Z" fill="white"/>
<path d="M90.1289 32.8044C88.0198 32.8044 86.0452 31.9518 84.6989 30.6055C82.7244 28.6309 81.782 25.6242 81.782 22.438C81.782 19.1172 82.9488 15.7066 84.8784 13.777C86.3593 12.296 88.2441 11.4883 90.4879 11.4883C93.4946 11.4883 95.4692 12.9692 96.7706 15.0784V4.80173H93.36V1.57065H100.989V29.4387H103.996V32.4005H96.8604V28.1822C95.3346 31.2786 92.8664 32.8044 90.1289 32.8044ZM91.6099 29.9772C94.3024 29.9772 96.8604 27.1052 96.8604 22.079C96.8604 17.9953 95.2448 14.3155 91.6099 14.3155C88.3339 14.3155 86.4491 17.1875 86.4491 22.079C86.4491 27.15 88.8275 29.9772 91.6099 29.9772Z" fill="white"/>
<path d="M65.4126 32.8044C63.3035 32.8044 61.3289 31.9518 59.9826 30.6055C58.0081 28.6309 57.0657 25.6242 57.0657 22.438C57.0657 19.1172 58.2325 15.7066 60.1621 13.777C61.643 12.296 63.5278 11.4883 65.7716 11.4883C68.7783 11.4883 70.7529 12.9692 72.0543 15.0784V4.80173H68.6437V1.57065H76.2727V29.4387H79.2794V32.4005H72.144V28.1822C70.6183 31.2786 68.1501 32.8044 65.4126 32.8044ZM66.8935 29.9772C69.5861 29.9772 72.144 27.1052 72.144 22.079C72.144 17.9953 70.5285 14.3155 66.8935 14.3155C63.6176 14.3155 61.7328 17.1875 61.7328 22.079C61.7328 27.15 64.1112 29.9772 66.8935 29.9772Z" fill="white"/>
<path d="M48.3859 7.53917C46.6358 7.53917 45.469 6.41727 45.469 4.62223C45.469 2.82718 46.6358 1.57065 48.3859 1.57065C50.1361 1.57065 51.3029 2.73743 51.3029 4.53247C51.3029 6.32752 50.1361 7.53917 48.3859 7.53917ZM42.8213 32.4005V29.4387H46.546V14.8091H42.8213V11.8473H50.7644V29.4387H54.4891V32.4005H42.8213Z" fill="white"/>
<path d="M0 32.4005V29.4387H4.53249V5.83389H0V2.87207H12.2063L19.7006 24.7267H19.8352L27.4642 2.87207H39.4461V5.83389H34.6892V29.4387H39.4461V32.4005H26.1179V29.4387H30.067V6.1929H29.6631L20.1943 32.4005H17.8607L8.2572 6.1929H7.85332V29.4387H12.0717V32.4005H0Z" fill="white"/>
</svg>
