<svg width="361" height="72" viewBox="0 0 361 72" fill="none" xmlns="http://www.w3.org/2000/svg">
<g id="miis-logo">
<rect width="361" height="72.0001" fill="white"/>
<g id="Group 3">
<g id="Group">
<g id="Group 68">
<mask id="mask0" mask-type="alpha" maskUnits="userSpaceOnUse" x="0" y="0" width="66" height="72">
<path id="Clip 67" fill-rule="evenodd" clip-rule="evenodd" d="M0 0.000114441H65.2669V72H0V0.000114441Z" fill="white"/>
</mask>
<g mask="url(#mask0)">
<path id="Fill 66" fill-rule="evenodd" clip-rule="evenodd" d="M1.62675 1.62686V32.9817C1.62675 33.0346 1.70212 38.6619 5.58562 46.0396C9.14738 52.8087 16.731 62.4702 32.652 70.1956C48.5854 62.468 56.1589 52.8065 59.7094 46.0385C63.5805 38.6619 63.6413 33.0357 63.6413 32.9806V1.62686H1.62675ZM32.652 72.0001L32.2999 71.8314C15.6825 63.8607 7.79062 53.7661 4.095 46.7011C0.0618749 38.9892 0 33.2247 0 32.984V0.000114441H65.2669V32.9817C65.2669 33.2225 65.2219 38.9859 61.2011 46.6977C57.5168 53.7616 49.6339 63.8574 33.003 71.8314L32.652 72.0001Z" fill="#0D395F"/>
</g>
</g>
<path id="Fill 69" fill-rule="evenodd" clip-rule="evenodd" d="M20.8918 12.2578C20.1572 11.2734 19.1807 10.4825 18.0455 9.97965C18.4798 10.6085 18.8465 11.3803 19.1289 12.2578H20.8918Z" fill="#0D395F"/>
<path id="Fill 71" fill-rule="evenodd" clip-rule="evenodd" d="M15.7634 9.51829V12.2577H17.8491C17.3226 10.8244 16.5576 9.85241 15.7634 9.51829Z" fill="#0D395F"/>
<path id="Fill 73" fill-rule="evenodd" clip-rule="evenodd" d="M11.782 15.9206H14.5439V13.4782H12.0981C11.9282 14.2139 11.8169 15.0329 11.782 15.9206Z" fill="#0D395F"/>
<path id="Fill 75" fill-rule="evenodd" clip-rule="evenodd" d="M12.4581 12.2578H14.5439V9.5184C13.7496 9.85253 12.9846 10.8245 12.4581 12.2578Z" fill="#0D395F"/>
<path id="Fill 77" fill-rule="evenodd" clip-rule="evenodd" d="M12.0984 19.584H14.5441V17.1405H11.7822C11.8171 18.0281 11.9285 18.8471 12.0984 19.584Z" fill="#0D395F"/>
<path id="Fill 79" fill-rule="evenodd" clip-rule="evenodd" d="M14.5439 23.5434V20.8041H12.4581C12.9846 22.2373 13.7496 23.2093 14.5439 23.5434Z" fill="#0D395F"/>
<path id="Fill 81" fill-rule="evenodd" clip-rule="evenodd" d="M10.5625 17.1406H8.02002C8.09427 18.0091 8.32489 18.8304 8.68152 19.5841H10.8573C10.6964 18.8202 10.5951 18.0012 10.5625 17.1406Z" fill="#0D395F"/>
<path id="Fill 83" fill-rule="evenodd" clip-rule="evenodd" d="M18.2085 13.4777H15.7639V15.9201H18.5257C18.4897 15.0336 18.3795 14.2146 18.2085 13.4777Z" fill="#0D395F"/>
<path id="Fill 85" fill-rule="evenodd" clip-rule="evenodd" d="M10.8564 13.4777H8.68176C8.32514 14.2304 8.09339 15.0527 8.02026 15.9201H10.5628C10.5954 15.0606 10.6955 14.2416 10.8564 13.4777Z" fill="#0D395F"/>
<path id="Fill 87" fill-rule="evenodd" clip-rule="evenodd" d="M9.41656 20.804C10.1501 21.7872 11.1266 22.577 12.2617 23.0798C11.8274 22.4521 11.4607 21.6803 11.1783 20.804H9.41656Z" fill="#0D395F"/>
<path id="Fill 89" fill-rule="evenodd" clip-rule="evenodd" d="M19.7454 15.9206H22.2879C22.2137 15.0532 21.9831 14.2308 21.6264 13.4782H19.4507C19.6116 14.2409 19.7117 15.0599 19.7454 15.9206Z" fill="#0D395F"/>
<path id="Fill 91" fill-rule="evenodd" clip-rule="evenodd" d="M12.261 9.98077C11.127 10.4836 10.1505 11.2745 9.41589 12.2578H11.1788C11.4611 11.3803 11.8268 10.6096 12.261 9.98077Z" fill="#0D395F"/>
<path id="Fill 93" fill-rule="evenodd" clip-rule="evenodd" d="M19.4504 19.584H21.6262C21.9817 18.8314 22.2146 18.009 22.2877 17.1405H19.7452C19.7114 18.0011 19.6113 18.8201 19.4504 19.584Z" fill="#0D395F"/>
<path id="Fill 95" fill-rule="evenodd" clip-rule="evenodd" d="M57.6197 20.2366L49.8009 24.8221L41.9765 20.2366V11.384H43.1972V19.538L49.8009 23.408L56.4002 19.538V11.384H57.6197V20.2366ZM44.4268 10.61C44.4268 10.61 47.6814 10.6629 49.1428 13.3539V21.5304C47.6814 18.8394 44.4268 18.7865 44.4268 18.7865C44.4268 18.7865 44.3807 10.5571 44.4268 10.61ZM50.3544 13.4236C51.8315 10.7337 55.1199 10.6809 55.1199 10.6809C55.1683 10.628 55.1199 18.8574 55.1199 18.8574C55.1199 18.8574 51.8315 18.9091 50.3544 21.6001V13.4236ZM39.7119 26.0281H25.556V24.605H27.6992V17.6086H37.5665V24.605H39.7119V26.0281ZM15.1543 24.9155C10.5305 24.9155 6.76855 21.1535 6.76855 16.5309C6.76855 11.9071 10.5305 8.14511 15.1543 8.14511C19.7769 8.14511 23.5389 11.9071 23.5389 16.5309C23.5389 21.1535 19.7769 24.9155 15.1543 24.9155ZM33.3455 3.61474V4.42699C33.9654 4.69361 34.403 5.28424 34.403 5.98174C34.403 6.67699 33.9654 7.26874 33.3455 7.53424V8.52086C34.277 8.86174 35.96 9.67736 36.7284 11.3345C37.4484 12.8859 37.58 14.2291 37.5879 14.9649H38.2505V16.388H27.0174V14.9649H27.68C27.6868 14.2291 27.8184 12.8859 28.5384 11.3345C29.3068 9.68074 30.9887 8.86174 31.9224 8.51974V7.53311C31.3014 7.26761 30.8638 6.67699 30.8638 5.98174C30.8638 5.28424 31.3014 4.69474 31.9224 4.42811V3.61474H3.99542V32.1132C3.99542 32.1132 3.99992 33.3946 4.42405 35.5287C4.47242 35.5119 4.52192 35.495 4.57142 35.4781C7.62467 34.4364 13.1349 32.6487 16.7833 32.6487C20.4317 32.6487 21.7715 33.6174 25.2725 33.6174C25.6753 33.6174 26.0645 33.6252 26.447 33.6399V27.2397H38.8209V33.8491C41.2993 33.7737 43.1454 33.8469 45.3774 34.2496C48.4678 34.8087 50.3668 36.8191 52.5628 37.1544C54.7599 37.4885 56.6949 37.0047 59.0417 37.1172C59.6458 37.1454 60.0857 37.1656 60.4772 37.1847C61.2703 34.073 61.2725 32.1132 61.2725 32.1132V3.61474H33.3455Z" fill="#0D395F"/>
<path id="Fill 97" fill-rule="evenodd" clip-rule="evenodd" d="M18.5259 17.1406H15.7629V19.5841H18.2087C18.3797 18.8472 18.4899 18.0282 18.5259 17.1406Z" fill="#0D395F"/>
<path id="Fill 99" fill-rule="evenodd" clip-rule="evenodd" d="M15.7634 23.5429C16.5576 23.2076 17.3226 22.2367 17.8491 20.8035H15.7634V23.5429Z" fill="#0D395F"/>
<path id="Fill 101" fill-rule="evenodd" clip-rule="evenodd" d="M18.0453 23.081C19.1805 22.5781 20.157 21.7872 20.8916 20.804H19.1287C18.8452 21.6815 18.4796 22.4521 18.0453 23.081Z" fill="#0D395F"/>
<path id="Fill 103" fill-rule="evenodd" clip-rule="evenodd" d="M31.3143 33.066H33.9525V28.5019H31.3143V33.066Z" fill="#0D395F"/>
<path id="Fill 105" fill-rule="evenodd" clip-rule="evenodd" d="M30.8526 54.6111C30.6512 54.4502 30.3384 54.2894 29.8153 54.0722C29.4216 54.2815 29.1403 54.6032 29.1403 55.069C29.1403 55.6315 29.5419 55.9937 30.1697 55.9937C30.7322 55.9937 31.1181 55.6641 31.1181 55.1905C31.1181 54.9407 31.0303 54.7472 30.8526 54.6111Z" fill="#0D395F"/>
<path id="Fill 106" fill-rule="evenodd" clip-rule="evenodd" d="M30.1769 53.3247C30.5301 53.1469 30.9498 52.8668 30.9498 52.4235C30.9498 51.9972 30.6359 51.7407 30.097 51.7407C29.5818 51.7407 29.2443 52.0219 29.2443 52.4393C29.2443 52.9062 29.8 53.1717 30.1769 53.3247Z" fill="#0D395F"/>
<path id="Fill 107" fill-rule="evenodd" clip-rule="evenodd" d="M33.9336 52.4396C33.8043 52.785 33.7491 53.2429 33.7491 53.8144C33.7491 54.3544 33.7885 54.7729 33.8605 55.0699C34.0056 55.6965 34.2948 55.962 34.6323 55.962C34.9709 55.962 35.2431 55.6729 35.3894 55.206C35.4929 54.8606 35.5413 54.4028 35.5413 53.8628C35.5413 53.3396 35.5019 52.9785 35.4209 52.632C35.2679 52.0054 34.9945 51.7646 34.6413 51.7646C34.3274 51.7646 34.0855 52.0144 33.9336 52.4396Z" fill="#0D395F"/>
<path id="Fill 108" fill-rule="evenodd" clip-rule="evenodd" d="M39.1275 56.6216C37.7123 56.6216 37.2623 54.9723 37.2623 53.8226C37.2623 52.2386 38.0666 51.0967 39.1365 51.0967C40.5765 51.0967 41.0254 52.6807 41.0254 53.8462C41.0254 55.5123 40.2536 56.6216 39.1275 56.6216ZM34.6253 56.6216C33.2089 56.6216 32.7589 54.9723 32.7589 53.8226C32.7589 52.2386 33.5633 51.0967 34.632 51.0967C36.072 51.0967 36.5231 52.6807 36.5231 53.8462C36.5231 55.5123 35.7514 56.6216 34.6253 56.6216ZM30.0803 56.6531C29.1566 56.6531 28.1824 56.1952 28.1824 55.1343C28.1824 54.483 28.6178 53.9598 29.2129 53.7506C28.7213 53.5503 28.3523 53.0587 28.3523 52.5198C28.3523 51.4983 29.3006 51.0967 30.177 51.0967C31.1906 51.0967 31.8904 51.6356 31.8904 52.4242C31.8904 53.0823 31.3751 53.4536 30.8205 53.6617C31.6013 53.9835 32.0918 54.3693 32.0918 55.0376C32.0918 56.0748 31.005 56.6531 30.0803 56.6531ZM27.4028 56.5012H24.8535V55.7857H25.7861V52.2138C25.7063 52.2633 25.4565 52.4242 25.2394 52.5277C25.0223 52.6323 24.7253 52.7606 24.6285 52.7932L24.4114 52.3196L26.028 51.1845H26.6558V55.7857H27.4028V56.5012ZM40.869 44.5188V44.547H24.4271L12.5123 52.0102C16.7569 57.2021 23.112 62.6145 32.6385 67.1775C42.1875 62.6055 48.5483 57.183 52.7873 51.9843L40.869 44.5188Z" fill="#0D395F"/>
<path id="Fill 109" fill-rule="evenodd" clip-rule="evenodd" d="M39.144 51.7646C38.8301 51.7646 38.5893 52.0144 38.4363 52.4396C38.307 52.785 38.2518 53.2429 38.2518 53.8144C38.2518 54.3544 38.2912 54.7729 38.3643 55.0699C38.5083 55.6965 38.7975 55.962 39.1361 55.962C39.4736 55.962 39.747 55.6729 39.8921 55.206C39.9967 54.8606 40.044 54.4028 40.044 53.8628C40.044 53.3396 40.0046 52.9785 39.9236 52.632C39.7706 52.0054 39.4972 51.7646 39.144 51.7646Z" fill="#0D395F"/>
<path id="Fill 110" fill-rule="evenodd" clip-rule="evenodd" d="M24.1448 36.2779H41.1222V35.0584H24.1448V36.2779Z" fill="#0D395F"/>
<path id="Fill 111" fill-rule="evenodd" clip-rule="evenodd" d="M27.4612 41.6959H37.8067V39.2243H27.4612V41.6959ZM26.2406 42.9165H39.0262V38.0048H26.2406V42.9165Z" fill="#0D395F"/>
<path id="Fill 112" fill-rule="evenodd" clip-rule="evenodd" d="M31.3143 23.058H33.9525V18.963H31.3143V23.058Z" fill="#0D395F"/>
<path id="Fill 113" fill-rule="evenodd" clip-rule="evenodd" d="M29.0801 23.0558H29.8935V18.9686H29.0801V23.0558Z" fill="#0D395F"/>
<path id="Fill 114" fill-rule="evenodd" clip-rule="evenodd" d="M35.3722 23.0558H36.1856V18.9686H35.3722V23.0558Z" fill="#0D395F"/>
<path id="Fill 115" fill-rule="evenodd" clip-rule="evenodd" d="M33.4086 5.9823C33.4086 6.38618 33.0621 6.71468 32.6346 6.71468C32.206 6.71468 31.8595 6.38618 31.8595 5.9823C31.8595 5.57505 32.206 5.24655 32.6346 5.24655C33.0621 5.24655 33.4086 5.57505 33.4086 5.9823Z" fill="#0D395F"/>
<path id="Fill 116" fill-rule="evenodd" clip-rule="evenodd" d="M24.3981 40.1257L10.2839 49.0256C10.5842 49.4655 10.8992 49.9065 11.2289 50.352L24.3981 42.0483V40.1257Z" fill="#0D395F"/>
<path id="Fill 117" fill-rule="evenodd" clip-rule="evenodd" d="M40.8683 42.1175L54.0139 50.4257C54.3447 49.9802 54.6597 49.5392 54.9612 49.0993L40.8683 40.1927V42.1175Z" fill="#0D395F"/>
</g>
</g>
<g id="Group_2">
<path id="Vector" d="M117.315 36.5066C116.147 36.5066 115.231 37.153 114.382 38.6001C114.382 38.5808 114.372 38.5519 114.372 38.5326V38.2914C114.382 38.1853 114.392 38.0792 114.401 37.9827C114.43 37.7512 114.449 37.5293 114.478 37.2977C114.517 36.9697 114.556 36.632 114.594 36.304L110.996 36.6706V37.3074L112.636 37.5775L112.858 39.1501V43.3661L112.636 44.9193L111.208 45.1895V45.8262H116.466V45.1895L114.826 44.9193L114.604 43.3661C114.604 43.202 114.604 43.038 114.604 42.874C114.604 42.4302 114.604 41.9865 114.604 41.5427C114.604 41.0506 114.604 40.5586 114.604 40.0666C114.604 39.9315 114.604 39.7964 114.604 39.6614C114.604 39.6035 114.604 39.5456 114.604 39.4974C114.604 39.4684 114.604 39.4395 114.604 39.4105C115.192 38.6773 115.993 38.4168 116.601 38.4168C117.035 38.4168 117.459 38.5616 117.807 38.7256L118.318 36.661C117.884 36.5259 117.681 36.5066 117.315 36.5066Z" fill="black"/>
<path id="Vector_2" d="M340.56 36.5066C339.393 36.5066 338.476 37.153 337.627 38.6001C337.627 38.5808 337.618 38.5519 337.618 38.5326V38.2914C337.627 38.1853 337.637 38.0792 337.647 37.9827C337.676 37.7512 337.695 37.5293 337.724 37.2977C337.762 36.9697 337.801 36.632 337.84 36.304L334.241 36.6706V37.3074L335.881 37.5775L336.103 39.1501V43.3661L335.881 44.9193L334.453 45.1895V45.8262H339.711V45.1895L338.071 44.9193L337.849 43.3661C337.849 43.202 337.849 43.038 337.849 42.874C337.849 42.4302 337.849 41.9865 337.849 41.5427C337.849 41.0506 337.849 40.5586 337.849 40.0666C337.849 39.9315 337.849 39.7964 337.849 39.6614C337.849 39.6035 337.849 39.5456 337.849 39.4974C337.849 39.4684 337.849 39.4395 337.849 39.4105C338.438 38.6773 339.238 38.4168 339.846 38.4168C340.28 38.4168 340.705 38.5616 341.052 38.7256L341.563 36.661C341.129 36.5259 340.927 36.5066 340.56 36.5066Z" fill="black"/>
<g id="Group_3">
<path id="Vector_3" d="M77.5667 22.7299L79.226 22.4018L79.4286 20.3372V12.9858L79.226 10.9212L77.5667 10.5932V9.97573H81.9949L83.0368 12.9858L86.1337 21.0319L89.3078 12.9665L90.2725 9.97573H94.7008V10.5932L93.0607 10.9212L92.8388 12.9858V20.3372L93.0607 22.4018L94.7008 22.7299V23.3666H89.0473V22.7299L90.6874 22.4018L90.9093 20.3372V11.365L87.3879 20.3372L86.346 23.3666H84.9953L83.8858 20.3372L80.3452 11.365V20.3372L80.5671 22.4018L82.2071 22.7299V23.3666H77.5667V22.7299Z" fill="black"/>
<path id="Vector_4" d="M96.254 22.7299L97.6915 22.4597L97.8941 20.9065V16.6905L97.6915 15.1179L96.0514 14.8478V14.211L99.8622 13.8444L99.6596 16.6905V20.9065L99.8622 22.4597L101.3 22.7299V23.3666H96.2636V22.7299H96.254ZM97.3249 10.159C97.3249 9.46441 97.8941 8.86626 98.6177 8.86626C99.3123 8.86626 99.9104 9.43547 99.9104 10.1783C99.9104 10.8344 99.3798 11.4518 98.6177 11.4518C97.9134 11.4422 97.3249 10.9308 97.3249 10.159Z" fill="black"/>
<path id="Vector_5" d="M102.1 19.2278C102.1 16.0344 104.107 13.7769 107.021 13.7769C107.59 13.7769 108.043 13.8348 108.593 13.9602V11.5676L108.371 9.99502L106.731 9.72489V9.08815L110.561 8.72154L110.34 11.5676V20.9065L110.561 22.4597L111.893 22.7298V23.3666L108.593 23.8007L108.902 21.8519C107.957 23.1254 107.001 23.8007 105.641 23.8007C103.577 23.8007 102.1 22.0159 102.1 19.2278ZM108.593 21.1187V15.0504C108.024 14.8092 107.571 14.6838 106.934 14.6838C105.004 14.6838 103.943 16.2853 103.943 18.8033C103.943 21.0319 104.763 22.3922 106.365 22.3922C107.079 22.3825 107.841 22.0545 108.593 21.1187Z" fill="black"/>
<path id="Vector_6" d="M112.636 19.2278C112.636 16.0344 114.642 13.7769 117.556 13.7769C118.125 13.7769 118.579 13.8348 119.128 13.9602V11.5676L118.907 9.99502L117.266 9.72489V9.08815L121.097 8.72154L120.875 11.5676V20.9065L121.097 22.4597L122.428 22.7298V23.3666L119.128 23.8007L119.437 21.8519C118.492 23.1254 117.537 23.8007 116.176 23.8007C114.112 23.8007 112.636 22.0159 112.636 19.2278ZM119.128 21.1187V15.0504C118.559 14.8092 118.106 14.6838 117.469 14.6838C115.54 14.6838 114.478 16.2853 114.478 18.8033C114.478 21.0319 115.298 22.3922 116.9 22.3922C117.614 22.3825 118.366 22.0545 119.128 21.1187Z" fill="black"/>
<path id="Vector_7" d="M123.721 22.7298L125.158 22.4597L125.38 20.9065V11.5676L125.158 9.99502L123.518 9.72489V9.08815L127.329 8.72154L127.126 11.5676V20.9065L127.348 22.4597L128.757 22.7298V23.3666H123.721V22.7298Z" fill="black"/>
<path id="Vector_8" d="M129.49 18.8805C129.49 15.7643 131.063 13.7769 133.629 13.7769C135.78 13.7769 137.276 15.1661 137.189 18.0797H131.265C131.265 18.0797 131.246 18.3691 131.246 18.5331C131.246 20.8486 132.375 22.4887 134.545 22.4887C135.201 22.4887 135.935 22.3247 136.658 21.794L137.073 22.344C135.906 23.4052 135.028 23.8007 133.552 23.8007C131.111 23.8007 129.49 22.0352 129.49 18.8805ZM133.957 17.2597L135.346 17.0571C135.346 15.4363 134.584 14.5969 133.465 14.5969C132.317 14.5969 131.516 15.4556 131.294 17.2597H133.957Z" fill="black"/>
<path id="Vector_9" d="M139.186 23.3666V11.5676L138.983 9.99502L137.343 9.72489V9.08815L141.154 8.72154L140.951 11.5676V15.417C141.714 14.4136 142.813 13.7769 144.068 13.7769C146.036 13.7769 147.406 15.4556 147.406 18.0604C147.406 21.2345 145.505 23.7911 141.81 23.7911C140.951 23.8007 140.353 23.8007 139.186 23.3666ZM145.601 18.7165C145.601 16.6036 144.704 15.1758 143.325 15.1758C142.485 15.1758 141.685 15.5231 140.951 16.3817V20.9065L141.154 22.6913C141.646 22.8553 141.993 22.9325 142.524 22.9325C144.637 22.9421 145.601 21.0512 145.601 18.7165Z" fill="black"/>
<path id="Vector_10" d="M149.779 20.5977V16.6905L149.557 15.1179L147.956 14.8478V14.211L151.747 13.8444L151.544 16.6905V20.1346C151.544 21.5432 152.201 22.4115 153.493 22.4115C154.371 22.4115 155.172 21.8809 155.751 21.1862V16.6905L155.548 15.1179L153.947 14.8478V14.211L157.738 13.8444L157.516 16.6905V20.9065L157.738 22.4597L159.214 22.7298V23.3666L155.751 23.7332L155.973 21.8905C155.008 23.2219 154.149 23.7911 152.693 23.7911C150.879 23.8007 149.779 22.6527 149.779 20.5977Z" fill="black"/>
<path id="Vector_11" d="M169.354 28.2193V27.5247L171.399 27.1967L172.277 25.7592L173.155 23.6946L170.29 16.6905L169.45 15.089L168.524 14.8478V14.211H173.01V14.8478L171.698 15.089L172.19 16.6905L174.033 21.4178L175.75 16.6905L176.204 15.089L174.911 14.8478V14.211H178.596V14.8478L177.554 15.089L176.773 16.6905L172.306 28.4895L169.354 28.2193Z" fill="black"/>
<path id="Vector_12" d="M166.614 14.0567C165.447 14.0567 164.53 14.7031 163.681 16.1502C163.681 16.1309 163.671 16.102 163.671 16.0827V15.8415C163.681 15.7353 163.691 15.6292 163.7 15.5327C163.729 15.3012 163.749 15.0793 163.778 14.8478C163.816 14.5197 163.855 14.1821 163.893 13.8541L160.295 14.2207V14.8574L161.935 15.1275L162.157 16.7001V20.9161L161.935 22.4694L160.507 22.7395V23.3762H165.765V22.7395L164.125 22.4694L163.903 20.9161C163.903 20.7521 163.903 20.5881 163.903 20.4241C163.903 19.9803 163.903 19.5365 163.903 19.0927C163.903 18.6007 163.903 18.1087 163.903 17.6166C163.903 17.4816 163.903 17.3465 163.903 17.2114C163.903 17.1535 163.903 17.0957 163.903 17.0474C163.903 17.0185 163.903 16.9895 163.903 16.9606C164.492 16.2274 165.292 15.9669 165.9 15.9669C166.334 15.9669 166.759 16.1116 167.106 16.2756L167.617 14.211C167.193 14.076 166.981 14.0567 166.614 14.0567Z" fill="black"/>
</g>
<path id="Vector_13" d="M183.652 22.7299L185.311 22.4018L185.514 20.3372V12.9858L185.311 10.9212L183.652 10.5932V9.97573H189.305V10.5932L187.646 10.9212L187.443 12.9858V20.3372L187.646 22.4018L189.305 22.7299V23.3666H183.652V22.7299Z" fill="black"/>
<path id="Vector_14" d="M190.608 22.7298L192.045 22.4597L192.267 20.9065V16.6905L192.045 15.1179L190.405 14.8478V14.211L194.013 13.8444L193.791 15.6871C194.631 14.3943 195.692 13.7865 197.091 13.7865C198.856 13.7865 199.995 14.9539 199.995 16.9799V20.9161L200.197 22.4694L201.654 22.7395V23.3762H196.84V22.7395L198.007 22.4694L198.21 20.9161V17.4719C198.21 16.102 197.554 15.1758 196.261 15.1758C195.48 15.1758 194.91 15.3977 194.003 16.401V20.9065L194.225 22.4597L195.393 22.7298V23.3666H190.598V22.7298H190.608Z" fill="black"/>
<path id="Vector_15" d="M202.985 23.2412L202.821 20.8486H203.719L204.066 22.4211C204.703 22.7106 205.195 22.8746 205.967 22.8746C207.076 22.8746 207.771 22.3247 207.771 21.3792C207.771 20.1925 206.642 19.8452 205.581 19.4497C204.288 18.9191 202.773 18.4656 202.773 16.6229C202.773 15.0697 204.047 13.6515 206.217 13.6515C207.144 13.6515 208.041 13.8348 208.938 14.2496L209.141 16.6422H208.243L207.79 15.0214C207.211 14.7513 206.623 14.6162 205.967 14.6162C204.886 14.6162 204.269 15.0697 204.269 15.9862C204.269 17.115 205.417 17.4623 206.42 17.8482C207.877 18.3981 209.247 18.8515 209.247 20.7521C209.247 22.4694 207.857 23.82 205.783 23.82C205.118 23.8393 203.969 23.6367 202.985 23.2412Z" fill="black"/>
<path id="Vector_16" d="M211.881 21.5818V15.0697H210.279V14.3364L211.881 14.0084V11.6544L213.646 11.3264V14.211H216.145V15.0697H213.646V20.9065C213.646 21.9484 214.013 22.4211 214.775 22.4211C215.103 22.4211 215.653 22.315 216.125 22.0159L216.511 22.672C215.489 23.492 214.813 23.8007 213.887 23.8007C212.884 23.8007 211.881 23.2894 211.881 21.5818Z" fill="black"/>
<path id="Vector_17" d="M217.582 22.7299L219.02 22.4597L219.222 20.9065V16.6905L219.02 15.1179L217.38 14.8478V14.211L221.19 13.8444L220.988 16.6905V20.9065L221.19 22.4597L222.628 22.7299V23.3666H217.592V22.7299H217.582ZM218.653 10.159C218.653 9.46441 219.222 8.86626 219.946 8.86626C220.641 8.86626 221.239 9.43547 221.239 10.1783C221.239 10.8344 220.708 11.4518 219.946 11.4518C219.242 11.4422 218.653 10.9308 218.653 10.159Z" fill="black"/>
<path id="Vector_18" d="M224.432 21.5818V15.0697H222.83V14.3364L224.432 14.0084V11.6544L226.197 11.3264V14.211H228.696V15.0697H226.197V20.9065C226.197 21.9484 226.564 22.4211 227.326 22.4211C227.654 22.4211 228.204 22.315 228.677 22.0159L229.063 22.672C228.04 23.492 227.365 23.8007 226.439 23.8007C225.435 23.8007 224.432 23.2894 224.432 21.5818Z" fill="black"/>
<path id="Vector_19" d="M231.658 20.5977V16.6905L231.436 15.1179L229.835 14.8478V14.211L233.626 13.8444L233.424 16.6905V20.1346C233.424 21.5432 234.08 22.4115 235.372 22.4115C236.25 22.4115 237.051 21.8809 237.63 21.1862V16.6905L237.427 15.1179L235.826 14.8478V14.211L239.617 13.8444L239.395 16.6905V20.9065L239.617 22.4597L241.093 22.7298V23.3666L237.63 23.7332L237.852 21.8905C236.887 23.2219 236.028 23.7911 234.572 23.7911C232.758 23.8007 231.658 22.6527 231.658 20.5977Z" fill="black"/>
<path id="Vector_20" d="M242.907 21.5818V15.0697H241.306V14.3364L242.907 14.0084V11.6544L244.673 11.3264V14.211H247.171V15.0697H244.673V20.9065C244.673 21.9484 245.039 22.4211 245.801 22.4211C246.129 22.4211 246.679 22.315 247.152 22.0159L247.538 22.672C246.515 23.492 245.84 23.8007 244.914 23.8007C243.911 23.8007 242.907 23.2894 242.907 21.5818Z" fill="black"/>
<path id="Vector_21" d="M248.233 18.8805C248.233 15.7643 249.805 13.7769 252.371 13.7769C254.523 13.7769 256.018 15.1661 255.931 18.0797H250.008C250.008 18.0797 249.989 18.3691 249.989 18.5331C249.989 20.8486 251.117 22.4887 253.288 22.4887C253.944 22.4887 254.677 22.3247 255.401 21.794L255.806 22.344C254.639 23.4052 253.761 23.8007 252.285 23.8007C249.853 23.8007 248.233 22.0352 248.233 18.8805ZM252.7 17.2597L254.089 17.0571C254.089 15.4363 253.327 14.5969 252.207 14.5969C251.059 14.5969 250.259 15.4556 250.037 17.2597H252.7Z" fill="black"/>
<path id="Vector_22" d="M261.816 20.7907C261.816 18.3305 262.636 16.3238 264.556 14.8092C265.338 14.1917 266.467 13.719 267.306 13.719C268.695 13.719 269.515 14.7609 269.515 16.8738C269.515 18.755 268.917 20.5784 267.711 21.8326C266.582 23.0579 265.251 23.7814 263.958 23.7814C262.656 23.7814 261.816 22.7781 261.816 20.7907ZM266.756 21.302C267.431 20.2794 267.817 18.9094 267.817 17.3079C267.817 15.8704 267.508 14.9732 266.592 14.9732C265.897 14.9732 265.318 15.3012 264.73 16.1212C263.997 17.1053 263.563 18.8901 263.563 20.3855C263.563 21.7554 263.977 22.5755 264.817 22.5755C265.54 22.5658 266.196 22.1413 266.756 21.302Z" fill="black"/>
<path id="Vector_23" d="M266.071 28.2386L266.457 26.4731C267.094 26.724 267.788 26.9073 268.386 26.9073C268.917 26.9073 269.332 26.7047 269.631 26.2512C269.92 25.8171 270.142 25.2286 270.306 24.4278L272.188 15.089H270.364V14.211H272.371L272.429 13.9409C272.863 11.9921 273.326 10.873 274.358 9.92749C275.217 9.12674 276.307 8.72154 277.146 8.72154C277.658 8.72154 278.073 8.77943 278.787 8.92414L278.381 10.8054C277.523 10.4195 276.645 10.188 276.066 10.188C275.68 10.188 275.246 10.3134 274.841 10.7572C274.387 11.2492 274.107 12.2333 274.001 14.2014H276.133V15.0793H273.857L272.178 23.5788C271.889 24.9874 271.213 26.2416 270.229 27.1002C269.284 27.9396 268.329 28.3737 267.296 28.3737C267.055 28.3833 266.438 28.3447 266.071 28.2386Z" fill="black"/>
<path id="Vector_24" d="M77.5474 45.1798L79.2068 44.8518L79.4093 42.7872V35.4357L79.2068 33.3711L77.5474 33.0431V32.416H83.2009V33.0335L81.5415 33.3615L81.3389 35.4261V42.7775L81.5415 44.8421L83.2009 45.1702V45.8069H77.5474V45.1798Z" fill="black"/>
<path id="Vector_25" d="M84.5033 45.1798L85.9408 44.9097L86.1626 43.3564V39.1404L85.9408 37.5678L84.3007 37.2977V36.661L87.9089 36.2944L87.687 38.1371C88.5263 36.8443 89.5875 36.2365 90.9864 36.2365C92.752 36.2365 93.8904 37.4038 93.8904 39.4298V43.3661L94.093 44.9193L95.5498 45.1894V45.8262H90.7356V45.1894L91.903 44.9193L92.1056 43.3661V39.9219C92.1056 38.5519 91.4495 37.6257 90.1567 37.6257C89.3753 37.6257 88.8061 37.8476 87.8992 38.851V43.3564L88.1211 44.9097L89.2885 45.1798V45.8165H84.4936V45.1798H84.5033Z" fill="black"/>
<path id="Vector_26" d="M97.1224 44.0317V37.5196H95.5209V36.7864L97.1224 36.4584V34.1044L98.8879 33.7763V36.661H101.387V37.5196H98.8879V43.3564C98.8879 44.3983 99.2545 44.8711 100.017 44.8711C100.345 44.8711 100.895 44.765 101.367 44.4659L101.753 45.1219C100.731 45.942 100.055 46.2507 99.1291 46.2507C98.1257 46.241 97.1224 45.7297 97.1224 44.0317Z" fill="black"/>
<path id="Vector_27" d="M102.448 41.3304C102.448 38.2142 104.02 36.2268 106.587 36.2268C108.738 36.2268 110.233 37.6161 110.147 40.5297H104.223C104.223 40.5297 104.204 40.8191 104.204 40.9831C104.204 43.2985 105.332 44.9386 107.503 44.9386C108.159 44.9386 108.892 44.7746 109.616 44.244L110.021 44.7939C108.854 45.8551 107.976 46.2507 106.5 46.2507C104.069 46.241 102.448 44.4852 102.448 41.3304ZM106.915 39.7096L108.304 39.507C108.304 37.8862 107.542 37.0469 106.423 37.0469C105.274 37.0469 104.474 37.9055 104.252 39.7096H106.915Z" fill="black"/>
<path id="Vector_28" d="M119.379 45.1798L120.817 44.9097L121.039 43.3564V39.1404L120.817 37.5678L119.177 37.2977V36.661L122.785 36.2944L122.563 38.1371C123.402 36.8443 124.464 36.2365 125.863 36.2365C127.628 36.2365 128.766 37.4038 128.766 39.4298V43.3661L128.969 44.9193L130.426 45.1894V45.8262H125.612V45.1894L126.779 44.9193L126.982 43.3661V39.9219C126.982 38.5519 126.326 37.6257 125.033 37.6257C124.251 37.6257 123.682 37.8476 122.775 38.851V43.3564L122.997 44.9097L124.165 45.1798V45.8165H119.37V45.1798H119.379Z" fill="black"/>
<path id="Vector_29" d="M131.323 43.7616C131.323 42.8644 131.709 42.1022 132.529 41.5041C133.33 40.9059 134.642 40.6068 136.504 40.6068V39.4974C136.504 38.2046 135.722 37.4521 134.478 37.4521C133.716 37.4521 132.963 37.7608 132.288 38.3782L131.776 37.8283C132.703 36.7864 133.947 36.1304 135.404 36.1304C137.044 36.1304 138.231 37.0083 138.231 39.0343V43.3564L138.453 44.9097L139.823 45.1798V45.8165L136.465 46.1831L136.832 43.9256C136.07 45.3149 135.095 46.241 133.696 46.241C132.346 46.241 131.323 45.3245 131.323 43.7616ZM136.504 43.3757V41.3883C135.298 41.3883 134.439 41.5523 133.88 41.8996C133.33 42.2083 133.04 42.7004 133.04 43.3371C133.04 44.1379 133.59 44.7939 134.391 44.7939C135.076 44.7939 135.896 44.2729 136.504 43.3757Z" fill="black"/>
<path id="Vector_30" d="M141.55 44.0317V37.5196H139.948V36.7864L141.55 36.4584V34.1044L143.315 33.7763V36.661H145.814V37.5196H143.315V43.3564C143.315 44.3983 143.682 44.8711 144.444 44.8711C144.772 44.8711 145.322 44.765 145.794 44.4659L146.18 45.1219C145.158 45.942 144.482 46.2507 143.556 46.2507C142.553 46.241 141.55 45.7297 141.55 44.0317Z" fill="black"/>
<path id="Vector_31" d="M147.261 45.1798L148.698 44.9097L148.901 43.3564V39.1404L148.698 37.5679L147.058 37.2977V36.661L150.869 36.2944L150.667 39.1404V43.3564L150.869 44.9097L152.307 45.1798V45.8165H147.271V45.1798H147.261ZM148.322 32.5993C148.322 31.9047 148.891 31.3066 149.615 31.3066C150.31 31.3066 150.908 31.8758 150.908 32.6186C150.908 33.2747 150.377 33.8921 149.615 33.8921C148.92 33.8921 148.322 33.3808 148.322 32.5993Z" fill="black"/>
<path id="Vector_32" d="M152.876 41.3497C152.876 38.3975 154.477 36.2075 157.507 36.2075C160.131 36.2075 161.867 37.973 161.867 41.1664C161.867 44.2826 160.005 46.27 157.275 46.27C154.661 46.2603 152.876 44.3983 152.876 41.3497ZM159.899 41.1857C159.899 38.4651 159.021 37.0662 157.401 37.0662C155.76 37.0662 154.863 38.3589 154.863 41.205C154.863 43.9931 155.741 45.3824 157.343 45.3824C158.983 45.3824 159.899 44.0317 159.899 41.1857Z" fill="black"/>
<path id="Vector_33" d="M162.591 45.1798L164.028 44.9097L164.25 43.3564V39.1404L164.028 37.5678L162.388 37.2977V36.661L165.996 36.2944L165.775 38.1371C166.614 36.8443 167.675 36.2365 169.074 36.2365C170.84 36.2365 171.978 37.4038 171.978 39.4298V43.3661L172.181 44.9193L173.637 45.1894V45.8262H168.823V45.1894L169.991 44.9193L170.193 43.3661V39.9219C170.193 38.5519 169.537 37.6257 168.244 37.6257C167.463 37.6257 166.894 37.8476 165.987 38.851V43.3564L166.209 44.9097L167.376 45.1798V45.8165H162.581V45.1798H162.591Z" fill="black"/>
<path id="Vector_34" d="M174.544 43.7616C174.544 42.8644 174.93 42.1022 175.75 41.5041C176.551 40.9059 177.863 40.6068 179.725 40.6068V39.4974C179.725 38.2046 178.944 37.4521 177.699 37.4521C176.937 37.4521 176.184 37.7608 175.509 38.3782L174.998 37.8283C175.924 36.7864 177.168 36.1304 178.625 36.1304C180.265 36.1304 181.452 37.0083 181.452 39.0343V43.3564L181.674 44.9097L183.044 45.1798V45.8165L179.686 46.1831L180.053 43.9256C179.291 45.3149 178.317 46.241 176.918 46.241C175.567 46.241 174.544 45.3245 174.544 43.7616ZM179.725 43.3757V41.3883C178.519 41.3883 177.66 41.5523 177.101 41.8996C176.551 42.2083 176.262 42.7004 176.262 43.3371C176.262 44.1379 176.812 44.7939 177.612 44.7939C178.288 44.7939 179.108 44.2729 179.725 43.3757Z" fill="black"/>
<path id="Vector_35" d="M184.134 45.1798L185.571 44.9097L185.793 43.3564V34.0175L185.571 32.445L183.931 32.1748V31.5381L187.742 31.1715L187.54 34.0175V43.3564L187.761 44.9097L189.17 45.1798V45.8165H184.134V45.1798Z" fill="black"/>
<path id="Vector_36" d="M194.534 45.5078L194.332 42.3917H195.373L195.779 44.5431C196.473 44.8711 197.11 45.1412 197.949 45.1412C199.811 45.1412 201.162 44.244 201.162 42.7004C201.162 40.9831 199.522 40.3464 197.949 39.7482C196.001 39.015 194.283 38.2335 194.283 35.8795C194.283 33.8149 195.856 31.924 198.914 31.924C199.956 31.924 201.249 32.2134 202.358 32.6186L202.58 35.7155H201.558L201.104 33.5255C200.467 33.1396 199.483 32.9081 198.876 32.9081C196.85 32.9081 195.846 34.0368 195.846 35.2042C195.846 36.8636 197.284 37.3363 198.712 37.9055C200.805 38.7449 202.764 39.6228 202.764 42.1408C202.764 44.5817 200.795 46.1735 197.843 46.1735C196.85 46.1832 195.991 46.077 194.534 45.5078Z" fill="black"/>
<path id="Vector_37" d="M205.233 44.0317V37.5196H203.632V36.7864L205.233 36.4584V34.1044L206.999 33.7763V36.661H209.498V37.5196H206.999V43.3564C206.999 44.3983 207.365 44.8711 208.128 44.8711C208.456 44.8711 209.006 44.765 209.478 44.4659L209.864 45.1219C208.842 45.942 208.166 46.2507 207.24 46.2507C206.237 46.241 205.233 45.7297 205.233 44.0317Z" fill="black"/>
<path id="Vector_38" d="M212.392 43.0477V39.1308L212.17 37.5582L210.568 37.2881V36.661L214.36 36.2944L214.157 39.1404V42.5846C214.157 43.9931 214.813 44.8614 216.106 44.8614C216.984 44.8614 217.785 44.3308 218.364 43.6362V39.1501L218.161 37.5775L216.56 37.3074V36.661L220.351 36.2944L220.129 39.1404V43.3564L220.351 44.9097L221.827 45.1798V45.8165L218.364 46.1831L218.586 44.3405C217.621 45.6718 216.762 46.241 215.305 46.241C213.492 46.241 212.392 45.093 212.392 43.0477Z" fill="black"/>
<path id="Vector_39" d="M222.367 41.6777C222.367 38.4844 224.374 36.2268 227.288 36.2268C227.857 36.2268 228.31 36.2847 228.86 36.4101V34.0175L228.638 32.445L226.998 32.1748V31.5381L230.828 31.1715L230.606 34.0175V43.3564L230.828 44.9097L232.16 45.1798V45.8165L228.86 46.2507L229.169 44.3019C228.224 45.5753 227.268 46.2507 225.908 46.2507C223.844 46.241 222.367 44.4659 222.367 41.6777ZM228.86 43.559V37.5003C228.281 37.2591 227.838 37.1337 227.201 37.1337C225.271 37.1337 224.21 38.7352 224.21 41.2532C224.21 43.4818 225.03 44.8421 226.632 44.8421C227.346 44.8325 228.098 44.5045 228.86 43.559Z" fill="black"/>
<path id="Vector_40" d="M233.24 45.1798L234.678 44.9097L234.88 43.3564V39.1404L234.678 37.5679L233.038 37.2977V36.661L236.849 36.2944L236.646 39.1404V43.3564L236.849 44.9097L238.286 45.1798V45.8165H233.25V45.1798H233.24ZM234.311 32.5993C234.311 31.9047 234.88 31.3066 235.604 31.3066C236.299 31.3066 236.897 31.8758 236.897 32.6186C236.897 33.2747 236.366 33.8921 235.604 33.8921C234.9 33.8921 234.311 33.3808 234.311 32.5993Z" fill="black"/>
<path id="Vector_41" d="M238.913 41.3304C238.913 38.2142 240.486 36.2268 243.052 36.2268C245.203 36.2268 246.699 37.6161 246.612 40.5297H240.688C240.688 40.5297 240.669 40.8191 240.669 40.9831C240.669 43.2985 241.798 44.9386 243.968 44.9386C244.624 44.9386 245.358 44.7746 246.081 44.244L246.486 44.7939C245.319 45.8551 244.441 46.2507 242.965 46.2507C240.534 46.241 238.913 44.4852 238.913 41.3304ZM243.38 39.7096L244.769 39.507C244.769 37.8862 244.007 37.0469 242.888 37.0469C241.74 37.0469 240.939 37.9055 240.717 39.7096H243.38Z" fill="black"/>
<path id="Vector_42" d="M248.194 45.6911L248.03 43.2985H248.927L249.275 44.8711C249.911 45.1605 250.403 45.3245 251.175 45.3245C252.285 45.3245 252.979 44.7746 252.979 43.8291C252.979 42.6425 251.851 42.2952 250.789 41.8996C249.496 41.369 247.982 40.9156 247.982 39.0729C247.982 37.5196 249.255 36.1014 251.426 36.1014C252.352 36.1014 253.249 36.2847 254.147 36.6996L254.349 39.0922H253.452L252.999 37.4714C252.42 37.2012 251.831 37.0662 251.175 37.0662C250.085 37.0662 249.477 37.5196 249.477 38.4361C249.477 39.5649 250.625 39.9122 251.629 40.2981C253.085 40.848 254.455 41.3015 254.455 43.202C254.455 44.9193 253.066 46.27 250.992 46.27C250.326 46.2893 249.178 46.077 248.194 45.6911Z" fill="black"/>
<path id="Vector_43" d="M259.81 43.7616C259.81 42.8644 260.196 42.1022 261.016 41.5041C261.816 40.9059 263.128 40.6068 264.99 40.6068V39.4974C264.99 38.2046 264.209 37.4521 262.964 37.4521C262.202 37.4521 261.45 37.7608 260.774 38.3782L260.263 37.8283C261.18 36.7864 262.434 36.1304 263.891 36.1304C265.531 36.1304 266.717 37.0083 266.717 39.0343V43.3564L266.939 44.9097L268.309 45.1798V45.8165L264.952 46.1831L265.318 43.9256C264.556 45.3149 263.582 46.241 262.183 46.241C260.842 46.241 259.81 45.3245 259.81 43.7616ZM265 43.3757V41.3883C263.794 41.3883 262.936 41.5523 262.376 41.8996C261.826 42.2083 261.537 42.7004 261.537 43.3371C261.537 44.1379 262.087 44.7939 262.887 44.7939C263.563 44.7939 264.383 44.2729 265 43.3757Z" fill="black"/>
<path id="Vector_44" d="M270.036 44.0317V37.5196H268.435V36.7864L270.036 36.4584V34.1044L271.802 33.7763V36.661H274.3V37.5196H271.802V43.3564C271.802 44.3983 272.168 44.8711 272.93 44.8711C273.258 44.8711 273.808 44.765 274.281 44.4659L274.667 45.1219C273.644 45.942 272.969 46.2507 272.043 46.2507C271.049 46.241 270.036 45.7297 270.036 44.0317Z" fill="black"/>
<path id="Vector_45" d="M279.404 45.1798L281.063 44.8518L281.266 42.7872V35.4357L281.063 33.3711L279.404 33.0431V32.416H283.832L284.874 35.4261L287.971 43.4722L291.145 35.4068L292.11 32.416H296.538V33.0335L294.898 33.3615L294.676 35.4261V42.7775L294.898 44.8421L296.538 45.1702V45.8069H290.885V45.1702L292.525 44.8421L292.747 42.7775V33.8053L289.225 42.7775L288.183 45.8069H286.852L285.743 42.7775L282.202 33.8053V42.7775L282.424 44.8421L284.064 45.1702V45.8069H279.414V45.1798H279.404Z" fill="black"/>
<path id="Vector_46" d="M297.416 41.3497C297.416 38.3975 299.018 36.2075 302.047 36.2075C304.671 36.2075 306.408 37.973 306.408 41.1664C306.408 44.2826 304.546 46.27 301.815 46.27C299.201 46.2603 297.416 44.3983 297.416 41.3497ZM304.44 41.1857C304.44 38.4651 303.562 37.0662 301.941 37.0662C300.301 37.0662 299.404 38.3589 299.404 41.205C299.404 43.9931 300.281 45.3824 301.883 45.3824C303.523 45.3824 304.44 44.0317 304.44 41.1857Z" fill="black"/>
<path id="Vector_47" d="M307.343 45.1798L308.781 44.9097L309.003 43.3564V39.1404L308.781 37.5678L307.141 37.2977V36.661L310.749 36.2944L310.527 38.1371C311.367 36.8443 312.428 36.2365 313.827 36.2365C315.592 36.2365 316.731 37.4038 316.731 39.4298V43.3661L316.933 44.9193L318.39 45.1894V45.8262H313.576V45.1894L314.743 44.9193L314.946 43.3661V39.9219C314.946 38.5519 314.29 37.6257 312.997 37.6257C312.216 37.6257 311.646 37.8476 310.739 38.851V43.3564L310.961 44.9097L312.129 45.1798V45.8165H307.334V45.1798H307.343Z" fill="black"/>
<path id="Vector_48" d="M320.155 44.0317V37.5196H318.554V36.7864L320.155 36.4584V34.1044L321.921 33.7763V36.661H324.42V37.5196H321.921V43.3564C321.921 44.3983 322.288 44.8711 323.05 44.8711C323.378 44.8711 323.928 44.765 324.4 44.4659L324.786 45.1219C323.764 45.942 323.088 46.2507 322.162 46.2507C321.159 46.241 320.155 45.7297 320.155 44.0317Z" fill="black"/>
<path id="Vector_49" d="M325.481 41.3304C325.481 38.2142 327.054 36.2268 329.62 36.2268C331.771 36.2268 333.267 37.6161 333.18 40.5297H327.256C327.256 40.5297 327.237 40.8191 327.237 40.9831C327.237 43.2985 328.366 44.9386 330.536 44.9386C331.192 44.9386 331.926 44.7746 332.649 44.244L333.054 44.7939C331.887 45.8551 331.009 46.2507 329.533 46.2507C327.102 46.241 325.481 44.4852 325.481 41.3304ZM329.948 39.7096L331.337 39.507C331.337 37.8862 330.575 37.0469 329.456 37.0469C328.308 37.0469 327.507 37.9055 327.285 39.7096H329.948Z" fill="black"/>
<path id="Vector_50" d="M342.104 41.3304C342.104 38.2142 343.676 36.2268 346.243 36.2268C348.394 36.2268 349.889 37.6161 349.803 40.5297H343.879C343.879 40.5297 343.86 40.8191 343.86 40.9831C343.86 43.2985 344.988 44.9386 347.159 44.9386C347.815 44.9386 348.548 44.7746 349.272 44.244L349.677 44.7939C348.51 45.8551 347.632 46.2507 346.156 46.2507C343.725 46.241 342.104 44.4852 342.104 41.3304ZM346.571 39.7096L347.96 39.507C347.96 37.8862 347.198 37.0469 346.079 37.0469C344.931 37.0469 344.13 37.9055 343.908 39.7096H346.571Z" fill="black"/>
<path id="Vector_51" d="M351.375 50.6693V49.9747L353.42 49.6466L354.298 48.2092L355.176 46.1446L352.311 39.1404L351.472 37.5389L350.545 37.2977V36.661H355.032V37.2977L353.719 37.5389L354.211 39.1404L356.054 43.8677L357.771 39.1404L358.225 37.5389L356.932 37.2977V36.661H360.618V37.2977L359.576 37.5389L358.794 39.1404L354.327 50.9394L351.375 50.6693Z" fill="black"/>
</g>
</g>
</svg>
