<svg width="363" height="72" viewBox="0 0 363 72" fill="none" xmlns="http://www.w3.org/2000/svg">
<g id="museum-logo" clip-path="url(#clip0_546_70)">
<rect width="363" height="72" fill="white"/>
<g id="Group 81">
<g id="Group">
<path id="Vector" d="M72 0H0V72H72V0Z" fill="#231F20"/>
<path id="Vector_2" d="M56.5499 3.385L36.2499 49.625L15.9499 3.385L3.93994 64.625H11.6849L18.4749 25.805L36.2499 65.75L54.0249 25.805L60.8149 64.625H68.5599L56.5499 3.385Z" fill="#008CCF"/>
<path id="Vector_3" d="M72 43.705H49.29L46.75 49.485H72V43.705Z" fill="#00C2F3"/>
</g>
<g id="Group_2">
<g id="Group_3">
<g id="Group_4">
<path id="Vector_4" d="M109.275 60.07L108.15 42.745L103.275 60.105H97.2L92.325 42.745L91.2 60.07H85.615L87.49 34.195H95.775L100.8 52.005L105.86 34.195H113.92L115.795 60.07H109.27H109.275Z" fill="#231F20"/>
<path id="Vector_5" d="M131.71 60.485C125.375 60.485 120.95 57.07 120.95 49.835V34.2H127.4V49.8C127.4 53.135 128.9 55.085 131.785 55.085C134.67 55.085 136.17 53.17 136.17 49.875V34.2H142.62V49.8C142.62 57 137.97 60.485 131.71 60.485V60.485Z" fill="#231F20"/>
<path id="Vector_6" d="M156.38 60.37C152.895 60.37 149.97 59.62 147.345 58.42L148.285 52.945C150.945 54.37 153.91 55.345 156.495 55.345C158.33 55.345 159.605 54.555 159.605 53.02C159.605 51.485 158.855 50.885 155.22 49.495C150.045 47.51 147.795 45.82 147.795 41.545C147.795 36.56 151.695 33.895 156.645 33.895C160.02 33.895 162.195 34.53 164.445 35.62L163.47 41.02C161.145 39.67 158.71 38.92 156.72 38.92C154.73 38.92 153.835 39.745 153.835 40.945C153.835 42.255 154.545 42.895 157.77 44.13C163.43 46.19 165.645 48.145 165.645 52.265C165.645 57.89 161.52 60.365 156.385 60.365L156.38 60.37Z" fill="#231F20"/>
<path id="Vector_7" d="M170.645 60.07V34.195H186.77V39.37H176.945V44.245H184.445L185.27 49.38H176.945V54.855H187.105V60.065H170.645V60.07Z" fill="#231F20"/>
<path id="Vector_8" d="M202.64 60.485C196.305 60.485 191.88 57.07 191.88 49.835V34.2H198.33V49.8C198.33 53.135 199.83 55.085 202.715 55.085C205.6 55.085 207.1 53.17 207.1 49.875V34.2H213.55V49.8C213.55 57 208.9 60.485 202.64 60.485V60.485Z" fill="#231F20"/>
<path id="Vector_9" d="M242.32 60.07L241.195 42.745L236.32 60.105H230.245L225.37 42.745L224.245 60.07H218.66L220.535 34.195H228.82L233.845 52.005L238.905 34.195H246.965L248.84 60.07H242.315H242.32Z" fill="#231F20"/>
<path id="Vector_10" d="M264.17 60.38C259.985 60.38 256.915 57.375 256.915 52.505C256.915 47.635 260.015 44.57 264.2 44.57C268.385 44.57 271.515 47.61 271.515 52.475C271.515 57.34 268.385 60.38 264.17 60.38ZM264.2 48.385C262.4 48.385 261.44 49.995 261.44 52.475C261.44 54.955 262.43 56.6 264.2 56.6C265.97 56.6 266.99 54.955 266.99 52.51C266.99 50.065 266 48.385 264.2 48.385Z" fill="#231F20"/>
<path id="Vector_11" d="M281.34 41.475C280.07 41.475 279.48 42.095 279.48 43.335V44.885H282.24L282.8 48.695H279.485V60.07H274.805V48.695H272.695V44.885H274.805V42.9C274.805 39.21 277.07 37.845 280.57 37.845C281.285 37.845 281.905 37.94 282.46 38.03L283.02 41.625C282.585 41.565 282.03 41.47 281.345 41.47L281.34 41.475Z" fill="#231F20"/>
<path id="Vector_12" d="M298.45 34.085H305.5L314.5 59.285L308.015 60.335L306.105 54.71H297.18L295.455 60.07H289.155L298.455 34.085H298.45ZM298.715 49.685H304.525L301.64 40.685L298.715 49.685Z" fill="#231F20"/>
<path id="Vector_13" d="M332.235 60.335L326.575 51.185H324.965V60.07H318.59V34.195H327.625C333.885 34.195 337.56 37.045 337.56 42.37C337.56 45.97 335.76 48.405 332.685 49.72L339.02 59.245L332.235 60.335V60.335ZM326.985 39.035H324.925V46.57H326.91C329.685 46.57 331.26 45.22 331.26 42.745C331.26 40.27 329.76 39.035 326.985 39.035V39.035Z" fill="#231F20"/>
<path id="Vector_14" d="M354.475 39.635V60.07H348.025V39.635H340.715V34.195H361.19L362.09 39.635H354.48H354.475Z" fill="#231F20"/>
</g>
<g id="Group_5">
<path id="Vector_15" d="M109.275 60.07L108.15 42.745L103.275 60.105H97.2L92.325 42.745L91.2 60.07H85.615L87.49 34.195H95.775L100.8 52.005L105.86 34.195H113.92L115.795 60.07H109.27H109.275Z" fill="#231F20"/>
<path id="Vector_16" d="M131.71 60.485C125.375 60.485 120.95 57.07 120.95 49.835V34.2H127.4V49.8C127.4 53.135 128.9 55.085 131.785 55.085C134.67 55.085 136.17 53.17 136.17 49.875V34.2H142.62V49.8C142.62 57 137.97 60.485 131.71 60.485V60.485Z" fill="#231F20"/>
<path id="Vector_17" d="M156.38 60.37C152.895 60.37 149.97 59.62 147.345 58.42L148.285 52.945C150.945 54.37 153.91 55.345 156.495 55.345C158.33 55.345 159.605 54.555 159.605 53.02C159.605 51.485 158.855 50.885 155.22 49.495C150.045 47.51 147.795 45.82 147.795 41.545C147.795 36.56 151.695 33.895 156.645 33.895C160.02 33.895 162.195 34.53 164.445 35.62L163.47 41.02C161.145 39.67 158.71 38.92 156.72 38.92C154.73 38.92 153.835 39.745 153.835 40.945C153.835 42.255 154.545 42.895 157.77 44.13C163.43 46.19 165.645 48.145 165.645 52.265C165.645 57.89 161.52 60.365 156.385 60.365L156.38 60.37Z" fill="#231F20"/>
<path id="Vector_18" d="M170.645 60.07V34.195H186.77V39.37H176.945V44.245H184.445L185.27 49.38H176.945V54.855H187.105V60.065H170.645V60.07Z" fill="#231F20"/>
<path id="Vector_19" d="M202.64 60.485C196.305 60.485 191.88 57.07 191.88 49.835V34.2H198.33V49.8C198.33 53.135 199.83 55.085 202.715 55.085C205.6 55.085 207.1 53.17 207.1 49.875V34.2H213.55V49.8C213.55 57 208.9 60.485 202.64 60.485V60.485Z" fill="#231F20"/>
<path id="Vector_20" d="M242.32 60.07L241.195 42.745L236.32 60.105H230.245L225.37 42.745L224.245 60.07H218.66L220.535 34.195H228.82L233.845 52.005L238.905 34.195H246.965L248.84 60.07H242.315H242.32Z" fill="#231F20"/>
<path id="Vector_21" d="M264.17 60.38C259.985 60.38 256.915 57.375 256.915 52.505C256.915 47.635 260.015 44.57 264.2 44.57C268.385 44.57 271.515 47.61 271.515 52.475C271.515 57.34 268.385 60.38 264.17 60.38ZM264.2 48.385C262.4 48.385 261.44 49.995 261.44 52.475C261.44 54.955 262.43 56.6 264.2 56.6C265.97 56.6 266.99 54.955 266.99 52.51C266.99 50.065 266 48.385 264.2 48.385Z" fill="#231F20"/>
<path id="Vector_22" d="M281.34 41.475C280.07 41.475 279.48 42.095 279.48 43.335V44.885H282.24L282.8 48.695H279.485V60.07H274.805V48.695H272.695V44.885H274.805V42.9C274.805 39.21 277.07 37.845 280.57 37.845C281.285 37.845 281.905 37.94 282.46 38.03L283.02 41.625C282.585 41.565 282.03 41.47 281.345 41.47L281.34 41.475Z" fill="#231F20"/>
<path id="Vector_23" d="M298.45 34.085H305.5L314.5 59.285L308.015 60.335L306.105 54.71H297.18L295.455 60.07H289.155L298.455 34.085H298.45ZM298.715 49.685H304.525L301.64 40.685L298.715 49.685Z" fill="#231F20"/>
<path id="Vector_24" d="M332.235 60.335L326.575 51.185H324.965V60.07H318.59V34.195H327.625C333.885 34.195 337.56 37.045 337.56 42.37C337.56 45.97 335.76 48.405 332.685 49.72L339.02 59.245L332.235 60.335V60.335ZM326.985 39.035H324.925V46.57H326.91C329.685 46.57 331.26 45.22 331.26 42.745C331.26 40.27 329.76 39.035 326.985 39.035V39.035Z" fill="#231F20"/>
<path id="Vector_25" d="M354.475 39.635V60.07H348.025V39.635H340.715V34.195H361.19L362.09 39.635H354.48H354.475Z" fill="#231F20"/>
</g>
</g>
<g id="Group_6">
<g id="Group_7">
<path id="Vector_26" d="M101.75 23.795L100.9 12.765L96.6249 23.85H95.1399L90.8649 12.765L90.0349 23.795H88.2949L89.3849 10.135H91.6799L95.9349 21.34L100.19 10.135H102.465L103.535 23.795H101.755H101.75Z" fill="#231F20"/>
<path id="Vector_27" d="M107.23 12.45C106.615 12.45 106.1 11.955 106.1 11.34C106.1 10.725 106.615 10.21 107.23 10.21C107.845 10.21 108.34 10.725 108.34 11.34C108.34 11.955 107.845 12.45 107.23 12.45ZM106.34 23.795V14.35H108.1V23.795H106.34Z" fill="#231F20"/>
<path id="Vector_28" d="M117.345 23.795L117.125 22.43C116.41 23.28 115.44 23.995 114.055 23.995C112.015 23.995 110.335 22.51 110.335 19.345C110.335 15.9 112.315 14.235 114.61 14.235C115.54 14.235 116.39 14.415 116.985 14.65V9.78L118.745 9.505V23.8H117.34L117.345 23.795ZM116.99 16.25C116.255 15.875 115.685 15.715 114.675 15.715C113.19 15.715 112.12 16.925 112.12 19.26C112.12 21.34 113.05 22.425 114.32 22.425C115.41 22.425 116.24 21.77 116.995 20.76V16.245L116.99 16.25Z" fill="#231F20"/>
<path id="Vector_29" d="M128.005 23.795L127.785 22.43C127.07 23.28 126.1 23.995 124.715 23.995C122.675 23.995 120.995 22.51 120.995 19.345C120.995 15.9 122.975 14.235 125.27 14.235C126.2 14.235 127.05 14.415 127.645 14.65V9.78L129.405 9.505V23.8H128L128.005 23.795ZM127.65 16.25C126.915 15.875 126.345 15.715 125.335 15.715C123.85 15.715 122.78 16.925 122.78 19.26C122.78 21.34 123.71 22.425 124.98 22.425C126.07 22.425 126.9 21.77 127.655 20.76V16.245L127.65 16.25Z" fill="#231F20"/>
<path id="Vector_30" d="M132.18 23.795V9.775L133.94 9.5V23.795H132.18Z" fill="#231F20"/>
<path id="Vector_31" d="M140.59 23.99C138.135 23.99 136.215 22.505 136.215 19.04C136.215 16.01 137.995 14.15 140.375 14.15C143.125 14.15 144.395 16.27 144.395 18.88V19.255H137.98C138.04 21.45 139.09 22.48 140.73 22.48C142.095 22.48 143.085 21.945 144.115 21.135L144.375 22.72C143.365 23.51 142.155 23.985 140.595 23.985L140.59 23.99ZM138.055 17.93H142.61C142.39 16.405 141.72 15.535 140.355 15.535C139.265 15.535 138.335 16.325 138.06 17.93H138.055Z" fill="#231F20"/>
<path id="Vector_32" d="M150.35 23.91C148.925 23.91 147.915 23.69 146.67 23.315V9.775L148.43 9.5V15.46C149.065 14.805 149.975 14.155 151.26 14.155C153.3 14.155 154.98 15.66 154.98 18.81C154.98 22.255 153.08 23.92 150.345 23.92L150.35 23.91ZM151.005 15.715C150.015 15.715 149.145 16.37 148.43 17.26V22.09C149.025 22.31 149.46 22.405 150.33 22.405C152.17 22.405 153.2 21.315 153.2 18.88C153.2 16.82 152.27 15.715 151 15.715H151.005Z" fill="#231F20"/>
<path id="Vector_33" d="M163.47 23.795L163.25 22.43C162.36 23.26 161.23 23.995 159.905 23.995C158.105 23.995 157.175 22.925 157.175 21.225V14.355H158.935V20.79C158.935 21.76 159.35 22.415 160.38 22.415C161.31 22.415 162.26 21.8 163.11 20.89V14.355H164.87V23.8H163.465L163.47 23.795Z" fill="#231F20"/>
<path id="Vector_34" d="M169.335 18.21V23.795H167.575V14.35H168.98L169.275 16.27C169.95 15.2 171.035 14.23 172.58 14.15L172.855 15.835C171.29 15.915 169.965 16.965 169.33 18.21H169.335Z" fill="#231F20"/>
<path id="Vector_35" d="M178.83 24.785C178.06 26.885 177.03 27.4 175.64 27.4C175.265 27.4 175.065 27.36 174.89 27.32L174.635 25.715C174.93 25.795 175.29 25.855 175.565 25.855C176.355 25.855 176.89 25.48 177.27 24.47L177.51 23.835L174.065 14.49L175.845 14.215L178.38 21.7L180.855 14.355H182.695L178.835 24.79L178.83 24.785Z" fill="#231F20"/>
<path id="Vector_36" d="M195.225 24.05C191.385 24.05 188.91 21.2 188.91 16.98C188.91 12.76 191.425 9.87 195.265 9.87C196.89 9.87 198.095 10.285 199.145 11L198.87 12.9C197.88 12.15 196.71 11.575 195.245 11.575C192.475 11.575 190.83 13.675 190.83 16.96C190.83 20.245 192.495 22.325 195.245 22.325C196.71 22.325 197.995 21.75 199.085 20.96L199.36 22.72C198.31 23.49 196.785 24.045 195.22 24.045L195.225 24.05Z" fill="#231F20"/>
<path id="Vector_37" d="M205.3 23.99C202.785 23.99 200.965 22.19 200.965 19.08C200.965 15.97 202.785 14.15 205.3 14.15C207.815 14.15 209.695 15.97 209.695 19.08C209.695 22.19 207.835 23.99 205.3 23.99ZM205.3 15.615C203.595 15.615 202.745 17.1 202.745 19.08C202.745 21.06 203.635 22.525 205.3 22.525C206.965 22.525 207.915 21.06 207.915 19.08C207.915 17.1 207.005 15.615 205.3 15.615Z" fill="#231F20"/>
<path id="Vector_38" d="M211.995 23.795V9.775L213.755 9.5V23.795H211.995Z" fill="#231F20"/>
<path id="Vector_39" d="M216.565 23.795V9.775L218.325 9.5V23.795H216.565Z" fill="#231F20"/>
<path id="Vector_40" d="M224.98 23.99C222.525 23.99 220.605 22.505 220.605 19.04C220.605 16.01 222.385 14.15 224.765 14.15C227.515 14.15 228.785 16.27 228.785 18.88V19.255H222.37C222.43 21.45 223.48 22.48 225.12 22.48C226.485 22.48 227.475 21.945 228.505 21.135L228.765 22.72C227.755 23.51 226.545 23.985 224.985 23.985L224.98 23.99ZM222.445 17.93H227C226.78 16.405 226.11 15.535 224.745 15.535C223.655 15.535 222.725 16.325 222.45 17.93H222.445Z" fill="#231F20"/>
<path id="Vector_41" d="M234.33 27.395C231.875 27.395 229.915 26.625 229.915 24.96C229.915 23.99 230.59 23.235 231.915 22.525C231.5 22.23 231.32 21.89 231.32 21.535C231.32 21.08 231.675 20.645 232.31 20.25C231.24 19.715 230.55 18.725 230.55 17.44C230.55 15.4 232.255 14.155 234.175 14.155C235.105 14.155 235.955 14.45 236.61 14.965L239.005 14.215L239.26 15.8L237.46 15.98C237.7 16.415 237.835 16.91 237.835 17.445C237.835 19.465 236.13 20.69 234.21 20.69C233.955 20.69 233.715 20.67 233.495 20.63C233.22 20.81 233.02 21.025 233.02 21.205C233.02 21.54 233.355 21.62 235.02 21.92L235.695 22.04C237.695 22.395 238.94 23.03 238.94 24.495C238.94 26.475 236.78 27.405 234.325 27.405L234.33 27.395ZM233.18 23.06C232.09 23.615 231.595 24.17 231.595 24.82C231.595 25.57 232.565 26.125 234.405 26.125C236.245 26.125 237.275 25.49 237.275 24.7C237.275 24.125 236.84 23.73 235.495 23.49L234.365 23.29C233.85 23.19 233.555 23.15 233.175 23.055L233.18 23.06ZM234.17 15.435C232.98 15.435 232.25 16.345 232.25 17.495C232.25 18.585 233 19.435 234.17 19.435C235.34 19.435 236.13 18.545 236.13 17.415C236.13 16.285 235.34 15.435 234.17 15.435Z" fill="#231F20"/>
<path id="Vector_42" d="M244.685 23.99C242.23 23.99 240.31 22.505 240.31 19.04C240.31 16.01 242.09 14.15 244.47 14.15C247.22 14.15 248.49 16.27 248.49 18.88V19.255H242.075C242.135 21.45 243.185 22.48 244.825 22.48C246.19 22.48 247.18 21.945 248.21 21.135L248.47 22.72C247.46 23.51 246.25 23.985 244.69 23.985L244.685 23.99ZM242.15 17.93H246.705C246.485 16.405 245.815 15.535 244.45 15.535C243.36 15.535 242.43 16.325 242.155 17.93H242.15Z" fill="#231F20"/>
</g>
<g id="Group_8">
<path id="Vector_43" d="M101.75 23.795L100.9 12.765L96.6249 23.85H95.1399L90.8649 12.765L90.0349 23.795H88.2949L89.3849 10.135H91.6799L95.9349 21.34L100.19 10.135H102.465L103.535 23.795H101.755H101.75Z" fill="#231F20"/>
<path id="Vector_44" d="M107.23 12.45C106.615 12.45 106.1 11.955 106.1 11.34C106.1 10.725 106.615 10.21 107.23 10.21C107.845 10.21 108.34 10.725 108.34 11.34C108.34 11.955 107.845 12.45 107.23 12.45ZM106.34 23.795V14.35H108.1V23.795H106.34Z" fill="#231F20"/>
<path id="Vector_45" d="M117.345 23.795L117.125 22.43C116.41 23.28 115.44 23.995 114.055 23.995C112.015 23.995 110.335 22.51 110.335 19.345C110.335 15.9 112.315 14.235 114.61 14.235C115.54 14.235 116.39 14.415 116.985 14.65V9.78L118.745 9.505V23.8H117.34L117.345 23.795ZM116.99 16.25C116.255 15.875 115.685 15.715 114.675 15.715C113.19 15.715 112.12 16.925 112.12 19.26C112.12 21.34 113.05 22.425 114.32 22.425C115.41 22.425 116.24 21.77 116.995 20.76V16.245L116.99 16.25Z" fill="#231F20"/>
<path id="Vector_46" d="M128.005 23.795L127.785 22.43C127.07 23.28 126.1 23.995 124.715 23.995C122.675 23.995 120.995 22.51 120.995 19.345C120.995 15.9 122.975 14.235 125.27 14.235C126.2 14.235 127.05 14.415 127.645 14.65V9.78L129.405 9.505V23.8H128L128.005 23.795ZM127.65 16.25C126.915 15.875 126.345 15.715 125.335 15.715C123.85 15.715 122.78 16.925 122.78 19.26C122.78 21.34 123.71 22.425 124.98 22.425C126.07 22.425 126.9 21.77 127.655 20.76V16.245L127.65 16.25Z" fill="#231F20"/>
<path id="Vector_47" d="M132.18 23.795V9.775L133.94 9.5V23.795H132.18Z" fill="#231F20"/>
<path id="Vector_48" d="M140.59 23.99C138.135 23.99 136.215 22.505 136.215 19.04C136.215 16.01 137.995 14.15 140.375 14.15C143.125 14.15 144.395 16.27 144.395 18.88V19.255H137.98C138.04 21.45 139.09 22.48 140.73 22.48C142.095 22.48 143.085 21.945 144.115 21.135L144.375 22.72C143.365 23.51 142.155 23.985 140.595 23.985L140.59 23.99ZM138.055 17.93H142.61C142.39 16.405 141.72 15.535 140.355 15.535C139.265 15.535 138.335 16.325 138.06 17.93H138.055Z" fill="#231F20"/>
<path id="Vector_49" d="M150.35 23.91C148.925 23.91 147.915 23.69 146.67 23.315V9.775L148.43 9.5V15.46C149.065 14.805 149.975 14.155 151.26 14.155C153.3 14.155 154.98 15.66 154.98 18.81C154.98 22.255 153.08 23.92 150.345 23.92L150.35 23.91ZM151.005 15.715C150.015 15.715 149.145 16.37 148.43 17.26V22.09C149.025 22.31 149.46 22.405 150.33 22.405C152.17 22.405 153.2 21.315 153.2 18.88C153.2 16.82 152.27 15.715 151 15.715H151.005Z" fill="#231F20"/>
<path id="Vector_50" d="M163.47 23.795L163.25 22.43C162.36 23.26 161.23 23.995 159.905 23.995C158.105 23.995 157.175 22.925 157.175 21.225V14.355H158.935V20.79C158.935 21.76 159.35 22.415 160.38 22.415C161.31 22.415 162.26 21.8 163.11 20.89V14.355H164.87V23.8H163.465L163.47 23.795Z" fill="#231F20"/>
<path id="Vector_51" d="M169.335 18.21V23.795H167.575V14.35H168.98L169.275 16.27C169.95 15.2 171.035 14.23 172.58 14.15L172.855 15.835C171.29 15.915 169.965 16.965 169.33 18.21H169.335Z" fill="#231F20"/>
<path id="Vector_52" d="M178.83 24.785C178.06 26.885 177.03 27.4 175.64 27.4C175.265 27.4 175.065 27.36 174.89 27.32L174.635 25.715C174.93 25.795 175.29 25.855 175.565 25.855C176.355 25.855 176.89 25.48 177.27 24.47L177.51 23.835L174.065 14.49L175.845 14.215L178.38 21.7L180.855 14.355H182.695L178.835 24.79L178.83 24.785Z" fill="#231F20"/>
<path id="Vector_53" d="M195.225 24.05C191.385 24.05 188.91 21.2 188.91 16.98C188.91 12.76 191.425 9.87 195.265 9.87C196.89 9.87 198.095 10.285 199.145 11L198.87 12.9C197.88 12.15 196.71 11.575 195.245 11.575C192.475 11.575 190.83 13.675 190.83 16.96C190.83 20.245 192.495 22.325 195.245 22.325C196.71 22.325 197.995 21.75 199.085 20.96L199.36 22.72C198.31 23.49 196.785 24.045 195.22 24.045L195.225 24.05Z" fill="#231F20"/>
<path id="Vector_54" d="M205.3 23.99C202.785 23.99 200.965 22.19 200.965 19.08C200.965 15.97 202.785 14.15 205.3 14.15C207.815 14.15 209.695 15.97 209.695 19.08C209.695 22.19 207.835 23.99 205.3 23.99ZM205.3 15.615C203.595 15.615 202.745 17.1 202.745 19.08C202.745 21.06 203.635 22.525 205.3 22.525C206.965 22.525 207.915 21.06 207.915 19.08C207.915 17.1 207.005 15.615 205.3 15.615Z" fill="#231F20"/>
<path id="Vector_55" d="M211.995 23.795V9.775L213.755 9.5V23.795H211.995Z" fill="#231F20"/>
<path id="Vector_56" d="M216.565 23.795V9.775L218.325 9.5V23.795H216.565Z" fill="#231F20"/>
<path id="Vector_57" d="M224.98 23.99C222.525 23.99 220.605 22.505 220.605 19.04C220.605 16.01 222.385 14.15 224.765 14.15C227.515 14.15 228.785 16.27 228.785 18.88V19.255H222.37C222.43 21.45 223.48 22.48 225.12 22.48C226.485 22.48 227.475 21.945 228.505 21.135L228.765 22.72C227.755 23.51 226.545 23.985 224.985 23.985L224.98 23.99ZM222.445 17.93H227C226.78 16.405 226.11 15.535 224.745 15.535C223.655 15.535 222.725 16.325 222.45 17.93H222.445Z" fill="#231F20"/>
<path id="Vector_58" d="M234.33 27.395C231.875 27.395 229.915 26.625 229.915 24.96C229.915 23.99 230.59 23.235 231.915 22.525C231.5 22.23 231.32 21.89 231.32 21.535C231.32 21.08 231.675 20.645 232.31 20.25C231.24 19.715 230.55 18.725 230.55 17.44C230.55 15.4 232.255 14.155 234.175 14.155C235.105 14.155 235.955 14.45 236.61 14.965L239.005 14.215L239.26 15.8L237.46 15.98C237.7 16.415 237.835 16.91 237.835 17.445C237.835 19.465 236.13 20.69 234.21 20.69C233.955 20.69 233.715 20.67 233.495 20.63C233.22 20.81 233.02 21.025 233.02 21.205C233.02 21.54 233.355 21.62 235.02 21.92L235.695 22.04C237.695 22.395 238.94 23.03 238.94 24.495C238.94 26.475 236.78 27.405 234.325 27.405L234.33 27.395ZM233.18 23.06C232.09 23.615 231.595 24.17 231.595 24.82C231.595 25.57 232.565 26.125 234.405 26.125C236.245 26.125 237.275 25.49 237.275 24.7C237.275 24.125 236.84 23.73 235.495 23.49L234.365 23.29C233.85 23.19 233.555 23.15 233.175 23.055L233.18 23.06ZM234.17 15.435C232.98 15.435 232.25 16.345 232.25 17.495C232.25 18.585 233 19.435 234.17 19.435C235.34 19.435 236.13 18.545 236.13 17.415C236.13 16.285 235.34 15.435 234.17 15.435Z" fill="#231F20"/>
<path id="Vector_59" d="M244.685 23.99C242.23 23.99 240.31 22.505 240.31 19.04C240.31 16.01 242.09 14.15 244.47 14.15C247.22 14.15 248.49 16.27 248.49 18.88V19.255H242.075C242.135 21.45 243.185 22.48 244.825 22.48C246.19 22.48 247.18 21.945 248.21 21.135L248.47 22.72C247.46 23.51 246.25 23.985 244.69 23.985L244.685 23.99ZM242.15 17.93H246.705C246.485 16.405 245.815 15.535 244.45 15.535C243.36 15.535 242.43 16.325 242.155 17.93H242.15Z" fill="#231F20"/>
</g>
</g>
</g>
</g>
</g>
<defs>
<clipPath id="clip0_546_70">
<rect width="363" height="72" fill="white"/>
</clipPath>
</defs>
</svg>
