<svg width="202" height="10" viewBox="0 0 202 10" fill="none" xmlns="http://www.w3.org/2000/svg">
<path d="M4.6582 9L2.90625 2.83008H2.85352C2.86914 2.99023 2.88477 3.20703 2.90039 3.48047C2.91992 3.75391 2.9375 4.04883 2.95312 4.36523C2.96875 4.68164 2.97656 4.98633 2.97656 5.2793V9H0.925781V0.433594H4.00781L5.79492 6.51562H5.8418L7.59375 0.433594H10.6816V9H8.55469V5.24414C8.55469 4.97461 8.55859 4.68555 8.56641 4.37695C8.57812 4.06445 8.58984 3.77148 8.60156 3.49805C8.61719 3.2207 8.63086 3.00195 8.64258 2.8418H8.58984L6.86133 9H4.6582ZM13.5273 9V0.433594H15.8535V9H13.5273ZM25.9824 4.53516C25.9824 5.53125 25.7969 6.35938 25.4258 7.01953C25.0547 7.67969 24.5312 8.17578 23.8555 8.50781C23.1836 8.83594 22.3926 9 21.4824 9H18.7109V0.433594H21.6758C22.5977 0.433594 23.3789 0.591797 24.0195 0.908203C24.6602 1.22461 25.1465 1.6875 25.4785 2.29688C25.8145 2.90625 25.9824 3.65234 25.9824 4.53516ZM23.5801 4.61719C23.5801 4.09766 23.5098 3.66797 23.3691 3.32812C23.2324 2.98438 23.0254 2.72852 22.748 2.56055C22.4707 2.38867 22.1211 2.30273 21.6992 2.30273H21.0254V7.10156H21.541C22.2441 7.10156 22.7598 6.89844 23.0879 6.49219C23.416 6.08203 23.5801 5.45703 23.5801 4.61719ZM35.7949 4.53516C35.7949 5.53125 35.6094 6.35938 35.2383 7.01953C34.8672 7.67969 34.3438 8.17578 33.668 8.50781C32.9961 8.83594 32.2051 9 31.2949 9H28.5234V0.433594H31.4883C32.4102 0.433594 33.1914 0.591797 33.832 0.908203C34.4727 1.22461 34.959 1.6875 35.291 2.29688C35.627 2.90625 35.7949 3.65234 35.7949 4.53516ZM33.3926 4.61719C33.3926 4.09766 33.3223 3.66797 33.1816 3.32812C33.0449 2.98438 32.8379 2.72852 32.5605 2.56055C32.2832 2.38867 31.9336 2.30273 31.5117 2.30273H30.8379V7.10156H31.3535C32.0566 7.10156 32.5723 6.89844 32.9004 6.49219C33.2285 6.08203 33.3926 5.45703 33.3926 4.61719ZM38.3359 9V0.433594H40.6504V7.13086H43.9492V9H38.3359ZM51.4062 9H46.3203V0.433594H51.4062V2.29102H48.6348V3.63867H51.2012V5.49609H48.6348V7.11328H51.4062V9ZM53.9062 0.433594H56.8945C58.1328 0.433594 59.0156 0.617187 59.543 0.984375C60.0703 1.35156 60.334 1.87891 60.334 2.56641C60.334 2.94141 60.2656 3.25977 60.1289 3.52148C59.9961 3.7832 59.8262 3.99023 59.6191 4.14258C59.416 4.29492 59.207 4.39844 58.9922 4.45312V4.51172C59.2266 4.57031 59.459 4.66797 59.6895 4.80469C59.9238 4.9375 60.1172 5.13867 60.2695 5.4082C60.4258 5.67383 60.5039 6.03516 60.5039 6.49219C60.5039 7.01172 60.3711 7.45898 60.1055 7.83398C59.8438 8.20898 59.4688 8.49805 58.9805 8.70117C58.4922 8.90039 57.9121 9 57.2402 9H53.9062V0.433594ZM56.2207 3.7207H56.918C57.3008 3.7207 57.5703 3.64258 57.7266 3.48633C57.8828 3.32617 57.9609 3.13281 57.9609 2.90625C57.9609 2.67188 57.8711 2.49414 57.6914 2.37305C57.5156 2.24805 57.2422 2.18555 56.8711 2.18555H56.2207V3.7207ZM56.2207 5.41406V7.21289H57.0352C57.4375 7.21289 57.7188 7.12695 57.8789 6.95508C58.0391 6.7793 58.1191 6.56055 58.1191 6.29883C58.1191 6.14648 58.084 6.00391 58.0137 5.87109C57.9473 5.73438 57.832 5.625 57.668 5.54297C57.5039 5.45703 57.2773 5.41406 56.9883 5.41406H56.2207ZM70.2754 0.433594V5.58984C70.2754 6.30859 70.1387 6.93359 69.8652 7.46484C69.5918 7.99219 69.1816 8.40039 68.6348 8.68945C68.0879 8.97461 67.4023 9.11719 66.5781 9.11719C65.3984 9.11719 64.498 8.81445 63.877 8.20898C63.2559 7.60352 62.9453 6.74805 62.9453 5.64258V0.433594H65.2715V5.46094C65.2715 6.06641 65.3848 6.50586 65.6113 6.7793C65.8379 7.05273 66.1719 7.18945 66.6133 7.18945C66.9297 7.18945 67.1875 7.13086 67.3867 7.01367C67.5859 6.89258 67.7305 6.70312 67.8203 6.44531C67.9141 6.1875 67.9609 5.85547 67.9609 5.44922V0.433594H70.2754ZM75.8809 0.433594C76.6582 0.433594 77.3047 0.529297 77.8203 0.720703C78.3359 0.908203 78.7227 1.18945 78.9805 1.56445C79.2422 1.93945 79.373 2.40625 79.373 2.96484C79.373 3.3125 79.3145 3.62891 79.1973 3.91406C79.0801 4.19922 78.9121 4.45508 78.6934 4.68164C78.4785 4.9043 78.2207 5.09961 77.9199 5.26758L80.416 9H77.791L75.9746 5.88281H75.3887V9H73.0742V0.433594H75.8809ZM75.8457 2.18555H75.3887V4.14258H75.8223C76.1777 4.14258 76.4688 4.06445 76.6953 3.9082C76.9219 3.75195 77.0352 3.47266 77.0352 3.07031C77.0352 2.79297 76.9414 2.57617 76.7539 2.41992C76.5664 2.26367 76.2637 2.18555 75.8457 2.18555ZM85.2539 3.60938L86.7305 0.433594H89.2383L86.4199 5.6543V9H84.0879V5.72461L81.2695 0.433594H83.7891L85.2539 3.60938ZM98.0879 0.433594C98.8652 0.433594 99.5117 0.529297 100.027 0.720703C100.543 0.908203 100.93 1.18945 101.188 1.56445C101.449 1.93945 101.58 2.40625 101.58 2.96484C101.58 3.3125 101.521 3.62891 101.404 3.91406C101.287 4.19922 101.119 4.45508 100.9 4.68164C100.686 4.9043 100.428 5.09961 100.127 5.26758L102.623 9H99.998L98.1816 5.88281H97.5957V9H95.2812V0.433594H98.0879ZM98.0527 2.18555H97.5957V4.14258H98.0293C98.3848 4.14258 98.6758 4.06445 98.9023 3.9082C99.1289 3.75195 99.2422 3.47266 99.2422 3.07031C99.2422 2.79297 99.1484 2.57617 98.9609 2.41992C98.7734 2.26367 98.4707 2.18555 98.0527 2.18555ZM109.658 9L109.236 7.39453H106.453L106.02 9H103.477L106.271 0.398438H109.359L112.189 9H109.658ZM108.756 5.49609L108.387 4.08984C108.348 3.9375 108.291 3.7207 108.217 3.43945C108.143 3.1543 108.068 2.86133 107.994 2.56055C107.924 2.25586 107.869 2.00586 107.83 1.81055C107.795 2.00586 107.744 2.24805 107.678 2.53711C107.615 2.82227 107.549 3.10547 107.479 3.38672C107.412 3.66797 107.354 3.90234 107.303 4.08984L106.934 5.49609H108.756ZM121.393 4.53516C121.393 5.53125 121.207 6.35938 120.836 7.01953C120.465 7.67969 119.941 8.17578 119.266 8.50781C118.594 8.83594 117.803 9 116.893 9H114.121V0.433594H117.086C118.008 0.433594 118.789 0.591797 119.43 0.908203C120.07 1.22461 120.557 1.6875 120.889 2.29688C121.225 2.90625 121.393 3.65234 121.393 4.53516ZM118.99 4.61719C118.99 4.09766 118.92 3.66797 118.779 3.32812C118.643 2.98438 118.436 2.72852 118.158 2.56055C117.881 2.38867 117.531 2.30273 117.109 2.30273H116.436V7.10156H116.951C117.654 7.10156 118.17 6.89844 118.498 6.49219C118.826 6.08203 118.99 5.45703 118.99 4.61719ZM123.934 9V0.433594H126.26V9H123.934ZM137.133 4.70508C137.133 5.36523 137.053 5.9668 136.893 6.50977C136.736 7.04883 136.49 7.51367 136.154 7.9043C135.818 8.29492 135.387 8.5957 134.859 8.80664C134.332 9.01367 133.701 9.11719 132.967 9.11719C132.248 9.11719 131.625 9.01367 131.098 8.80664C130.574 8.5957 130.143 8.29688 129.803 7.91016C129.463 7.51953 129.211 7.05273 129.047 6.50977C128.883 5.9668 128.801 5.36133 128.801 4.69336C128.801 3.80273 128.947 3.0293 129.24 2.37305C129.537 1.71289 129.994 1.20312 130.611 0.84375C131.229 0.480469 132.018 0.298828 132.979 0.298828C133.955 0.298828 134.748 0.480469 135.357 0.84375C135.971 1.20703 136.42 1.71875 136.705 2.37891C136.99 3.03906 137.133 3.81445 137.133 4.70508ZM131.238 4.70508C131.238 5.2207 131.297 5.66406 131.414 6.03516C131.531 6.40625 131.717 6.69141 131.971 6.89062C132.225 7.08984 132.557 7.18945 132.967 7.18945C133.393 7.18945 133.73 7.08984 133.98 6.89062C134.234 6.69141 134.416 6.40625 134.525 6.03516C134.639 5.66406 134.695 5.2207 134.695 4.70508C134.695 3.93164 134.566 3.32031 134.309 2.87109C134.051 2.42188 133.607 2.19727 132.979 2.19727C132.561 2.19727 132.223 2.29883 131.965 2.50195C131.711 2.70508 131.525 2.99414 131.408 3.36914C131.295 3.74414 131.238 4.18945 131.238 4.70508ZM149.398 6.39844C149.398 6.86328 149.281 7.30469 149.047 7.72266C148.812 8.13672 148.447 8.47266 147.951 8.73047C147.459 8.98828 146.822 9.11719 146.041 9.11719C145.65 9.11719 145.307 9.09961 145.01 9.06445C144.717 9.0293 144.443 8.97266 144.189 8.89453C143.936 8.8125 143.672 8.70703 143.398 8.57812V6.51562C143.863 6.75 144.332 6.92969 144.805 7.05469C145.277 7.17578 145.705 7.23633 146.088 7.23633C146.318 7.23633 146.506 7.20898 146.65 7.1543C146.799 7.09961 146.908 7.02539 146.979 6.93164C147.049 6.83398 147.084 6.72266 147.084 6.59766C147.084 6.44922 147.031 6.32422 146.926 6.22266C146.824 6.11719 146.66 6.00781 146.434 5.89453C146.207 5.78125 145.908 5.64062 145.537 5.47266C145.221 5.32422 144.934 5.17188 144.676 5.01562C144.422 4.85938 144.203 4.68164 144.02 4.48242C143.84 4.2793 143.701 4.04297 143.604 3.77344C143.506 3.50391 143.457 3.18555 143.457 2.81836C143.457 2.26758 143.592 1.80664 143.861 1.43555C144.135 1.06055 144.514 0.779297 144.998 0.591797C145.486 0.404297 146.049 0.310547 146.686 0.310547C147.244 0.310547 147.746 0.373047 148.191 0.498047C148.641 0.623047 149.043 0.765625 149.398 0.925781L148.689 2.71289C148.322 2.54492 147.961 2.41211 147.605 2.31445C147.25 2.21289 146.92 2.16211 146.615 2.16211C146.416 2.16211 146.252 2.1875 146.123 2.23828C145.998 2.28516 145.904 2.34961 145.842 2.43164C145.783 2.51367 145.754 2.60742 145.754 2.71289C145.754 2.8457 145.805 2.96484 145.906 3.07031C146.012 3.17578 146.186 3.29102 146.428 3.41602C146.674 3.53711 147.008 3.69531 147.43 3.89062C147.848 4.07812 148.203 4.28125 148.496 4.5C148.789 4.71484 149.012 4.97461 149.164 5.2793C149.32 5.58008 149.398 5.95312 149.398 6.39844ZM155.502 9H153.188V2.32617H151.096V0.433594H157.588V2.32617H155.502V9ZM165.068 9L164.646 7.39453H161.863L161.43 9H158.887L161.682 0.398438H164.77L167.6 9H165.068ZM164.166 5.49609L163.797 4.08984C163.758 3.9375 163.701 3.7207 163.627 3.43945C163.553 3.1543 163.479 2.86133 163.404 2.56055C163.334 2.25586 163.279 2.00586 163.24 1.81055C163.205 2.00586 163.154 2.24805 163.088 2.53711C163.025 2.82227 162.959 3.10547 162.889 3.38672C162.822 3.66797 162.764 3.90234 162.713 4.08984L162.344 5.49609H164.166ZM173.311 9H170.996V2.32617H168.904V0.433594H175.396V2.32617H173.311V9ZM177.621 9V0.433594H179.947V9H177.621ZM190.82 4.70508C190.82 5.36523 190.74 5.9668 190.58 6.50977C190.424 7.04883 190.178 7.51367 189.842 7.9043C189.506 8.29492 189.074 8.5957 188.547 8.80664C188.02 9.01367 187.389 9.11719 186.654 9.11719C185.936 9.11719 185.312 9.01367 184.785 8.80664C184.262 8.5957 183.83 8.29688 183.49 7.91016C183.15 7.51953 182.898 7.05273 182.734 6.50977C182.57 5.9668 182.488 5.36133 182.488 4.69336C182.488 3.80273 182.635 3.0293 182.928 2.37305C183.225 1.71289 183.682 1.20312 184.299 0.84375C184.916 0.480469 185.705 0.298828 186.666 0.298828C187.643 0.298828 188.436 0.480469 189.045 0.84375C189.658 1.20703 190.107 1.71875 190.393 2.37891C190.678 3.03906 190.82 3.81445 190.82 4.70508ZM184.926 4.70508C184.926 5.2207 184.984 5.66406 185.102 6.03516C185.219 6.40625 185.404 6.69141 185.658 6.89062C185.912 7.08984 186.244 7.18945 186.654 7.18945C187.08 7.18945 187.418 7.08984 187.668 6.89062C187.922 6.69141 188.104 6.40625 188.213 6.03516C188.326 5.66406 188.383 5.2207 188.383 4.70508C188.383 3.93164 188.254 3.32031 187.996 2.87109C187.738 2.42188 187.295 2.19727 186.666 2.19727C186.248 2.19727 185.91 2.29883 185.652 2.50195C185.398 2.70508 185.213 2.99414 185.096 3.36914C184.982 3.74414 184.926 4.18945 184.926 4.70508ZM201.523 9H198.488L195.359 2.96484H195.307C195.326 3.14844 195.344 3.36914 195.359 3.62695C195.375 3.88477 195.389 4.14844 195.4 4.41797C195.412 4.68359 195.418 4.92383 195.418 5.13867V9H193.367V0.433594H196.391L199.508 6.38672H199.543C199.531 6.19922 199.52 5.98242 199.508 5.73633C199.496 5.48633 199.484 5.23438 199.473 4.98047C199.465 4.72656 199.461 4.50195 199.461 4.30664V0.433594H201.523V9Z" fill="black"/>
</svg>
