<svg width="280" height="72" xmlns="http://www.w3.org/2000/svg"><g id="blse-logo" stroke="none" stroke-width="1" fill="none" fill-rule="evenodd"><g id="Group-70" transform="translate(77 9)" fill="#000"><path d="M127.461 5.648c-1.199 0-2.145.67-3.03 2.158-.002-.023-.006-.046-.007-.068l.003-.247a7.01 7.01 0 0 1 .031-.322l.08-.703.117-1.029-3.713.38v.653l1.688.274.231 1.623v4.344l-.231 1.603-1.477.273v.654h5.421v-.654l-1.687-.273-.232-1.603V8.723c0-.027.002-.056.004-.085.612-.756 1.432-1.028 2.063-1.028.444 0 .887.146 1.245.315l.529-2.13a3.134 3.134 0 0 0-1.035-.147" id="Fill-1"/><path id="Fill-3" d="M.308 14.586l1.712-.337.21-2.132V4.538l-.21-2.132L.308 2.07v-.633h4.563l1.078 3.102 3.19 8.296 3.273-8.317.993-3.081h4.563v.633l-1.69.337-.232 2.132v7.579l.232 2.132 1.69.337v.655h-5.83v-.655l1.69-.337.233-2.132V2.87l-3.634 9.246L9.35 15.24H7.977l-1.14-3.124L3.18 2.87v9.246l.232 2.132 1.69.337v.655H.309z"/><path d="M20.687 1.625c0-.717.592-1.33 1.331-1.33.718 0 1.331.592 1.331 1.352a1.32 1.32 0 0 1-1.33 1.308c-.72 0-1.332-.528-1.332-1.33zM19.59 14.587l1.479-.275.21-1.604V8.359l-.21-1.625-1.69-.275v-.654l3.929-.38-.212 2.934v4.349l.212 1.604 1.478.275v.654H19.59v-.654z" id="Fill-5"/><path d="M32.315 12.919V6.67c-.59-.253-1.056-.379-1.711-.379-1.986 0-3.084 1.646-3.084 4.242 0 2.301.845 3.695 2.493 3.695.74 0 1.52-.338 2.302-1.309m-6.696-1.942c0-3.293 2.07-5.615 5.07-5.615a7.02 7.02 0 0 1 1.626.19v-2.47l-.232-1.626-1.69-.274V.528l3.95-.38-.233 2.934v9.626l.233 1.604 1.373.274v.655l-3.4.443.316-2.005c-.972 1.31-1.964 2.005-3.359 2.005-2.133 0-3.654-1.836-3.654-4.707" id="Fill-7"/><path d="M43.175 12.919V6.67c-.59-.253-1.056-.379-1.711-.379-1.986 0-3.084 1.646-3.084 4.242 0 2.301.845 3.695 2.493 3.695.74 0 1.52-.338 2.302-1.309m-6.696-1.942c0-3.293 2.07-5.615 5.07-5.615a7.02 7.02 0 0 1 1.626.19v-2.47l-.232-1.626-1.69-.274V.528l3.95-.38-.233 2.934v9.626l.233 1.604 1.373.274v.655l-3.4.443.316-2.005c-.972 1.31-1.964 2.005-3.359 2.005-2.133 0-3.654-1.836-3.654-4.707" id="Fill-9"/><path id="Fill-11" d="M47.91 14.586l1.478-.273.233-1.605V3.082l-.233-1.626-1.69-.274V.528l3.93-.38-.212 2.934v9.626l.233 1.605 1.458.273v.655H47.91z"/><path d="M58.47 8.95l1.435-.21c0-1.668-.782-2.533-1.944-2.533-1.182 0-2.006.886-2.238 2.744h2.746zm-4.606 1.668c0-3.209 1.626-5.256 4.267-5.256 2.218 0 3.76 1.435 3.675 4.433h-6.105s-.02.296-.02.465c0 2.384 1.161 4.073 3.4 4.073a3.56 3.56 0 0 0 2.176-.717l.423.57c-1.205 1.098-2.113 1.498-3.634 1.498-2.514 0-4.182-1.815-4.182-5.066z" id="Fill-13"/><path d="M70.476 10.45c0-2.175-.93-3.653-2.345-3.653-.865 0-1.69.359-2.45 1.246v4.665l.21 1.837c.508.168.867.253 1.416.253 2.177 0 3.169-1.942 3.169-4.349m-6.612 4.792V3.082l-.212-1.626-1.689-.273V.528l3.929-.38-.211 2.934v3.969c.78-1.035 1.922-1.689 3.21-1.689 2.029 0 3.444 1.73 3.444 4.412 0 3.272-1.965 5.91-5.768 5.91-.886 0-1.499 0-2.703-.443" id="Fill-15"/><path d="M74.786 12.391V8.36l-.233-1.625-1.648-.275v-.654l3.909-.38-.212 2.934v3.547c0 1.456.675 2.343 2.007 2.343.908 0 1.732-.549 2.323-1.267V8.36l-.21-1.625-1.649-.275v-.654l3.908-.38-.232 2.934v4.349l.232 1.605 1.521.273v.655l-3.57.38.233-1.9c-.993 1.373-1.88 1.964-3.38 1.964-1.86 0-3-1.183-3-3.294" id="Fill-17"/><path id="Fill-19" d="M94.972 20.244v-.718l2.112-.337.908-1.478.91-2.132-2.959-7.22-.865-1.646-.951-.253v-.655h4.626v.655l-1.352.253.508 1.647 1.9 4.876 1.775-4.876.464-1.647-1.33-.253v-.655h3.802v.655l-1.077.253-.802 1.647-4.606 12.158z"/><path d="M92.153 5.645c-1.2 0-2.145.67-3.03 2.157l-.008-.068.003-.246c.008-.108.02-.215.032-.322l.08-.704.117-1.028-3.714.379v.654l1.689.274.231 1.623v4.343l-.231 1.603-1.477.274v.654h5.421v-.654l-1.687-.274-.232-1.603V8.72c0-.028.002-.056.004-.085.611-.756 1.431-1.029 2.063-1.029.443 0 .887.148 1.245.316l.528-2.13a3.149 3.149 0 0 0-1.034-.147" id="Fill-21"/><path d="M118.158 11.336c0-1.668-.823-2.913-3.358-2.913h-1.204v3.694l.233 1.984c.4.17.802.274 1.351.274 1.817 0 2.978-1.16 2.978-3.04zm-3.866-3.821c2.198 0 3.148-.992 3.148-2.723 0-1.414-.866-2.47-2.703-2.47h-1.141v5.193h.696zm-4.562 7.071l1.669-.337.232-2.132V4.538l-.232-2.131-1.669-.338v-.634h6.042c2.788 0 3.802 1.33 3.802 3.125 0 1.435-1.035 2.765-2.81 3.271 2.366-.041 3.486 1.351 3.486 3.272 0 2.386-1.542 4.138-5.344 4.138h-5.176v-.655z" id="Fill-23"/><path d="M133.66 8.95l1.436-.21c0-1.668-.781-2.533-1.943-2.533-1.183 0-2.007.886-2.24 2.744h2.746zm-4.606 1.668c0-3.209 1.627-5.256 4.268-5.256 2.218 0 3.76 1.435 3.676 4.433h-6.106s-.02.296-.02.465c0 2.384 1.16 4.073 3.4 4.073a3.56 3.56 0 0 0 2.176-.717l.423.57c-1.205 1.098-2.113 1.498-3.634 1.498-2.513 0-4.183-1.815-4.183-5.066z" id="Fill-25"/><path d="M143.877 12.729v-2.047c-1.247 0-2.133.168-2.704.527-.57.317-.866.823-.866 1.478 0 .823.57 1.499 1.395 1.499.697 0 1.542-.528 2.175-1.457m-5.344.401c0-.928.401-1.71 1.246-2.322.824-.612 2.176-.929 4.098-.929V8.74c0-1.33-.802-2.11-2.091-2.11-.782 0-1.564.316-2.26.95l-.528-.57c.95-1.077 2.239-1.753 3.738-1.753 1.69 0 2.915.908 2.915 2.998v4.454l.233 1.604 1.415.274v.655l-3.464.38.38-2.322c-.78 1.436-1.796 2.385-3.232 2.385-1.394 0-2.45-.95-2.45-2.554" id="Fill-27"/><path d="M154.758 12.919V6.67c-.592-.253-1.056-.38-1.711-.38-1.987 0-3.084 1.647-3.084 4.243 0 2.301.845 3.695 2.493 3.695.738 0 1.52-.338 2.302-1.309m-6.697-1.942c0-3.293 2.07-5.615 5.07-5.615a6.98 6.98 0 0 1 1.627.19v-2.47l-.233-1.626-1.689-.274V.528l3.95-.38-.233 2.934v9.626l.233 1.604 1.373.274v.655l-3.401.443.317-2.005c-.972 1.31-1.966 2.005-3.36 2.005-2.133 0-3.654-1.836-3.654-4.707" id="Fill-29"/><path id="Fill-31" d="M163.464 14.586l1.712-.337.21-2.132V4.538l-.21-2.132-1.712-.337v-.633h5.83v.633l-1.71.337-.212 2.132v7.558l.212 1.878 1.626.339h1.352l1.796-.339.464-2.068h.908l-.21 3.335h-10.056z"/><path d="M182.113 10.47c0-2.807-.908-4.243-2.577-4.243-1.69 0-2.62 1.33-2.62 4.264 0 2.871.909 4.307 2.557 4.307 1.69 0 2.64-1.393 2.64-4.328m-7.246.17c0-3.04 1.648-5.3 4.775-5.3 2.704 0 4.499 1.816 4.499 5.11 0 3.208-1.922 5.256-4.732 5.256-2.704 0-4.542-1.921-4.542-5.067" id="Fill-33"/><path d="M190.607 12.729v-2.047c-1.246 0-2.133.168-2.704.527-.57.317-.866.823-.866 1.478 0 .823.571 1.499 1.395 1.499.697 0 1.542-.528 2.175-1.457m-5.344.401c0-.928.401-1.71 1.247-2.322.823-.612 2.175-.929 4.097-.929V8.74c0-1.33-.802-2.11-2.09-2.11-.783 0-1.564.316-2.26.95l-.529-.57c.95-1.077 2.24-1.753 3.739-1.753 1.69 0 2.915.908 2.915 2.998v4.454l.232 1.604 1.416.274v.655l-3.464.38.38-2.322c-.781 1.436-1.796 2.385-3.233 2.385-1.393 0-2.45-.95-2.45-2.554" id="Fill-35"/><path d="M195.12 14.586l1.458-.273.231-1.605V6.692h-1.732v-.76l1.732-.338.043-1.393c.085-2.385 1.838-4.2 4.118-4.2.656 0 1.12.126 1.586.295l-.698 1.752c-.55-.211-1.12-.38-1.732-.38-1.225 0-1.922.464-1.71 2.005l.19 2.132h2.47v.887h-2.47v6.016l.231 1.605 1.69.273v.655h-5.407v-.655z" id="Fill-37"/><path d="M.253 38.058l-.21-3.209H1.12l.422 2.217c.719.338 1.373.613 2.24.613 1.922 0 3.316-.93 3.316-2.513 0-1.773-1.69-2.428-3.317-3.04-2.006-.76-3.78-1.562-3.78-3.99 0-2.131 1.625-4.073 4.773-4.073 1.078 0 2.408.295 3.549.717l.232 3.188H7.5l-.465-2.259c-.654-.4-1.668-.633-2.302-.633-2.091 0-3.127 1.16-3.127 2.364 0 1.71 1.48 2.196 2.958 2.787 2.154.865 4.183 1.773 4.183 4.37 0 2.511-2.029 4.158-5.07 4.158-1.035 0-1.923-.106-3.423-.697" id="Fill-39"/><path d="M10.095 33.815c0-3.124 1.796-5.32 4.5-5.32.908 0 1.584.106 2.746.507l.233 2.533h-.824l-.486-1.625c-.507-.211-1.099-.422-1.775-.422-1.457 0-2.598 1.013-2.598 3.652 0 2.617 1.162 4.306 3.232 4.306.676 0 1.479-.232 2.218-.76l.465.591c-1.183 1.034-2.43 1.541-3.676 1.541-2.408 0-4.035-1.879-4.035-5.003" id="Fill-41"/><path d="M18.892 37.72l1.479-.274.232-1.604v-9.626l-.232-1.626-1.69-.274v-.655l3.928-.38-.21 2.935v3.968a3.839 3.839 0 0 1 3.168-1.689c1.901 0 3.042 1.161 3.042 3.294v4.053l.232 1.604 1.458.274v.655h-4.922v-.655l1.204-.274.232-1.604v-3.547c0-1.435-.654-2.364-2.049-2.364-1.013 0-1.774.612-2.366 1.288v4.623l.233 1.604 1.204.274v.655h-4.943v-.655z" id="Fill-43"/><path d="M38.058 33.604c0-2.808-.908-4.243-2.577-4.243-1.69 0-2.62 1.33-2.62 4.264 0 2.871.909 4.306 2.557 4.306 1.69 0 2.64-1.392 2.64-4.327m-7.246.169c0-3.04 1.648-5.298 4.775-5.298 2.703 0 4.499 1.814 4.499 5.108 0 3.208-1.922 5.256-4.732 5.256-2.704 0-4.542-1.92-4.542-5.066" id="Fill-45"/><path d="M48.604 33.604c0-2.808-.908-4.243-2.577-4.243-1.69 0-2.62 1.33-2.62 4.264 0 2.871.909 4.306 2.557 4.306 1.69 0 2.64-1.392 2.64-4.327m-7.246.169c0-3.04 1.648-5.298 4.774-5.298 2.704 0 4.5 1.814 4.5 5.108 0 3.208-1.922 5.256-4.732 5.256-2.704 0-4.542-1.92-4.542-5.066" id="Fill-47"/><path id="Fill-49" d="M51.186 37.72l1.478-.274.232-1.604v-9.626l-.232-1.626-1.69-.274v-.655l3.929-.38-.211 2.935v9.626l.232 1.604 1.458.274v.655h-5.196z"/><path d="M67.644 36.243c.697-1.056 1.098-2.47 1.098-4.117 0-1.477-.317-2.406-1.267-2.406-.719 0-1.31.338-1.923 1.182-.76 1.013-1.204 2.85-1.204 4.391 0 1.414.423 2.258 1.289 2.258.76 0 1.436-.443 2.007-1.308m-5.09-.528c0-2.533.843-4.602 2.83-6.164.802-.633 1.963-1.119 2.83-1.119 1.437 0 2.281 1.077 2.281 3.251 0 1.943-.612 3.82-1.859 5.108-1.161 1.267-2.535 2.006-3.865 2.006-1.352 0-2.218-1.035-2.218-3.082" id="Fill-51"/><path d="M67.149 43.399l.401-1.816c.656.254 1.374.444 1.986.444.55 0 .972-.212 1.289-.676.295-.443.528-1.056.697-1.878l1.943-9.627h-1.88v-.908h2.07l.064-.273c.444-2.006.93-3.167 1.985-4.138.888-.824 2.007-1.246 2.873-1.246.528 0 .95.064 1.69.212l-.422 1.942c-.888-.401-1.796-.633-2.387-.633-.402 0-.845.126-1.267.59-.465.507-.762 1.52-.867 3.546h2.197v.908h-2.345l-1.732 8.76c-.296 1.457-.993 2.745-2.007 3.632-.972.865-1.965 1.308-3.02 1.308-.254 0-.888-.041-1.268-.147" id="Fill-53"/><path id="Fill-55" d="M84.664 37.72l1.71-.338.212-2.131v-7.579l-.211-2.132-1.711-.337v-.634h9.928l.233 3.526h-.951l-.444-2.26-1.943-.337h-2.915v5.34h1.584l1.605-.231.211-1.71h.782v4.77h-.782l-.21-1.71-1.606-.21h-1.584v3.482l.21 1.88 1.628.337h1.562l1.775-.338.465-2.068h.908l-.21 3.335H84.663z"/><path d="M96.22 37.72l1.478-.274.232-1.604v-4.35l-.232-1.624-1.69-.275v-.654l3.718-.38-.232 1.9c.866-1.33 1.964-1.964 3.4-1.964 1.818 0 3 1.204 3 3.294v4.053l.211 1.604 1.5.274v.655h-4.964v-.655l1.204-.274.211-1.604v-3.547c0-1.414-.676-2.364-2.007-2.364-.802 0-1.393.232-2.323 1.266v4.645l.232 1.604 1.204.274v.655H96.22v-.655z" id="Fill-57"/><path d="M114.447 32.105c0-1.667-.571-2.892-1.944-2.892-1.225 0-1.88 1.035-1.88 2.765 0 1.668.655 2.66 1.986 2.66 1.182 0 1.838-.97 1.838-2.533m1.795 8.803c0-.802-.528-1.267-2.81-1.647l-2.028-.337c-.59.337-1.415 1.055-1.415 1.857 0 1.224 1.226 2.027 3.106 2.027 1.774 0 3.147-.781 3.147-1.9m-7.88.422c0-1.118 1.099-2.11 2.218-2.575-1.035-.233-1.732-.76-1.732-1.52 0-.907.76-1.562 1.901-2.132-1.267-.507-2.049-1.689-2.049-3.208 0-1.859 1.374-3.484 3.845-3.484.803 0 1.542.148 2.345.654l2.788-.717v1.35h-2.175c.528.677.823 1.204.823 2.28 0 1.879-1.563 3.484-3.739 3.484-.296 0-.676-.022-1.013-.106-.592.296-1.078.739-1.078 1.077 0 .738 1.12.866 2.767 1.118 2.007.317 4.183.401 4.183 2.618 0 2.048-1.943 3.715-5.133 3.715-2.282 0-3.95-.97-3.95-2.554" id="Fill-59"/><path id="Fill-62" d="M118.01 37.72l1.478-.274.232-1.604v-9.626l-.232-1.626-1.69-.274v-.655l3.93-.38-.212 2.935v9.626l.233 1.604 1.458.274v.655h-5.197z"/><path d="M125.498 24.76c0-.719.591-1.331 1.33-1.331.719 0 1.331.591 1.331 1.351a1.32 1.32 0 0 1-1.33 1.309c-.72 0-1.331-.528-1.331-1.33zm-1.099 12.96l1.479-.274.211-1.604v-4.35l-.211-1.624-1.69-.275v-.654l3.929-.38-.211 2.934v4.349l.21 1.604 1.48.274v.655H124.4v-.655z" id="Fill-64"/><path d="M130.995 38.248l-.169-2.47h.93l.359 1.626c.655.295 1.162.464 1.965.464 1.14 0 1.86-.57 1.86-1.54 0-1.225-1.163-1.584-2.262-1.985-1.331-.549-2.894-1.014-2.894-2.914 0-1.604 1.31-3.06 3.549-3.06.95 0 1.88.19 2.81.612l.211 2.47h-.93l-.464-1.668a4.378 4.378 0 0 0-1.88-.422c-1.12 0-1.754.464-1.754 1.414 0 1.161 1.183 1.52 2.218 1.921 1.5.57 2.916 1.035 2.916 2.997 0 1.774-1.437 3.167-3.57 3.167-.698 0-1.881-.21-2.895-.612" id="Fill-66"/><path d="M138.284 37.72l1.48-.274.231-1.604v-9.626l-.231-1.626-1.69-.274v-.655l3.928-.38-.21 2.935v3.968a3.838 3.838 0 0 1 3.168-1.689c1.9 0 3.041 1.161 3.041 3.294v4.053l.233 1.604 1.458.274v.655h-4.922v-.655l1.204-.274.232-1.604v-3.547c0-1.435-.654-2.364-2.05-2.364-1.013 0-1.773.612-2.365 1.288v4.623l.232 1.604 1.205.274v.655h-4.944v-.655z" id="Fill-68"/></g><g id="shield-use-copy-3"><path d="M1.627 1.627v31.355c0 .053.075 5.68 3.959 13.057C9.147 52.81 16.73 62.47 32.652 70.195c15.933-7.727 23.507-17.389 27.057-24.157 3.871-7.376 3.932-13.002 3.932-13.057V1.627H1.627z" id="Path" fill="#FFF"/><path d="M1.627 1.627v31.355c0 .053.075 5.68 3.959 13.057C9.147 52.81 16.73 62.47 32.652 70.195c15.933-7.727 23.507-17.389 27.057-24.157 3.871-7.376 3.932-13.002 3.932-13.057V1.627H1.627zM32.652 72l-.352-.169c-16.617-7.97-24.51-18.065-28.205-25.13C.062 38.989 0 33.225 0 32.984V0h65.267v32.982c0 .24-.045 6.004-4.066 13.716-3.684 7.063-11.567 17.16-28.198 25.133l-.351.169zm-11.76-59.742h-1.763c-.282-.878-.65-1.65-1.083-2.278a7.193 7.193 0 0 1 2.846 2.278zm-5.129-2.74c.795.334 1.56 1.306 2.086 2.74h-2.086v-2.74zm-3.981 6.402c.035-.887.146-1.706.316-2.442h2.446v2.442h-2.762zm.676-3.662c.527-1.434 1.292-2.406 2.086-2.74v2.74h-2.086zm-.36 7.326a13.214 13.214 0 0 1-.316-2.444h2.762v2.444h-2.446zm2.446 3.96c-.794-.335-1.56-1.307-2.086-2.74h2.086v2.74zm-3.981-6.404c.032.861.133 1.68.294 2.444H8.682a7.116 7.116 0 0 1-.662-2.444h2.543zm7.645-3.662c.171.736.282 1.555.318 2.442h-2.762v-2.442h2.444zm-7.352 0c-.16.763-.26 1.582-.293 2.442H8.02c.073-.867.305-1.69.662-2.442h2.174zm-1.44 7.326h1.762c.283.876.65 1.648 1.084 2.276a7.186 7.186 0 0 1-2.845-2.276zm10.33-4.884c-.034-.86-.134-1.68-.295-2.442h2.175a7.11 7.11 0 0 1 .662 2.442h-2.543zM12.26 9.98c-.434.63-.8 1.4-1.082 2.278H9.416A7.204 7.204 0 0 1 12.26 9.98zm7.19 9.604c.16-.764.26-1.583.294-2.444h2.543a7.11 7.11 0 0 1-.662 2.444H19.45zm-.925-2.444a13.21 13.21 0 0 1-.317 2.444h-2.446V17.14h2.763zm-2.763 6.403v-2.74h2.086c-.526 1.434-1.291 2.405-2.086 2.74zm2.282-.462c.435-.629.8-1.4 1.084-2.277h1.763a7.2 7.2 0 0 1-2.847 2.277zm39.575-2.845v-8.852H56.4v8.154l-6.6 3.87-6.603-3.87v-8.154h-1.22v8.852l7.824 4.586 7.819-4.585zM44.427 10.61c-.046-.053 0 8.176 0 8.176s3.254.053 4.716 2.744v-8.176c-1.462-2.691-4.716-2.744-4.716-2.744zm5.927 2.814V21.6c1.478-2.691 4.766-2.743 4.766-2.743s.048-8.23 0-8.176c0 0-3.288.053-4.766 2.743zM39.712 26.027v-1.423h-2.145v-6.997h-9.868v6.997h-2.143v1.423h14.156zm-24.558-1.113c4.623 0 8.385-3.762 8.385-8.384 0-4.624-3.762-8.386-8.385-8.386-4.623 0-8.385 3.762-8.385 8.386 0 4.622 3.762 8.384 8.385 8.384zm18.192-21.3h27.927v28.498s-.003 1.96-.796 5.072c-.391-.02-.831-.04-1.435-.068-2.347-.112-4.282.371-6.48.037-2.195-.335-4.094-2.345-7.185-2.905-2.232-.402-4.078-.475-6.556-.4v-6.61H26.447v6.4a30.643 30.643 0 0 0-1.174-.022c-3.501 0-4.841-.968-8.49-.968-3.648 0-9.158 1.787-12.212 2.829l-.147.05c-.424-2.133-.429-3.415-.429-3.415V3.615h27.927v.813c-.62.267-1.058.856-1.058 1.554 0 .695.437 1.285 1.058 1.551v.987c-.933.342-2.615 1.16-3.384 2.814-.72 1.552-.851 2.895-.858 3.63h-.663v1.424h11.234v-1.423h-.663c-.008-.736-.14-2.08-.86-3.63-.768-1.658-2.45-2.473-3.382-2.814v-.987c.62-.265 1.057-.857 1.057-1.552 0-.698-.438-1.288-1.057-1.555v-.812zm.063 2.367c0 .404-.347.733-.774.733-.43 0-.776-.329-.776-.733 0-.407.347-.736.776-.736.427 0 .774.329.774.736zm-2.095 27.084v-4.564h2.639v4.564h-2.639zm0-10.008v-4.095h2.639v4.095h-2.639zm-2.234-.002v-4.087h.814v4.087h-.814zm6.292 0v-4.087h.814v4.087h-.814zM24.145 36.278v-1.22h16.977v1.22H24.145zm3.316 5.418h10.346v-2.472H27.46v2.472zm-1.22 1.22v-4.911h12.785v4.911H26.241zm-1.843-2.79v1.922l-13.17 8.304a43.866 43.866 0 0 1-.944-1.327l14.114-8.9zm16.47 1.991v-1.924l14.093 8.906c-.301.44-.616.881-.947 1.327l-13.146-8.309zM30.853 54.611c.177.136.265.33.265.58 0 .473-.386.803-.948.803-.628 0-1.03-.363-1.03-.925 0-.466.282-.788.675-.997.523.217.836.378 1.038.539zm-.676-1.286c-.377-.153-.933-.419-.933-.886 0-.417.338-.698.853-.698.539 0 .853.256.853.682 0 .444-.42.724-.773.902zm3.757-.885c.151-.426.393-.675.707-.675.353 0 .627.24.78.867.08.346.12.708.12 1.23 0 .54-.048.999-.152 1.344-.146.467-.418.756-.757.756-.337 0-.626-.266-.772-.892-.072-.297-.11-.716-.11-1.256 0-.571.054-1.03.184-1.374zm5.194 4.181c1.126 0 1.897-1.109 1.897-2.775 0-1.165-.448-2.75-1.889-2.75-1.07 0-1.874 1.142-1.874 2.726 0 1.15.45 2.8 1.865 2.8zm-4.503 0c1.126 0 1.898-1.109 1.898-2.775 0-1.165-.451-2.75-1.891-2.75-1.069 0-1.873 1.142-1.873 2.726 0 1.15.45 2.8 1.866 2.8zm-4.545.032c.925 0 2.012-.578 2.012-1.616 0-.668-.49-1.054-1.271-1.375.554-.209 1.07-.58 1.07-1.238 0-.789-.7-1.327-1.714-1.327-.876 0-1.825.401-1.825 1.423 0 .539.37 1.03.86 1.23-.594.21-1.03.733-1.03 1.384 0 1.061.975 1.519 1.898 1.519zm-2.677-.152v-.715h-.747v-4.602h-.628l-1.617 1.135.217.474c.097-.033.394-.16.611-.265.217-.104.467-.265.547-.314v3.572h-.933v.715h2.55zM40.869 44.52l11.918 7.465c-4.239 5.199-10.6 10.621-20.148 15.193-9.527-4.563-15.882-9.975-20.127-15.167l11.915-7.463H40.87v-.028zm-1.725 7.246c.353 0 .627.24.78.867.08.346.12.708.12 1.23 0 .54-.047.999-.152 1.344-.145.467-.418.756-.756.756-.339 0-.628-.266-.772-.892-.073-.297-.112-.716-.112-1.256 0-.571.055-1.03.184-1.374.153-.426.394-.675.708-.675z" id="Shape" fill="#0D395F"/></g></g></svg>