<svg width="280" height="72" xmlns="http://www.w3.org/2000/svg"><g id="blwc-logo" stroke="none" stroke-width="1" fill="none" fill-rule="evenodd"><g id="Group-79" transform="translate(77 9)" fill="#000"><path d="M27.585 29.353c-1.2 0-2.146.67-3.03 2.157-.002-.022-.007-.045-.008-.068l.003-.246a8.77 8.77 0 0 1 .032-.322l.08-.704c.04-.342.078-.685.117-1.028l-3.714.38v.653l1.688.274.232 1.623v4.344l-.232 1.603-1.477.273v.654h5.422v-.654l-1.687-.273-.232-1.603v-3.988c0-.027.002-.056.004-.085.61-.755 1.431-1.029 2.063-1.029.443 0 .886.148 1.245.316l.528-2.13a3.149 3.149 0 0 0-1.034-.147" id="Fill-1"/><path d="M57.918 29.353c-1.2 0-2.146.67-3.03 2.157-.002-.022-.007-.045-.008-.068l.003-.246c.007-.107.02-.215.032-.322l.08-.704.117-1.028-3.714.38v.653l1.688.274.232 1.623v4.344l-.232 1.603-1.477.273v.654h5.422v-.654l-1.688-.273-.231-1.603v-3.988c0-.027.001-.056.004-.085.61-.755 1.43-1.029 2.063-1.029.443 0 .886.148 1.245.316l.528-2.13a3.149 3.149 0 0 0-1.034-.147" id="Fill-3"/><path d="M135.05 29.353c-1.2 0-2.146.67-3.03 2.157-.003-.022-.007-.045-.008-.068l.003-.246c.007-.107.02-.215.032-.322l.08-.704.117-1.028-3.714.38v.653l1.688.274.231 1.623v4.344l-.231 1.603-1.477.273v.654h5.421v-.654l-1.687-.273-.231-1.603v-3.988c0-.027.002-.056.004-.085.61-.755 1.431-1.029 2.063-1.029.443 0 .886.148 1.245.316l.528-2.13a3.146 3.146 0 0 0-1.034-.147" id="Fill-5"/><path id="Fill-7" d="M5.006 35.822L2.45 28.243l-.908-2.132L0 25.774v-.633h5.45v.633l-1.5.337.528 2.132 2.979 8.804 2.936-8.804-.93-2.132-1.542-.337v-.633h5.599v.633l-1.564.337.55 2.132 3.041 8.804 2.81-8.804.486-2.132-1.67-.337v-.633h4.712v.633l-1.564.337-.95 2.175-2.43 7.536-.95 3.377h-1.838l-1.035-3.377-2.176-6.227-2.09 6.227-.973 3.377H6.042z"/><path d="M30.81 25.33c0-.717.591-1.33 1.33-1.33.719 0 1.331.592 1.331 1.352a1.32 1.32 0 0 1-1.33 1.308c-.719 0-1.331-.528-1.331-1.33zm-1.1 12.963l1.479-.274.211-1.604v-4.35l-.211-1.625-1.69-.275v-.654l3.93-.38-.213 2.934v4.35l.212 1.604 1.48.274v.654H29.71v-.654z" id="Fill-10"/><path d="M36.88 37.11v-6.713h-1.648v-.76l1.648-.338v-2.428l1.816-.337v2.976h2.578v.887h-2.578v6.016c0 1.077.38 1.562 1.162 1.562.338 0 .908-.105 1.394-.422l.401.676c-1.055.844-1.753 1.16-2.703 1.16-1.035 0-2.07-.528-2.07-2.28" id="Fill-12"/><path d="M46.977 32.655l1.436-.21c0-1.668-.782-2.534-1.944-2.534-1.182 0-2.006.887-2.238 2.744h2.746zm-4.606 1.668c0-3.208 1.627-5.256 4.268-5.256 2.218 0 3.76 1.435 3.675 4.433H44.21s-.02.295-.02.465c0 2.385 1.16 4.073 3.4 4.073.676 0 1.436-.168 2.176-.717l.422.57c-1.204 1.098-2.112 1.498-3.633 1.498-2.514 0-4.183-1.815-4.183-5.066z" id="Fill-14"/><path d="M59.959 38.82l-.169-2.47h.93l.359 1.625c.654.295 1.162.465 1.964.465 1.141 0 1.86-.57 1.86-1.541 0-1.225-1.162-1.583-2.262-1.985-1.33-.549-2.893-1.013-2.893-2.913 0-1.604 1.31-3.06 3.549-3.06.95 0 1.88.19 2.81.611l.21 2.47h-.929l-.464-1.667a4.375 4.375 0 0 0-1.88-.423c-1.12 0-1.754.465-1.754 1.414 0 1.162 1.183 1.52 2.218 1.922 1.5.57 2.915 1.034 2.915 2.997 0 1.773-1.436 3.167-3.57 3.167-.697 0-1.88-.211-2.894-.612" id="Fill-16"/><path d="M175.75 38.82l-.17-2.47h.93l.359 1.625c.655.295 1.162.465 1.965.465 1.14 0 1.859-.57 1.859-1.541 0-1.225-1.162-1.583-2.261-1.985-1.331-.549-2.894-1.013-2.894-2.913 0-1.604 1.31-3.06 3.549-3.06.95 0 1.88.19 2.81.611l.21 2.47h-.929l-.464-1.667a4.375 4.375 0 0 0-1.88-.423c-1.12 0-1.754.465-1.754 1.414 0 1.162 1.183 1.52 2.218 1.922 1.5.57 2.915 1.034 2.915 2.997 0 1.773-1.436 3.167-3.57 3.167-.697 0-1.88-.211-2.894-.612" id="Fill-18"/><path d="M68 29.236c1.142-.296 1.797-.971 1.564-1.984-.866 0-1.373-.55-1.373-1.31 0-.696.465-1.266 1.289-1.266.887 0 1.52.781 1.52 2.09 0 1.625-.908 2.808-2.682 3.272L68 29.236z" id="Fill-20"/><path d="M77.044 32.086c0-3.885 2.197-7.283 7.288-7.283 1.31 0 2.45.105 4.183.464l.211 3.21H87.69l-.485-2.366a9.212 9.212 0 0 0-2.936-.464c-3.233 0-5.092 2.343-5.092 6.059 0 3.842 1.86 6.733 5.303 6.733.866 0 2.05-.21 2.894-.57l.486-2.258h1.035l-.212 3.23c-1.457.253-2.45.443-4.604.443-4.986 0-7.035-3.082-7.035-7.198" id="Fill-22"/><path d="M97.628 34.176c0-2.808-.908-4.244-2.577-4.244-1.69 0-2.62 1.33-2.62 4.265 0 2.87.91 4.306 2.557 4.306 1.69 0 2.64-1.393 2.64-4.327m-7.245.169c0-3.04 1.647-5.3 4.774-5.3 2.704 0 4.5 1.816 4.5 5.11 0 3.208-1.923 5.255-4.733 5.255-2.703 0-4.541-1.92-4.541-5.065" id="Fill-24"/><path d="M100.299 38.292l1.48-.274.23-1.605v-4.348l-.23-1.626-1.691-.275v-.654l3.718-.38-.232 1.9c.865-1.33 1.963-1.963 3.4-1.963 1.817 0 3 1.203 3 3.293v4.053l.211 1.605 1.5.274v.655h-4.965v-.655l1.205-.274.21-1.605v-3.546c0-1.415-.675-2.364-2.006-2.364-.803 0-1.394.232-2.323 1.266v4.644l.232 1.605 1.204.274v.655H100.3v-.655z" id="Fill-26"/><path d="M112.828 38.292l1.458-.274.233-1.605v-6.016h-1.733v-.76l1.733-.338.041-1.393c.085-2.385 1.838-4.2 4.12-4.2.654 0 1.119.126 1.584.295l-.697 1.752c-.55-.211-1.12-.38-1.732-.38-1.226 0-1.922.464-1.711 2.005l.19 2.132h2.472v.887h-2.472v6.016l.232 1.605 1.69.274v.655h-5.408v-.655z" id="Fill-28"/><path d="M124.108 32.655l1.436-.21c0-1.668-.78-2.534-1.943-2.534-1.183 0-2.007.887-2.239 2.744h2.746zm-4.606 1.668c0-3.208 1.627-5.256 4.268-5.256 2.218 0 3.76 1.435 3.676 4.433h-6.106s-.02.295-.02.465c0 2.385 1.161 4.073 3.4 4.073.676 0 1.437-.168 2.176-.717l.423.57c-1.204 1.098-2.112 1.498-3.633 1.498-2.514 0-4.184-1.815-4.184-5.066z" id="Fill-30"/><path d="M141.247 32.655l1.437-.21c0-1.668-.781-2.534-1.944-2.534-1.183 0-2.007.887-2.24 2.744h2.747zm-4.605 1.668c0-3.208 1.627-5.256 4.267-5.256 2.218 0 3.76 1.435 3.675 4.433h-6.104s-.022.295-.022.465c0 2.385 1.162 4.073 3.401 4.073a3.56 3.56 0 0 0 2.176-.717l.422.57c-1.203 1.098-2.112 1.498-3.632 1.498-2.515 0-4.183-1.815-4.183-5.066z" id="Fill-32"/><path d="M145.667 38.292l1.48-.274.232-1.605v-4.348l-.232-1.626-1.69-.275v-.654l3.718-.38-.233 1.9c.866-1.33 1.965-1.963 3.401-1.963 1.816 0 3 1.203 3 3.293v4.053l.211 1.605 1.5.274v.655h-4.965v-.655l1.204-.274.212-1.605v-3.546c0-1.415-.676-2.364-2.007-2.364-.802 0-1.395.232-2.323 1.266v4.644l.231 1.605 1.205.274v.655h-4.944v-.655z" id="Fill-34"/><path d="M157.593 34.387c0-3.124 1.796-5.32 4.5-5.32.908 0 1.584.105 2.746.506l.232 2.534h-.824l-.486-1.626c-.507-.211-1.098-.422-1.774-.422-1.457 0-2.598 1.013-2.598 3.652 0 2.617 1.161 4.306 3.231 4.306.676 0 1.48-.232 2.219-.76l.464.592c-1.183 1.034-2.43 1.54-3.675 1.54-2.408 0-4.035-1.878-4.035-5.002" id="Fill-36"/><path d="M170.882 32.655l1.437-.21c0-1.668-.782-2.534-1.944-2.534-1.183 0-2.007.887-2.24 2.744h2.747zm-4.606 1.668c0-3.208 1.627-5.256 4.267-5.256 2.219 0 3.76 1.435 3.676 4.433h-6.105s-.02.295-.02.465c0 2.385 1.161 4.073 3.4 4.073.676 0 1.437-.168 2.177-.717l.422.57c-1.204 1.098-2.113 1.498-3.634 1.498-2.514 0-4.183-1.815-4.183-5.066z" id="Fill-38"/><path d="M127.45 6.22c-1.199 0-2.145.67-3.03 2.157-.002-.023-.006-.045-.007-.068l.002-.246a7.56 7.56 0 0 1 .032-.322l.08-.704.117-1.028-3.714.379v.653l1.689.275.231 1.623v4.343l-.231 1.603-1.477.274v.654h5.421v-.654l-1.687-.274-.232-1.603V9.295c0-.028.002-.056.004-.086.61-.755 1.431-1.028 2.063-1.028.443 0 .886.147 1.245.316l.529-2.13a3.149 3.149 0 0 0-1.035-.147" id="Fill-40"/><path id="Fill-42" d="M.297 15.158l1.711-.338.212-2.132V5.11l-.212-2.132L.297 2.64v-.633H4.86L5.938 5.11l3.19 8.296L12.4 5.089l.993-3.082h4.563v.633l-1.69.338-.233 2.132v7.578l.233 2.132 1.69.338v.655h-5.83v-.655l1.69-.338.233-2.132V3.443l-3.634 9.245-1.077 3.125H7.966l-1.141-3.125L3.17 3.443v9.245l.232 2.132 1.69.338v.655H.297z"/><path d="M20.676 2.197c0-.718.591-1.33 1.331-1.33.718 0 1.33.591 1.33 1.351a1.32 1.32 0 0 1-1.33 1.309c-.719 0-1.331-.528-1.331-1.33zm-1.098 12.961l1.478-.274.211-1.605V8.931l-.21-1.625-1.691-.275v-.654l3.93-.38-.212 2.934v4.348l.212 1.605 1.478.274v.655h-5.196v-.655z" id="Fill-44"/><path d="M32.304 13.49V7.243c-.591-.253-1.056-.38-1.711-.38-1.986 0-3.084 1.647-3.084 4.243 0 2.301.845 3.694 2.492 3.694.74 0 1.522-.338 2.303-1.308m-6.696-1.942c0-3.294 2.07-5.616 5.07-5.616a7.02 7.02 0 0 1 1.626.19v-2.47l-.233-1.625-1.69-.275V1.1l3.95-.38-.232 2.934v9.626l.233 1.605 1.373.274v.654l-3.4.444.316-2.005c-.972 1.308-1.964 2.005-3.359 2.005-2.133 0-3.654-1.837-3.654-4.707" id="Fill-46"/><path d="M43.164 13.49V7.243c-.591-.253-1.056-.38-1.711-.38-1.986 0-3.084 1.647-3.084 4.243 0 2.301.845 3.694 2.492 3.694.74 0 1.522-.338 2.303-1.308m-6.696-1.942c0-3.294 2.07-5.616 5.07-5.616a7.02 7.02 0 0 1 1.626.19v-2.47l-.232-1.625-1.69-.275V1.1l3.95-.38-.233 2.934v9.626l.233 1.605 1.373.274v.654l-3.4.444.316-2.005c-.972 1.308-1.964 2.005-3.359 2.005-2.133 0-3.654-1.837-3.654-4.707" id="Fill-48"/><path id="Fill-50" d="M47.899 15.158l1.478-.274.233-1.605V3.653l-.233-1.625-1.69-.275V1.1l3.93-.38-.212 2.934v9.626l.233 1.605 1.457.274v.655H47.9z"/><path d="M58.458 9.522l1.436-.211c0-1.668-.782-2.533-1.944-2.533-1.182 0-2.006.886-2.239 2.744h2.747zm-4.606 1.668c0-3.209 1.627-5.257 4.267-5.257 2.219 0 3.76 1.435 3.676 4.433H55.69s-.02.296-.02.465c0 2.385 1.161 4.073 3.4 4.073a3.56 3.56 0 0 0 2.176-.717l.423.57c-1.205 1.098-2.113 1.499-3.634 1.499-2.514 0-4.183-1.816-4.183-5.066z" id="Fill-52"/><path d="M70.465 11.02c0-2.174-.93-3.651-2.345-3.651-.866 0-1.69.359-2.451 1.245v4.665l.21 1.837c.509.169.867.253 1.417.253 2.176 0 3.169-1.942 3.169-4.348m-6.612 4.792V3.653l-.212-1.625-1.69-.274v-.655l3.929-.38-.211 2.934v3.969c.781-1.034 1.923-1.689 3.211-1.689 2.028 0 3.443 1.731 3.443 4.412 0 3.272-1.964 5.91-5.767 5.91-.887 0-1.5 0-2.703-.442" id="Fill-54"/><path d="M74.774 12.963V8.93l-.233-1.625-1.647-.275v-.655l3.908-.379-.212 2.934v3.546c0 1.457.676 2.343 2.007 2.343.909 0 1.732-.548 2.324-1.266V8.93l-.211-1.625-1.648-.275v-.655l3.908-.379-.232 2.934v4.348l.232 1.605 1.52.274v.654l-3.57.38.233-1.899c-.993 1.372-1.88 1.963-3.38 1.963-1.859 0-2.999-1.182-2.999-3.293" id="Fill-56"/><path id="Fill-58" d="M94.96 20.816v-.718l2.113-.338.908-1.478.909-2.132-2.958-7.22-.865-1.646-.952-.253v-.655h4.627v.655l-1.352.253.508 1.647 1.9 4.876 1.775-4.876.464-1.647-1.33-.253v-.655h3.802v.655l-1.078.253-.802 1.647-4.606 12.158z"/><path d="M92.142 6.217c-1.2 0-2.146.67-3.03 2.157-.003-.023-.007-.045-.008-.068l.003-.247c.007-.107.02-.214.032-.321l.08-.704.117-1.029-3.714.38v.653l1.688.275.232 1.622v4.344l-.232 1.603-1.477.273v.654h5.422v-.654l-1.688-.273-.231-1.603V9.29c0-.027.001-.056.004-.085.61-.756 1.431-1.028 2.063-1.028.443 0 .886.147 1.245.315l.528-2.129a3.151 3.151 0 0 0-1.034-.147" id="Fill-60"/><path d="M118.115 11.907c0-1.667-.823-2.913-3.358-2.913h-1.204v3.694l.233 1.984c.4.17.802.275 1.351.275 1.817 0 2.978-1.16 2.978-3.04zm-3.865-3.82c2.197 0 3.147-.993 3.147-2.724 0-1.414-.866-2.47-2.703-2.47h-1.141v5.194h.697zm-4.563 7.071l1.669-.338.233-2.132V5.11l-.233-2.132-1.669-.338v-.633h6.042c2.788 0 3.802 1.33 3.802 3.124 0 1.436-1.035 2.765-2.81 3.272 2.366-.042 3.486 1.351 3.486 3.272 0 2.386-1.542 4.137-5.344 4.137h-5.176v-.654z" id="Fill-62"/><path d="M133.617 9.522l1.436-.211c0-1.668-.781-2.533-1.944-2.533-1.183 0-2.006.886-2.239 2.744h2.747zm-4.606 1.668c0-3.209 1.627-5.257 4.267-5.257 2.218 0 3.76 1.435 3.676 4.433h-6.105s-.02.296-.02.465c0 2.385 1.161 4.073 3.4 4.073a3.56 3.56 0 0 0 2.176-.717l.423.57c-1.205 1.098-2.113 1.499-3.634 1.499-2.514 0-4.183-1.816-4.183-5.066z" id="Fill-64"/><path d="M143.834 13.3v-2.047c-1.247 0-2.134.169-2.704.528-.571.316-.866.823-.866 1.477 0 .824.57 1.5 1.394 1.5.697 0 1.543-.529 2.176-1.457m-5.344.4c0-.928.4-1.71 1.246-2.322.823-.612 2.175-.928 4.098-.928V9.31c0-1.33-.802-2.111-2.092-2.111-.781 0-1.563.317-2.26.95l-.528-.57c.95-1.077 2.24-1.753 3.739-1.753 1.69 0 2.915.908 2.915 2.998v4.454l.233 1.605 1.415.274v.655l-3.464.38.38-2.322c-.782 1.435-1.796 2.384-3.233 2.384-1.393 0-2.45-.949-2.45-2.553" id="Fill-66"/><path d="M154.715 13.49V7.243c-.593-.253-1.057-.38-1.712-.38-1.986 0-3.084 1.647-3.084 4.243 0 2.301.846 3.694 2.493 3.694.739 0 1.52-.338 2.303-1.308m-6.697-1.942c0-3.294 2.07-5.616 5.07-5.616a7.02 7.02 0 0 1 1.627.19v-2.47l-.233-1.625-1.69-.275V1.1l3.95-.38-.232 2.934v9.627l.233 1.604 1.372.274v.654l-3.4.444.317-2.005c-.972 1.308-1.966 2.005-3.36 2.005-2.133 0-3.654-1.837-3.654-4.707" id="Fill-68"/><path id="Fill-70" d="M163.421 15.158l1.711-.338.211-2.132V5.11l-.21-2.132-1.712-.338v-.633h5.83v.633l-1.71.338-.212 2.132v7.557l.212 1.879 1.625.338h1.352l1.796-.338.465-2.069h.908l-.21 3.336H163.42z"/><path d="M182.07 11.042c0-2.808-.909-4.243-2.577-4.243-1.69 0-2.62 1.33-2.62 4.264 0 2.87.909 4.306 2.556 4.306 1.69 0 2.64-1.393 2.64-4.327m-7.245.169c0-3.04 1.648-5.3 4.775-5.3 2.703 0 4.499 1.816 4.499 5.11 0 3.208-1.923 5.256-4.733 5.256-2.703 0-4.541-1.921-4.541-5.066" id="Fill-72"/><path d="M190.564 13.3v-2.047c-1.246 0-2.133.169-2.704.528-.57.316-.866.823-.866 1.477 0 .824.57 1.5 1.394 1.5.698 0 1.543-.529 2.176-1.457m-5.344.4c0-.928.4-1.71 1.247-2.322.822-.612 2.175-.928 4.097-.928V9.31c0-1.33-.802-2.111-2.091-2.111-.782 0-1.564.317-2.26.95l-.528-.57c.95-1.077 2.24-1.753 3.738-1.753 1.69 0 2.916.908 2.916 2.998v4.454l.232 1.605 1.416.274v.655l-3.464.38.38-2.322c-.782 1.435-1.796 2.384-3.233 2.384-1.394 0-2.45-.949-2.45-2.553" id="Fill-74"/><path d="M195.076 15.158l1.458-.274.232-1.604V7.263h-1.732v-.76l1.732-.338.042-1.393c.086-2.385 1.838-4.2 4.12-4.2.655 0 1.119.126 1.584.295l-.697 1.752c-.55-.21-1.12-.38-1.732-.38-1.226 0-1.922.465-1.711 2.005l.19 2.132h2.471v.887h-2.47v6.017l.23 1.604 1.691.274v.655h-5.408v-.655z" id="Fill-76"/></g><g id="shield-use-copy-4"><path d="M1.627 1.627v31.355c0 .053.075 5.68 3.959 13.057C9.147 52.81 16.73 62.47 32.652 70.195c15.933-7.727 23.507-17.389 27.057-24.157 3.871-7.376 3.932-13.002 3.932-13.057V1.627H1.627z" id="Path" fill="#FFF"/><path d="M1.627 1.627v31.355c0 .053.075 5.68 3.959 13.057C9.147 52.81 16.73 62.47 32.652 70.195c15.933-7.727 23.507-17.389 27.057-24.157 3.871-7.376 3.932-13.002 3.932-13.057V1.627H1.627zM32.652 72l-.352-.169c-16.617-7.97-24.51-18.065-28.205-25.13C.062 38.989 0 33.225 0 32.984V0h65.267v32.982c0 .24-.045 6.004-4.066 13.716-3.684 7.063-11.567 17.16-28.198 25.133l-.351.169zm-11.76-59.742h-1.763c-.282-.878-.65-1.65-1.083-2.278a7.193 7.193 0 0 1 2.846 2.278zm-5.129-2.74c.795.334 1.56 1.306 2.086 2.74h-2.086v-2.74zm-3.981 6.402c.035-.887.146-1.706.316-2.442h2.446v2.442h-2.762zm.676-3.662c.527-1.434 1.292-2.406 2.086-2.74v2.74h-2.086zm-.36 7.326a13.214 13.214 0 0 1-.316-2.444h2.762v2.444h-2.446zm2.446 3.96c-.794-.335-1.56-1.307-2.086-2.74h2.086v2.74zm-3.981-6.404c.032.861.133 1.68.294 2.444H8.682a7.116 7.116 0 0 1-.662-2.444h2.543zm7.645-3.662c.171.736.282 1.555.318 2.442h-2.762v-2.442h2.444zm-7.352 0c-.16.763-.26 1.582-.293 2.442H8.02c.073-.867.305-1.69.662-2.442h2.174zm-1.44 7.326h1.762c.283.876.65 1.648 1.084 2.276a7.186 7.186 0 0 1-2.845-2.276zm10.33-4.884c-.034-.86-.134-1.68-.295-2.442h2.175a7.11 7.11 0 0 1 .662 2.442h-2.543zM12.26 9.98c-.434.63-.8 1.4-1.082 2.278H9.416A7.204 7.204 0 0 1 12.26 9.98zm7.19 9.604c.16-.764.26-1.583.294-2.444h2.543a7.11 7.11 0 0 1-.662 2.444H19.45zm-.925-2.444a13.21 13.21 0 0 1-.317 2.444h-2.446V17.14h2.763zm-2.763 6.403v-2.74h2.086c-.526 1.434-1.291 2.405-2.086 2.74zm2.282-.462c.435-.629.8-1.4 1.084-2.277h1.763a7.2 7.2 0 0 1-2.847 2.277zm39.575-2.845v-8.852H56.4v8.154l-6.6 3.87-6.603-3.87v-8.154h-1.22v8.852l7.824 4.586 7.819-4.585zM44.427 10.61c-.046-.053 0 8.176 0 8.176s3.254.053 4.716 2.744v-8.176c-1.462-2.691-4.716-2.744-4.716-2.744zm5.927 2.814V21.6c1.478-2.691 4.766-2.743 4.766-2.743s.048-8.23 0-8.176c0 0-3.288.053-4.766 2.743zM39.712 26.027v-1.423h-2.145v-6.997h-9.868v6.997h-2.143v1.423h14.156zm-24.558-1.113c4.623 0 8.385-3.762 8.385-8.384 0-4.624-3.762-8.386-8.385-8.386-4.623 0-8.385 3.762-8.385 8.386 0 4.622 3.762 8.384 8.385 8.384zm18.192-21.3h27.927v28.498s-.003 1.96-.796 5.072c-.391-.02-.831-.04-1.435-.068-2.347-.112-4.282.371-6.48.037-2.195-.335-4.094-2.345-7.185-2.905-2.232-.402-4.078-.475-6.556-.4v-6.61H26.447v6.4a30.643 30.643 0 0 0-1.174-.022c-3.501 0-4.841-.968-8.49-.968-3.648 0-9.158 1.787-12.212 2.829l-.147.05c-.424-2.133-.429-3.415-.429-3.415V3.615h27.927v.813c-.62.267-1.058.856-1.058 1.554 0 .695.437 1.285 1.058 1.551v.987c-.933.342-2.615 1.16-3.384 2.814-.72 1.552-.851 2.895-.858 3.63h-.663v1.424h11.234v-1.423h-.663c-.008-.736-.14-2.08-.86-3.63-.768-1.658-2.45-2.473-3.382-2.814v-.987c.62-.265 1.057-.857 1.057-1.552 0-.698-.438-1.288-1.057-1.555v-.812zm.063 2.367c0 .404-.347.733-.774.733-.43 0-.776-.329-.776-.733 0-.407.347-.736.776-.736.427 0 .774.329.774.736zm-2.095 27.084v-4.564h2.639v4.564h-2.639zm0-10.008v-4.095h2.639v4.095h-2.639zm-2.234-.002v-4.087h.814v4.087h-.814zm6.292 0v-4.087h.814v4.087h-.814zM24.145 36.278v-1.22h16.977v1.22H24.145zm3.316 5.418h10.346v-2.472H27.46v2.472zm-1.22 1.22v-4.911h12.785v4.911H26.241zm-1.843-2.79v1.922l-13.17 8.304a43.866 43.866 0 0 1-.944-1.327l14.114-8.9zm16.47 1.991v-1.924l14.093 8.906c-.301.44-.616.881-.947 1.327l-13.146-8.309zM30.853 54.611c.177.136.265.33.265.58 0 .473-.386.803-.948.803-.628 0-1.03-.363-1.03-.925 0-.466.282-.788.675-.997.523.217.836.378 1.038.539zm-.676-1.286c-.377-.153-.933-.419-.933-.886 0-.417.338-.698.853-.698.539 0 .853.256.853.682 0 .444-.42.724-.773.902zm3.757-.885c.151-.426.393-.675.707-.675.353 0 .627.24.78.867.08.346.12.708.12 1.23 0 .54-.048.999-.152 1.344-.146.467-.418.756-.757.756-.337 0-.626-.266-.772-.892-.072-.297-.11-.716-.11-1.256 0-.571.054-1.03.184-1.374zm5.194 4.181c1.126 0 1.897-1.109 1.897-2.775 0-1.165-.448-2.75-1.889-2.75-1.07 0-1.874 1.142-1.874 2.726 0 1.15.45 2.8 1.865 2.8zm-4.503 0c1.126 0 1.898-1.109 1.898-2.775 0-1.165-.451-2.75-1.891-2.75-1.069 0-1.873 1.142-1.873 2.726 0 1.15.45 2.8 1.866 2.8zm-4.545.032c.925 0 2.012-.578 2.012-1.616 0-.668-.49-1.054-1.271-1.375.554-.209 1.07-.58 1.07-1.238 0-.789-.7-1.327-1.714-1.327-.876 0-1.825.401-1.825 1.423 0 .539.37 1.03.86 1.23-.594.21-1.03.733-1.03 1.384 0 1.061.975 1.519 1.898 1.519zm-2.677-.152v-.715h-.747v-4.602h-.628l-1.617 1.135.217.474c.097-.033.394-.16.611-.265.217-.104.467-.265.547-.314v3.572h-.933v.715h2.55zM40.869 44.52l11.918 7.465c-4.239 5.199-10.6 10.621-20.148 15.193-9.527-4.563-15.882-9.975-20.127-15.167l11.915-7.463H40.87v-.028zm-1.725 7.246c.353 0 .627.24.78.867.08.346.12.708.12 1.23 0 .54-.047.999-.152 1.344-.145.467-.418.756-.756.756-.339 0-.628-.266-.772-.892-.073-.297-.112-.716-.112-1.256 0-.571.055-1.03.184-1.374.153-.426.394-.675.708-.675z" id="Shape" fill="#0D395F"/></g></g></svg>