<svg width="180" height="72" xmlns="http://www.w3.org/2000/svg"><g id="college-logo" stroke="none" stroke-width="1" fill="none" fill-rule="evenodd"><g id="Group-2-Copy" transform="translate(77 9)" fill="#000"><path id="Fill-1" d="M.31 14.21l1.673-.332.206-2.098V4.321l-.206-2.098L.31 1.891v-.623h4.459L5.822 4.32l3.118 8.165L12.139 4.3l.97-3.033h4.46v.623l-1.652.332-.227 2.098v7.459l.227 2.098 1.652.333v.644H11.87v-.644l1.651-.333.228-2.098v-9.1l-3.551 9.1-1.053 3.075h-1.34L6.69 11.78l-3.572-9.1v9.1l.226 2.098 1.652.333v.644H.31z"/><path d="M20.226 1.455c0-.707.578-1.31 1.3-1.31.702 0 1.301.583 1.301 1.33 0 .665-.537 1.288-1.3 1.288-.703 0-1.301-.52-1.301-1.308zM19.152 14.21l1.446-.27.206-1.58V8.08l-.206-1.599-1.652-.27v-.644l3.84-.373-.207 2.887v4.28l.206 1.579 1.446.27v.644h-5.079v-.644z" id="Fill-2"/><path d="M31.59 12.57V6.42c-.578-.25-1.033-.374-1.673-.374-1.94 0-3.014 1.62-3.014 4.176 0 2.264.826 3.636 2.436 3.636.724 0 1.487-.333 2.25-1.288m-6.544-1.911c0-3.242 2.023-5.527 4.955-5.527.578 0 1.032.062 1.59.187V2.888l-.228-1.6-1.65-.27V.375L33.571 0l-.228 2.888v9.474l.228 1.579 1.341.27v.644l-3.323.436.31-1.973c-.95 1.288-1.92 1.973-3.283 1.973-2.086 0-3.572-1.807-3.572-4.632" id="Fill-4"/><path d="M42.203 12.57V6.42c-.578-.25-1.032-.374-1.672-.374-1.942 0-3.014 1.62-3.014 4.176 0 2.264.825 3.636 2.436 3.636.723 0 1.487-.333 2.25-1.288m-6.545-1.911c0-3.242 2.024-5.527 4.955-5.527a6.81 6.81 0 0 1 1.59.187V2.888l-.227-1.6-1.651-.27V.375L44.185 0l-.227 2.888v9.474l.227 1.579 1.341.27v.644l-3.323.436.31-1.973c-.95 1.288-1.92 1.973-3.283 1.973-2.085 0-3.572-1.807-3.572-4.632" id="Fill-6"/><path id="Fill-8" d="M46.83 14.21l1.445-.269.227-1.58V2.889l-.227-1.6-1.651-.27V.375L50.464 0l-.207 2.888v9.474l.227 1.58 1.424.269v.644H46.83z"/><path d="M57.15 8.664l1.402-.208c0-1.641-.763-2.493-1.9-2.493-1.155 0-1.96.873-2.187 2.7h2.684zm-4.502 1.641c0-3.158 1.59-5.173 4.17-5.173 2.168 0 3.675 1.413 3.593 4.363h-5.967s-.02.29-.02.457c0 2.347 1.135 4.01 3.324 4.01a3.46 3.46 0 0 0 2.125-.707l.414.561c-1.177 1.081-2.064 1.475-3.55 1.475-2.458 0-4.089-1.787-4.089-4.986z" id="Fill-10"/><path d="M68.883 10.14c0-2.14-.909-3.595-2.291-3.595-.846 0-1.652.352-2.395 1.226v4.59l.206 1.809c.496.166.847.249 1.384.249 2.127 0 3.096-1.912 3.096-4.28m-6.462 4.716V2.888l-.206-1.6-1.651-.27V.375L64.403 0l-.206 2.888v3.906c.763-1.018 1.879-1.662 3.138-1.662 1.982 0 3.365 1.704 3.365 4.342 0 3.22-1.92 5.817-5.637 5.817-.866 0-1.465 0-2.642-.436" id="Fill-12"/><path d="M73.095 12.05V8.082l-.227-1.6-1.61-.27v-.644l3.819-.373-.207 2.887v3.49c0 1.434.66 2.306 1.962 2.306.887 0 1.692-.54 2.27-1.246v-4.55l-.206-1.6-1.61-.27v-.644l3.818-.373-.226 2.887v4.28l.226 1.58 1.487.269v.644l-3.489.374.228-1.87c-.971 1.351-1.838 1.932-3.304 1.932-1.817 0-2.93-1.163-2.93-3.24" id="Fill-14"/><path id="Fill-16" d="M92.823 19.779v-.706l2.064-.333.887-1.454.889-2.098-2.89-7.106-.847-1.62-.93-.25v-.644h4.522v.644l-1.321.25.496 1.62 1.857 4.8 1.734-4.8.454-1.62-1.3-.25v-.644h3.716v.644l-1.053.25-.784 1.62-4.5 11.967z"/><path d="M90.068 5.41c-1.172 0-2.097.66-2.961 2.124-.003-.023-.007-.045-.008-.067l.003-.243c.007-.105.02-.211.03-.316l.08-.693c.037-.337.075-.675.114-1.012l-3.63.373v.643l1.65.27.226 1.598v4.274l-.226 1.578-1.443.27v.643h5.298v-.643l-1.65-.27-.225-1.578V8.437l.003-.084c.598-.743 1.4-1.012 2.017-1.012.433 0 .866.145 1.217.31l.516-2.095a3.057 3.057 0 0 0-1.011-.145" id="Fill-19"/><path d="M0 30.871c0-3.823 2.147-7.167 7.122-7.167 1.28 0 2.395.103 4.088.456l.207 3.159h-1.012l-.474-2.328a8.936 8.936 0 0 0-2.87-.457c-3.16 0-4.976 2.307-4.976 5.963 0 3.782 1.817 6.628 5.182 6.628.846 0 2.002-.208 2.828-.561l.475-2.223h1.012l-.207 3.178c-1.424.25-2.395.437-4.5.437C2.003 37.956 0 34.922 0 30.87" id="Fill-21"/><path d="M20.117 32.928c0-2.763-.888-4.176-2.519-4.176-1.651 0-2.56 1.308-2.56 4.197 0 2.825.888 4.238 2.499 4.238 1.651 0 2.58-1.37 2.58-4.26m-7.081.167c0-2.991 1.61-5.215 4.666-5.215 2.642 0 4.396 1.787 4.396 5.028 0 3.158-1.878 5.173-4.624 5.173-2.642 0-4.438-1.89-4.438-4.986" id="Fill-23"/><path id="Fill-25" d="M22.846 36.98l1.446-.27.226-1.58v-9.474l-.226-1.6-1.652-.27v-.644l3.84-.374-.207 2.888v9.475l.227 1.578 1.425.27v.645h-5.079z"/><path id="Fill-27" d="M29.297 36.98l1.445-.27.227-1.58v-9.474l-.227-1.6-1.651-.27v-.644l3.84-.374-.207 2.888v9.475l.227 1.578 1.424.27v.645h-5.078z"/><path d="M39.616 31.432l1.404-.208c0-1.641-.763-2.493-1.9-2.493-1.155 0-1.96.873-2.187 2.701h2.683zm-4.5 1.641c0-3.157 1.59-5.173 4.17-5.173 2.168 0 3.675 1.412 3.592 4.363h-5.967s-.02.29-.02.457c0 2.348 1.135 4.01 3.324 4.01.66 0 1.403-.166 2.126-.707l.413.561c-1.176 1.08-2.064 1.475-3.55 1.475-2.457 0-4.089-1.786-4.089-4.986z" id="Fill-29"/><path d="M50.033 31.453c0-1.641-.557-2.847-1.9-2.847-1.197 0-1.837 1.019-1.837 2.721 0 1.642.64 2.619 1.941 2.619 1.156 0 1.796-.956 1.796-2.493m1.755 8.663c0-.789-.516-1.246-2.746-1.62l-1.981-.333c-.579.332-1.384 1.039-1.384 1.829 0 1.204 1.198 1.994 3.035 1.994 1.734 0 3.076-.769 3.076-1.87m-7.7.416c0-1.1 1.073-2.078 2.167-2.534-1.012-.23-1.693-.748-1.693-1.496 0-.894.743-1.538 1.858-2.1-1.239-.498-2.002-1.661-2.002-3.157 0-1.829 1.342-3.428 3.757-3.428.785 0 1.507.146 2.291.644l2.726-.706v1.33h-2.127c.516.664.806 1.183.806 2.242 0 1.85-1.528 3.43-3.655 3.43-.289 0-.66-.022-.99-.105-.579.291-1.053.727-1.053 1.06 0 .727 1.094.852 2.704 1.1 1.961.313 4.087.395 4.087 2.577 0 2.016-1.899 3.657-5.016 3.657-2.23 0-3.86-.956-3.86-2.514" id="Fill-31"/><path d="M58.353 31.432l1.404-.208c0-1.641-.764-2.493-1.9-2.493-1.155 0-1.96.873-2.188 2.701h2.684zm-4.5 1.641c0-3.157 1.59-5.173 4.17-5.173 2.168 0 3.674 1.412 3.592 4.363h-5.967s-.02.29-.02.457c0 2.348 1.135 4.01 3.324 4.01.66 0 1.403-.166 2.127-.707l.412.561c-1.177 1.08-2.064 1.475-3.55 1.475-2.458 0-4.089-1.786-4.089-4.986z" id="Fill-33"/></g><g id="shield-use"><path d="M1.627 1.627v31.355c0 .053.075 5.68 3.959 13.057C9.147 52.81 16.73 62.47 32.652 70.195c15.933-7.727 23.507-17.389 27.057-24.157 3.871-7.376 3.932-13.002 3.932-13.057V1.627H1.627z" id="Path" fill="#FFF"/><path d="M1.627 1.627v31.355c0 .053.075 5.68 3.959 13.057C9.147 52.81 16.73 62.47 32.652 70.195c15.933-7.727 23.507-17.389 27.057-24.157 3.871-7.376 3.932-13.002 3.932-13.057V1.627H1.627zM32.652 72l-.352-.169c-16.617-7.97-24.51-18.065-28.205-25.13C.062 38.989 0 33.225 0 32.984V0h65.267v32.982c0 .24-.045 6.004-4.066 13.716-3.684 7.063-11.567 17.16-28.198 25.133l-.351.169zm-11.76-59.742h-1.763c-.282-.878-.65-1.65-1.083-2.278a7.193 7.193 0 0 1 2.846 2.278zm-5.129-2.74c.795.334 1.56 1.306 2.086 2.74h-2.086v-2.74zm-3.981 6.402c.035-.887.146-1.706.316-2.442h2.446v2.442h-2.762zm.676-3.662c.527-1.434 1.292-2.406 2.086-2.74v2.74h-2.086zm-.36 7.326a13.214 13.214 0 0 1-.316-2.444h2.762v2.444h-2.446zm2.446 3.96c-.794-.335-1.56-1.307-2.086-2.74h2.086v2.74zm-3.981-6.404c.032.861.133 1.68.294 2.444H8.682a7.116 7.116 0 0 1-.662-2.444h2.543zm7.645-3.662c.171.736.282 1.555.318 2.442h-2.762v-2.442h2.444zm-7.352 0c-.16.763-.26 1.582-.293 2.442H8.02c.073-.867.305-1.69.662-2.442h2.174zm-1.44 7.326h1.762c.283.876.65 1.648 1.084 2.276a7.186 7.186 0 0 1-2.845-2.276zm10.33-4.884c-.034-.86-.134-1.68-.295-2.442h2.175a7.11 7.11 0 0 1 .662 2.442h-2.543zM12.26 9.98c-.434.63-.8 1.4-1.082 2.278H9.416A7.204 7.204 0 0 1 12.26 9.98zm7.19 9.604c.16-.764.26-1.583.294-2.444h2.543a7.11 7.11 0 0 1-.662 2.444H19.45zm-.925-2.444a13.21 13.21 0 0 1-.317 2.444h-2.446V17.14h2.763zm-2.763 6.403v-2.74h2.086c-.526 1.434-1.291 2.405-2.086 2.74zm2.282-.462c.435-.629.8-1.4 1.084-2.277h1.763a7.2 7.2 0 0 1-2.847 2.277zm39.575-2.845v-8.852H56.4v8.154l-6.6 3.87-6.603-3.87v-8.154h-1.22v8.852l7.824 4.586 7.819-4.585zM44.427 10.61c-.046-.053 0 8.176 0 8.176s3.254.053 4.716 2.744v-8.176c-1.462-2.691-4.716-2.744-4.716-2.744zm5.927 2.814V21.6c1.478-2.691 4.766-2.743 4.766-2.743s.048-8.23 0-8.176c0 0-3.288.053-4.766 2.743zM39.712 26.027v-1.423h-2.145v-6.997h-9.868v6.997h-2.143v1.423h14.156zm-24.558-1.113c4.623 0 8.385-3.762 8.385-8.384 0-4.624-3.762-8.386-8.385-8.386-4.623 0-8.385 3.762-8.385 8.386 0 4.622 3.762 8.384 8.385 8.384zm18.192-21.3h27.927v28.498s-.003 1.96-.796 5.072c-.391-.02-.831-.04-1.435-.068-2.347-.112-4.282.371-6.48.037-2.195-.335-4.094-2.345-7.185-2.905-2.232-.402-4.078-.475-6.556-.4v-6.61H26.447v6.4a30.643 30.643 0 0 0-1.174-.022c-3.501 0-4.841-.968-8.49-.968-3.648 0-9.158 1.787-12.212 2.829l-.147.05c-.424-2.133-.429-3.415-.429-3.415V3.615h27.927v.813c-.62.267-1.058.856-1.058 1.554 0 .695.437 1.285 1.058 1.551v.987c-.933.342-2.615 1.16-3.384 2.814-.72 1.552-.851 2.895-.858 3.63h-.663v1.424h11.234v-1.423h-.663c-.008-.736-.14-2.08-.86-3.63-.768-1.658-2.45-2.473-3.382-2.814v-.987c.62-.265 1.057-.857 1.057-1.552 0-.698-.438-1.288-1.057-1.555v-.812zm.063 2.367c0 .404-.347.733-.774.733-.43 0-.776-.329-.776-.733 0-.407.347-.736.776-.736.427 0 .774.329.774.736zm-2.095 27.084v-4.564h2.639v4.564h-2.639zm0-10.008v-4.095h2.639v4.095h-2.639zm-2.234-.002v-4.087h.814v4.087h-.814zm6.292 0v-4.087h.814v4.087h-.814zM24.145 36.278v-1.22h16.977v1.22H24.145zm3.316 5.418h10.346v-2.472H27.46v2.472zm-1.22 1.22v-4.911h12.785v4.911H26.241zm-1.843-2.79v1.922l-13.17 8.304a43.866 43.866 0 0 1-.944-1.327l14.114-8.9zm16.47 1.991v-1.924l14.093 8.906c-.301.44-.616.881-.947 1.327l-13.146-8.309zM30.853 54.611c.177.136.265.33.265.58 0 .473-.386.803-.948.803-.628 0-1.03-.363-1.03-.925 0-.466.282-.788.675-.997.523.217.836.378 1.038.539zm-.676-1.286c-.377-.153-.933-.419-.933-.886 0-.417.338-.698.853-.698.539 0 .853.256.853.682 0 .444-.42.724-.773.902zm3.757-.885c.151-.426.393-.675.707-.675.353 0 .627.24.78.867.08.346.12.708.12 1.23 0 .54-.048.999-.152 1.344-.146.467-.418.756-.757.756-.337 0-.626-.266-.772-.892-.072-.297-.11-.716-.11-1.256 0-.571.054-1.03.184-1.374zm5.194 4.181c1.126 0 1.897-1.109 1.897-2.775 0-1.165-.448-2.75-1.889-2.75-1.07 0-1.874 1.142-1.874 2.726 0 1.15.45 2.8 1.865 2.8zm-4.503 0c1.126 0 1.898-1.109 1.898-2.775 0-1.165-.451-2.75-1.891-2.75-1.069 0-1.873 1.142-1.873 2.726 0 1.15.45 2.8 1.866 2.8zm-4.545.032c.925 0 2.012-.578 2.012-1.616 0-.668-.49-1.054-1.271-1.375.554-.209 1.07-.58 1.07-1.238 0-.789-.7-1.327-1.714-1.327-.876 0-1.825.401-1.825 1.423 0 .539.37 1.03.86 1.23-.594.21-1.03.733-1.03 1.384 0 1.061.975 1.519 1.898 1.519zm-2.677-.152v-.715h-.747v-4.602h-.628l-1.617 1.135.217.474c.097-.033.394-.16.611-.265.217-.104.467-.265.547-.314v3.572h-.933v.715h2.55zM40.869 44.52l11.918 7.465c-4.239 5.199-10.6 10.621-20.148 15.193-9.527-4.563-15.882-9.975-20.127-15.167l11.915-7.463H40.87v-.028zm-1.725 7.246c.353 0 .627.24.78.867.08.346.12.708.12 1.23 0 .54-.047.999-.152 1.344-.145.467-.418.756-.756.756-.339 0-.628-.266-.772-.892-.073-.297-.112-.716-.112-1.256 0-.571.055-1.03.184-1.374.153-.426.394-.675.708-.675z" id="Shape" fill="#0D395F"/></g></g></svg>