<svg width="180" height="72" fill="none" xmlns="http://www.w3.org/2000/svg"><path fill-rule="evenodd" clip-rule="evenodd" d="M59.263 19.684v-9.461h-1.304v8.714l-7.052 4.136-7.058-4.136v-8.714h-1.304v9.46l8.362 4.9 8.356-4.9Z" fill="#fff"/><path fill-rule="evenodd" clip-rule="evenodd" d="M50.203 21.066v-8.739c-1.562-2.875-5.04-2.93-5.04-2.93-.049-.058 0 8.737 0 8.737s3.478.057 5.04 2.932Zm6.388-2.856s.052-8.796 0-8.739c0 0-3.514.056-5.093 2.931v8.74c1.579-2.877 5.093-2.933 5.093-2.933ZM40.317 57.056c-.155.5-.447.81-.807.81-.362 0-.672-.285-.826-.956-.077-.317-.12-.764-.12-1.34 0-.611.06-1.1.197-1.47.164-.456.42-.723.757-.723.378 0 .67.258.833.928.087.37.129.758.129 1.316 0 .576-.051 1.066-.163 1.435Zm-.807-4.392c-1.144 0-2.004 1.22-2.004 2.913 0 1.23.482 2.992 1.994 2.992 1.204 0 2.029-1.187 2.029-2.966 0-1.245-.481-2.939-2.02-2.939ZM21.502 15.07h-2.717a15.547 15.547 0 0 0-.315-2.61h2.325c.381.805.628 1.683.707 2.61Zm-.707 3.917H18.47c.172-.817.28-1.692.315-2.612h2.717a7.607 7.607 0 0 1-.707 2.612Zm-3.827 3.737c.465-.672.856-1.496 1.158-2.434h1.884a7.69 7.69 0 0 1-3.042 2.434Zm-2.438.493V20.29h2.228c-.563 1.53-1.38 2.57-2.228 2.927Zm0-6.842h2.952a14.172 14.172 0 0 1-.339 2.612H14.53v-2.612Zm0-3.914h2.613c.182.787.301 1.662.339 2.61H14.53v-2.61Zm0-4.232c.848.358 1.666 1.396 2.228 2.928H14.53V8.229Zm5.48 2.928h-1.884c-.302-.938-.693-1.763-1.158-2.435a7.693 7.693 0 0 1 3.042 2.435Zm-6.784 0h-2.229c.563-1.533 1.38-2.571 2.229-2.928v2.928Zm0 3.914h-2.952c.038-.948.157-1.823.339-2.61h2.613v2.61Zm0 3.916h-2.613a14.172 14.172 0 0 1-.339-2.612h2.952v2.612Zm0 4.23c-.849-.356-1.666-1.395-2.228-2.927h2.228v2.928Zm-5.48-2.927H9.63c.302.937.692 1.76 1.157 2.433a7.694 7.694 0 0 1-3.041-2.433Zm-.785-1.303a7.631 7.631 0 0 1-.708-2.612h2.718c.035.92.143 1.795.315 2.612H6.961Zm0-6.526h2.324a15.654 15.654 0 0 0-.314 2.61H6.253c.08-.928.327-1.806.708-2.61Zm3.825-3.738c-.464.672-.854 1.496-1.156 2.434H7.746a7.7 7.7 0 0 1 3.04-2.434Zm3.092-1.961c-4.941 0-8.961 4.019-8.961 8.96 0 4.942 4.02 8.962 8.961 8.962 4.941 0 8.961-4.02 8.961-8.961 0-4.942-4.02-8.961-8.961-8.961Zm21.626 50.294c-.155.5-.447.81-.808.81-.36 0-.67-.285-.825-.956-.077-.317-.12-.764-.12-1.34 0-.611.06-1.1.198-1.47.163-.456.421-.723.756-.723.378 0 .67.258.834.928.085.37.13.758.13 1.316 0 .576-.053 1.066-.165 1.435Zm-.808-4.392c-1.143 0-2.002 1.22-2.002 2.913 0 1.23.481 2.992 1.994 2.992 1.203 0 2.028-1.187 2.028-2.966 0-1.245-.482-2.939-2.02-2.939ZM77.31 23.21l1.672-.332.207-2.098v-7.459l-.206-2.098-1.673-.332v-.623h4.459l1.053 3.053 3.117 8.165 3.2-8.185.97-3.033h4.46v.623l-1.652.332-.227 2.098v7.459l.227 2.098 1.652.333v.644H88.87v-.644l1.651-.333.227-2.098v-9.1l-3.55 9.1-1.053 3.075h-1.341L83.69 20.78l-3.572-9.1v9.1l.226 2.098 1.652.333v.644H77.31v-.644Zm19.916-12.755c0-.707.578-1.31 1.3-1.31.702 0 1.301.583 1.301 1.33 0 .665-.537 1.288-1.3 1.288-.703 0-1.301-.52-1.301-1.308ZM96.152 23.21l1.446-.27.206-1.58v-4.28l-.206-1.599-1.652-.27v-.644l3.84-.373-.207 2.887v4.28l.207 1.579 1.445.27v.644h-5.079v-.644Zm12.438-1.64v-6.15c-.578-.25-1.033-.374-1.673-.374-1.941 0-3.014 1.62-3.014 4.176 0 2.264.826 3.636 2.436 3.636.724 0 1.487-.333 2.251-1.288Zm-6.545-1.911c0-3.242 2.023-5.527 4.955-5.527.578 0 1.032.062 1.59.187v-2.431l-.228-1.6-1.651-.27v-.644L110.572 9l-.228 2.888v9.474l.228 1.579 1.341.27v.644l-3.323.436.31-1.973c-.951 1.288-1.921 1.973-3.283 1.973-2.086 0-3.572-1.807-3.572-4.632Zm17.158 1.911v-6.15c-.578-.25-1.032-.374-1.672-.374-1.941 0-3.014 1.62-3.014 4.176 0 2.264.826 3.636 2.436 3.636.723 0 1.487-.333 2.25-1.288Zm-6.545-1.911c0-3.242 2.024-5.527 4.955-5.527a6.81 6.81 0 0 1 1.59.187v-2.431l-.227-1.6-1.651-.27v-.644l3.86-.374-.227 2.888v9.474l.227 1.579 1.341.27v.644l-3.323.436.31-1.973c-.95 1.288-1.92 1.973-3.283 1.973-2.085 0-3.572-1.807-3.572-4.632Zm11.172 3.551 1.445-.269.227-1.58v-9.473l-.227-1.6-1.651-.27v-.644l3.84-.374-.207 2.888v9.474l.227 1.58 1.424.269v.644h-5.078v-.644Zm10.319-5.546 1.403-.208c0-1.641-.763-2.493-1.899-2.493-1.156 0-1.96.873-2.188 2.7h2.684Zm-4.501 1.641c0-3.158 1.59-5.173 4.17-5.173 2.168 0 3.675 1.413 3.593 4.363h-5.967s-.02.29-.02.457c0 2.347 1.135 4.01 3.324 4.01.66 0 1.404-.166 2.126-.707l.413.561c-1.177 1.081-2.064 1.475-3.551 1.475-2.457 0-4.088-1.787-4.088-4.986Zm16.235-.165c0-2.14-.909-3.595-2.291-3.595-.846 0-1.652.352-2.395 1.226v4.59l.206 1.809c.496.166.847.249 1.384.249 2.127 0 3.096-1.912 3.096-4.28Zm-6.462 4.715V11.888l-.206-1.6-1.651-.27v-.644L141.403 9l-.206 2.888v3.906c.763-1.018 1.879-1.662 3.138-1.662 1.982 0 3.365 1.704 3.365 4.342 0 3.22-1.92 5.817-5.637 5.817-.866 0-1.465 0-2.642-.436Zm10.674-2.805v-3.968l-.227-1.6-1.611-.27v-.644l3.82-.373-.207 2.887v3.49c0 1.434.66 2.306 1.962 2.306.887 0 1.692-.54 2.27-1.246v-4.55l-.206-1.6-1.611-.27v-.644l3.82-.373-.227 2.887v4.28l.227 1.58 1.486.269v.644l-3.489.374.228-1.87c-.971 1.351-1.838 1.932-3.304 1.932-1.817 0-2.931-1.163-2.931-3.24Z" fill="#fff"/><mask id="a" style="mask-type:luminance" maskUnits="userSpaceOnUse" x="168" y="14" width="12" height="16"><path fill-rule="evenodd" clip-rule="evenodd" d="M168.997 14.568h10.157v14.48h-10.157v-14.48Z" fill="#fff"/></mask><g mask="url(#a)"><path fill-rule="evenodd" clip-rule="evenodd" d="M169.823 28.779v-.706l2.064-.333.887-1.454.889-2.098-2.891-7.106-.846-1.62-.929-.25v-.644h4.521v.644l-1.321.25.496 1.62 1.857 4.8 1.735-4.8.453-1.62-1.3-.25v-.644h3.716v.644l-1.053.25-.784 1.62-4.501 11.967-2.993-.27Z" fill="#fff"/></g><path fill-rule="evenodd" clip-rule="evenodd" d="M167.068 14.41c-1.172 0-2.097.66-2.961 2.124-.003-.023-.007-.045-.008-.067l.003-.243c.007-.105.02-.211.031-.316l.079-.693c.038-.337.075-.675.114-1.012l-3.63.373v.643l1.65.27.226 1.598v4.274l-.226 1.578-1.443.27v.643h5.298v-.643l-1.649-.27-.226-1.578v-3.924l.003-.084c.598-.743 1.399-1.012 2.017-1.012.433 0 .866.145 1.217.31l.516-2.095a3.059 3.059 0 0 0-1.011-.145ZM77 39.871c0-3.823 2.147-7.168 7.122-7.168 1.28 0 2.395.104 4.088.457l.207 3.159h-1.012l-.474-2.328a8.937 8.937 0 0 0-2.87-.457c-3.16 0-4.976 2.307-4.976 5.963 0 3.782 1.817 6.628 5.182 6.628.846 0 2.002-.208 2.828-.561l.475-2.223h1.012l-.207 3.178c-1.424.25-2.395.437-4.5.437-4.872 0-6.875-3.034-6.875-7.085Zm20.117 2.057c0-2.764-.888-4.176-2.519-4.176-1.651 0-2.56 1.308-2.56 4.197 0 2.825.888 4.238 2.499 4.238 1.651 0 2.58-1.37 2.58-4.26Zm-7.081.166c0-2.991 1.61-5.215 4.665-5.215 2.643 0 4.398 1.787 4.398 5.028 0 3.158-1.879 5.173-4.625 5.173-2.642 0-4.438-1.89-4.438-4.986Zm9.81 3.886 1.446-.27.226-1.58v-9.474l-.226-1.6-1.652-.27v-.644l3.84-.374-.207 2.888v9.475l.227 1.578 1.425.27v.645h-5.079v-.645Zm6.451 0 1.446-.27.226-1.58v-9.474l-.226-1.6-1.652-.27v-.644l3.839-.374-.206 2.888v9.475l.227 1.578 1.425.27v.645h-5.079v-.645Zm10.319-5.548 1.404-.208c0-1.641-.763-2.493-1.9-2.493-1.155 0-1.961.873-2.187 2.701h2.683Zm-4.501 1.641c0-3.157 1.59-5.173 4.171-5.173 2.168 0 3.675 1.412 3.592 4.363h-5.967s-.02.29-.02.457c0 2.348 1.135 4.01 3.324 4.01.66 0 1.403-.166 2.126-.706l.413.56c-1.176 1.08-2.064 1.475-3.55 1.475-2.458 0-4.089-1.786-4.089-4.986Zm14.918-1.62c0-1.641-.558-2.847-1.899-2.847-1.198 0-1.838 1.018-1.838 2.721 0 1.642.64 2.619 1.941 2.619 1.156 0 1.796-.956 1.796-2.493Zm1.755 8.663c0-.789-.516-1.246-2.746-1.62l-1.981-.333c-.579.332-1.384 1.039-1.384 1.829 0 1.205 1.198 1.994 3.035 1.994 1.734 0 3.076-.769 3.076-1.87Zm-7.701.416c0-1.1 1.074-2.078 2.168-2.534-1.012-.23-1.693-.748-1.693-1.496 0-.894.743-1.538 1.858-2.1-1.239-.498-2.002-1.661-2.002-3.157 0-1.828 1.342-3.428 3.757-3.428.785 0 1.507.146 2.291.644l2.726-.706v1.33h-2.127c.516.664.806 1.184.806 2.242 0 1.85-1.528 3.43-3.655 3.43a4.21 4.21 0 0 1-.99-.105c-.579.291-1.053.727-1.053 1.06 0 .727 1.094.852 2.704 1.1 1.961.313 4.087.395 4.087 2.577 0 2.016-1.899 3.657-5.016 3.657-2.23 0-3.861-.956-3.861-2.514Zm14.266-9.1 1.404-.208c0-1.641-.764-2.493-1.9-2.493-1.155 0-1.961.873-2.188 2.701h2.684Zm-4.501 1.641c0-3.157 1.59-5.173 4.171-5.173 2.168 0 3.674 1.412 3.592 4.363h-5.967s-.02.29-.02.457c0 2.348 1.135 4.01 3.324 4.01.66 0 1.403-.166 2.127-.706l.412.56c-1.177 1.08-2.064 1.475-3.551 1.475-2.457 0-4.088-1.786-4.088-4.986Z" fill="#fff"/><mask id="b" style="mask-type:luminance" maskUnits="userSpaceOnUse" x="0" y="0" width="66" height="72"><path fill-rule="evenodd" clip-rule="evenodd" d="M0 0h65.118v72H0V0Z" fill="#fff"/></mask><g mask="url(#b)"><path fill-rule="evenodd" clip-rule="evenodd" d="M63.166 32.376s-.002 2.095-.85 5.42l-1.534-.072c-2.507-.12-4.575.398-6.924.04-2.346-.359-4.377-2.508-7.68-3.104-2.384-.43-4.357-.509-7.006-.429v-7.063H25.948v6.84a36.384 36.384 0 0 0-1.256-.025c-3.74 0-5.172-1.034-9.072-1.034-3.9 0-9.788 1.91-13.051 3.024l-.157.053c-.454-2.28-.458-3.65-.458-3.65V1.92h29.845v.87c-.662.283-1.13.915-1.13 1.66 0 .743.468 1.374 1.13 1.658v1.055c-.997.365-2.796 1.24-3.616 3.007-.768 1.66-.91 3.094-.918 3.88h-.707v1.521h12.005v-1.52h-.709c-.008-.787-.148-2.222-.917-3.88-.823-1.77-2.62-2.643-3.617-3.007V6.108c.663-.284 1.13-.916 1.13-1.66 0-.744-.468-1.376-1.13-1.66v-.869h29.846v30.457Zm-7.756 19.57-14.05-8.878v-2.057l15.062 9.52c-.322.468-.66.94-1.012 1.415ZM32.565 69.85c-10.181-4.875-16.973-10.66-21.51-16.208l12.735-7.976h17.57v-.03l12.739 7.98c-4.531 5.553-11.328 11.35-21.534 16.234Zm-6.837-25.928H39.39v-5.249H25.729v5.25Zm5.421-10.527h2.82v-4.878h-2.82v4.878Zm-7.663 3.434h18.146v-1.304H23.487v1.304ZM8.675 50.451l15.085-9.512v2.056L9.685 51.87a47.736 47.736 0 0 1-1.011-1.418ZM32.56 3.663c.457 0 .828.352.828.786 0 .432-.37.783-.828.783-.458 0-.829-.35-.829-.783 0-.434.371-.786.83-.786ZM0 0v32.923c0 .056.08 5.965 4.157 13.712C7.897 53.743 15.86 63.89 32.578 72c16.731-8.114 24.684-18.259 28.413-25.366 4.064-7.746 4.127-13.653 4.127-13.712V0H0Z" fill="#fff"/></g><path fill-rule="evenodd" clip-rule="evenodd" d="M29.926 57.898c-.671 0-1.101-.387-1.101-.988 0-.498.302-.842.723-1.066.558.233.893.405 1.108.576.189.146.284.353.284.62 0 .505-.413.858-1.014.858Zm-.078-4.546c.577 0 .91.275.91.731 0 .472-.446.773-.824.961-.404-.163-.997-.446-.997-.945 0-.446.36-.747.91-.747Zm.773 2.054c.594-.224 1.144-.619 1.144-1.323 0-.842-.748-1.418-1.831-1.418-.936 0-1.951.43-1.951 1.52 0 .576.396 1.101.92 1.316-.636.223-1.1.782-1.1 1.478 0 1.135 1.04 1.624 2.028 1.624s2.149-.618 2.149-1.727c0-.714-.525-1.126-1.36-1.47Zm-3.589-12.788h11.056v-2.642H27.032v2.642Zm8.454-19.921h.87v-4.368h-.87v4.368Zm-4.336.002h2.82v-4.376h-2.82v4.376Zm-2.387-.002h.87v-4.368h-.87v4.368Zm9.07-5.823H27.285v7.479h-2.29v1.521h15.128v-1.521h-2.292v-7.479ZM26.17 52.759h-.67l-1.727 1.213.23.506a8.33 8.33 0 0 0 .654-.283c.232-.112.498-.284.584-.335v3.816h-.997v.765h2.724v-.765h-.799v-4.917Z" fill="#fff"/></svg>