<svg width="124" height="99" fill="none" xmlns="http://www.w3.org/2000/svg"><path d="M27.923 99.002c-8.421 0-15.18-2.944-20.277-8.83C2.549 84.059 0 75.908 0 65.72c0-12.226 3.878-23.886 11.635-34.98C19.39 19.647 31.137 9.458 46.87.176l10.305 12.226c-7.978 6.792-14.848 13.244-20.61 19.357-5.54 5.887-8.532 11.207-8.975 15.962l1.33 1.019c1.55-1.359 3.988-2.038 7.313-2.038 5.097 0 9.418 2.264 12.964 6.792 3.546 4.528 5.319 10.641 5.319 18.339 0 7.924-2.438 14.49-7.314 19.697-4.875 4.981-11.302 7.472-19.28 7.472zm66.484 0c-8.422 0-15.18-2.944-20.278-8.83-5.097-6.113-7.645-14.264-7.645-24.452 0-12.226 3.878-23.886 11.634-34.98C85.875 19.647 97.62 9.458 113.354.176l10.305 12.226c-7.978 6.792-14.848 13.244-20.61 19.357-5.54 5.887-8.532 11.207-8.975 15.962l1.33 1.019c1.551-1.359 3.989-2.038 7.313-2.038 5.097 0 9.419 2.264 12.964 6.792C119.227 58.022 121 64.135 121 71.833c0 7.924-2.438 14.49-7.313 19.697-4.876 4.981-11.302 7.472-19.28 7.472z" fill="#C0E3FD"/></svg>