<svg width="232" height="72" xmlns="http://www.w3.org/2000/svg"><g id="language-schools-logo" stroke="none" stroke-width="1" fill="none" fill-rule="evenodd"><g id="Group-56" transform="translate(77 9)" fill="#000"><path id="Fill-1" d="M13.008 1.835l-.976 3.043-3.215 8.21-3.132-8.19-1.059-3.063H.146v.626l1.68.333.207 2.105v7.48l-.208 2.105-1.68.334v.646h4.71v-.646l-1.66-.334-.228-2.104V3.253l3.59 9.127 1.12 3.084h1.347l1.06-3.084 3.567-9.127v9.127l-.228 2.104-1.66.334v.646h5.726v-.646l-1.66-.334-.228-2.104V4.899l.228-2.105 1.66-.333v-.626z"/><g id="Group-55" transform="translate(0 .309)"><path d="M20.16 1.714c0-.708.58-1.313 1.307-1.313.705 0 1.307.584 1.307 1.334a1.3 1.3 0 01-1.307 1.292c-.706 0-1.308-.521-1.308-1.313zM19.08 14.51l1.452-.27.207-1.585V8.362l-.207-1.605-1.66-.271V5.84l3.859-.375-.208 2.897v4.292l.208 1.584 1.452.271v.646H19.08v-.646z" id="Fill-2"/><path d="M31.58 12.863V6.694c-.581-.25-1.038-.374-1.682-.374-1.95 0-3.028 1.625-3.028 4.188 0 2.271.83 3.647 2.448 3.647.727 0 1.494-.334 2.261-1.292m-6.576-1.917c0-3.251 2.033-5.543 4.979-5.543.58 0 1.037.062 1.597.187V3.152l-.228-1.605-1.66-.27V.63l3.88-.375-.229 2.897v9.502l.229 1.584 1.348.27v.647l-3.34.438.311-1.98c-.954 1.293-1.929 1.98-3.298 1.98-2.096 0-3.59-1.813-3.59-4.647" id="Fill-4"/><path d="M42.245 12.863V6.694c-.58-.25-1.037-.374-1.68-.374-1.951 0-3.03 1.625-3.03 4.188 0 2.271.83 3.647 2.449 3.647.726 0 1.494-.334 2.261-1.292m-6.577-1.917c0-3.251 2.034-5.543 4.98-5.543.58 0 1.037.062 1.597.187V3.152l-.229-1.605-1.659-.27V.63l3.88-.375-.229 2.897v9.502l.229 1.584 1.348.27v.647l-3.34.438.311-1.98c-.955 1.293-1.929 1.98-3.299 1.98-2.095 0-3.589-1.813-3.589-4.647" id="Fill-7"/><path id="Fill-10" d="M46.895 14.509l1.452-.27.228-1.585V3.152l-.228-1.605-1.66-.27V.63l3.86-.375-.209 2.897v9.502l.229 1.585 1.431.27v.646h-5.103z"/><path d="M57.265 8.945l1.41-.208c0-1.646-.767-2.5-1.909-2.5-1.161 0-1.97.874-2.198 2.708h2.697zm-4.523 1.646c0-3.167 1.598-5.188 4.19-5.188 2.179 0 3.693 1.417 3.61 4.376h-5.995s-.02.292-.02.459c0 2.354 1.14 4.021 3.34 4.021.663 0 1.41-.166 2.136-.708l.415.562c-1.183 1.084-2.074 1.48-3.568 1.48-2.47 0-4.108-1.792-4.108-5.002z" id="Fill-13"/><path d="M69.057 10.425c0-2.146-.913-3.605-2.303-3.605-.85 0-1.66.354-2.407 1.23v4.604l.207 1.814c.5.166.851.25 1.39.25 2.138 0 3.113-1.918 3.113-4.293m-6.494 4.73V3.152l-.208-1.605-1.659-.27V.63l3.858-.375-.207 2.897V7.07c.767-1.021 1.888-1.667 3.154-1.667 1.992 0 3.381 1.708 3.381 4.355 0 3.23-1.93 5.835-5.664 5.835-.87 0-1.472 0-2.655-.438" id="Fill-15"/><path d="M73.29 12.342v-3.98l-.23-1.605-1.618-.27V5.84l3.839-.374-.208 2.896v3.5c0 1.438.663 2.313 1.971 2.313.892 0 1.701-.541 2.282-1.25V8.362l-.207-1.605-1.619-.27V5.84l3.838-.374-.228 2.896v4.293l.228 1.584 1.494.27v.646l-3.506.375.229-1.875c-.976 1.355-1.847 1.938-3.32 1.938-1.826 0-2.946-1.167-2.946-3.25" id="Fill-18"/><path id="Fill-20" d="M93.114 20.094v-.708l2.075-.334.892-1.459.892-2.104-2.905-7.127-.85-1.626-.934-.25V5.84h4.543v.646l-1.327.25.499 1.626 1.866 4.813 1.743-4.813.456-1.626-1.306-.25V5.84h3.734v.646l-1.058.25-.788 1.626-4.523 12.003z"/><path d="M90.346 5.682c-1.178 0-2.107.662-2.976 2.13l-.008-.067.003-.244c.008-.106.02-.212.031-.317l.08-.695c.037-.338.075-.677.114-1.015l-3.647.374v.645l1.658.271.227 1.603v4.287l-.227 1.582-1.45.27v.646h5.324v-.646l-1.658-.27-.227-1.582V8.718c0-.027.002-.056.004-.084.6-.746 1.406-1.016 2.026-1.016.435 0 .87.146 1.223.312l.519-2.102a3.078 3.078 0 00-1.016-.146" id="Fill-22"/><path id="Fill-24" d="M0 37.351l1.68-.334.208-2.105v-7.48l-.208-2.105L0 24.993v-.624h5.726v.624l-1.68.334-.208 2.105v7.46l.207 1.855 1.598.333h1.328l1.763-.333.457-2.043h.891l-.207 3.293H0z"/><path d="M16.645 35.517v-2.021c-1.224 0-2.095.166-2.656.52-.56.313-.85.813-.85 1.46 0 .812.56 1.479 1.37 1.479.684 0 1.514-.521 2.136-1.438m-5.249.396c0-.917.395-1.688 1.224-2.292.81-.605 2.137-.917 4.025-.917v-1.125c0-1.313-.788-2.084-2.054-2.084-.767 0-1.535.312-2.22.937l-.518-.563c.933-1.062 2.2-1.73 3.672-1.73 1.66 0 2.863.898 2.863 2.96v4.398l.228 1.583 1.39.271v.646l-3.403.376.374-2.293c-.767 1.417-1.764 2.354-3.174 2.354-1.37 0-2.407-.937-2.407-2.52" id="Fill-26"/><path d="M21.314 37.351l1.453-.27.228-1.584v-4.294l-.228-1.604-1.66-.271v-.646l3.652-.375-.229 1.875c.85-1.312 1.93-1.938 3.34-1.938 1.785 0 2.946 1.188 2.946 3.252v4l.208 1.584 1.473.271v.646h-4.875v-.646l1.182-.27.208-1.584v-3.502c0-1.396-.664-2.334-1.971-2.334-.789 0-1.37.23-2.282 1.25v4.586l.228 1.583 1.183.271v.646h-4.856v-.646z" id="Fill-28"/><path d="M39.423 31.808c0-1.646-.56-2.855-1.91-2.855-1.203 0-1.845 1.021-1.845 2.73 0 1.646.642 2.626 1.95 2.626 1.162 0 1.805-.96 1.805-2.501m1.764 8.69c0-.792-.52-1.25-2.76-1.626l-1.991-.334c-.582.334-1.39 1.042-1.39 1.835 0 1.208 1.203 2 3.049 2 1.743 0 3.092-.771 3.092-1.876m-7.74.417c0-1.104 1.08-2.083 2.179-2.542-1.016-.23-1.701-.75-1.701-1.5 0-.896.747-1.542 1.867-2.105-1.244-.5-2.012-1.668-2.012-3.167 0-1.835 1.348-3.438 3.776-3.438.788 0 1.515.145 2.303.645l2.738-.709v1.334H40.46c.519.667.81 1.188.81 2.25 0 1.855-1.536 3.44-3.673 3.44a4.22 4.22 0 01-.995-.106c-.582.293-1.06.73-1.06 1.064 0 .729 1.1.855 2.719 1.104 1.971.313 4.107.395 4.107 2.583 0 2.023-1.908 3.669-5.04 3.669-2.24 0-3.88-.959-3.88-2.522" id="Fill-30"/><path d="M45.454 35.183v-3.98l-.228-1.604-1.618-.271v-.646l3.838-.375-.207 2.896v3.5c0 1.439.663 2.314 1.97 2.314.892 0 1.702-.541 2.283-1.25v-4.564l-.208-1.604-1.618-.271v-.646l3.838-.375-.228 2.896v4.294l.228 1.583 1.494.271v.646l-3.506.375.228-1.876c-.975 1.355-1.846 1.938-3.32 1.938-1.825 0-2.946-1.167-2.946-3.25" id="Fill-32"/><path d="M61.345 35.517v-2.021c-1.225 0-2.096.166-2.656.52-.56.313-.85.813-.85 1.46 0 .812.56 1.479 1.369 1.479.684 0 1.515-.521 2.137-1.438m-5.249.396c0-.917.394-1.688 1.224-2.292.808-.605 2.137-.917 4.025-.917v-1.125c0-1.313-.788-2.084-2.055-2.084-.767 0-1.535.312-2.22.937l-.517-.563c.932-1.062 2.199-1.73 3.671-1.73 1.66 0 2.863.898 2.863 2.96v4.398l.229 1.583 1.39.271v.646l-3.402.376.373-2.293c-.768 1.417-1.764 2.354-3.175 2.354-1.369 0-2.406-.937-2.406-2.52" id="Fill-34"/><path d="M71.574 31.808c0-1.646-.56-2.855-1.908-2.855-1.203 0-1.847 1.021-1.847 2.73 0 1.646.644 2.626 1.95 2.626 1.163 0 1.805-.96 1.805-2.501m1.764 8.69c0-.792-.519-1.25-2.76-1.626l-1.99-.334c-.582.334-1.391 1.042-1.391 1.835 0 1.208 1.203 2 3.05 2 1.743 0 3.091-.771 3.091-1.876m-7.739.417c0-1.104 1.08-2.083 2.179-2.542-1.016-.23-1.701-.75-1.701-1.5 0-.896.746-1.542 1.867-2.105-1.245-.5-2.012-1.668-2.012-3.167 0-1.835 1.348-3.438 3.776-3.438.788 0 1.514.145 2.302.645l2.739-.709v1.334h-2.137c.518.667.81 1.188.81 2.25 0 1.855-1.536 3.44-3.673 3.44-.291 0-.665-.022-.995-.106-.583.293-1.06.73-1.06 1.064 0 .729 1.1.855 2.719 1.104 1.97.313 4.107.395 4.107 2.583 0 2.023-1.908 3.669-5.04 3.669-2.242 0-3.88-.959-3.88-2.522" id="Fill-36"/><path d="M79.935 31.787l1.412-.209c0-1.646-.768-2.5-1.91-2.5-1.162 0-1.97.875-2.199 2.71h2.697zm-4.523 1.646c0-3.167 1.598-5.19 4.19-5.19 2.18 0 3.694 1.418 3.61 4.377h-5.995s-.02.292-.02.459c0 2.355 1.14 4.021 3.34 4.021.664 0 1.41-.165 2.137-.708l.415.563c-1.182 1.083-2.075 1.479-3.568 1.479-2.47 0-4.109-1.792-4.109-5z" id="Fill-38"/><path d="M91.938 37.68l-.207-3.168h1.058l.414 2.189c.706.333 1.348.604 2.2.604 1.887 0 3.257-.917 3.257-2.48 0-1.75-1.66-2.397-3.258-3.001-1.97-.75-3.713-1.542-3.713-3.938 0-2.105 1.597-4.023 4.688-4.023 1.058 0 2.366.293 3.485.71l.229 3.146h-1.037l-.457-2.23c-.643-.396-1.64-.625-2.261-.625-2.054 0-3.07 1.146-3.07 2.334 0 1.687 1.452 2.167 2.904 2.75 2.116.855 4.108 1.751 4.108 4.315 0 2.48-1.992 4.105-4.98 4.105-1.016 0-1.888-.104-3.36-.689" id="Fill-40"/><path d="M101.603 33.492c0-3.085 1.764-5.252 4.42-5.252.891 0 1.555.104 2.696.5l.228 2.5h-.808l-.478-1.604c-.498-.208-1.079-.416-1.742-.416-1.432 0-2.552 1-2.552 3.605 0 2.583 1.14 4.25 3.174 4.25.664 0 1.452-.229 2.178-.75l.456.584c-1.161 1.02-2.385 1.52-3.609 1.52-2.365 0-3.963-1.854-3.963-4.937" id="Fill-42"/><path d="M110.242 37.347l1.453-.271.228-1.584V25.99l-.228-1.605-1.66-.271v-.647l3.859-.375-.207 2.898v3.917a3.762 3.762 0 013.111-1.667c1.867 0 2.987 1.146 2.987 3.251v4.001l.228 1.584 1.432.27v.647h-4.834v-.646l1.182-.271.23-1.584v-3.501c0-1.417-.644-2.334-2.013-2.334-.996 0-1.743.604-2.323 1.271v4.564l.227 1.584 1.183.27v.647h-4.855v-.646z" id="Fill-44"/><path d="M129.066 33.283c0-2.772-.892-4.19-2.532-4.19-1.66 0-2.572 1.314-2.572 4.211 0 2.834.892 4.25 2.51 4.25 1.66 0 2.594-1.374 2.594-4.271m-7.116.167c0-3 1.618-5.231 4.688-5.231 2.656 0 4.419 1.792 4.419 5.043 0 3.167-1.888 5.189-4.647 5.189-2.655 0-4.46-1.896-4.46-5.001" id="Fill-46"/><path d="M139.423 33.283c0-2.772-.892-4.19-2.531-4.19-1.66 0-2.573 1.314-2.573 4.211 0 2.834.892 4.25 2.51 4.25 1.66 0 2.594-1.374 2.594-4.271m-7.116.167c0-3 1.618-5.231 4.688-5.231 2.656 0 4.42 1.792 4.42 5.043 0 3.167-1.888 5.189-4.648 5.189-2.655 0-4.46-1.896-4.46-5.001" id="Fill-48"/><path id="Fill-50" d="M141.958 37.347l1.452-.271.228-1.584V25.99l-.228-1.605-1.66-.271v-.647l3.859-.375-.207 2.898v9.502l.228 1.584 1.431.27v.647h-5.103z"/><path d="M148.643 37.867l-.165-2.437h.912l.353 1.604c.644.292 1.141.459 1.93.459 1.12 0 1.825-.563 1.825-1.521 0-1.21-1.14-1.564-2.22-1.96-1.307-.542-2.842-1-2.842-2.876 0-1.583 1.286-3.021 3.486-3.021.933 0 1.846.187 2.76.604l.206 2.438h-.913l-.456-1.646a4.284 4.284 0 00-1.846-.417c-1.1 0-1.722.459-1.722 1.396 0 1.147 1.161 1.5 2.178 1.897 1.473.562 2.863 1.021 2.863 2.959 0 1.75-1.411 3.126-3.506 3.126-.684 0-1.847-.208-2.843-.605" id="Fill-52"/></g></g><g id="shield-use-copy-2"><path d="M1.627 1.627v31.355c0 .053.075 5.68 3.959 13.057C9.147 52.81 16.73 62.47 32.652 70.195c15.933-7.727 23.507-17.389 27.057-24.157 3.871-7.376 3.932-13.002 3.932-13.057V1.627H1.627z" id="Path" fill="#FFF"/><path d="M1.627 1.627v31.355c0 .053.075 5.68 3.959 13.057C9.147 52.81 16.73 62.47 32.652 70.195c15.933-7.727 23.507-17.389 27.057-24.157 3.871-7.376 3.932-13.002 3.932-13.057V1.627H1.627zM32.652 72l-.352-.169c-16.617-7.97-24.51-18.065-28.205-25.13C.062 38.989 0 33.225 0 32.984V0h65.267v32.982c0 .24-.045 6.004-4.066 13.716-3.684 7.063-11.567 17.16-28.198 25.133l-.351.169zm-11.76-59.742h-1.763c-.282-.878-.65-1.65-1.083-2.278a7.193 7.193 0 012.846 2.278zm-5.129-2.74c.795.334 1.56 1.306 2.086 2.74h-2.086v-2.74zm-3.981 6.402c.035-.887.146-1.706.316-2.442h2.446v2.442h-2.762zm.676-3.662c.527-1.434 1.292-2.406 2.086-2.74v2.74h-2.086zm-.36 7.326a13.214 13.214 0 01-.316-2.444h2.762v2.444h-2.446zm2.446 3.96c-.794-.335-1.56-1.307-2.086-2.74h2.086v2.74zm-3.981-6.404c.032.861.133 1.68.294 2.444H8.682a7.116 7.116 0 01-.662-2.444h2.543zm7.645-3.662c.171.736.282 1.555.318 2.442h-2.762v-2.442h2.444zm-7.352 0c-.16.763-.26 1.582-.293 2.442H8.02c.073-.867.305-1.69.662-2.442h2.174zm-1.44 7.326h1.762c.283.876.65 1.648 1.084 2.276a7.186 7.186 0 01-2.845-2.276zm10.33-4.884c-.034-.86-.134-1.68-.295-2.442h2.175a7.11 7.11 0 01.662 2.442h-2.543zM12.26 9.98c-.434.63-.8 1.4-1.082 2.278H9.416A7.204 7.204 0 0112.26 9.98zm7.19 9.604c.16-.764.26-1.583.294-2.444h2.543a7.11 7.11 0 01-.662 2.444H19.45zm-.925-2.444a13.21 13.21 0 01-.317 2.444h-2.446V17.14h2.763zm-2.763 6.403v-2.74h2.086c-.526 1.434-1.291 2.405-2.086 2.74zm2.282-.462c.435-.629.8-1.4 1.084-2.277h1.763a7.2 7.2 0 01-2.847 2.277zm39.575-2.845v-8.852H56.4v8.154l-6.6 3.87-6.603-3.87v-8.154h-1.22v8.852l7.824 4.586 7.819-4.585zM44.427 10.61c-.046-.053 0 8.176 0 8.176s3.254.053 4.716 2.744v-8.176c-1.462-2.691-4.716-2.744-4.716-2.744zm5.927 2.814V21.6c1.478-2.691 4.766-2.743 4.766-2.743s.048-8.23 0-8.176c0 0-3.288.053-4.766 2.743zM39.712 26.027v-1.423h-2.145v-6.997h-9.868v6.997h-2.143v1.423h14.156zm-24.558-1.113c4.623 0 8.385-3.762 8.385-8.384 0-4.624-3.762-8.386-8.385-8.386-4.623 0-8.385 3.762-8.385 8.386 0 4.622 3.762 8.384 8.385 8.384zm18.192-21.3h27.927v28.498s-.003 1.96-.796 5.072c-.391-.02-.831-.04-1.435-.068-2.347-.112-4.282.371-6.48.037-2.195-.335-4.094-2.345-7.185-2.905-2.232-.402-4.078-.475-6.556-.4v-6.61H26.447v6.4a30.643 30.643 0 00-1.174-.022c-3.501 0-4.841-.968-8.49-.968-3.648 0-9.158 1.787-12.212 2.829l-.147.05c-.424-2.133-.429-3.415-.429-3.415V3.615h27.927v.813c-.62.267-1.058.856-1.058 1.554 0 .695.437 1.285 1.058 1.551v.987c-.933.342-2.615 1.16-3.384 2.814-.72 1.552-.851 2.895-.858 3.63h-.663v1.424h11.234v-1.423h-.663c-.008-.736-.14-2.08-.86-3.63-.768-1.658-2.45-2.473-3.382-2.814v-.987c.62-.265 1.057-.857 1.057-1.552 0-.698-.438-1.288-1.057-1.555v-.812zm.063 2.367c0 .404-.347.733-.774.733-.43 0-.776-.329-.776-.733 0-.407.347-.736.776-.736.427 0 .774.329.774.736zm-2.095 27.084v-4.564h2.639v4.564h-2.639zm0-10.008v-4.095h2.639v4.095h-2.639zm-2.234-.002v-4.087h.814v4.087h-.814zm6.292 0v-4.087h.814v4.087h-.814zM24.145 36.278v-1.22h16.977v1.22H24.145zm3.316 5.418h10.346v-2.472H27.46v2.472zm-1.22 1.22v-4.911h12.785v4.911H26.241zm-1.843-2.79v1.922l-13.17 8.304a43.866 43.866 0 01-.944-1.327l14.114-8.9zm16.47 1.991v-1.924l14.093 8.906c-.301.44-.616.881-.947 1.327l-13.146-8.309zM30.853 54.611c.177.136.265.33.265.58 0 .473-.386.803-.948.803-.628 0-1.03-.363-1.03-.925 0-.466.282-.788.675-.997.523.217.836.378 1.038.539zm-.676-1.286c-.377-.153-.933-.419-.933-.886 0-.417.338-.698.853-.698.539 0 .853.256.853.682 0 .444-.42.724-.773.902zm3.757-.885c.151-.426.393-.675.707-.675.353 0 .627.24.78.867.08.346.12.708.12 1.23 0 .54-.048.999-.152 1.344-.146.467-.418.756-.757.756-.337 0-.626-.266-.772-.892-.072-.297-.11-.716-.11-1.256 0-.571.054-1.03.184-1.374zm5.194 4.181c1.126 0 1.897-1.109 1.897-2.775 0-1.165-.448-2.75-1.889-2.75-1.07 0-1.874 1.142-1.874 2.726 0 1.15.45 2.8 1.865 2.8zm-4.503 0c1.126 0 1.898-1.109 1.898-2.775 0-1.165-.451-2.75-1.891-2.75-1.069 0-1.873 1.142-1.873 2.726 0 1.15.45 2.8 1.866 2.8zm-4.545.032c.925 0 2.012-.578 2.012-1.616 0-.668-.49-1.054-1.271-1.375.554-.209 1.07-.58 1.07-1.238 0-.789-.7-1.327-1.714-1.327-.876 0-1.825.401-1.825 1.423 0 .539.37 1.03.86 1.23-.594.21-1.03.733-1.03 1.384 0 1.061.975 1.519 1.898 1.519zm-2.677-.152v-.715h-.747v-4.602h-.628l-1.617 1.135.217.474c.097-.033.394-.16.611-.265.217-.104.467-.265.547-.314v3.572h-.933v.715h2.55zM40.869 44.52l11.918 7.465c-4.239 5.199-10.6 10.621-20.148 15.193-9.527-4.563-15.882-9.975-20.127-15.167l11.915-7.463H40.87v-.028zm-1.725 7.246c.353 0 .627.24.78.867.08.346.12.708.12 1.23 0 .54-.047.999-.152 1.344-.145.467-.418.756-.756.756-.339 0-.628-.266-.772-.892-.073-.297-.112-.716-.112-1.256 0-.571.055-1.03.184-1.374.153-.426.394-.675.708-.675z" id="Shape" fill="#0D395F"/></g></g></svg>