<svg width="232" height="72" xmlns="http://www.w3.org/2000/svg"><g fill="none" fill-rule="evenodd"><path d="m90.008 10.835-.976 3.043-3.215 8.21-3.132-8.19-1.059-3.063h-4.48v.626l1.68.333.207 2.105v7.48l-.208 2.105-1.68.334v.646h4.71v-.646l-1.66-.334-.228-2.104v-9.127l3.59 9.127 1.12 3.084h1.347l1.06-3.084 3.567-9.127v9.127l-.228 2.104-1.66.334v.646h5.726v-.646l-1.66-.334-.228-2.104v-7.481l.228-2.105 1.66-.333v-.626zm7.152.188c0-.709.58-1.313 1.307-1.313.705 0 1.307.584 1.307 1.334a1.3 1.3 0 0 1-1.307 1.292c-.706 0-1.308-.522-1.308-1.313Zm-1.08 12.795 1.452-.27.207-1.585V17.67l-.207-1.604-1.66-.271v-.646l3.859-.375-.208 2.896v4.293l.208 1.584 1.452.27v.647H96.08v-.646Zm12.5-1.646v-6.169c-.581-.25-1.038-.374-1.682-.374-1.95 0-3.028 1.625-3.028 4.187 0 2.272.83 3.648 2.448 3.648.727 0 1.494-.334 2.261-1.292m-6.576-1.917c0-3.252 2.033-5.544 4.979-5.544.58 0 1.037.063 1.597.188V12.46l-.228-1.605-1.66-.27v-.647l3.88-.375-.229 2.897v9.502l.229 1.584 1.348.27v.647l-3.34.437.311-1.98c-.954 1.293-1.929 1.98-3.298 1.98-2.096 0-3.59-1.813-3.59-4.646m17.243 1.918v-6.169c-.58-.25-1.037-.374-1.68-.374-1.951 0-3.03 1.625-3.03 4.187 0 2.272.83 3.648 2.449 3.648.726 0 1.494-.334 2.261-1.292m-6.577-1.917c0-3.252 2.034-5.544 4.98-5.544.58 0 1.037.063 1.597.188V12.46l-.229-1.605-1.659-.27v-.647l3.88-.375-.229 2.897v9.502l.229 1.584 1.348.27v.647l-3.34.437.311-1.98c-.955 1.293-1.929 1.98-3.299 1.98-2.095 0-3.589-1.813-3.589-4.646m11.227 3.564 1.452-.27.228-1.585V12.46l-.228-1.605-1.66-.27v-.647l3.86-.375-.209 2.897v9.502l.229 1.584 1.431.27v.647h-5.103zm10.37-5.564 1.41-.209c0-1.646-.767-2.5-1.909-2.5-1.161 0-1.97.875-2.198 2.709h2.697Zm-4.523 1.646c0-3.167 1.598-5.189 4.19-5.189 2.179 0 3.693 1.418 3.61 4.377h-5.995s-.02.291-.02.458c0 2.354 1.14 4.022 3.34 4.022.663 0 1.41-.167 2.136-.709l.415.563c-1.183 1.084-2.074 1.48-3.568 1.48-2.47 0-4.108-1.793-4.108-5.002Zm16.315-.166c0-2.147-.913-3.605-2.303-3.605-.85 0-1.66.353-2.407 1.23v4.604l.207 1.814c.5.166.851.25 1.39.25 2.138 0 3.113-1.918 3.113-4.293m-6.494 4.73V12.46l-.208-1.605-1.659-.27v-.647l3.858-.375-.207 2.897v3.917c.767-1.02 1.888-1.666 3.154-1.666 1.992 0 3.381 1.708 3.381 4.355 0 3.23-1.93 5.834-5.664 5.834-.87 0-1.472 0-2.655-.437m10.727-2.813v-3.98l-.23-1.604-1.618-.271v-.646l3.839-.375-.208 2.896v3.501c0 1.438.663 2.313 1.971 2.313.892 0 1.701-.541 2.282-1.25V17.67l-.207-1.604-1.619-.271v-.646l3.838-.375-.228 2.896v4.293l.228 1.584 1.494.27v.647l-3.506.375.229-1.875c-.976 1.354-1.847 1.938-3.32 1.938-1.826 0-2.946-1.167-2.946-3.251m19.825 7.752v-.709l2.075-.333.892-1.459.892-2.105-2.905-7.126-.85-1.626-.934-.25v-.647h4.543v.647l-1.327.25.499 1.626 1.866 4.813 1.743-4.813.456-1.626-1.306-.25v-.647h3.734v.647l-1.058.25-.788 1.626-4.523 12.003zm-2.768-14.413c-1.178 0-2.107.663-2.976 2.13l-.008-.067.003-.243c.008-.106.02-.212.031-.317l.08-.695c.037-.338.075-.677.114-1.015l-3.647.374v.645l1.658.27.227 1.603v4.288l-.227 1.582-1.45.27v.646h5.324v-.646l-1.658-.27-.227-1.582v-3.936c0-.028.002-.056.004-.085.6-.745 1.406-1.015 2.026-1.015.435 0 .87.145 1.223.312l.519-2.103a3.078 3.078 0 0 0-1.016-.145M77 46.66l1.68-.334.208-2.105v-7.48l-.208-2.105-1.68-.334v-.625h5.726v.625l-1.68.334-.208 2.105v7.46l.207 1.855 1.598.333h1.328l1.763-.333.457-2.043h.891l-.207 3.293H77zm16.645-1.834v-2.021c-1.224 0-2.095.166-2.656.52-.56.313-.85.813-.85 1.46 0 .812.56 1.479 1.37 1.479.684 0 1.514-.522 2.136-1.438m-5.249.396c0-.917.395-1.689 1.224-2.292.81-.605 2.137-.917 4.025-.917v-1.126c0-1.312-.788-2.084-2.054-2.084-.767 0-1.535.313-2.22.937l-.518-.562c.933-1.063 2.2-1.73 3.672-1.73 1.66 0 2.863.897 2.863 2.96v4.398l.228 1.583 1.39.27v.647l-3.403.375.374-2.292c-.767 1.417-1.764 2.354-3.174 2.354-1.37 0-2.407-.937-2.407-2.521m9.918 1.438 1.453-.271.228-1.583v-4.294l-.228-1.604-1.66-.272v-.645l3.652-.376-.229 1.876c.85-1.313 1.93-1.938 3.34-1.938 1.785 0 2.946 1.188 2.946 3.251v4.002l.208 1.583 1.473.27v.647h-4.875v-.646l1.182-.271.208-1.583v-3.502c0-1.397-.664-2.334-1.971-2.334-.789 0-1.37.23-2.282 1.25v4.586l.228 1.583 1.183.27v.647h-4.856v-.646Zm18.109-5.543c0-1.646-.56-2.856-1.91-2.856-1.203 0-1.845 1.022-1.845 2.73 0 1.647.642 2.626 1.95 2.626 1.162 0 1.805-.959 1.805-2.5m1.764 8.69c0-.792-.52-1.25-2.76-1.627l-1.991-.333c-.582.333-1.39 1.042-1.39 1.834 0 1.208 1.203 2 3.049 2 1.743 0 3.092-.77 3.092-1.875m-7.74.417c0-1.104 1.08-2.084 2.179-2.542-1.016-.23-1.701-.75-1.701-1.5 0-.896.747-1.543 1.867-2.106-1.244-.5-2.012-1.667-2.012-3.166 0-1.835 1.348-3.439 3.776-3.439.788 0 1.515.145 2.303.646l2.738-.709v1.334h-2.137c.519.667.81 1.188.81 2.25 0 1.855-1.536 3.44-3.673 3.44a4.22 4.22 0 0 1-.995-.106c-.582.293-1.06.73-1.06 1.064 0 .728 1.1.854 2.719 1.104 1.971.313 4.107.395 4.107 2.583 0 2.023-1.908 3.669-5.04 3.669-2.24 0-3.88-.959-3.88-2.522m12.006-5.731v-3.98l-.228-1.604-1.618-.271v-.646l3.838-.375-.207 2.896v3.5c0 1.438.663 2.314 1.97 2.314.892 0 1.702-.542 2.283-1.25v-4.564l-.208-1.604-1.618-.271v-.646l3.838-.375-.228 2.896v4.294l.228 1.582 1.494.272v.646l-3.506.375.228-1.876c-.975 1.355-1.846 1.938-3.32 1.938-1.825 0-2.946-1.167-2.946-3.251m15.891.334v-2.021c-1.225 0-2.096.166-2.656.52-.56.313-.85.813-.85 1.46 0 .812.56 1.479 1.369 1.479.684 0 1.515-.522 2.137-1.438m-5.249.396c0-.917.394-1.689 1.224-2.292.808-.605 2.137-.917 4.025-.917v-1.126c0-1.312-.788-2.084-2.055-2.084-.767 0-1.535.313-2.22.937l-.517-.562c.932-1.063 2.199-1.73 3.671-1.73 1.66 0 2.863.897 2.863 2.96v4.398l.229 1.583 1.39.27v.647l-3.402.375.373-2.292c-.768 1.417-1.764 2.354-3.175 2.354-1.369 0-2.406-.937-2.406-2.521m15.478-4.105c0-1.646-.56-2.856-1.908-2.856-1.203 0-1.847 1.022-1.847 2.73 0 1.647.644 2.626 1.95 2.626 1.163 0 1.805-.959 1.805-2.5m1.764 8.69c0-.792-.519-1.25-2.76-1.627l-1.99-.333c-.582.333-1.391 1.042-1.391 1.834 0 1.208 1.203 2 3.05 2 1.743 0 3.091-.77 3.091-1.875m-7.739.417c0-1.104 1.08-2.084 2.179-2.542-1.016-.23-1.701-.75-1.701-1.5 0-.896.746-1.543 1.867-2.106-1.245-.5-2.012-1.667-2.012-3.166 0-1.835 1.348-3.439 3.776-3.439.788 0 1.514.145 2.302.646l2.739-.709v1.334h-2.137c.518.667.81 1.188.81 2.25 0 1.855-1.536 3.44-3.673 3.44-.291 0-.665-.022-.995-.106-.583.293-1.06.73-1.06 1.064 0 .728 1.1.854 2.719 1.104 1.97.313 4.107.395 4.107 2.583 0 2.023-1.908 3.669-5.04 3.669-2.242 0-3.88-.959-3.88-2.522m14.335-9.127 1.412-.209c0-1.646-.768-2.5-1.91-2.5-1.162 0-1.97.874-2.199 2.709h2.697Zm-4.523 1.646c0-3.167 1.598-5.19 4.19-5.19 2.18 0 3.694 1.418 3.61 4.377h-5.995s-.02.292-.02.459c0 2.355 1.14 4.021 3.34 4.021.664 0 1.41-.166 2.137-.708l.415.563c-1.182 1.083-2.075 1.479-3.568 1.479-2.47 0-4.109-1.792-4.109-5.001Zm16.526 4.246-.207-3.167h1.058l.414 2.188c.706.334 1.348.605 2.2.605 1.887 0 3.257-.917 3.257-2.48 0-1.75-1.66-2.397-3.258-3.001-1.97-.75-3.713-1.542-3.713-3.938 0-2.105 1.597-4.023 4.688-4.023 1.058 0 2.366.293 3.485.71l.229 3.146h-1.037l-.457-2.23c-.643-.396-1.64-.625-2.261-.625-2.054 0-3.07 1.146-3.07 2.333 0 1.688 1.452 2.168 2.904 2.751 2.116.855 4.108 1.751 4.108 4.314 0 2.48-1.992 4.106-4.98 4.106-1.016 0-1.888-.105-3.36-.689m9.665-4.188c0-3.084 1.764-5.252 4.42-5.252.891 0 1.555.105 2.696.5l.228 2.501h-.808l-.478-1.604c-.498-.209-1.079-.417-1.742-.417-1.432 0-2.552 1-2.552 3.605 0 2.584 1.14 4.252 3.174 4.252.664 0 1.452-.23 2.178-.751l.456.584c-1.161 1.02-2.385 1.52-3.609 1.52-2.365 0-3.963-1.854-3.963-4.938m8.639 3.855 1.453-.27.228-1.584v-9.503l-.228-1.605-1.66-.27v-.647l3.859-.375-.207 2.897v3.918c.726-1.063 1.887-1.668 3.111-1.668 1.867 0 2.987 1.147 2.987 3.252v4l.228 1.584 1.432.27v.647h-4.834v-.647l1.182-.27.23-1.584v-3.5c0-1.417-.644-2.335-2.013-2.335-.996 0-1.743.605-2.323 1.272v4.564l.227 1.584 1.183.27v.647h-4.855v-.647Zm18.824-4.064c0-2.771-.892-4.189-2.532-4.189-1.66 0-2.572 1.314-2.572 4.21 0 2.834.892 4.251 2.51 4.251 1.66 0 2.594-1.374 2.594-4.272m-7.116.167c0-3 1.618-5.23 4.688-5.23 2.656 0 4.419 1.792 4.419 5.043 0 3.167-1.888 5.189-4.647 5.189-2.655 0-4.46-1.896-4.46-5.002m17.473-.167c0-2.771-.892-4.189-2.531-4.189-1.66 0-2.573 1.314-2.573 4.21 0 2.834.892 4.251 2.51 4.251 1.66 0 2.594-1.374 2.594-4.272m-7.116.167c0-3 1.618-5.23 4.688-5.23 2.656 0 4.42 1.792 4.42 5.043 0 3.167-1.888 5.189-4.648 5.189-2.655 0-4.46-1.896-4.46-5.002m9.651 3.897 1.452-.27.228-1.584v-9.503l-.228-1.605-1.66-.27v-.647l3.859-.375-.207 2.897v9.503l.228 1.584 1.431.27v.647h-5.103zm6.685.521-.165-2.438h.912l.353 1.605c.644.291 1.141.458 1.93.458 1.12 0 1.825-.562 1.825-1.52 0-1.21-1.14-1.564-2.22-1.96-1.307-.542-2.842-1-2.842-2.876 0-1.583 1.286-3.021 3.486-3.021.933 0 1.846.187 2.76.603l.206 2.439h-.913l-.456-1.646a4.284 4.284 0 0 0-1.846-.418c-1.1 0-1.722.46-1.722 1.397 0 1.146 1.161 1.5 2.178 1.897 1.473.562 2.863 1.021 2.863 2.958 0 1.75-1.411 3.127-3.506 3.127-.684 0-1.847-.209-2.843-.605" fill="#000"/><path d="M1.627 1.627v31.355c0 .053.075 5.68 3.959 13.057C9.147 52.81 16.73 62.47 32.652 70.195c15.933-7.727 23.507-17.389 27.057-24.157 3.871-7.376 3.932-13.002 3.932-13.057V1.627H1.627Z" fill="#FFF"/><path d="M1.627 1.627v31.355c0 .053.075 5.68 3.959 13.057C9.147 52.81 16.73 62.47 32.652 70.195c15.933-7.727 23.507-17.389 27.057-24.157 3.871-7.376 3.932-13.002 3.932-13.057V1.627H1.627ZM32.652 72l-.352-.169c-16.617-7.97-24.51-18.065-28.205-25.13C.062 38.989 0 33.225 0 32.984V0h65.267v32.982c0 .24-.045 6.004-4.066 13.716-3.684 7.063-11.567 17.16-28.198 25.133l-.351.169Zm-11.76-59.742h-1.763c-.282-.878-.65-1.65-1.083-2.278a7.193 7.193 0 0 1 2.846 2.278Zm-5.129-2.74c.795.334 1.56 1.306 2.086 2.74h-2.086v-2.74Zm-3.981 6.402c.035-.887.146-1.706.316-2.442h2.446v2.442h-2.762Zm.676-3.662c.527-1.434 1.292-2.406 2.086-2.74v2.74h-2.086Zm-.36 7.326a13.214 13.214 0 0 1-.316-2.444h2.762v2.444h-2.446Zm2.446 3.96c-.794-.335-1.56-1.307-2.086-2.74h2.086v2.74Zm-3.981-6.404c.032.861.133 1.68.294 2.444H8.682a7.116 7.116 0 0 1-.662-2.444h2.543Zm7.645-3.662c.171.736.282 1.555.318 2.442h-2.762v-2.442h2.444Zm-7.352 0c-.16.763-.26 1.582-.293 2.442H8.02c.073-.867.305-1.69.662-2.442h2.174Zm-1.44 7.326h1.762c.283.876.65 1.648 1.084 2.276a7.186 7.186 0 0 1-2.845-2.276Zm10.33-4.884c-.034-.86-.134-1.68-.295-2.442h2.175a7.11 7.11 0 0 1 .662 2.442h-2.543ZM12.26 9.98c-.434.63-.8 1.4-1.082 2.278H9.416A7.204 7.204 0 0 1 12.26 9.98Zm7.19 9.604c.16-.764.26-1.583.294-2.444h2.543a7.11 7.11 0 0 1-.662 2.444H19.45Zm-.925-2.444a13.21 13.21 0 0 1-.317 2.444h-2.446V17.14h2.763Zm-2.763 6.403v-2.74h2.086c-.526 1.434-1.291 2.405-2.086 2.74Zm2.282-.462c.435-.629.8-1.4 1.084-2.277h1.763a7.2 7.2 0 0 1-2.847 2.277Zm39.575-2.845v-8.852H56.4v8.154l-6.6 3.87-6.603-3.87v-8.154h-1.22v8.852l7.824 4.586 7.819-4.585ZM44.427 10.61c-.046-.053 0 8.176 0 8.176s3.254.053 4.716 2.744v-8.176c-1.462-2.691-4.716-2.744-4.716-2.744Zm5.927 2.814V21.6c1.478-2.691 4.766-2.743 4.766-2.743s.048-8.23 0-8.176c0 0-3.288.053-4.766 2.743ZM39.712 26.027v-1.423h-2.145v-6.997h-9.868v6.997h-2.143v1.423h14.156Zm-24.558-1.113c4.623 0 8.385-3.762 8.385-8.384 0-4.624-3.762-8.386-8.385-8.386-4.623 0-8.385 3.762-8.385 8.386 0 4.622 3.762 8.384 8.385 8.384Zm18.192-21.3h27.927v28.498s-.003 1.96-.796 5.072c-.391-.02-.831-.04-1.435-.068-2.347-.112-4.282.371-6.48.037-2.195-.335-4.094-2.345-7.185-2.905-2.232-.402-4.078-.475-6.556-.4v-6.61H26.447v6.4a30.643 30.643 0 0 0-1.174-.022c-3.501 0-4.841-.968-8.49-.968-3.648 0-9.158 1.787-12.212 2.829l-.147.05c-.424-2.133-.429-3.415-.429-3.415V3.615h27.927v.813c-.62.267-1.058.856-1.058 1.554 0 .695.437 1.285 1.058 1.551v.987c-.933.342-2.615 1.16-3.384 2.814-.72 1.552-.851 2.895-.858 3.63h-.663v1.424h11.234v-1.423h-.663c-.008-.736-.14-2.08-.86-3.63-.768-1.658-2.45-2.473-3.382-2.814v-.987c.62-.265 1.057-.857 1.057-1.552 0-.698-.438-1.288-1.057-1.555v-.812Zm.063 2.367c0 .404-.347.733-.774.733-.43 0-.776-.329-.776-.733 0-.407.347-.736.776-.736.427 0 .774.329.774.736Zm-2.095 27.084v-4.564h2.639v4.564h-2.639Zm0-10.008v-4.095h2.639v4.095h-2.639Zm-2.234-.002v-4.087h.814v4.087h-.814Zm6.292 0v-4.087h.814v4.087h-.814ZM24.145 36.278v-1.22h16.977v1.22H24.145Zm3.316 5.418h10.346v-2.472H27.46v2.472Zm-1.22 1.22v-4.911h12.785v4.911H26.241Zm-1.843-2.79v1.922l-13.17 8.304a43.866 43.866 0 0 1-.944-1.327l14.114-8.9Zm16.47 1.991v-1.924l14.093 8.906c-.301.44-.616.881-.947 1.327l-13.146-8.309ZM30.853 54.611c.177.136.265.33.265.58 0 .473-.386.803-.948.803-.628 0-1.03-.363-1.03-.925 0-.466.282-.788.675-.997.523.217.836.378 1.038.539Zm-.676-1.286c-.377-.153-.933-.419-.933-.886 0-.417.338-.698.853-.698.539 0 .853.256.853.682 0 .444-.42.724-.773.902Zm3.757-.885c.151-.426.393-.675.707-.675.353 0 .627.24.78.867.08.346.12.708.12 1.23 0 .54-.048.999-.152 1.344-.146.467-.418.756-.757.756-.337 0-.626-.266-.772-.892-.072-.297-.11-.716-.11-1.256 0-.571.054-1.03.184-1.374Zm5.194 4.181c1.126 0 1.897-1.109 1.897-2.775 0-1.165-.448-2.75-1.889-2.75-1.07 0-1.874 1.142-1.874 2.726 0 1.15.45 2.8 1.865 2.8Zm-4.503 0c1.126 0 1.898-1.109 1.898-2.775 0-1.165-.451-2.75-1.891-2.75-1.069 0-1.873 1.142-1.873 2.726 0 1.15.45 2.8 1.866 2.8Zm-4.545.032c.925 0 2.012-.578 2.012-1.616 0-.668-.49-1.054-1.271-1.375.554-.209 1.07-.58 1.07-1.238 0-.789-.7-1.327-1.714-1.327-.876 0-1.825.401-1.825 1.423 0 .539.37 1.03.86 1.23-.594.21-1.03.733-1.03 1.384 0 1.061.975 1.519 1.898 1.519Zm-2.677-.152v-.715h-.747v-4.602h-.628l-1.617 1.135.217.474c.097-.033.394-.16.611-.265.217-.104.467-.265.547-.314v3.572h-.933v.715h2.55ZM40.869 44.52l11.918 7.465c-4.239 5.199-10.6 10.621-20.148 15.193-9.527-4.563-15.882-9.975-20.127-15.167l11.915-7.463H40.87v-.028Zm-1.725 7.246c.353 0 .627.24.78.867.08.346.12.708.12 1.23 0 .54-.047.999-.152 1.344-.145.467-.418.756-.756.756-.339 0-.628-.266-.772-.892-.073-.297-.112-.716-.112-1.256 0-.571.055-1.03.184-1.374.153-.426.394-.675.708-.675Z" fill="#0D395F"/></g></svg>