<svg width="66" height="72" xmlns="http://www.w3.org/2000/svg"><g id="logos" stroke="none" stroke-width="1" fill="none" fill-rule="evenodd"><g id="shield"><g id="Group"><path d="M1.627 1.627v31.355c0 .053.075 5.68 3.959 13.057C9.147 52.81 16.73 62.47 32.652 70.195c15.933-7.727 23.507-17.389 27.057-24.157 3.871-7.376 3.932-13.002 3.932-13.057V1.627H1.627z" id="Path" fill="#FFF"/><path d="M1.627 1.627v31.355c0 .053.075 5.68 3.959 13.057C9.147 52.81 16.73 62.47 32.652 70.195c15.933-7.727 23.507-17.389 27.057-24.157 3.871-7.376 3.932-13.002 3.932-13.057V1.627H1.627zM32.652 72l-.352-.169c-16.617-7.97-24.51-18.065-28.205-25.13C.062 38.989 0 33.225 0 32.984V0h65.267v32.982c0 .24-.045 6.004-4.066 13.716-3.684 7.063-11.567 17.16-28.198 25.133l-.351.169zm-11.76-59.742h-1.763c-.282-.878-.65-1.65-1.083-2.278a7.193 7.193 0 012.846 2.278zm-5.129-2.74c.795.334 1.56 1.306 2.086 2.74h-2.086v-2.74zm-3.981 6.402c.035-.887.146-1.706.316-2.442h2.446v2.442h-2.762zm.676-3.662c.527-1.434 1.292-2.406 2.086-2.74v2.74h-2.086zm-.36 7.326a13.214 13.214 0 01-.316-2.444h2.762v2.444h-2.446zm2.446 3.96c-.794-.335-1.56-1.307-2.086-2.74h2.086v2.74zm-3.981-6.404c.032.861.133 1.68.294 2.444H8.682a7.116 7.116 0 01-.662-2.444h2.543zm7.645-3.662c.171.736.282 1.555.318 2.442h-2.762v-2.442h2.444zm-7.352 0c-.16.763-.26 1.582-.293 2.442H8.02c.073-.867.305-1.69.662-2.442h2.174zm-1.44 7.326h1.762c.283.876.65 1.648 1.084 2.276a7.186 7.186 0 01-2.845-2.276zm10.33-4.884c-.034-.86-.134-1.68-.295-2.442h2.175a7.11 7.11 0 01.662 2.442h-2.543zM12.26 9.98c-.434.63-.8 1.4-1.082 2.278H9.416A7.204 7.204 0 0112.26 9.98zm7.19 9.604c.16-.764.26-1.583.294-2.444h2.543a7.11 7.11 0 01-.662 2.444H19.45zm-.925-2.444a13.21 13.21 0 01-.317 2.444h-2.446V17.14h2.763zm-2.763 6.403v-2.74h2.086c-.526 1.434-1.291 2.405-2.086 2.74zm2.282-.462c.435-.629.8-1.4 1.084-2.277h1.763a7.2 7.2 0 01-2.847 2.277zm39.575-2.845v-8.852H56.4v8.154l-6.6 3.87-6.603-3.87v-8.154h-1.22v8.852l7.824 4.586 7.819-4.585zM44.427 10.61c-.046-.053 0 8.176 0 8.176s3.254.053 4.716 2.744v-8.176c-1.462-2.691-4.716-2.744-4.716-2.744zm5.927 2.814V21.6c1.478-2.691 4.766-2.743 4.766-2.743s.048-8.23 0-8.176c0 0-3.288.053-4.766 2.743zM39.712 26.027v-1.423h-2.145v-6.997h-9.868v6.997h-2.143v1.423h14.156zm-24.558-1.113c4.623 0 8.385-3.762 8.385-8.384 0-4.624-3.762-8.386-8.385-8.386-4.623 0-8.385 3.762-8.385 8.386 0 4.622 3.762 8.384 8.385 8.384zm18.192-21.3h27.927v28.498s-.003 1.96-.796 5.072c-.391-.02-.831-.04-1.435-.068-2.347-.112-4.282.371-6.48.037-2.195-.335-4.094-2.345-7.185-2.905-2.232-.402-4.078-.475-6.556-.4v-6.61H26.447v6.4a30.643 30.643 0 00-1.174-.022c-3.501 0-4.841-.968-8.49-.968-3.648 0-9.158 1.787-12.212 2.829l-.147.05c-.424-2.133-.429-3.415-.429-3.415V3.615h27.927v.813c-.62.267-1.058.856-1.058 1.554 0 .695.437 1.285 1.058 1.551v.987c-.933.342-2.615 1.16-3.384 2.814-.72 1.552-.851 2.895-.858 3.63h-.663v1.424h11.234v-1.423h-.663c-.008-.736-.14-2.08-.86-3.63-.768-1.658-2.45-2.473-3.382-2.814v-.987c.62-.265 1.057-.857 1.057-1.552 0-.698-.438-1.288-1.057-1.555v-.812zm.063 2.367c0 .404-.347.733-.774.733-.43 0-.776-.329-.776-.733 0-.407.347-.736.776-.736.427 0 .774.329.774.736zm-2.095 27.084v-4.564h2.639v4.564h-2.639zm0-10.008v-4.095h2.639v4.095h-2.639zm-2.234-.002v-4.087h.814v4.087h-.814zm6.292 0v-4.087h.814v4.087h-.814zM24.145 36.278v-1.22h16.977v1.22H24.145zm3.316 5.418h10.346v-2.472H27.46v2.472zm-1.22 1.22v-4.911h12.785v4.911H26.241zm-1.843-2.79v1.922l-13.17 8.304a43.866 43.866 0 01-.944-1.327l14.114-8.9zm16.47 1.991v-1.924l14.093 8.906c-.301.44-.616.881-.947 1.327l-13.146-8.309zM30.853 54.611c.177.136.265.33.265.58 0 .473-.386.803-.948.803-.628 0-1.03-.363-1.03-.925 0-.466.282-.788.675-.997.523.217.836.378 1.038.539zm-.676-1.286c-.377-.153-.933-.419-.933-.886 0-.417.338-.698.853-.698.539 0 .853.256.853.682 0 .444-.42.724-.773.902zm3.757-.885c.151-.426.393-.675.707-.675.353 0 .627.24.78.867.08.346.12.708.12 1.23 0 .54-.048.999-.152 1.344-.146.467-.418.756-.757.756-.337 0-.626-.266-.772-.892-.072-.297-.11-.716-.11-1.256 0-.571.054-1.03.184-1.374zm5.194 4.181c1.126 0 1.897-1.109 1.897-2.775 0-1.165-.448-2.75-1.889-2.75-1.07 0-1.874 1.142-1.874 2.726 0 1.15.45 2.8 1.865 2.8zm-4.503 0c1.126 0 1.898-1.109 1.898-2.775 0-1.165-.451-2.75-1.891-2.75-1.069 0-1.873 1.142-1.873 2.726 0 1.15.45 2.8 1.866 2.8zm-4.545.032c.925 0 2.012-.578 2.012-1.616 0-.668-.49-1.054-1.271-1.375.554-.209 1.07-.58 1.07-1.238 0-.789-.7-1.327-1.714-1.327-.876 0-1.825.401-1.825 1.423 0 .539.37 1.03.86 1.23-.594.21-1.03.733-1.03 1.384 0 1.061.975 1.519 1.898 1.519zm-2.677-.152v-.715h-.747v-4.602h-.628l-1.617 1.135.217.474c.097-.033.394-.16.611-.265.217-.104.467-.265.547-.314v3.572h-.933v.715h2.55zM40.869 44.52l11.918 7.465c-4.239 5.199-10.6 10.621-20.148 15.193-9.527-4.563-15.882-9.975-20.127-15.167l11.915-7.463H40.87v-.028zm-1.725 7.246c.353 0 .627.24.78.867.08.346.12.708.12 1.23 0 .54-.047.999-.152 1.344-.145.467-.418.756-.756.756-.339 0-.628-.266-.772-.892-.073-.297-.112-.716-.112-1.256 0-.571.055-1.03.184-1.374.153-.426.394-.675.708-.675z" id="Shape" fill="#0D395F"/></g></g></g></svg>