<svg width="184" height="33" fill="none" xmlns="http://www.w3.org/2000/svg"><path d="M184 20.688c0 8.347-4.353 11.982-11.354 11.982-3.679 0-7.449-.629-9.917-1.66V1.256L170.717 0v12.52c1.346-1.39 3.186-2.782 5.654-2.782 4.443 0 7.629 3.41 7.629 10.95Zm-7.943.583c0-3.276-1.032-4.443-2.558-4.443-1.032 0-1.885.629-2.782 1.526v7.719c.673.224 1.077.314 1.705.314 1.975 0 3.635-1.256 3.635-5.116ZM158.78 32.4h-7.181l-.493-2.961c-1.975 2.02-3.904 3.41-6.552 3.41-4.084 0-6.238-2.558-6.238-7V10.187h7.988v13.418c0 1.301.539 2.244 1.84 2.244.942 0 1.75-.494 2.648-1.347V10.187h7.988V32.4Zm-24.726 0h-9.2V20.599h-8.571v11.803h-9.2V1.436h9.2v11.22h8.571V1.435h9.2V32.4Zm-43.925.404c-2.11 0-4.084-.852-5.43-2.199-1.975-1.974-2.917-4.98-2.917-8.167 0-3.32 1.167-6.731 3.096-8.661 1.481-1.481 3.366-2.289 5.61-2.289 3.007 0 4.981 1.481 6.283 3.59V4.802H93.36V1.57h7.629v27.868h3.007V32.4H96.86v-4.219c-1.525 3.097-3.994 4.622-6.731 4.622Zm1.48-2.827c2.693 0 5.251-2.872 5.251-7.898 0-4.084-1.615-7.764-5.25-7.764-3.276 0-5.16 2.873-5.16 7.764 0 5.071 2.377 7.898 5.16 7.898Zm-26.196 2.827c-2.11 0-4.084-.852-5.43-2.199-1.975-1.974-2.917-4.98-2.917-8.167 0-3.32 1.166-6.731 3.096-8.661 1.481-1.481 3.366-2.289 5.61-2.289 3.006 0 4.98 1.481 6.282 3.59V4.802h-3.41V1.57h7.629v27.868h3.006V32.4h-7.135v-4.219c-1.526 3.097-3.994 4.622-6.731 4.622Zm1.48-2.827c2.693 0 5.251-2.872 5.251-7.898 0-4.084-1.616-7.764-5.25-7.764-3.276 0-5.161 2.873-5.161 7.764 0 5.071 2.378 7.898 5.16 7.898ZM48.386 7.54c-1.75 0-2.917-1.123-2.917-2.918 0-1.795 1.167-3.051 2.917-3.051 1.75 0 2.917 1.166 2.917 2.961 0 1.796-1.167 3.007-2.917 3.007ZM42.82 32.4v-2.96h3.725V14.81H42.82v-2.962h7.943V29.44h3.725v2.96H42.821ZM0 32.4v-2.96h4.532V5.834H0V2.872h12.206l7.495 21.855h.134l7.63-21.855h11.981v2.962H34.69v23.605h4.757V32.4H26.118v-2.962h3.949V6.193h-.404L20.194 32.4h-2.333L8.257 6.193h-.404v23.246h4.219V32.4H0Z" fill="#fff"/></svg>