<svg width="243" height="32" fill="none" xmlns="http://www.w3.org/2000/svg"><g clip-path="url(#a)" fill="#fff"><path d="M0 28.103h4.266V5.076H0V1.679h13.198l7.072 20.483h.18l6.986-20.483h12.97v3.397h-4.492v23.02h4.493v3.398H26.209v-3.397h3.853V5.662h-.407L20.45 31.494h-2.673L8.345 5.662H7.94v22.435h4.039v3.397H0v-3.397.006Zm43.047.04h3.626V13.868h-3.626v-3.35h8.932V28.15h3.626v3.357H43.04V28.15l.007-.007Zm2.54-24.7c0-1.99 1.406-3.443 3.445-3.443 2.04 0 3.4 1.312 3.4 3.31 0 1.999-1.36 3.444-3.4 3.444s-3.446-1.358-3.446-3.31Zm14.356 26.286c-1.993-1.992-2.946-5.122-2.946-8.473 0-3.537 1.18-6.888 3.086-8.84 1.493-1.452 3.4-2.264 5.626-2.264 3.04 0 5.08 1.452 6.392 3.623V3.81h-3.4V.273h8.706v27.87H80.4v3.358h-8.072v-4.35c-1.453 3.084-3.853 4.803-6.939 4.803-2.18 0-4.08-.86-5.44-2.218l-.006-.007Zm12.385-8.746c0-4.037-1.5-7.52-4.853-7.52-3.132 0-4.719 2.764-4.719 7.613 0 4.85 1.953 7.52 4.72 7.52 2.766 0 4.852-2.944 4.852-7.613ZM84.8 29.729c-1.993-1.992-2.947-5.122-2.947-8.473 0-3.537 1.18-6.888 3.087-8.84 1.493-1.452 3.4-2.264 5.625-2.264 3.04 0 5.08 1.452 6.393 3.623V3.81h-3.4V.273h8.705v27.87h2.993v3.358h-8.072v-4.35c-1.453 3.084-3.852 4.803-6.938 4.803-2.18 0-4.08-.86-5.44-2.218l-.006-.007Zm12.384-8.746c0-4.037-1.5-7.52-4.852-7.52-3.133 0-4.72 2.764-4.72 7.613 0 4.85 1.954 7.52 4.72 7.52s4.852-2.944 4.852-7.613Zm19.544.999h1.499c2.493 5.669 6.033 8.34 10.479 8.34 3.399 0 6.032-1.952 6.032-5.849 0-4.263-2.946-5.302-8.119-6.614-4.852-1.226-9.478-2.765-9.478-8.34 0-4.85 3.446-8.247 8.845-8.247 3.313 0 5.986 1.453 7.759 3.398l.906-3.264h1.587v9.339h-1.493c-1.993-5.709-5.486-7.84-8.979-7.84-3.039 0-5.806 1.905-5.806 5.621 0 4.303 3.266 5.256 7.526 6.388 5.579 1.493 10.065 2.671 10.065 8.293 0 5.17-3.766 8.793-9.072 8.793-3.899 0-6.759-1.538-9.159-4.03l-.999 3.897h-1.587v-9.879l-.006-.006Zm29.768-16.86v6.075h6.579v1.812h-6.579V26.33c0 2.038.907 3.264 2.633 3.264s2.719-1.132 3.539-3.67l1.313.453c-1.086 3.99-2.992 5.302-5.485 5.302-3.266 0-4.9-2.038-4.9-5.529V13.01h-4.172v-1.812h4.172V5.575l2.9-.453Zm9.552 16.313c0-6.348 4.352-10.65 9.432-10.65 5.079 0 9.431 4.036 9.431 10.284 0 6.248-4.352 10.604-9.431 10.604-5.08 0-9.432-3.99-9.432-10.244v.006Zm15.737-.226c0-6.075-3.266-8.793-6.439-8.793-3.172 0-6.165 2.858-6.165 8.886 0 6.028 3.266 8.746 6.439 8.746 3.172 0 6.165-2.81 6.165-8.84Zm5.099 8.253h3.446V13.009h-3.446v-1.812h6.259v4.763c1.54-3.398 3.899-5.076 6.259-5.076 1.906 0 2.993 1.312 2.993 2.857 0 1.266-.907 2.358-2.22 2.358-1.18 0-2.086-.859-2.086-2.085 0-.36.093-.679.226-.999-2.406-.273-4.532 2.991-5.079 4.67v11.783h4.079v1.812h-10.431v-1.818Zm17.904 0h3.899V13.01h-3.899v-1.812h6.806v18.265h3.899v1.812h-10.705v-1.812Zm2.86-25.339c0-1.265.906-2.265 2.219-2.265 1.133 0 2.133.906 2.133 2.219 0 1.312-.953 2.264-2.133 2.264-1.273 0-2.219-.859-2.219-2.218Zm12.331 17.226c.046 5.442 2.813 8.34 6.619 8.34 2.493 0 4.672-.906 5.899-4.124h1.679c-1.266 3.99-4.126 6.122-8.025 6.122-5.579 0-9.298-4.123-9.298-10.245 0-6.121 4.219-10.651 9.298-10.651 5.712 0 8.299 5.216 8.165 10.558h-14.337Zm.093-1.812h11.158c-.32-4.576-2.133-7.114-5.172-7.114-3.04 0-5.533 2.671-5.986 7.114Zm17.597 4.53h1.5c1.086 3.81 3.399 6.028 6.939 6.028 2.539 0 4.399-1.312 4.399-3.397 0-2.218-1.54-3.131-5.579-4.263-4.986-1.406-6.892-2.991-6.892-5.935 0-2.945 2.679-5.709 6.618-5.709 2.447 0 4.446.906 5.486 2.491l.547-2.491h1.453v6.888h-1.407c-1.453-3.537-2.899-5.303-6.079-5.303-2.179 0-3.992 1.226-3.992 3.171 0 1.945 1.633 3.13 5.399 4.17 5.079 1.452 6.939 2.718 6.939 6.028 0 3.038-2.586 5.935-6.759 5.935-2.946 0-5.213-1.179-6.619-2.944l-.5 2.944h-1.453v-7.613Z"/></g><defs><clipPath id="a"><path fill="#fff" d="M0 0h243v32H0z"/></clipPath></defs></svg>