<svg width="186" height="72" xmlns="http://www.w3.org/2000/svg" xmlns:xlink="http://www.w3.org/1999/xlink"><defs><path id="a" d="M0 0h64.37v71.323H0z"/><path id="c" d="M0 71.323h64.37V0H0z"/></defs><g fill="none" fill-rule="evenodd"><path d="m79.51 23.062 1.748-.346.216-2.183V12.77l-.216-2.183-1.748-.346v-.649h4.66l1.1 3.178 3.259 8.498 3.344-8.518 1.015-3.158h4.66v.65l-1.727.345-.237 2.183v7.763l.237 2.183 1.726.346v.671h-5.954v-.67l1.725-.347.238-2.183v-9.47l-3.711 9.47-1.1 3.2h-1.403l-1.165-3.2-3.733-9.47v9.47l.237 2.183 1.727.346v.671H79.51zm20.814-13.275c0-.736.604-1.362 1.36-1.362.733 0 1.36.605 1.36 1.383a1.35 1.35 0 0 1-1.36 1.34c-.733 0-1.36-.54-1.36-1.361Zm-1.121 13.275 1.51-.28.215-1.644v-4.454l-.214-1.665-1.728-.28v-.671l4.014-.389-.216 3.005v4.454l.216 1.643 1.51.281v.671h-5.307v-.67Zm12.998-1.707v-6.401c-.603-.26-1.078-.388-1.747-.388-2.029 0-3.15 1.685-3.15 4.345 0 2.357.863 3.784 2.546 3.784.755 0 1.553-.346 2.351-1.34m-6.84-1.99c0-3.373 2.114-5.75 5.18-5.75.603 0 1.077.064 1.66.193v-2.53l-.237-1.664-1.726-.281v-.67l4.034-.39-.237 3.005v9.86l.237 1.644 1.402.28v.67l-3.473.455.324-2.054c-.993 1.34-2.007 2.054-3.43 2.054-2.18 0-3.734-1.882-3.734-4.822m17.932 1.99v-6.401c-.603-.26-1.078-.388-1.747-.388-2.029 0-3.15 1.685-3.15 4.345 0 2.357.863 3.784 2.545 3.784.756 0 1.554-.346 2.352-1.34m-6.84-1.99c0-3.373 2.115-5.75 5.18-5.75.604 0 1.077.064 1.66.193v-2.53l-.237-1.664-1.726-.281v-.67l4.035-.39-.238 3.005v9.86l.238 1.644 1.402.28v.67l-3.474.455.324-2.054c-.993 1.34-2.007 2.054-3.43 2.054-2.18 0-3.734-1.882-3.734-4.822m11.677 3.697 1.51-.28.237-1.644v-9.86l-.238-1.664-1.725-.281v-.67l4.013-.39-.216 3.006v9.86l.237 1.642 1.489.281v.671h-5.308zm10.784-5.772 1.467-.217c0-1.708-.798-2.594-1.985-2.594-1.208 0-2.049.907-2.288 2.81h2.806Zm-4.703 1.707c0-3.285 1.66-5.383 4.357-5.383 2.266 0 3.842 1.47 3.755 4.54h-6.235s-.022.303-.022.477c0 2.442 1.188 4.172 3.474 4.172a3.63 3.63 0 0 0 2.221-.735l.433.584c-1.23 1.124-2.158 1.535-3.711 1.535-2.568 0-4.272-1.86-4.272-5.19Zm16.967-.172c0-2.227-.95-3.74-2.395-3.74-.885 0-1.726.367-2.503 1.275v4.778l.215 1.882c.52.172.885.259 1.446.259 2.223 0 3.237-1.99 3.237-4.454m-6.754 4.908V11.278l-.215-1.664-1.727-.281v-.67l4.013-.39-.215 3.005v4.065c.798-1.059 1.963-1.73 3.28-1.73 2.07 0 3.517 1.774 3.517 4.52 0 3.352-2.007 6.054-5.892 6.054-.905 0-1.53 0-2.761-.454m11.156-2.919v-4.13l-.238-1.665-1.683-.28v-.672l3.992-.388-.216 3.005v3.632c0 1.493.69 2.4 2.05 2.4.927 0 1.768-.561 2.373-1.296v-4.736l-.216-1.665-1.683-.28v-.672l3.991-.388-.238 3.005v4.454l.238 1.644 1.555.28v.67l-3.647.39.237-1.946c-1.014 1.406-1.92 2.011-3.452 2.011-1.899 0-3.064-1.21-3.064-3.373m20.618 8.043v-.735l2.158-.345.928-1.515.928-2.184-3.02-7.393-.886-1.687-.97-.26v-.67h4.725v.67l-1.382.26.52 1.687 1.94 4.993 1.813-4.993.475-1.687-1.359-.26v-.67h3.883v.67l-1.1.26-.82 1.687-4.704 12.453zm-2.879-14.953c-1.225 0-2.191.687-3.094 2.21l-.009-.07.004-.252c.006-.11.02-.22.032-.33l.081-.72.12-1.055-3.792.389v.67l1.723.28.237 1.663v4.45l-.237 1.64-1.508.28v.67h5.538v-.67l-1.725-.28-.236-1.64v-4.085c0-.029.002-.058.004-.088.625-.774 1.462-1.053 2.107-1.053.453 0 .905.15 1.272.323l.539-2.181a3.18 3.18 0 0 0-1.056-.15M79.186 40.401c0-3.979 2.245-7.46 7.444-7.46 1.337 0 2.503.109 4.272.476l.216 3.287h-1.057l-.496-2.422a9.364 9.364 0 0 0-3-.475c-3.3 0-5.2 2.4-5.2 6.204 0 3.937 1.9 6.898 5.416 6.898.884 0 2.093-.216 2.956-.583l.496-2.314h1.058l-.216 3.307c-1.489.26-2.503.454-4.703.454-5.093 0-7.186-3.156-7.186-7.372m21.024 2.14c0-2.875-.927-4.346-2.631-4.346-1.727 0-2.675 1.363-2.675 4.368 0 2.94.927 4.411 2.61 4.411 1.726 0 2.696-1.427 2.696-4.433m-7.4.173c0-3.113 1.684-5.427 4.877-5.427 2.761 0 4.595 1.86 4.595 5.233 0 3.286-1.964 5.383-4.833 5.383-2.762 0-4.64-1.967-4.64-5.189m10.255 4.044 1.51-.281.236-1.643v-9.86l-.236-1.665-1.727-.281v-.67l4.013-.39-.214 3.006v9.86l.237 1.643 1.487.28v.672h-5.306zm6.741 0 1.51-.281.237-1.643v-9.86l-.236-1.665-1.727-.281v-.67l4.014-.39-.216 3.006v9.86l.237 1.643 1.489.28v.672h-5.308zm10.785-5.773 1.467-.216c0-1.709-.798-2.595-1.984-2.595-1.21 0-2.05.908-2.288 2.811h2.805Zm-4.703 1.708c0-3.287 1.66-5.384 4.358-5.384 2.265 0 3.84 1.47 3.754 4.54h-6.235s-.021.304-.021.476c0 2.443 1.187 4.173 3.473 4.173.69 0 1.467-.172 2.22-.735l.433.584c-1.23 1.125-2.156 1.535-3.71 1.535-2.568 0-4.272-1.86-4.272-5.19Zm15.59-1.687c0-1.707-.583-2.962-1.986-2.962-1.25 0-1.92 1.06-1.92 2.832 0 1.709.67 2.725 2.03 2.725 1.206 0 1.876-.995 1.876-2.595m1.833 9.016c0-.82-.539-1.297-2.868-1.687l-2.072-.345c-.604.345-1.446 1.082-1.446 1.904 0 1.253 1.253 2.074 3.173 2.074 1.81 0 3.213-.8 3.213-1.946m-8.046.433c0-1.146 1.12-2.162 2.265-2.638-1.058-.237-1.769-.778-1.769-1.557 0-.929.776-1.6 1.94-2.184-1.293-.518-2.092-1.73-2.092-3.286 0-1.903 1.403-3.568 3.926-3.568.821 0 1.576.152 2.396.67l2.848-.735v1.385h-2.222c.539.691.84 1.232.84 2.334 0 1.924-1.596 3.568-3.819 3.568-.3 0-.69-.021-1.034-.108-.605.304-1.1.757-1.1 1.103 0 .757 1.144.886 2.826 1.145 2.05.326 4.272.411 4.272 2.682 0 2.098-1.985 3.805-5.244 3.805-2.33 0-4.033-.994-4.033-2.616m14.909-9.47 1.467-.216c0-1.709-.799-2.595-1.985-2.595-1.209 0-2.05.908-2.288 2.811h2.806Zm-4.704 1.708c0-3.287 1.661-5.384 4.358-5.384 2.266 0 3.84 1.47 3.754 4.54h-6.236s-.02.304-.02.476c0 2.443 1.186 4.173 3.473 4.173a3.63 3.63 0 0 0 2.222-.735l.431.584c-1.23 1.125-2.157 1.535-3.71 1.535-2.568 0-4.272-1.86-4.272-5.19Z" fill="#FFF"/><path fill="#FEFEFE" d="M58.582 19.499v-9.372h-1.29v8.632l-6.97 4.097-6.977-4.097v-8.632h-1.289v9.372l8.266 4.854z"/><path d="M49.626 20.868V12.21c-1.544-2.848-4.981-2.904-4.981-2.904-.05-.056 0 8.657 0 8.657s3.437.056 4.981 2.904m6.315-2.829s.051-8.713 0-8.656c0 0-3.474.056-5.034 2.904v8.656c1.56-2.848 5.034-2.904 5.034-2.904M39.853 56.52c-.153.494-.442.8-.798.8-.357 0-.664-.28-.816-.944-.077-.315-.12-.758-.12-1.33 0-.604.06-1.088.196-1.455.162-.45.417-.715.748-.715.374 0 .662.255.824.92.085.366.127.749.127 1.302 0 .571-.05 1.056-.161 1.422m-.798-4.35c-1.13 0-1.98 1.208-1.98 2.885 0 1.218.476 2.964 1.971 2.964 1.19 0 2.005-1.175 2.005-2.938 0-1.234-.475-2.911-1.996-2.911m-17.8-37.241H18.57a15.555 15.555 0 0 0-.311-2.586h2.298c.377.797.62 1.667.698 2.586Zm-.698 3.878h-2.299c.17-.808.276-1.675.312-2.587h2.685a7.525 7.525 0 0 1-.698 2.587Zm-3.784 3.703c.46-.665.846-1.483 1.145-2.411h1.862a7.594 7.594 0 0 1-3.007 2.41Zm-2.41.489v-2.9h2.203c-.556 1.517-1.364 2.545-2.203 2.9Zm0-6.779h2.919a14.06 14.06 0 0 1-.336 2.587h-2.583V16.22Zm0-3.877h2.583c.18.78.298 1.647.336 2.586h-2.919v-2.586Zm0-4.192c.839.354 1.647 1.383 2.203 2.9h-2.203v-2.9Zm5.418 2.9h-1.863c-.299-.929-.685-1.745-1.145-2.411a7.612 7.612 0 0 1 3.008 2.411Zm-6.707 0h-2.203c.556-1.518 1.365-2.546 2.203-2.9v2.9Zm0 3.878h-2.918c.038-.94.155-1.806.335-2.586h2.583v2.586Zm0 3.878h-2.583a14.03 14.03 0 0 1-.335-2.587h2.918v2.587Zm0 4.192c-.838-.354-1.647-1.382-2.202-2.9h2.202v2.9Zm-5.417-2.9H9.52c.298.928.685 1.745 1.143 2.41a7.606 7.606 0 0 1-3.006-2.41Zm-.775-1.292a7.539 7.539 0 0 1-.7-2.587H8.87c.034.912.14 1.779.31 2.587H6.882Zm0-6.464h2.297a15.494 15.494 0 0 0-.31 2.586H6.182a7.52 7.52 0 0 1 .7-2.586Zm3.78-3.702c-.457.665-.844 1.482-1.142 2.41H7.657a7.605 7.605 0 0 1 3.006-2.41Zm3.057-1.943c-4.884 0-8.859 3.982-8.859 8.877 0 4.895 3.975 8.877 8.86 8.877 4.884 0 8.856-3.982 8.856-8.877 0-4.895-3.972-8.877-8.857-8.877ZM35.096 56.52c-.154.494-.441.8-.799.8-.356 0-.662-.28-.815-.944-.077-.315-.119-.758-.119-1.33 0-.604.06-1.088.195-1.455.162-.45.417-.715.748-.715.374 0 .662.255.824.92.085.366.127.749.127 1.302 0 .571-.05 1.056-.16 1.422m-.8-4.35c-1.13 0-1.979 1.208-1.979 2.885 0 1.218.476 2.964 1.971 2.964 1.189 0 2.005-1.175 2.005-2.938 0-1.234-.476-2.911-1.997-2.911" fill="#FEFEFE"/><mask id="b" fill="#fff"><use xlink:href="#a"/></mask><path d="M62.44 32.072s-.001 2.076-.84 5.369l-1.517-.072c-2.478-.118-4.523.394-6.844.04-2.32-.355-4.326-2.484-7.59-3.075-2.358-.427-4.31-.504-6.928-.425v-6.996H25.65v6.774a35.359 35.359 0 0 0-1.242-.023c-3.697 0-5.113-1.025-8.968-1.025-3.854 0-9.676 1.892-12.9 2.995-.053.019-.105.036-.157.053-.448-2.258-.453-3.615-.453-3.615V1.902h29.504v.86c-.656.282-1.118.907-1.118 1.645 0 .736.462 1.361 1.118 1.643v1.044c-.986.362-2.763 1.23-3.574 2.98-.761 1.643-.9 3.065-.908 3.843h-.7v1.507h11.867v-1.507h-.7c-.008-.778-.147-2.2-.908-3.843-.812-1.754-2.589-2.618-3.574-2.979V6.051c.655-.281 1.118-.908 1.118-1.644 0-.738-.463-1.364-1.118-1.646v-.86H62.44v30.17Zm-7.668 19.387-13.887-8.796v-2.037l14.888 9.429a46.26 46.26 0 0 1-1 1.404ZM32.191 69.194c-10.064-4.83-16.779-10.56-21.263-16.056l12.587-7.903h17.37v-.03l12.592 7.904c-4.48 5.505-11.199 11.245-21.286 16.085Zm-6.759-25.686H38.94v-5.2H25.432v5.2Zm5.36-10.427h2.786v-4.833h-2.786v4.833Zm-7.575 3.4h17.936V35.19H23.217v1.291ZM8.574 49.977l14.91-9.423v2.036l-13.91 8.792a46.71 46.71 0 0 1-.999-1.405ZM32.186 3.628c.452 0 .818.349.818.78 0 .428-.366.775-.818.775-.452 0-.819-.347-.819-.775 0-.431.367-.78.819-.78ZM0 0v32.614c0 .055.079 5.909 4.11 13.584 3.696 7.04 11.568 17.092 28.094 25.126 16.539-8.038 24.4-18.088 28.086-25.127 4.017-7.674 4.08-13.526 4.08-13.584V0H0Z" fill="#FEFEFE" mask="url(#b)"/><path d="M29.582 57.354c-.663 0-1.088-.383-1.088-.978 0-.494.298-.835.714-1.057.552.23.884.401 1.095.571.188.145.281.35.281.613 0 .502-.407.851-1.002.851m-.076-4.503c.569 0 .9.273.9.723 0 .469-.442.766-.816.954-.4-.162-.986-.443-.986-.937 0-.442.358-.74.902-.74m.763 2.035c.587-.222 1.131-.614 1.131-1.312 0-.834-.74-1.404-1.81-1.404-.925 0-1.928.425-1.928 1.507 0 .57.391 1.09.908 1.302-.628.222-1.086.775-1.086 1.464 0 1.124 1.027 1.61 2.004 1.61.977 0 2.124-.613 2.124-1.712 0-.707-.518-1.115-1.343-1.455" fill="#FEFEFE" mask="url(#b)"/><mask id="d" fill="#fff"><use xlink:href="#c"/></mask><path fill="#FEFEFE" mask="url(#d)" d="M26.72 42.217h10.93v-2.616H26.72zm8.358-19.733h.86v-4.327h-.86v4.327Zm-4.286.002h2.787v-4.335h-2.787v4.335Zm-2.36-.002h.86v-4.327h-.86v4.327Zm8.965-5.768H26.973v7.407h-2.266v1.507h14.956v-1.507h-2.266v-7.407ZM25.87 52.263h-.663l-1.708 1.2.23.503c.101-.034.416-.17.645-.281.23-.11.493-.28.578-.332v3.78h-.986v.758h2.693v-.758h-.79v-4.87Z"/></g></svg>