<svg width="284" height="43" fill="none" xmlns="http://www.w3.org/2000/svg"><path d="M40.315 28.507c-1.168 0-2.084.646-2.933 2.093 0-.02-.01-.048-.01-.067v-.242l.03-.308c.028-.232.047-.454.076-.685l.116-.994-3.598.367v.636l1.64.27.222 1.573v4.216l-.222 1.553-1.428.27v.637h5.258v-.636l-1.64-.27-.222-1.554V31.41a2.594 2.594 0 0 1 1.997-.993c.434 0 .858.145 1.206.309l.511-2.065a2.798 2.798 0 0 0-1.003-.154Zm223.245 0c-1.167 0-2.084.646-2.933 2.093 0-.02-.009-.048-.009-.067v-.242l.029-.308c.029-.232.048-.454.077-.685l.116-.994-3.599.367v.636l1.64.27.222 1.573v4.216l-.222 1.553-1.428.27v.637h5.258v-.636l-1.64-.27-.222-1.554V31.41a2.595 2.595 0 0 1 1.997-.993c.434 0 .859.145 1.206.309l.511-2.065a2.795 2.795 0 0 0-1.003-.154ZM.567 14.73l1.659-.328.203-2.065V4.986L2.226 2.92l-1.66-.328v-.617h4.429l1.042 3.01 3.097 8.046 3.174-8.066.965-2.99H17.7v.617l-1.64.328-.222 2.065v7.351l.222 2.065 1.64.328v.637h-5.654v-.637l1.64-.328.222-2.065V3.365l-3.521 8.972-1.042 3.03h-1.35l-1.11-3.03-3.54-8.972v8.972l.221 2.065 1.64.328v.637H.567v-.637Zm18.687 0 1.438-.27.202-1.554V8.69l-.202-1.572-1.64-.27V6.21l3.81-.367-.202 2.846v4.216l.202 1.554 1.438.27v.637h-5.036v-.637h-.01Zm1.07-12.571A1.3 1.3 0 0 1 21.618.866c.694 0 1.292.57 1.292 1.312 0 .656-.53 1.274-1.292 1.274-.705-.01-1.293-.521-1.293-1.293Zm4.776 9.069c0-3.194 2.007-5.451 4.92-5.451.57 0 1.023.058 1.573.183V3.568l-.222-1.573-1.64-.27v-.637l3.83-.366-.221 2.846v9.338l.221 1.554 1.332.27v.637l-3.3.434.309-1.95c-.946 1.274-1.9 1.95-3.26 1.95-2.066 0-3.541-1.785-3.541-4.573Zm6.493 1.89V7.05c-.569-.24-1.022-.366-1.66-.366-1.929 0-2.99 1.601-2.99 4.12 0 2.228.82 3.588 2.422 3.588.714-.01 1.476-.337 2.228-1.273Zm4.043-1.89c0-3.194 2.006-5.451 4.92-5.451.57 0 1.023.058 1.573.183V3.568l-.222-1.573-1.64-.27v-.637l3.83-.366-.222 2.846v9.338l.222 1.554 1.33.27v.637l-3.298.434.308-1.95c-.945 1.274-1.9 1.95-3.26 1.95-2.065 0-3.541-1.785-3.541-4.573Zm6.492 1.89V7.05c-.569-.24-1.022-.366-1.659-.366-1.93 0-2.99 1.601-2.99 4.12 0 2.228.82 3.588 2.42 3.588.715-.01 1.467-.337 2.23-1.273Zm4.592 1.612 1.438-.27.222-1.554V3.569l-.222-1.573-1.64-.27v-.637L50.33.722l-.203 2.846v9.338l.222 1.554 1.409.27v.637H46.72v-.637Zm5.77-3.85c0-3.116 1.572-5.103 4.139-5.103 2.151 0 3.647 1.39 3.56 4.303h-5.924s-.02.29-.02.453c0 2.316 1.13 3.956 3.3 3.956.656 0 1.39-.164 2.113-.695l.415.55c-1.167 1.061-2.045 1.457-3.521 1.457-2.441 0-4.062-1.766-4.062-4.92Zm4.467-1.62 1.39-.203c0-1.62-.763-2.46-1.882-2.46-1.148 0-1.949.859-2.17 2.663h2.662Zm5.229 6.107v-11.8l-.203-1.572-1.64-.27v-.637l3.81-.366-.202 2.846v3.849c.762-1.003 1.862-1.64 3.116-1.64 1.969 0 3.339 1.679 3.339 4.283 0 3.175-1.901 5.731-5.596 5.731-.859.01-1.457.01-2.624-.424Zm6.416-4.65c0-2.113-.898-3.541-2.277-3.541-.84 0-1.64.347-2.374 1.206v4.524l.203 1.785c.492.164.84.241 1.37.241 2.113.01 3.078-1.88 3.078-4.216Zm4.177 1.881V8.69l-.222-1.572-1.601-.27V6.21l3.791-.367-.203 2.846v3.445c0 1.408.657 2.277 1.95 2.277.877 0 1.678-.531 2.257-1.226V8.69l-.203-1.572-1.601-.27V6.21l3.791-.367-.222 2.846v4.216l.222 1.554 1.476.27v.637l-3.463.366.222-1.843c-.965 1.332-1.824 1.901-3.28 1.901-1.814.01-2.914-1.138-2.914-3.193Zm19.575 7.622v-.695l2.045-.328.878-1.438.878-2.064L93.29 8.69l-.84-1.601-.926-.241V6.21h4.486v.637l-1.312.24.492 1.602 1.843 4.728L98.75 8.69l.454-1.601-1.293-.241V6.21h3.685v.637l-1.042.24-.781 1.602-4.467 11.8-2.952-.27Zm-2.74-14.163c-1.167 0-2.084.646-2.933 2.093 0-.02-.01-.048-.01-.067V7.84l.03-.308c.028-.232.048-.454.077-.685l.115-.994-3.598.367v.636l1.64.27.222 1.573v4.216l-.222 1.553-1.428.27v.637h5.258v-.636l-1.64-.27-.222-1.554V8.961a2.594 2.594 0 0 1 1.997-.994c.434 0 .859.145 1.206.309l.511-2.065a2.769 2.769 0 0 0-1.003-.154Zm17.038 8.673 1.659-.328.203-2.065V4.986l-.203-2.065-1.659-.328v-.617h5.653v.617l-1.659.328-.203 2.065v7.351l.203 2.065 1.659.328v.637h-5.653v-.637Zm6.956 0 1.437-.27.222-1.554V8.69l-.222-1.572-1.64-.27V6.21l3.608-.367-.222 1.843c.84-1.293 1.901-1.9 3.3-1.9 1.765 0 2.904 1.167 2.904 3.193v3.936l.202 1.553 1.457.27v.637h-4.814v-.636l1.167-.27.203-1.554V9.472c0-1.37-.656-2.296-1.949-2.296-.781 0-1.351.222-2.258 1.225v4.505l.222 1.554 1.168.27v.637h-4.795v-.637h.01Zm12.377.511-.164-2.392h.898l.347 1.572c.637.29 1.129.454 1.901.454 1.109 0 1.804-.55 1.804-1.496 0-1.186-1.129-1.534-2.19-1.93-1.293-.53-2.808-.983-2.808-2.826 0-1.553 1.274-2.972 3.444-2.972a6.36 6.36 0 0 1 2.721.599l.203 2.392h-.898l-.453-1.62a4.198 4.198 0 0 0-1.823-.406c-1.081 0-1.698.454-1.698 1.37 0 1.129 1.148 1.476 2.151 1.862 1.457.55 2.827 1.003 2.827 2.904 0 1.717-1.39 3.068-3.464 3.068-.665.02-1.814-.183-2.798-.579Zm8.896-1.659V7.07h-1.602v-.734l1.602-.328V3.654l1.765-.328v2.885h2.499v.859h-2.499v5.836c0 1.042.367 1.515 1.129 1.515.328 0 .878-.106 1.35-.405l.386.656c-1.022.82-1.698 1.129-2.624 1.129-1.003 0-2.006-.512-2.006-2.22Zm5.701 1.148 1.438-.27.202-1.554V8.69l-.202-1.572-1.64-.27V6.21l3.81-.367-.202 2.846v4.216l.202 1.554 1.438.27v.637h-5.036v-.637h-.01Zm1.071-12.571c0-.695.569-1.293 1.293-1.293.695 0 1.293.57 1.293 1.312 0 .656-.531 1.274-1.293 1.274-.704-.01-1.293-.521-1.293-1.293Zm5.779 11.423V7.07h-1.602v-.734l1.602-.328V3.654l1.765-.328v2.885h2.499v.859h-2.499v5.836c0 1.042.367 1.515 1.129 1.515.328 0 .878-.106 1.351-.405l.386.656c-1.023.82-1.698 1.129-2.624 1.129-1.004 0-2.007-.512-2.007-2.22Zm7.226-.984V8.69l-.222-1.572-1.601-.27V6.21l3.791-.367-.202 2.846v3.445c0 1.408.656 2.277 1.948 2.277.878 0 1.679-.531 2.258-1.226V8.69l-.203-1.572-1.601-.27V6.21l3.791-.367-.222 2.846v4.216l.222 1.554 1.476.27v.637l-3.463.366.222-1.843c-.965 1.332-1.824 1.901-3.28 1.901-1.814.01-2.914-1.138-2.914-3.193Zm11.249.984V7.07h-1.601v-.734l1.601-.328V3.654l1.766-.328v2.885h2.498v.859h-2.498v5.836c0 1.042.366 1.515 1.128 1.515.328 0 .878-.106 1.351-.405l.386.656c-1.023.82-1.698 1.129-2.624 1.129-1.003 0-2.007-.512-2.007-2.22Zm5.326-2.702c0-3.116 1.572-5.103 4.138-5.103 2.152 0 3.647 1.39 3.56 4.303h-5.923s-.019.29-.019.453c0 2.316 1.128 3.956 3.299 3.956.656 0 1.389-.164 2.113-.695l.405.55c-1.167 1.061-2.045 1.457-3.521 1.457-2.432 0-4.052-1.766-4.052-4.92Zm4.467-1.62 1.389-.203c0-1.62-.762-2.46-1.881-2.46-1.149 0-1.949.859-2.171 2.663h2.663Zm9.116 3.53c0-2.46.82-4.466 2.74-5.98.782-.618 1.911-1.091 2.75-1.091 1.389 0 2.209 1.042 2.209 3.155 0 1.881-.598 3.704-1.804 4.959-1.129 1.225-2.46 1.948-3.753 1.948-1.302 0-2.142-1.003-2.142-2.99Zm4.94.512c.675-1.023 1.061-2.393 1.061-3.994 0-1.438-.309-2.335-1.225-2.335-.695 0-1.274.328-1.862 1.148-.733.984-1.167 2.77-1.167 4.264 0 1.37.414 2.19 1.254 2.19.723-.01 1.379-.434 1.939-1.273Z" fill="#fff"/><path d="m189.071 20.239.386-1.766c.637.251 1.331.434 1.929.434.531 0 .946-.202 1.245-.656.289-.434.511-1.022.675-1.823l1.882-9.339h-1.824v-.878h2.007l.058-.27c.434-1.949.897-3.068 1.929-4.014.859-.8 1.949-1.205 2.788-1.205.512 0 .927.057 1.641.202l-.406 1.881c-.858-.385-1.736-.617-2.315-.617-.386 0-.82.125-1.225.57-.454.491-.734 1.475-.84 3.443h2.132v.878h-2.276l-1.679 8.5c-.289 1.408-.965 2.663-1.949 3.521-.945.84-1.9 1.274-2.933 1.274-.241.01-.858-.03-1.225-.135ZM.547 37.18l1.66-.328.202-2.065v-7.351l-.202-2.065-1.66-.328v-.627h5.654v.617l-1.66.328-.202 2.065v7.352l.202 2.064 1.66.328v.637H.547v-.627Zm6.956 0 1.438-.27.222-1.554V31.14l-.222-1.572-1.64-.27v-.637l3.608-.367-.222 1.843c.84-1.293 1.9-1.9 3.3-1.9 1.765 0 2.903 1.167 2.903 3.193v3.936l.203 1.553 1.457.27v.637h-4.814v-.637l1.167-.27.203-1.553v-3.444c0-1.37-.656-2.296-1.95-2.296-.78 0-1.35.222-2.257 1.225v4.505l.222 1.554 1.168.27v.636H7.494v-.636h.01Zm12.619-1.148V29.52h-1.601v-.734l1.601-.328v-2.354l1.766-.328v2.885h2.499v.859h-2.5v5.836c0 1.042.367 1.515 1.13 1.515.328 0 .878-.106 1.35-.405l.386.656c-1.022.82-1.698 1.129-2.624 1.129-1.003-.01-2.007-.521-2.007-2.22Zm5.326-2.702c0-3.116 1.572-5.103 4.139-5.103 2.151 0 3.646 1.39 3.56 4.303h-5.924s-.02.29-.02.453c0 2.316 1.13 3.956 3.3 3.956.656 0 1.39-.164 2.113-.695l.405.55c-1.167 1.061-2.045 1.457-3.521 1.457-2.431-.01-4.052-1.766-4.052-4.92Zm4.467-1.62 1.389-.203c0-1.62-.762-2.46-1.881-2.46-1.148 0-1.95.858-2.171 2.663h2.663Zm12.465 5.47 1.437-.27.222-1.554V31.14l-.222-1.572-1.64-.27v-.637l3.608-.367-.222 1.843c.84-1.293 1.9-1.9 3.3-1.9 1.765 0 2.904 1.167 2.904 3.193v3.936l.202 1.553 1.457.27v.637h-4.814v-.637l1.167-.27.203-1.553v-3.444c0-1.37-.656-2.296-1.95-2.296-.78 0-1.35.222-2.257 1.225v4.505l.222 1.554 1.168.27v.636H42.37v-.636h.01Zm11.943-1.418c0-.898.386-1.66 1.206-2.258.8-.598 2.113-.897 3.975-.897v-1.11c0-1.292-.782-2.045-2.026-2.045-.762 0-1.515.309-2.19.926l-.512-.55c.927-1.042 2.171-1.698 3.628-1.698 1.64 0 2.827.878 2.827 2.904v4.322l.222 1.554 1.37.27v.636l-3.358.367.367-2.257c-.762 1.389-1.737 2.315-3.136 2.315-1.35 0-2.373-.916-2.373-2.48Zm5.18-.386v-1.988c-1.205 0-2.064.164-2.623.512-.55.308-.84.8-.84 1.437 0 .8.55 1.457 1.35 1.457.686 0 1.506-.521 2.114-1.418Zm5.047.656V29.52h-1.602v-.734l1.601-.328v-2.354l1.766-.328v2.885h2.499v.859h-2.499v5.836c0 1.042.367 1.515 1.129 1.515.328 0 .878-.106 1.35-.405l.386.656c-1.022.82-1.698 1.129-2.624 1.129-1.003-.01-2.007-.521-2.007-2.22Zm5.711 1.148 1.438-.27.202-1.554V31.14l-.203-1.572-1.64-.27v-.637l3.811-.367-.202 2.846v4.216l.202 1.554 1.438.27v.636H70.27v-.636h-.01Zm1.061-12.58a1.3 1.3 0 0 1 1.293-1.293c.695 0 1.293.569 1.293 1.312 0 .656-.53 1.273-1.293 1.273-.695 0-1.293-.511-1.293-1.293Zm4.554 8.75c0-2.953 1.601-5.143 4.63-5.143 2.625 0 4.361 1.766 4.361 4.96 0 3.116-1.862 5.103-4.592 5.103-2.614-.01-4.4-1.872-4.4-4.92Zm7.023-.164c0-2.72-.878-4.12-2.498-4.12-1.64 0-2.538 1.293-2.538 4.139 0 2.788.878 4.177 2.48 4.177 1.64 0 2.556-1.35 2.556-4.196Zm2.691 3.994 1.438-.27.222-1.554V31.14l-.222-1.572-1.64-.27v-.637l3.608-.367-.221 1.843c.839-1.293 1.9-1.9 3.3-1.9 1.765 0 2.903 1.167 2.903 3.193v3.936l.203 1.553 1.456.27v.637h-4.814v-.637l1.168-.27.202-1.553v-3.444c0-1.37-.656-2.296-1.949-2.296-.781 0-1.35.222-2.257 1.225v4.505l.222 1.554 1.167.27v.636h-4.795v-.636h.01Zm11.954-1.418c0-.898.386-1.66 1.206-2.258.801-.598 2.113-.897 3.975-.897v-1.11c0-1.292-.781-2.045-2.026-2.045-.762 0-1.515.309-2.19.926l-.511-.55c.926-1.042 2.17-1.698 3.627-1.698 1.64 0 2.827.878 2.827 2.904v4.322l.222 1.554 1.37.27v.636l-3.358.367.367-2.257c-.762 1.389-1.736 2.315-3.135 2.315-1.351 0-2.374-.916-2.374-2.48Zm5.181-.386v-1.988c-1.206 0-2.065.164-2.624.512-.55.308-.84.8-.84 1.437 0 .8.55 1.457 1.351 1.457.676 0 1.496-.521 2.113-1.418Zm4.409 1.804 1.437-.27.222-1.554v-9.339l-.222-1.572-1.64-.27v-.637l3.811-.366-.202 2.845v9.34l.221 1.553 1.409.27v.636h-5.036v-.636Zm10.4.328-.202-3.116h1.041l.406 2.151c.694.328 1.331.598 2.17.598 1.862 0 3.213-.897 3.213-2.44 0-1.718-1.64-2.355-3.213-2.953-1.948-.733-3.666-1.515-3.666-3.869 0-2.064 1.573-3.955 4.631-3.955 1.042 0 2.335.29 3.444.695l.222 3.096h-1.022l-.454-2.19c-.637-.385-1.621-.617-2.228-.617-2.026 0-3.03 1.129-3.03 2.296 0 1.66 1.438 2.132 2.866 2.701 2.093.84 4.052 1.718 4.052 4.236 0 2.44-1.969 4.032-4.921 4.032-.993.01-1.852-.096-3.309-.665Zm10.699-1.476V29.52h-1.601v-.734l1.601-.328v-2.354l1.766-.328v2.885h2.499v.859h-2.499v5.836c0 1.042.366 1.515 1.129 1.515.328 0 .878-.106 1.35-.405l.386.656c-1.022.82-1.698 1.129-2.624 1.129-1.003-.01-2.007-.521-2.007-2.22Zm7.159-.984V31.13l-.222-1.573-1.602-.27v-.627l3.792-.367-.203 2.846v3.445c0 1.408.656 2.276 1.949 2.276.878 0 1.679-.53 2.258-1.225V31.15l-.203-1.572-1.601-.27v-.647l3.791-.367-.222 2.846v4.216l.222 1.554 1.476.27v.636l-3.463.367.222-1.843c-.965 1.332-1.824 1.901-3.281 1.901-1.813 0-2.913-1.148-2.913-3.193Zm9.975-1.37c0-3.194 2.007-5.451 4.921-5.451a6.61 6.61 0 0 1 1.572.183v-2.393l-.222-1.572-1.64-.27v-.637l3.83-.366-.222 2.845v9.34l.222 1.553 1.332.27v.636l-3.3.435.309-1.95c-.945 1.274-1.901 1.95-3.261 1.95-2.064-.01-3.541-1.785-3.541-4.573Zm6.493 1.881V29.5c-.579-.24-1.022-.366-1.659-.366-1.93 0-2.991 1.601-2.991 4.12 0 2.228.82 3.588 2.422 3.588.714-.01 1.466-.337 2.228-1.283Zm4.38 1.621 1.438-.27.202-1.554V31.14l-.202-1.572-1.64-.27v-.637l3.811-.367-.203 2.846v4.216l.203 1.554 1.437.27v.636h-5.036v-.636h-.01Zm1.071-12.58c0-.695.569-1.293 1.293-1.293.695 0 1.293.569 1.293 1.312 0 .656-.531 1.273-1.293 1.273-.704 0-1.293-.511-1.293-1.293Zm4.602 8.73c0-3.116 1.573-5.103 4.139-5.103 2.151 0 3.647 1.39 3.56 4.303h-5.924s-.019.29-.019.453c0 2.316 1.129 3.956 3.299 3.956.656 0 1.39-.164 2.113-.695l.405.55c-1.167 1.061-2.045 1.457-3.521 1.457-2.431-.01-4.052-1.766-4.052-4.92Zm4.467-1.62 1.389-.203c0-1.62-.762-2.46-1.881-2.46-1.148 0-1.949.858-2.171 2.663h2.663Zm4.814 5.981-.164-2.393h.897l.348 1.573c.636.29 1.128.453 1.9.453 1.11 0 1.804-.55 1.804-1.495 0-1.187-1.128-1.534-2.19-1.93-1.293-.53-2.807-.983-2.807-2.826 0-1.553 1.273-2.972 3.444-2.972.926 0 1.823.184 2.721.599l.202 2.392h-.897l-.453-1.62a4.202 4.202 0 0 0-1.824-.406c-1.09 0-1.698.454-1.698 1.37 0 1.129 1.148 1.476 2.152 1.862 1.456.55 2.826 1.003 2.826 2.904 0 1.717-1.389 3.068-3.463 3.068-.666.02-1.814-.193-2.798-.579Zm11.616-1.929c0-.898.386-1.66 1.206-2.258.8-.598 2.112-.897 3.974-.897v-1.11c0-1.292-.781-2.045-2.026-2.045-.762 0-1.514.309-2.19.926l-.511-.55c.917-1.042 2.171-1.698 3.628-1.698 1.64 0 2.826.878 2.826 2.904v4.322l.222 1.554 1.37.27v.636l-3.357.367.366-2.257c-.762 1.389-1.736 2.315-3.135 2.315-1.341 0-2.373-.916-2.373-2.48Zm5.19-.386v-1.988c-1.206 0-2.064.164-2.624.512-.55.308-.839.8-.839 1.437 0 .8.55 1.457 1.35 1.457.676 0 1.496-.521 2.113-1.418Zm5.036.656V29.52h-1.601v-.734l1.601-.328v-2.354l1.766-.328v2.885h2.498v.859h-2.498v5.836c0 1.042.366 1.515 1.128 1.515.328 0 .878-.106 1.351-.405l.386.656c-1.023.82-1.698 1.129-2.624 1.129-.994-.01-2.007-.521-2.007-2.22Zm9.368 1.148 1.659-.328.203-2.065v-7.351l-.203-2.065-1.659-.328v-.627h4.428l1.042 3.01 3.097 8.046 3.174-8.065.965-2.991h4.428v.617l-1.64.328-.222 2.065v7.352l.222 2.064 1.64.328v.637h-5.653v-.637l1.64-.328.222-2.064v-8.973l-3.522 8.973-1.042 3.029h-1.331l-1.109-3.03-3.541-8.972v8.973l.222 2.064 1.64.328v.637h-4.65v-.627h-.01Zm18.012-3.83c0-2.953 1.602-5.143 4.631-5.143 2.624 0 4.361 1.766 4.361 4.96 0 3.116-1.862 5.103-4.593 5.103-2.614-.01-4.399-1.872-4.399-4.92Zm7.023-.164c0-2.72-.877-4.12-2.498-4.12-1.64 0-2.538 1.293-2.538 4.139 0 2.788.878 4.177 2.48 4.177 1.64 0 2.556-1.35 2.556-4.196Zm2.904 3.994 1.438-.27.222-1.554V31.14l-.222-1.572-1.64-.27v-.637l3.608-.367-.222 1.843c.84-1.293 1.901-1.9 3.3-1.9 1.765 0 2.904 1.167 2.904 3.193v3.936l.202 1.553 1.457.27v.637h-4.814v-.637l1.167-.27.203-1.553v-3.444c0-1.37-.656-2.296-1.949-2.296-.781 0-1.351.222-2.258 1.225v4.505l.222 1.554 1.168.27v.636h-4.795v-.636h.009Zm12.812-1.148V29.52h-1.601v-.734l1.601-.328v-2.354l1.766-.328v2.885h2.499v.859h-2.499v5.836c0 1.042.367 1.515 1.129 1.515.328 0 .878-.106 1.35-.405l.386.656c-1.022.82-1.698 1.129-2.624 1.129-1.003-.01-2.007-.521-2.007-2.22Zm5.326-2.702c0-3.116 1.573-5.103 4.139-5.103 2.151 0 3.647 1.39 3.56 4.303h-5.924s-.019.29-.019.453c0 2.316 1.129 3.956 3.299 3.956.656 0 1.39-.164 2.113-.695l.405.55c-1.167 1.061-2.045 1.457-3.521 1.457-2.431-.01-4.052-1.766-4.052-4.92Zm4.467-1.62 1.389-.203c0-1.62-.762-2.46-1.881-2.46-1.148 0-1.949.858-2.171 2.663h2.663Zm12.156 1.62c0-3.116 1.572-5.103 4.139-5.103 2.151 0 3.646 1.39 3.56 4.303h-5.924s-.019.29-.019.453c0 2.316 1.128 3.956 3.299 3.956.656 0 1.389-.164 2.113-.695l.405.55c-1.167 1.061-2.045 1.457-3.521 1.457-2.431-.01-4.052-1.766-4.052-4.92Zm4.467-1.62 1.389-.203c0-1.62-.762-2.46-1.881-2.46-1.148 0-1.949.858-2.171 2.663h2.663Zm4.804 10.96v-.695l2.045-.328.878-1.438.878-2.064-2.865-7.005-.839-1.601-.927-.241v-.637h4.487v.637l-1.313.24.492 1.602 1.843 4.728 1.717-4.728.454-1.601-1.293-.241v-.637h3.686v.637l-1.042.24-.782 1.602-4.467 11.8-2.952-.27Z" fill="#fff"/></svg>