<svg width="66" height="72" fill="none" xmlns="http://www.w3.org/2000/svg"><path fill-rule="evenodd" clip-rule="evenodd" d="M1 1v33.988l1.248 5.734L9.18 53.224l7.348 7.325 9.018 6.862 6.525 3.536 5.705-2.426 6.588-4.576 5.938-4.922 4.285-3.743 2.969-4.644 3.646-6.204 1.495-3.625L64.5 33.62V1H1Z" fill="#fff"/><path d="M35.709 32.039v-1.68h-1.68a1.476 1.476 0 0 0-1.458-1.275c-.748 0-1.358.554-1.458 1.275h-1.68v1.68a1.472 1.472 0 0 0 0 2.916v1.68h1.68c.11.71.715 1.253 1.453 1.253a1.48 1.48 0 0 0 1.458-1.253h1.68v-1.68a1.475 1.475 0 0 0 1.264-1.458 1.47 1.47 0 0 0-1.259-1.458Z" fill="#0D395F"/><path d="M0 0v33.065c0 .238.061 5.993 4.086 13.688 3.687 7.052 11.565 17.125 28.147 25.08l.35.167.348-.166c16.6-7.956 24.466-18.035 28.142-25.081 4.014-7.695 4.058-13.45 4.058-13.688V0H0Zm63.512 33.06c0 .056-.06 5.672-3.925 13.034-3.543 6.753-11.105 16.394-27.005 24.105-15.889-7.706-23.457-17.352-27.01-24.105-3.876-7.363-3.948-12.979-3.948-13.034V1.625h61.888v31.434Z" fill="#0D395F"/><path d="M21.15 32.654v1.896l-3.515.006v.011c-.754-.006-1.452.466-1.657 1.186-.194.688.238 1.398.964 1.58.583.15 1.176-.177 1.331-.731a.799.799 0 0 0-.272-.837l4.369-.006v-1.93c2.345-.266 4.213-2.05 4.502-4.302h1.84v-.61c0-2.017 1.736-3.653 3.87-3.653 2.135 0 3.87 1.641 3.87 3.654v.61h1.763c.288 2.24 2.145 4.019 4.48 4.285l.005 1.98h4.208a.794.794 0 0 0-.239.864c.189.543.804.837 1.375.654.716-.227 1.104-.953.865-1.63-.216-.626-.798-1.036-1.441-1.097v-.012h-3.554l-.006-1.945h-.61c-2.15 0-3.902-1.664-3.902-3.71v-.61h-1.769c-.316-2.4-2.456-4.262-5.045-4.262s-4.735 1.862-5.045 4.263h-1.84v.61c0 2.056-1.764 3.73-3.931 3.73h-.616v.006Zm9.392 22.726c-.505 0-.843.426-.843 1.086 0 .62.322 1.009.843 1.009.294 0 .521-.1.782-.338.06-.222.077-.36.077-.583 0-.72-.338-1.175-.86-1.175Z" fill="#0D395F"/><path d="M32.516 47.44c-6.714 0-12.158 5.444-12.158 12.158v.327c3.348 2.623 7.373 5.173 12.23 7.496 4.79-2.29 8.77-4.801 12.086-7.385v-.443c-.006-6.709-5.445-12.153-12.158-12.153Zm-4.33 12.69H25.64v-.715h.931V55.85c-.083.05-.327.211-.549.31a8.368 8.368 0 0 1-.61.267l-.215-.471 1.613-1.131h.626v4.596h.749v.71Zm2.977-.881c-.505.477-1.203.887-1.885 1.037l-.444-.516c.239-.044.4-.1.621-.205.599-.277 1.176-.726 1.503-1.264.06-.1.127-.239.183-.366a1.498 1.498 0 0 1-.765.205c-.91 0-1.603-.704-1.603-1.658 0-1.009.776-1.763 1.802-1.763 1.159 0 1.747.904 1.747 1.985-.006.96-.41 1.84-1.16 2.545Zm3.88.698c-.37.194-.853.305-1.341.305-.244 0-.344-.005-.582-.06l-.178-.638c.267.083.422.11.671.11.882 0 1.525-.532 1.525-1.252 0-.599-.4-.91-.992-.91-.344 0-.688.061-1.065.206l.25-2.822h2.505l-.133.726h-1.58l-.122 1.264c.211-.033.272-.039.438-.039.904 0 1.636.56 1.636 1.497 0 .682-.405 1.297-1.031 1.613Zm3.87 0c-.371.194-.853.305-1.341.305-.244 0-.344-.005-.582-.06l-.178-.638c.266.083.422.11.671.11.882 0 1.525-.532 1.525-1.252 0-.599-.4-.91-.987-.91-.344 0-.688.061-1.065.206l.239-2.822H39.7l-.133.726h-1.58l-.123 1.264c.211-.033.272-.039.438-.039.904 0 1.636.56 1.636 1.497 0 .682-.405 1.297-1.026 1.613Zm-19.52-46.115h-2.44v2.44h2.756a13.78 13.78 0 0 0-.316-2.44Zm-.361 7.308h-2.079v2.733c.788-.333 1.553-1.303 2.08-2.734ZM16.953 9.88v2.733h2.08c-.527-1.43-1.292-2.4-2.08-2.733Zm2.756 7.606h-2.756v2.44h2.44c.166-.738.277-1.553.316-2.44Zm2.361-4.873a7.207 7.207 0 0 0-2.838-2.273c.433.626.799 1.397 1.081 2.273h1.758Zm-1.147 3.653h2.54a7.108 7.108 0 0 0-.66-2.44h-2.174c.161.766.26 1.586.294 2.44Zm-1.696 7.146a7.207 7.207 0 0 0 2.838-2.273h-1.757c-.283.876-.649 1.647-1.081 2.273Zm1.403-3.487h2.172a7.108 7.108 0 0 0 .66-2.44h-2.539a14.56 14.56 0 0 1-.294 2.44ZM10.617 21.14a7.207 7.207 0 0 0 2.838 2.272c-.432-.626-.798-1.397-1.08-2.273h-1.758Zm1.142-3.654h-2.54c.073.865.306 1.685.66 2.44h2.174c-.161-.766-.26-1.58-.294-2.44Zm1.696-7.146a7.207 7.207 0 0 0-2.838 2.273h1.757c.283-.876.649-1.647 1.081-2.273Zm-1.402 3.492H9.879a7.074 7.074 0 0 0-.66 2.44h2.54c.033-.86.133-1.68.294-2.44Zm3.681 10.046v-2.733h-2.08c.522 1.425 1.287 2.395 2.08 2.733Z" fill="#0D395F"/><path d="M4.601 36.701c.854 3.726 2.911 9.459 7.834 15.507v-7.911h40.089l-.006 8.183c5.079-6.149 7.169-11.998 8.028-15.779.604-2.644.604-4.274.604-4.274V3.987H3.986v28.44s.006 1.636.615 4.274Zm49.908 5.023c-.028-.01-.061-.027-.09-.033h-.054c-.91.283-.965 1.33-.965 1.33v.472h-1.192v-.738s-.056-.992-.965-1.264h-.055c-.91.272-.965 1.264-.965 1.264v.738h-1.425v-.738s-.055-.992-.97-1.264h-.055c-.91.272-.965 1.264-.965 1.264v.738h-1.392v-.738s-.055-.992-.964-1.264h-.056c-.909.272-.97 1.264-.97 1.264v.738H41.98v-.738s-.055-.992-.97-1.264h-.056c-.909.272-.964 1.264-.964 1.264v.738h-1.41v-.738s-.056-.992-.965-1.264h-.055c-.91.272-.97 1.264-.97 1.264v.738h-1.392v-.738s-.056-.992-.965-1.264h-.055c-.91.272-.965 1.264-.965 1.264v.738h-1.447v-.738s-.055-.992-.965-1.264h-.055c-.91.272-.965 1.264-.965 1.264v.738h-1.386v-.738s-.055-.992-.964-1.264h-.056c-.909.272-.964 1.264-.964 1.264v.738h-1.464v-.738s-.056-.992-.97-1.264h-.056c-.909.272-.964 1.264-.964 1.264v.738h-1.392v-.738s-.055-.992-.964-1.264h-.061c-.91.272-.965 1.264-.965 1.264v.738h-1.43v-.738s-.056-.992-.965-1.264h-.056c-.909.272-.964 1.264-.964 1.264v.738h-1.386v-.738s-.056-.992-.965-1.264h-.055c-.91.272-.965 1.264-.965 1.264v.738h-1.192v-.471s-.055-1.043-.965-1.331h-.055v-.654h43.947v.687h-.016ZM49.075 13.5c1.58-2.872 5.09-2.928 5.09-2.928.05-.055 0 8.732 0 8.732s-3.51.056-5.09 2.928V13.5Zm-6.33-3.005s3.475.055 5.033 2.927v8.732c-1.563-2.872-5.034-2.927-5.034-2.927s-.05-8.787 0-8.732Zm-2.617.826h1.302v8.704l7.052 4.136 7.047-4.13v-8.71h1.302v9.452l-8.349 4.896-8.355-4.896v-9.452Zm-7.574 11.143c2.711 0 5.212 1.913 6.16 4.308l2.19-.005v2.095c0 1.314 1.325 2.234 2.955 2.234h1.585l.006 1.98 4.773-.006.006 5.389h5.654v1.42H9.175v-1.42h5.55v-5.356l4.917.006v-2.013h1.486c1.636 0 2.955-.92 2.955-2.234l-.005-2.106h2.25c.948-2.379 3.526-4.292 6.226-4.292ZM16.344 8.51c4.612 0 8.366 3.754 8.366 8.366 0 4.613-3.754 8.366-8.366 8.366-4.613 0-8.366-3.753-8.366-8.366-.006-4.613 3.748-8.366 8.366-8.366Z" fill="#0D395F"/><path d="M13.294 19.925h2.44v-2.44h-2.755c.033.888.144 1.703.316 2.44Zm2.44-10.045c-.793.332-1.558 1.302-2.08 2.733h2.08V9.88Zm-2.755 6.386h2.755v-2.44h-2.44a12.948 12.948 0 0 0-.316 2.44Z" fill="#0D395F"/></svg>