<svg width="361" height="72" fill="none" xmlns="http://www.w3.org/2000/svg"><g id="miis-logo"><path fill="#fff" d="M0 0h361v72H0z"/><g id="Group 3"><g id="Group"><g id="Group 68"><mask id="mask0" maskUnits="userSpaceOnUse" x="0" y="0" width="66" height="72"><path id="Clip 67" fill-rule="evenodd" clip-rule="evenodd" d="M0 0h65.267v72H0V0z" fill="#fff"/></mask><g mask="url(#mask0)"><path id="Fill 66" fill-rule="evenodd" clip-rule="evenodd" d="M1.627 1.627v31.355c0 .053.075 5.68 3.959 13.058 3.561 6.769 11.145 16.43 27.066 24.156 15.933-7.728 23.507-17.39 27.057-24.157 3.871-7.377 3.932-13.003 3.932-13.058V1.627H1.627zM32.652 72l-.352-.169c-16.617-7.97-24.51-18.065-28.205-25.13C.062 38.99 0 33.225 0 32.984V0h65.267v32.982c0 .24-.045 6.004-4.066 13.716-3.684 7.064-11.567 17.16-28.198 25.133l-.351.17z" fill="#0D395F"/></g></g><path id="Fill 69" fill-rule="evenodd" clip-rule="evenodd" d="M20.892 12.258a7.192 7.192 0 00-2.846-2.278c.434.628.8 1.4 1.083 2.278h1.763z" fill="#0D395F"/><path id="Fill 71" fill-rule="evenodd" clip-rule="evenodd" d="M15.763 9.518v2.74h2.086c-.526-1.434-1.291-2.406-2.086-2.74z" fill="#0D395F"/><path id="Fill 73" fill-rule="evenodd" clip-rule="evenodd" d="M11.782 15.92h2.762v-2.442h-2.446c-.17.736-.281 1.555-.316 2.443z" fill="#0D395F"/><path id="Fill 75" fill-rule="evenodd" clip-rule="evenodd" d="M12.458 12.258h2.086v-2.74c-.794.335-1.56 1.306-2.086 2.74z" fill="#0D395F"/><path id="Fill 77" fill-rule="evenodd" clip-rule="evenodd" d="M12.098 19.584h2.446V17.14h-2.762c.035.888.146 1.707.316 2.444z" fill="#0D395F"/><path id="Fill 79" fill-rule="evenodd" clip-rule="evenodd" d="M14.544 23.543v-2.739h-2.086c.527 1.433 1.292 2.405 2.086 2.74z" fill="#0D395F"/><path id="Fill 81" fill-rule="evenodd" clip-rule="evenodd" d="M10.563 17.14H8.02c.074.87.305 1.69.662 2.444h2.175a14.548 14.548 0 01-.294-2.443z" fill="#0D395F"/><path id="Fill 83" fill-rule="evenodd" clip-rule="evenodd" d="M18.209 13.478h-2.445v2.442h2.762a13.211 13.211 0 00-.317-2.442z" fill="#0D395F"/><path id="Fill 85" fill-rule="evenodd" clip-rule="evenodd" d="M10.856 13.478H8.682a7.086 7.086 0 00-.662 2.442h2.543c.032-.86.132-1.678.293-2.442z" fill="#0D395F"/><path id="Fill 87" fill-rule="evenodd" clip-rule="evenodd" d="M9.417 20.804a7.186 7.186 0 002.845 2.276c-.435-.628-.801-1.4-1.084-2.276H9.417z" fill="#0D395F"/><path id="Fill 89" fill-rule="evenodd" clip-rule="evenodd" d="M19.745 15.92h2.543a7.107 7.107 0 00-.662-2.442h-2.175c.16.763.26 1.582.294 2.443z" fill="#0D395F"/><path id="Fill 91" fill-rule="evenodd" clip-rule="evenodd" d="M12.261 9.98a7.203 7.203 0 00-2.845 2.278h1.763c.282-.878.648-1.648 1.082-2.277z" fill="#0D395F"/><path id="Fill 93" fill-rule="evenodd" clip-rule="evenodd" d="M19.45 19.584h2.176a7.109 7.109 0 00.662-2.444h-2.543c-.034.861-.134 1.68-.295 2.444z" fill="#0D395F"/><path id="Fill 95" fill-rule="evenodd" clip-rule="evenodd" d="M57.62 20.237l-7.82 4.585-7.823-4.585v-8.853h1.22v8.154l6.604 3.87 6.6-3.87v-8.154h1.219v8.853zM44.427 10.61s3.254.053 4.716 2.744v8.176c-1.462-2.69-4.716-2.744-4.716-2.744s-.046-8.229 0-8.176zm5.927 2.814c1.477-2.69 4.766-2.743 4.766-2.743.048-.053 0 8.176 0 8.176s-3.288.052-4.766 2.743v-8.176zM39.712 26.028H25.556v-1.423h2.143v-6.996h9.867v6.996h2.146v1.423zm-24.558-1.112c-4.623 0-8.385-3.762-8.385-8.385 0-4.624 3.761-8.386 8.385-8.386 4.623 0 8.385 3.762 8.385 8.386 0 4.623-3.762 8.385-8.385 8.385zM33.346 3.615v.812c.62.267 1.057.857 1.057 1.555 0 .695-.438 1.287-1.057 1.552v.987c.931.34 2.614 1.156 3.382 2.813.72 1.552.852 2.895.86 3.63h.663v1.424H27.017v-1.423h.663c.007-.736.138-2.08.858-3.63.769-1.654 2.45-2.473 3.384-2.815v-.987c-.62-.265-1.058-.856-1.058-1.551 0-.698.437-1.287 1.058-1.554v-.813H3.995v28.498s.005 1.282.43 3.416l.146-.05c3.054-1.043 8.564-2.83 12.212-2.83 3.649 0 4.988.968 8.49.968.402 0 .791.008 1.174.023v-6.4h12.374v6.61c2.478-.076 4.324-.003 6.556.4 3.09.559 4.99 2.57 7.186 2.904 2.197.334 4.132-.15 6.479-.037l1.435.068c.793-3.112.796-5.072.796-5.072V3.615H33.344z" fill="#0D395F"/><path id="Fill 97" fill-rule="evenodd" clip-rule="evenodd" d="M18.526 17.14h-2.763v2.444h2.446a13.21 13.21 0 00.317-2.443z" fill="#0D395F"/><path id="Fill 99" fill-rule="evenodd" clip-rule="evenodd" d="M15.763 23.543c.795-.335 1.56-1.306 2.086-2.74h-2.086v2.74z" fill="#0D395F"/><path id="Fill 101" fill-rule="evenodd" clip-rule="evenodd" d="M18.045 23.081a7.2 7.2 0 002.847-2.277h-1.763c-.284.878-.65 1.648-1.084 2.277z" fill="#0D395F"/><path id="Fill 103" fill-rule="evenodd" clip-rule="evenodd" d="M31.314 33.066h2.639v-4.564h-2.639v4.564z" fill="#0D395F"/><path id="Fill 105" fill-rule="evenodd" clip-rule="evenodd" d="M30.853 54.611c-.202-.16-.515-.322-1.038-.539-.393.21-.675.531-.675.997 0 .563.402.925 1.03.925.562 0 .948-.33.948-.803 0-.25-.088-.444-.265-.58z" fill="#0D395F"/><path id="Fill 106" fill-rule="evenodd" clip-rule="evenodd" d="M30.177 53.325c.353-.178.773-.458.773-.902 0-.426-.314-.682-.853-.682-.515 0-.853.28-.853.698 0 .467.556.733.933.886z" fill="#0D395F"/><path id="Fill 107" fill-rule="evenodd" clip-rule="evenodd" d="M33.934 52.44c-.13.345-.185.803-.185 1.374 0 .54.04.959.111 1.256.146.627.435.892.772.892.339 0 .611-.29.757-.756.104-.345.152-.803.152-1.343 0-.523-.04-.885-.12-1.231-.153-.627-.426-.867-.78-.867-.314 0-.555.25-.707.675z" fill="#0D395F"/><path id="Fill 108" fill-rule="evenodd" clip-rule="evenodd" d="M39.127 56.622c-1.415 0-1.865-1.65-1.865-2.8 0-1.583.805-2.725 1.874-2.725 1.44 0 1.89 1.584 1.89 2.75 0 1.665-.772 2.775-1.899 2.775zm-4.502 0c-1.416 0-1.866-1.65-1.866-2.8 0-1.583.804-2.725 1.873-2.725 1.44 0 1.891 1.584 1.891 2.75 0 1.665-.772 2.775-1.898 2.775zm-4.545.031c-.923 0-1.898-.458-1.898-1.519 0-.651.436-1.174 1.03-1.383-.49-.2-.86-.692-.86-1.231 0-1.022.949-1.423 1.825-1.423 1.014 0 1.713.539 1.713 1.327 0 .658-.515 1.03-1.07 1.238.781.322 1.272.707 1.272 1.376 0 1.037-1.087 1.615-2.012 1.615zm-2.677-.152h-2.55v-.715h.933v-3.572c-.08.05-.33.21-.547.314a7.982 7.982 0 01-.61.265l-.218-.473 1.617-1.136h.628v4.602h.747v.715zM40.869 44.52v.028H24.427L12.512 52.01c4.245 5.192 10.6 10.605 20.127 15.167 9.548-4.572 15.91-9.994 20.148-15.193L40.87 44.52z" fill="#0D395F"/><path id="Fill 109" fill-rule="evenodd" clip-rule="evenodd" d="M39.144 51.765c-.314 0-.555.25-.708.675-.129.345-.184.803-.184 1.374 0 .54.04.959.112 1.256.144.627.434.892.772.892s.611-.29.756-.756c.105-.345.152-.803.152-1.343 0-.523-.04-.885-.12-1.231-.153-.627-.427-.867-.78-.867z" fill="#0D395F"/><path id="Fill 110" fill-rule="evenodd" clip-rule="evenodd" d="M24.145 36.278h16.977v-1.22H24.145v1.22z" fill="#0D395F"/><path id="Fill 111" fill-rule="evenodd" clip-rule="evenodd" d="M27.461 41.696h10.346v-2.472H27.46v2.472zm-1.22 1.22h12.785v-4.911H26.241v4.911z" fill="#0D395F"/><path id="Fill 112" fill-rule="evenodd" clip-rule="evenodd" d="M31.314 23.058h2.639v-4.095h-2.639v4.095z" fill="#0D395F"/><path id="Fill 113" fill-rule="evenodd" clip-rule="evenodd" d="M29.08 23.056h.814v-4.087h-.814v4.087z" fill="#0D395F"/><path id="Fill 114" fill-rule="evenodd" clip-rule="evenodd" d="M35.372 23.056h.814v-4.087h-.814v4.087z" fill="#0D395F"/><path id="Fill 115" fill-rule="evenodd" clip-rule="evenodd" d="M33.409 5.982c0 .404-.347.733-.774.733-.429 0-.775-.329-.775-.733 0-.407.346-.735.775-.735.427 0 .774.328.774.735z" fill="#0D395F"/><path id="Fill 116" fill-rule="evenodd" clip-rule="evenodd" d="M24.398 40.126l-14.114 8.9c.3.44.615.88.945 1.326l13.17-8.304v-1.922z" fill="#0D395F"/><path id="Fill 117" fill-rule="evenodd" clip-rule="evenodd" d="M40.868 42.117l13.146 8.309c.33-.446.646-.887.947-1.327l-14.093-8.906v1.925z" fill="#0D395F"/></g></g><g id="Group_2" fill="#000"><path id="Vector" d="M117.315 36.507c-1.168 0-2.084.646-2.933 2.093 0-.02-.01-.048-.01-.067v-.242l.029-.308c.029-.232.048-.454.077-.685l.116-.994-3.598.367v.636l1.64.27.222 1.573v4.216l-.222 1.553-1.428.27v.637h5.258v-.636l-1.64-.27-.222-1.554V39.41a2.593 2.593 0 011.997-.993c.434 0 .858.145 1.206.309l.511-2.065a2.798 2.798 0 00-1.003-.154z"/><path id="Vector_2" d="M340.56 36.507c-1.167 0-2.084.646-2.933 2.093 0-.02-.009-.048-.009-.067v-.242l.029-.308c.029-.232.048-.454.077-.685l.116-.994-3.599.367v.636l1.64.27.222 1.573v4.216l-.222 1.553-1.428.27v.637h5.258v-.636l-1.64-.27-.222-1.554V39.41a2.595 2.595 0 011.997-.993c.434 0 .859.145 1.206.309l.511-2.065a2.795 2.795 0 00-1.003-.154z"/><g id="Group_3"><path id="Vector_3" d="M77.567 22.73l1.659-.328.203-2.065v-7.351l-.203-2.065-1.66-.328v-.617h4.429l1.042 3.01 3.097 8.046 3.174-8.066.964-2.99h4.429v.617l-1.64.328-.222 2.065v7.351l.222 2.065 1.64.328v.637h-5.654v-.637l1.64-.328.222-2.065v-8.972l-3.521 8.972-1.042 3.03h-1.35l-1.11-3.03-3.54-8.972v8.972l.221 2.065 1.64.328v.637h-4.64v-.637z"/><path id="Vector_4" d="M96.254 22.73l1.438-.27.202-1.553V16.69l-.203-1.573-1.64-.27v-.637l3.811-.367-.202 2.847v4.216l.202 1.553 1.438.27v.637h-5.036v-.637h-.01zm1.07-12.571a1.3 1.3 0 011.294-1.293c.694 0 1.292.57 1.292 1.312 0 .656-.53 1.274-1.292 1.274-.705-.01-1.293-.521-1.293-1.293z"/><path id="Vector_5" d="M102.1 19.228c0-3.194 2.007-5.451 4.921-5.451a6.61 6.61 0 011.572.183v-2.392l-.222-1.573-1.64-.27v-.637l3.83-.366-.221 2.846v9.339l.221 1.553 1.332.27v.637l-3.3.434.309-1.95c-.945 1.274-1.901 1.95-3.261 1.95-2.064 0-3.541-1.785-3.541-4.573zm6.493 1.89V15.05c-.569-.24-1.022-.366-1.659-.366-1.93 0-2.991 1.601-2.991 4.12 0 2.228.82 3.588 2.422 3.588.714-.01 1.476-.337 2.228-1.273z"/><path id="Vector_6" d="M112.636 19.228c0-3.194 2.006-5.451 4.92-5.451.569 0 1.023.058 1.572.183v-2.392l-.221-1.573-1.641-.27v-.637l3.831-.366-.222 2.846v9.339l.222 1.553 1.331.27v.637l-3.3.434.309-1.95c-.945 1.274-1.9 1.95-3.261 1.95-2.064 0-3.54-1.785-3.54-4.573zm6.492 1.89V15.05c-.569-.24-1.022-.366-1.659-.366-1.929 0-2.991 1.601-2.991 4.12 0 2.228.82 3.588 2.422 3.588.714-.01 1.466-.337 2.228-1.273z"/><path id="Vector_7" d="M123.721 22.73l1.437-.27.222-1.553v-9.34l-.222-1.572-1.64-.27v-.637l3.811-.366-.203 2.846v9.339l.222 1.553 1.409.27v.637h-5.036v-.637z"/><path id="Vector_8" d="M129.49 18.88c0-3.116 1.573-5.103 4.139-5.103 2.151 0 3.647 1.39 3.56 4.303h-5.924s-.019.29-.019.453c0 2.316 1.129 3.956 3.299 3.956.656 0 1.39-.164 2.113-.695l.415.55c-1.167 1.061-2.045 1.457-3.521 1.457-2.441 0-4.062-1.766-4.062-4.92zm4.467-1.62l1.389-.203c0-1.62-.762-2.46-1.881-2.46-1.148 0-1.949.859-2.171 2.663h2.663z"/><path id="Vector_9" d="M139.186 23.367v-11.8l-.203-1.572-1.64-.27v-.637l3.811-.366-.203 2.846v3.849c.763-1.003 1.862-1.64 3.117-1.64 1.968 0 3.338 1.679 3.338 4.283 0 3.175-1.901 5.731-5.596 5.731-.859.01-1.457.01-2.624-.424zm6.415-4.65c0-2.113-.897-3.541-2.276-3.541-.84 0-1.64.347-2.374 1.206v4.524l.203 1.785c.492.164.839.242 1.37.242 2.113.01 3.077-1.882 3.077-4.216z"/><path id="Vector_10" d="M149.779 20.598V16.69l-.222-1.573-1.601-.27v-.637l3.791-.367-.203 2.847v3.444c0 1.408.657 2.276 1.949 2.276.878 0 1.679-.53 2.258-1.225V16.69l-.203-1.573-1.601-.27v-.637l3.791-.367-.222 2.847v4.216l.222 1.553 1.476.27v.637l-3.463.366.222-1.843c-.965 1.332-1.824 1.901-3.28 1.901-1.814.01-2.914-1.138-2.914-3.193z"/><path id="Vector_11" d="M169.354 28.22v-.695l2.045-.328.878-1.438.878-2.064-2.865-7.005-.84-1.601-.926-.241v-.637h4.486v.637l-1.312.241.492 1.601 1.843 4.728 1.717-4.727.454-1.602-1.293-.241v-.637h3.685v.637l-1.042.241-.781 1.601-4.467 11.8-2.952-.27z"/><path id="Vector_12" d="M166.614 14.057c-1.167 0-2.084.646-2.933 2.093 0-.02-.01-.048-.01-.067v-.241l.029-.31c.029-.23.049-.453.078-.684l.115-.994-3.598.367v.636l1.64.27.222 1.573v4.216l-.222 1.553-1.428.27v.637h5.258v-.637l-1.64-.27-.222-1.553v-3.955a2.595 2.595 0 011.997-.994c.434 0 .859.145 1.206.309l.511-2.065a2.766 2.766 0 00-1.003-.154z"/></g><path id="Vector_13" d="M183.652 22.73l1.659-.328.203-2.065v-7.351l-.203-2.065-1.659-.328v-.617h5.653v.617l-1.659.328-.203 2.065v7.351l.203 2.065 1.659.328v.637h-5.653v-.637z"/><path id="Vector_14" d="M190.608 22.73l1.437-.27.222-1.553V16.69l-.222-1.573-1.64-.27v-.637l3.608-.367-.222 1.843c.84-1.293 1.901-1.9 3.3-1.9 1.765 0 2.904 1.167 2.904 3.193v3.936l.202 1.553 1.457.27v.637h-4.814v-.637l1.167-.27.203-1.553v-3.444c0-1.37-.656-2.296-1.949-2.296-.781 0-1.351.222-2.258 1.225v4.506l.222 1.553 1.168.27v.637h-4.795v-.637h.01z"/><path id="Vector_15" d="M202.985 23.241l-.164-2.392h.898l.347 1.572c.637.29 1.129.454 1.901.454 1.109 0 1.804-.55 1.804-1.496 0-1.187-1.129-1.534-2.19-1.93-1.293-.53-2.808-.983-2.808-2.826 0-1.553 1.274-2.972 3.444-2.972a6.36 6.36 0 012.721.599l.203 2.392h-.898l-.453-1.62a4.199 4.199 0 00-1.823-.406c-1.081 0-1.698.454-1.698 1.37 0 1.129 1.148 1.476 2.151 1.862 1.457.55 2.827 1.004 2.827 2.904 0 1.717-1.39 3.068-3.464 3.068-.665.02-1.814-.183-2.798-.579z"/><path id="Vector_16" d="M211.881 21.582V15.07h-1.602v-.734l1.602-.328v-2.354l1.765-.328v2.885h2.499v.859h-2.499v5.837c0 1.041.367 1.514 1.129 1.514.328 0 .878-.106 1.35-.405l.386.656c-1.022.82-1.698 1.129-2.624 1.129-1.003 0-2.006-.512-2.006-2.22z"/><path id="Vector_17" d="M217.582 22.73l1.438-.27.202-1.553V16.69l-.202-1.573-1.64-.27v-.637l3.81-.367-.202 2.847v4.216l.202 1.553 1.438.27v.637h-5.036v-.637h-.01zm1.071-12.571c0-.695.569-1.293 1.293-1.293.695 0 1.293.57 1.293 1.312 0 .656-.531 1.274-1.293 1.274-.704-.01-1.293-.521-1.293-1.293z"/><path id="Vector_18" d="M224.432 21.582V15.07h-1.602v-.734l1.602-.328v-2.354l1.765-.328v2.885h2.499v.859h-2.499v5.837c0 1.041.367 1.514 1.129 1.514.328 0 .878-.106 1.351-.405l.386.656c-1.023.82-1.698 1.129-2.624 1.129-1.004 0-2.007-.512-2.007-2.22z"/><path id="Vector_19" d="M231.658 20.598V16.69l-.222-1.573-1.601-.27v-.637l3.791-.367-.202 2.847v3.444c0 1.408.656 2.276 1.948 2.276.878 0 1.679-.53 2.258-1.225V16.69l-.203-1.573-1.601-.27v-.637l3.791-.367-.222 2.847v4.216l.222 1.553 1.476.27v.637l-3.463.366.222-1.843c-.965 1.332-1.824 1.901-3.28 1.901-1.814.01-2.914-1.138-2.914-3.193z"/><path id="Vector_20" d="M242.907 21.582V15.07h-1.601v-.734l1.601-.328v-2.354l1.766-.328v2.885h2.498v.859h-2.498v5.837c0 1.041.366 1.514 1.128 1.514.328 0 .878-.106 1.351-.405l.386.656c-1.023.82-1.698 1.129-2.624 1.129-1.003 0-2.007-.512-2.007-2.22z"/><path id="Vector_21" d="M248.233 18.88c0-3.116 1.572-5.103 4.138-5.103 2.152 0 3.647 1.39 3.56 4.303h-5.923s-.019.29-.019.453c0 2.316 1.128 3.956 3.299 3.956.656 0 1.389-.164 2.113-.695l.405.55c-1.167 1.061-2.045 1.457-3.521 1.457-2.432 0-4.052-1.766-4.052-4.92zm4.467-1.62l1.389-.203c0-1.62-.762-2.46-1.882-2.46-1.148 0-1.948.859-2.17 2.663h2.663z"/><path id="Vector_22" d="M261.816 20.79c0-2.46.82-4.466 2.74-5.98.782-.618 1.911-1.091 2.75-1.091 1.389 0 2.209 1.042 2.209 3.155 0 1.881-.598 3.704-1.804 4.959-1.129 1.225-2.46 1.948-3.753 1.948-1.302 0-2.142-1.003-2.142-2.99zm4.94.512c.675-1.023 1.061-2.393 1.061-3.994 0-1.438-.309-2.335-1.225-2.335-.695 0-1.274.328-1.862 1.148-.733.984-1.167 2.77-1.167 4.265 0 1.37.414 2.19 1.254 2.19.723-.01 1.379-.435 1.939-1.274z"/><path id="Vector_23" d="M266.071 28.239l.386-1.766c.637.251 1.331.434 1.929.434.531 0 .946-.202 1.245-.656.289-.434.511-1.022.675-1.823l1.882-9.339h-1.824v-.878h2.007l.058-.27c.434-1.949.897-3.068 1.929-4.014.859-.8 1.949-1.205 2.788-1.205.512 0 .927.057 1.641.202l-.406 1.881c-.858-.386-1.736-.617-2.315-.617-.386 0-.82.125-1.225.57-.454.491-.734 1.475-.84 3.443h2.132v.878h-2.276l-1.679 8.5c-.289 1.408-.965 2.663-1.949 3.521-.945.84-1.9 1.274-2.933 1.274-.241.01-.858-.03-1.225-.135z"/><path id="Vector_24" d="M77.547 45.18l1.66-.328.202-2.065v-7.351l-.202-2.065-1.66-.328v-.627h5.654v.617l-1.66.328-.202 2.065v7.352l.203 2.064 1.659.328v.637h-5.654v-.627z"/><path id="Vector_25" d="M84.503 45.18l1.438-.27.222-1.554V39.14l-.222-1.572-1.64-.27v-.637l3.608-.367-.222 1.843c.84-1.293 1.9-1.9 3.3-1.9 1.765 0 2.903 1.167 2.903 3.193v3.936l.203 1.553 1.457.27v.637h-4.814v-.637l1.167-.27.203-1.553v-3.444c0-1.37-.656-2.296-1.95-2.296-.78 0-1.35.222-2.257 1.225v4.505l.222 1.554 1.168.27v.636h-4.795v-.636h.01z"/><path id="Vector_26" d="M97.122 44.032V37.52h-1.601v-.734l1.601-.328v-2.354l1.766-.328v2.885h2.499v.859h-2.5v5.836c0 1.042.367 1.515 1.13 1.515.328 0 .878-.106 1.35-.405l.386.656c-1.022.82-1.698 1.129-2.624 1.129-1.003-.01-2.007-.521-2.007-2.22z"/><path id="Vector_27" d="M102.448 41.33c0-3.116 1.572-5.103 4.139-5.103 2.151 0 3.646 1.39 3.56 4.303h-5.924s-.019.29-.019.453c0 2.316 1.128 3.956 3.299 3.956.656 0 1.389-.164 2.113-.695l.405.55c-1.167 1.061-2.045 1.457-3.521 1.457-2.431-.01-4.052-1.766-4.052-4.92zm4.467-1.62l1.389-.203c0-1.62-.762-2.46-1.881-2.46-1.149 0-1.949.859-2.171 2.663h2.663z"/><path id="Vector_28" d="M119.379 45.18l1.438-.27.222-1.554V39.14l-.222-1.572-1.64-.27v-.637l3.608-.367-.222 1.843c.839-1.293 1.901-1.9 3.3-1.9 1.765 0 2.903 1.167 2.903 3.193v3.936l.203 1.553 1.457.27v.637h-4.814v-.637l1.167-.27.203-1.553v-3.444c0-1.37-.656-2.296-1.949-2.296-.782 0-1.351.222-2.258 1.225v4.505l.222 1.554 1.168.27v.636h-4.795v-.636h.009z"/><path id="Vector_29" d="M131.323 43.762c0-.898.386-1.66 1.206-2.258.801-.598 2.113-.897 3.975-.897v-1.11c0-1.292-.782-2.045-2.026-2.045-.762 0-1.515.309-2.19.926l-.512-.55c.927-1.042 2.171-1.698 3.628-1.698 1.64 0 2.827.878 2.827 2.904v4.322l.222 1.554 1.37.27v.636l-3.358.367.367-2.257c-.762 1.389-1.737 2.315-3.136 2.315-1.35 0-2.373-.916-2.373-2.48zm5.181-.386v-1.988c-1.206 0-2.065.164-2.624.512-.55.308-.84.8-.84 1.437 0 .8.55 1.457 1.351 1.457.685 0 1.505-.521 2.113-1.418z"/><path id="Vector_30" d="M141.55 44.032V37.52h-1.602v-.734l1.602-.328v-2.354l1.765-.328v2.885h2.499v.859h-2.499v5.836c0 1.042.367 1.515 1.129 1.515.328 0 .878-.106 1.35-.405l.386.656c-1.022.82-1.698 1.129-2.624 1.129-1.003-.01-2.006-.521-2.006-2.22z"/><path id="Vector_31" d="M147.261 45.18l1.437-.27.203-1.554V39.14l-.203-1.572-1.64-.27v-.637l3.811-.367-.202 2.846v4.216l.202 1.554 1.438.27v.636h-5.036v-.636h-.01zm1.061-12.58c0-.695.569-1.293 1.293-1.293.695 0 1.293.569 1.293 1.312 0 .656-.531 1.273-1.293 1.273-.695 0-1.293-.511-1.293-1.293z"/><path id="Vector_32" d="M152.876 41.35c0-2.953 1.601-5.142 4.631-5.142 2.624 0 4.36 1.765 4.36 4.958 0 3.117-1.862 5.104-4.592 5.104-2.614-.01-4.399-1.872-4.399-4.92zm7.023-.164c0-2.72-.878-4.12-2.498-4.12-1.641 0-2.538 1.293-2.538 4.139 0 2.788.878 4.177 2.48 4.177 1.64 0 2.556-1.35 2.556-4.196z"/><path id="Vector_33" d="M162.591 45.18l1.437-.27.222-1.554V39.14l-.222-1.572-1.64-.27v-.637l3.608-.367-.221 1.843c.839-1.293 1.9-1.9 3.299-1.9 1.766 0 2.904 1.167 2.904 3.193v3.936l.203 1.553 1.456.27v.637h-4.814v-.637l1.168-.27.202-1.553v-3.444c0-1.37-.656-2.296-1.949-2.296-.781 0-1.35.222-2.257 1.225v4.505l.222 1.554 1.167.27v.636h-4.795v-.636h.01z"/><path id="Vector_34" d="M174.544 43.762c0-.898.386-1.66 1.206-2.258.801-.598 2.113-.897 3.975-.897v-1.11c0-1.292-.781-2.045-2.026-2.045-.762 0-1.515.309-2.19.926l-.511-.55c.926-1.042 2.17-1.698 3.627-1.698 1.64 0 2.827.878 2.827 2.904v4.322l.222 1.554 1.37.27v.636l-3.358.367.367-2.257c-.762 1.389-1.736 2.315-3.135 2.315-1.351 0-2.374-.916-2.374-2.48zm5.181-.386v-1.988c-1.206 0-2.065.164-2.624.512-.55.308-.839.8-.839 1.437 0 .8.55 1.457 1.35 1.457.676 0 1.496-.521 2.113-1.418z"/><path id="Vector_35" d="M184.134 45.18l1.437-.27.222-1.554v-9.339l-.222-1.572-1.64-.27v-.637l3.811-.366-.202 2.845v9.34l.221 1.553 1.409.27v.636h-5.036v-.636z"/><path id="Vector_36" d="M194.534 45.508l-.202-3.116h1.041l.406 2.151c.694.328 1.331.598 2.17.598 1.862 0 3.213-.897 3.213-2.44 0-1.718-1.64-2.355-3.213-2.953-1.948-.733-3.666-1.514-3.666-3.868 0-2.065 1.573-3.956 4.631-3.956 1.042 0 2.335.29 3.444.695l.222 3.096h-1.022l-.454-2.19c-.637-.385-1.621-.617-2.228-.617-2.026 0-3.03 1.129-3.03 2.296 0 1.66 1.438 2.132 2.866 2.702 2.093.839 4.052 1.717 4.052 4.235 0 2.44-1.969 4.032-4.921 4.032-.993.01-1.852-.096-3.309-.665z"/><path id="Vector_37" d="M205.233 44.032V37.52h-1.601v-.734l1.601-.328v-2.354l1.766-.328v2.885h2.499v.859h-2.499v5.836c0 1.042.366 1.515 1.129 1.515.328 0 .878-.106 1.35-.405l.386.656c-1.022.82-1.698 1.129-2.624 1.129-1.003-.01-2.007-.521-2.007-2.22z"/><path id="Vector_38" d="M212.392 43.048V39.13l-.222-1.573-1.602-.27v-.627l3.792-.367-.203 2.846v3.445c0 1.408.656 2.276 1.949 2.276.878 0 1.679-.53 2.258-1.225V39.15l-.203-1.572-1.601-.27v-.647l3.791-.367-.222 2.846v4.216l.222 1.554 1.476.27v.636l-3.463.367.222-1.843c-.965 1.332-1.824 1.901-3.281 1.901-1.813 0-2.913-1.148-2.913-3.193z"/><path id="Vector_39" d="M222.367 41.678c0-3.194 2.007-5.451 4.921-5.451a6.61 6.61 0 011.572.183v-2.392l-.222-1.573-1.64-.27v-.637l3.83-.366-.222 2.845v9.34l.222 1.553 1.332.27v.636l-3.3.435.309-1.95c-.945 1.274-1.901 1.95-3.261 1.95-2.064-.01-3.541-1.785-3.541-4.573zm6.493 1.881V37.5c-.579-.24-1.022-.366-1.659-.366-1.93 0-2.991 1.601-2.991 4.12 0 2.228.82 3.588 2.422 3.588.714-.01 1.466-.337 2.228-1.283z"/><path id="Vector_40" d="M233.24 45.18l1.438-.27.202-1.554V39.14l-.202-1.572-1.64-.27v-.637l3.811-.367-.203 2.846v4.216l.203 1.554 1.437.27v.636h-5.036v-.636h-.01zm1.071-12.58c0-.695.569-1.293 1.293-1.293.695 0 1.293.569 1.293 1.312 0 .656-.531 1.273-1.293 1.273-.704 0-1.293-.511-1.293-1.293z"/><path id="Vector_41" d="M238.913 41.33c0-3.116 1.573-5.103 4.139-5.103 2.151 0 3.647 1.39 3.56 4.303h-5.924s-.019.29-.019.453c0 2.316 1.129 3.956 3.299 3.956.656 0 1.39-.164 2.113-.695l.405.55c-1.167 1.061-2.045 1.457-3.521 1.457-2.431-.01-4.052-1.766-4.052-4.92zm4.467-1.62l1.389-.203c0-1.62-.762-2.46-1.881-2.46-1.148 0-1.949.859-2.171 2.663h2.663z"/><path id="Vector_42" d="M248.194 45.691l-.164-2.393h.897l.348 1.573c.636.29 1.128.453 1.9.453 1.11 0 1.804-.55 1.804-1.495 0-1.187-1.128-1.534-2.19-1.93-1.293-.53-2.807-.983-2.807-2.826 0-1.553 1.273-2.972 3.444-2.972.926 0 1.823.184 2.721.599l.202 2.392h-.897l-.453-1.62a4.202 4.202 0 00-1.824-.406c-1.09 0-1.698.454-1.698 1.37 0 1.129 1.148 1.476 2.152 1.862 1.456.55 2.826 1.003 2.826 2.904 0 1.717-1.389 3.068-3.463 3.068-.666.02-1.814-.193-2.798-.579z"/><path id="Vector_43" d="M259.81 43.762c0-.898.386-1.66 1.206-2.258.8-.598 2.112-.897 3.974-.897v-1.11c0-1.292-.781-2.045-2.026-2.045-.762 0-1.514.309-2.19.926l-.511-.55c.917-1.042 2.171-1.698 3.628-1.698 1.64 0 2.826.878 2.826 2.904v4.322l.222 1.554 1.37.27v.636l-3.357.367.366-2.257c-.762 1.389-1.736 2.315-3.135 2.315-1.341 0-2.373-.916-2.373-2.48zm5.19-.386v-1.988c-1.206 0-2.064.164-2.624.512-.55.308-.839.8-.839 1.437 0 .8.55 1.457 1.35 1.457.676 0 1.496-.521 2.113-1.418z"/><path id="Vector_44" d="M270.036 44.032V37.52h-1.601v-.734l1.601-.328v-2.354l1.766-.328v2.885h2.498v.859h-2.498v5.836c0 1.042.366 1.515 1.128 1.515.328 0 .878-.106 1.351-.405l.386.656c-1.023.82-1.698 1.129-2.624 1.129-.994-.01-2.007-.521-2.007-2.22z"/><path id="Vector_45" d="M279.404 45.18l1.659-.328.203-2.065v-7.351l-.203-2.065-1.659-.328v-.627h4.428l1.042 3.01 3.097 8.046 3.174-8.065.965-2.991h4.428v.617l-1.64.328-.222 2.065v7.352l.222 2.064 1.64.328v.637h-5.653v-.637l1.64-.328.222-2.064v-8.973l-3.522 8.973-1.042 3.029h-1.331l-1.109-3.03-3.541-8.972v8.973l.222 2.064 1.64.328v.637h-4.65v-.627h-.01z"/><path id="Vector_46" d="M297.416 41.35c0-2.953 1.602-5.142 4.631-5.142 2.624 0 4.361 1.765 4.361 4.958 0 3.117-1.862 5.104-4.593 5.104-2.614-.01-4.399-1.872-4.399-4.92zm7.024-.164c0-2.72-.878-4.12-2.499-4.12-1.64 0-2.537 1.293-2.537 4.139 0 2.788.877 4.177 2.479 4.177 1.64 0 2.557-1.35 2.557-4.196z"/><path id="Vector_47" d="M307.343 45.18l1.438-.27.222-1.554V39.14l-.222-1.572-1.64-.27v-.637l3.608-.367-.222 1.843c.84-1.293 1.901-1.9 3.3-1.9 1.765 0 2.904 1.167 2.904 3.193v3.936l.202 1.553 1.457.27v.637h-4.814v-.637l1.167-.27.203-1.553v-3.444c0-1.37-.656-2.296-1.949-2.296-.781 0-1.351.222-2.258 1.225v4.505l.222 1.554 1.168.27v.636h-4.795v-.636h.009z"/><path id="Vector_48" d="M320.155 44.032V37.52h-1.601v-.734l1.601-.328v-2.354l1.766-.328v2.885h2.499v.859h-2.499v5.836c0 1.042.367 1.515 1.129 1.515.328 0 .878-.106 1.35-.405l.386.656c-1.022.82-1.698 1.129-2.624 1.129-1.003-.01-2.007-.521-2.007-2.22z"/><path id="Vector_49" d="M325.481 41.33c0-3.116 1.573-5.103 4.139-5.103 2.151 0 3.647 1.39 3.56 4.303h-5.924s-.019.29-.019.453c0 2.316 1.129 3.956 3.299 3.956.656 0 1.39-.164 2.113-.695l.405.55c-1.167 1.061-2.045 1.457-3.521 1.457-2.431-.01-4.052-1.766-4.052-4.92zm4.467-1.62l1.389-.203c0-1.62-.762-2.46-1.881-2.46-1.148 0-1.949.859-2.171 2.663h2.663z"/><path id="Vector_50" d="M342.104 41.33c0-3.116 1.572-5.103 4.139-5.103 2.151 0 3.646 1.39 3.56 4.303h-5.924s-.019.29-.019.453c0 2.316 1.128 3.956 3.299 3.956.656 0 1.389-.164 2.113-.695l.405.55c-1.167 1.061-2.045 1.457-3.521 1.457-2.431-.01-4.052-1.766-4.052-4.92zm4.467-1.62l1.389-.203c0-1.62-.762-2.46-1.881-2.46-1.148 0-1.949.859-2.171 2.663h2.663z"/><path id="Vector_51" d="M351.375 50.67v-.695l2.045-.328.878-1.438.878-2.064-2.865-7.005-.839-1.601-.927-.241v-.637h4.487v.637l-1.313.24.492 1.602 1.843 4.728 1.717-4.728.454-1.601-1.293-.241v-.637h3.686v.637l-1.042.24-.782 1.602-4.467 11.8-2.952-.27z"/></g></g></svg>