<svg width="363" height="72" fill="none" xmlns="http://www.w3.org/2000/svg"><g id="museum-logo" clip-path="url(#clip0_546_70)"><path fill="#fff" d="M0 0h363v72H0z"/><g id="Group 81"><g id="Group"><path id="Vector" d="M72 0H0v72h72V0z" fill="#231F20"/><path id="Vector_2" d="M56.55 3.385l-20.3 46.24-20.3-46.24-12.01 61.24h7.745l6.79-38.82L36.25 65.75l17.775-39.945 6.79 38.82h7.745L56.55 3.385z" fill="#008CCF"/><path id="Vector_3" d="M72 43.705H49.29l-2.54 5.78H72v-5.78z" fill="#00C2F3"/></g><g id="Group_2" fill="#231F20"><g id="Group_3"><g id="Group_4"><path id="Vector_4" d="M109.275 60.07l-1.125-17.325-4.875 17.36H97.2l-4.875-17.36L91.2 60.07h-5.585l1.875-25.875h8.285l5.025 17.81 5.06-17.81h8.06l1.875 25.875h-6.525.005z"/><path id="Vector_5" d="M131.71 60.485c-6.335 0-10.76-3.415-10.76-10.65V34.2h6.45v15.6c0 3.335 1.5 5.285 4.385 5.285s4.385-1.915 4.385-5.21V34.2h6.45v15.6c0 7.2-4.65 10.685-10.91 10.685z"/><path id="Vector_6" d="M156.38 60.37c-3.485 0-6.41-.75-9.035-1.95l.94-5.475c2.66 1.425 5.625 2.4 8.21 2.4 1.835 0 3.11-.79 3.11-2.325 0-1.535-.75-2.135-4.385-3.525-5.175-1.985-7.425-3.675-7.425-7.95 0-4.985 3.9-7.65 8.85-7.65 3.375 0 5.55.635 7.8 1.725l-.975 5.4c-2.325-1.35-4.76-2.1-6.75-2.1-1.99 0-2.885.825-2.885 2.025 0 1.31.71 1.95 3.935 3.185 5.66 2.06 7.875 4.015 7.875 8.135 0 5.625-4.125 8.1-9.26 8.1l-.005.005z"/><path id="Vector_7" d="M170.645 60.07V34.195h16.125v5.175h-9.825v4.875h7.5l.825 5.135h-8.325v5.475h10.16v5.21h-16.46v.005z"/><path id="Vector_8" d="M202.64 60.485c-6.335 0-10.76-3.415-10.76-10.65V34.2h6.45v15.6c0 3.335 1.5 5.285 4.385 5.285s4.385-1.915 4.385-5.21V34.2h6.45v15.6c0 7.2-4.65 10.685-10.91 10.685z"/><path id="Vector_9" d="M242.32 60.07l-1.125-17.325-4.875 17.36h-6.075l-4.875-17.36-1.125 17.325h-5.585l1.875-25.875h8.285l5.025 17.81 5.06-17.81h8.06l1.875 25.875h-6.525.005z"/><path id="Vector_10" d="M264.17 60.38c-4.185 0-7.255-3.005-7.255-7.875s3.1-7.935 7.285-7.935c4.185 0 7.315 3.04 7.315 7.905s-3.13 7.905-7.345 7.905zm.03-11.995c-1.8 0-2.76 1.61-2.76 4.09 0 2.48.99 4.125 2.76 4.125 1.77 0 2.79-1.645 2.79-4.09s-.99-4.125-2.79-4.125z"/><path id="Vector_11" d="M281.34 41.475c-1.27 0-1.86.62-1.86 1.86v1.55h2.76l.56 3.81h-3.315V60.07h-4.68V48.695h-2.11v-3.81h2.11V42.9c0-3.69 2.265-5.055 5.765-5.055.715 0 1.335.095 1.89.185l.56 3.595c-.435-.06-.99-.155-1.675-.155l-.005.005z"/><path id="Vector_12" d="M298.45 34.085h7.05l9 25.2-6.485 1.05-1.91-5.625h-8.925l-1.725 5.36h-6.3l9.3-25.985h-.005zm.265 15.6h5.81l-2.885-9-2.925 9z"/><path id="Vector_13" d="M332.235 60.335l-5.66-9.15h-1.61v8.885h-6.375V34.195h9.035c6.26 0 9.935 2.85 9.935 8.175 0 3.6-1.8 6.035-4.875 7.35l6.335 9.525-6.785 1.09zm-5.25-21.3h-2.06v7.535h1.985c2.775 0 4.35-1.35 4.35-3.825s-1.5-3.71-4.275-3.71z"/><path id="Vector_14" d="M354.475 39.635V60.07h-6.45V39.635h-7.31v-5.44h20.475l.9 5.44h-7.615z"/></g><g id="Group_5"><path id="Vector_15" d="M109.275 60.07l-1.125-17.325-4.875 17.36H97.2l-4.875-17.36L91.2 60.07h-5.585l1.875-25.875h8.285l5.025 17.81 5.06-17.81h8.06l1.875 25.875h-6.525.005z"/><path id="Vector_16" d="M131.71 60.485c-6.335 0-10.76-3.415-10.76-10.65V34.2h6.45v15.6c0 3.335 1.5 5.285 4.385 5.285s4.385-1.915 4.385-5.21V34.2h6.45v15.6c0 7.2-4.65 10.685-10.91 10.685z"/><path id="Vector_17" d="M156.38 60.37c-3.485 0-6.41-.75-9.035-1.95l.94-5.475c2.66 1.425 5.625 2.4 8.21 2.4 1.835 0 3.11-.79 3.11-2.325 0-1.535-.75-2.135-4.385-3.525-5.175-1.985-7.425-3.675-7.425-7.95 0-4.985 3.9-7.65 8.85-7.65 3.375 0 5.55.635 7.8 1.725l-.975 5.4c-2.325-1.35-4.76-2.1-6.75-2.1-1.99 0-2.885.825-2.885 2.025 0 1.31.71 1.95 3.935 3.185 5.66 2.06 7.875 4.015 7.875 8.135 0 5.625-4.125 8.1-9.26 8.1l-.005.005z"/><path id="Vector_18" d="M170.645 60.07V34.195h16.125v5.175h-9.825v4.875h7.5l.825 5.135h-8.325v5.475h10.16v5.21h-16.46v.005z"/><path id="Vector_19" d="M202.64 60.485c-6.335 0-10.76-3.415-10.76-10.65V34.2h6.45v15.6c0 3.335 1.5 5.285 4.385 5.285s4.385-1.915 4.385-5.21V34.2h6.45v15.6c0 7.2-4.65 10.685-10.91 10.685z"/><path id="Vector_20" d="M242.32 60.07l-1.125-17.325-4.875 17.36h-6.075l-4.875-17.36-1.125 17.325h-5.585l1.875-25.875h8.285l5.025 17.81 5.06-17.81h8.06l1.875 25.875h-6.525.005z"/><path id="Vector_21" d="M264.17 60.38c-4.185 0-7.255-3.005-7.255-7.875s3.1-7.935 7.285-7.935c4.185 0 7.315 3.04 7.315 7.905s-3.13 7.905-7.345 7.905zm.03-11.995c-1.8 0-2.76 1.61-2.76 4.09 0 2.48.99 4.125 2.76 4.125 1.77 0 2.79-1.645 2.79-4.09s-.99-4.125-2.79-4.125z"/><path id="Vector_22" d="M281.34 41.475c-1.27 0-1.86.62-1.86 1.86v1.55h2.76l.56 3.81h-3.315V60.07h-4.68V48.695h-2.11v-3.81h2.11V42.9c0-3.69 2.265-5.055 5.765-5.055.715 0 1.335.095 1.89.185l.56 3.595c-.435-.06-.99-.155-1.675-.155l-.005.005z"/><path id="Vector_23" d="M298.45 34.085h7.05l9 25.2-6.485 1.05-1.91-5.625h-8.925l-1.725 5.36h-6.3l9.3-25.985h-.005zm.265 15.6h5.81l-2.885-9-2.925 9z"/><path id="Vector_24" d="M332.235 60.335l-5.66-9.15h-1.61v8.885h-6.375V34.195h9.035c6.26 0 9.935 2.85 9.935 8.175 0 3.6-1.8 6.035-4.875 7.35l6.335 9.525-6.785 1.09zm-5.25-21.3h-2.06v7.535h1.985c2.775 0 4.35-1.35 4.35-3.825s-1.5-3.71-4.275-3.71z"/><path id="Vector_25" d="M354.475 39.635V60.07h-6.45V39.635h-7.31v-5.44h20.475l.9 5.44h-7.615z"/></g></g><g id="Group_6"><g id="Group_7"><path id="Vector_26" d="M101.75 23.795l-.85-11.03-4.275 11.085H95.14l-4.275-11.085-.83 11.03h-1.74l1.09-13.66h2.295l4.255 11.205 4.255-11.205h2.275l1.07 13.66h-1.785z"/><path id="Vector_27" d="M107.23 12.45c-.615 0-1.13-.495-1.13-1.11 0-.615.515-1.13 1.13-1.13.615 0 1.11.515 1.11 1.13 0 .615-.495 1.11-1.11 1.11zm-.89 11.345V14.35h1.76v9.445h-1.76z"/><path id="Vector_28" d="M117.345 23.795l-.22-1.365c-.715.85-1.685 1.565-3.07 1.565-2.04 0-3.72-1.485-3.72-4.65 0-3.445 1.98-5.11 4.275-5.11.93 0 1.78.18 2.375.415V9.78l1.76-.275V23.8h-1.405l.005-.005zm-.355-7.545c-.735-.375-1.305-.535-2.315-.535-1.485 0-2.555 1.21-2.555 3.545 0 2.08.93 3.165 2.2 3.165 1.09 0 1.92-.655 2.675-1.665v-4.515l-.005.005z"/><path id="Vector_29" d="M128.005 23.795l-.22-1.365c-.715.85-1.685 1.565-3.07 1.565-2.04 0-3.72-1.485-3.72-4.65 0-3.445 1.98-5.11 4.275-5.11.93 0 1.78.18 2.375.415V9.78l1.76-.275V23.8H128l.005-.005zm-.355-7.545c-.735-.375-1.305-.535-2.315-.535-1.485 0-2.555 1.21-2.555 3.545 0 2.08.93 3.165 2.2 3.165 1.09 0 1.92-.655 2.675-1.665v-4.515l-.005.005z"/><path id="Vector_30" d="M132.18 23.795V9.775l1.76-.275v14.295h-1.76z"/><path id="Vector_31" d="M140.59 23.99c-2.455 0-4.375-1.485-4.375-4.95 0-3.03 1.78-4.89 4.16-4.89 2.75 0 4.02 2.12 4.02 4.73v.375h-6.415c.06 2.195 1.11 3.225 2.75 3.225 1.365 0 2.355-.535 3.385-1.345l.26 1.585c-1.01.79-2.22 1.265-3.78 1.265l-.005.005zm-2.535-6.06h4.555c-.22-1.525-.89-2.395-2.255-2.395-1.09 0-2.02.79-2.295 2.395h-.005z"/><path id="Vector_32" d="M150.35 23.91c-1.425 0-2.435-.22-3.68-.595V9.775l1.76-.275v5.96c.635-.655 1.545-1.305 2.83-1.305 2.04 0 3.72 1.505 3.72 4.655 0 3.445-1.9 5.11-4.635 5.11l.005-.01zm.655-8.195c-.99 0-1.86.655-2.575 1.545v4.83c.595.22 1.03.315 1.9.315 1.84 0 2.87-1.09 2.87-3.525 0-2.06-.93-3.165-2.2-3.165h.005z"/><path id="Vector_33" d="M163.47 23.795l-.22-1.365c-.89.83-2.02 1.565-3.345 1.565-1.8 0-2.73-1.07-2.73-2.77v-6.87h1.76v6.435c0 .97.415 1.625 1.445 1.625.93 0 1.88-.615 2.73-1.525v-6.535h1.76V23.8h-1.405l.005-.005z"/><path id="Vector_34" d="M169.335 18.21v5.585h-1.76V14.35h1.405l.295 1.92c.675-1.07 1.76-2.04 3.305-2.12l.275 1.685c-1.565.08-2.89 1.13-3.525 2.375h.005z"/><path id="Vector_35" d="M178.83 24.785c-.77 2.1-1.8 2.615-3.19 2.615-.375 0-.575-.04-.75-.08l-.255-1.605c.295.08.655.14.93.14.79 0 1.325-.375 1.705-1.385l.24-.635-3.445-9.345 1.78-.275 2.535 7.485 2.475-7.345h1.84l-3.86 10.435-.005-.005z"/><path id="Vector_36" d="M195.225 24.05c-3.84 0-6.315-2.85-6.315-7.07 0-4.22 2.515-7.11 6.355-7.11 1.625 0 2.83.415 3.88 1.13l-.275 1.9c-.99-.75-2.16-1.325-3.625-1.325-2.77 0-4.415 2.1-4.415 5.385 0 3.285 1.665 5.365 4.415 5.365 1.465 0 2.75-.575 3.84-1.365l.275 1.76c-1.05.77-2.575 1.325-4.14 1.325l.005.005z"/><path id="Vector_37" d="M205.3 23.99c-2.515 0-4.335-1.8-4.335-4.91 0-3.11 1.82-4.93 4.335-4.93 2.515 0 4.395 1.82 4.395 4.93 0 3.11-1.86 4.91-4.395 4.91zm0-8.375c-1.705 0-2.555 1.485-2.555 3.465 0 1.98.89 3.445 2.555 3.445s2.615-1.465 2.615-3.445c0-1.98-.91-3.465-2.615-3.465z"/><path id="Vector_38" d="M211.995 23.795V9.775l1.76-.275v14.295h-1.76z"/><path id="Vector_39" d="M216.565 23.795V9.775l1.76-.275v14.295h-1.76z"/><path id="Vector_40" d="M224.98 23.99c-2.455 0-4.375-1.485-4.375-4.95 0-3.03 1.78-4.89 4.16-4.89 2.75 0 4.02 2.12 4.02 4.73v.375h-6.415c.06 2.195 1.11 3.225 2.75 3.225 1.365 0 2.355-.535 3.385-1.345l.26 1.585c-1.01.79-2.22 1.265-3.78 1.265l-.005.005zm-2.535-6.06H227c-.22-1.525-.89-2.395-2.255-2.395-1.09 0-2.02.79-2.295 2.395h-.005z"/><path id="Vector_41" d="M234.33 27.395c-2.455 0-4.415-.77-4.415-2.435 0-.97.675-1.725 2-2.435-.415-.295-.595-.635-.595-.99 0-.455.355-.89.99-1.285-1.07-.535-1.76-1.525-1.76-2.81 0-2.04 1.705-3.285 3.625-3.285.93 0 1.78.295 2.435.81l2.395-.75.255 1.585-1.8.18c.24.435.375.93.375 1.465 0 2.02-1.705 3.245-3.625 3.245-.255 0-.495-.02-.715-.06-.275.18-.475.395-.475.575 0 .335.335.415 2 .715l.675.12c2 .355 3.245.99 3.245 2.455 0 1.98-2.16 2.91-4.615 2.91l.005-.01zm-1.15-4.335c-1.09.555-1.585 1.11-1.585 1.76 0 .75.97 1.305 2.81 1.305s2.87-.635 2.87-1.425c0-.575-.435-.97-1.78-1.21l-1.13-.2c-.515-.1-.81-.14-1.19-.235l.005.005zm.99-7.625c-1.19 0-1.92.91-1.92 2.06 0 1.09.75 1.94 1.92 1.94s1.96-.89 1.96-2.02-.79-1.98-1.96-1.98z"/><path id="Vector_42" d="M244.685 23.99c-2.455 0-4.375-1.485-4.375-4.95 0-3.03 1.78-4.89 4.16-4.89 2.75 0 4.02 2.12 4.02 4.73v.375h-6.415c.06 2.195 1.11 3.225 2.75 3.225 1.365 0 2.355-.535 3.385-1.345l.26 1.585c-1.01.79-2.22 1.265-3.78 1.265l-.005.005zm-2.535-6.06h4.555c-.22-1.525-.89-2.395-2.255-2.395-1.09 0-2.02.79-2.295 2.395h-.005z"/></g><g id="Group_8"><path id="Vector_43" d="M101.75 23.795l-.85-11.03-4.275 11.085H95.14l-4.275-11.085-.83 11.03h-1.74l1.09-13.66h2.295l4.255 11.205 4.255-11.205h2.275l1.07 13.66h-1.785z"/><path id="Vector_44" d="M107.23 12.45c-.615 0-1.13-.495-1.13-1.11 0-.615.515-1.13 1.13-1.13.615 0 1.11.515 1.11 1.13 0 .615-.495 1.11-1.11 1.11zm-.89 11.345V14.35h1.76v9.445h-1.76z"/><path id="Vector_45" d="M117.345 23.795l-.22-1.365c-.715.85-1.685 1.565-3.07 1.565-2.04 0-3.72-1.485-3.72-4.65 0-3.445 1.98-5.11 4.275-5.11.93 0 1.78.18 2.375.415V9.78l1.76-.275V23.8h-1.405l.005-.005zm-.355-7.545c-.735-.375-1.305-.535-2.315-.535-1.485 0-2.555 1.21-2.555 3.545 0 2.08.93 3.165 2.2 3.165 1.09 0 1.92-.655 2.675-1.665v-4.515l-.005.005z"/><path id="Vector_46" d="M128.005 23.795l-.22-1.365c-.715.85-1.685 1.565-3.07 1.565-2.04 0-3.72-1.485-3.72-4.65 0-3.445 1.98-5.11 4.275-5.11.93 0 1.78.18 2.375.415V9.78l1.76-.275V23.8H128l.005-.005zm-.355-7.545c-.735-.375-1.305-.535-2.315-.535-1.485 0-2.555 1.21-2.555 3.545 0 2.08.93 3.165 2.2 3.165 1.09 0 1.92-.655 2.675-1.665v-4.515l-.005.005z"/><path id="Vector_47" d="M132.18 23.795V9.775l1.76-.275v14.295h-1.76z"/><path id="Vector_48" d="M140.59 23.99c-2.455 0-4.375-1.485-4.375-4.95 0-3.03 1.78-4.89 4.16-4.89 2.75 0 4.02 2.12 4.02 4.73v.375h-6.415c.06 2.195 1.11 3.225 2.75 3.225 1.365 0 2.355-.535 3.385-1.345l.26 1.585c-1.01.79-2.22 1.265-3.78 1.265l-.005.005zm-2.535-6.06h4.555c-.22-1.525-.89-2.395-2.255-2.395-1.09 0-2.02.79-2.295 2.395h-.005z"/><path id="Vector_49" d="M150.35 23.91c-1.425 0-2.435-.22-3.68-.595V9.775l1.76-.275v5.96c.635-.655 1.545-1.305 2.83-1.305 2.04 0 3.72 1.505 3.72 4.655 0 3.445-1.9 5.11-4.635 5.11l.005-.01zm.655-8.195c-.99 0-1.86.655-2.575 1.545v4.83c.595.22 1.03.315 1.9.315 1.84 0 2.87-1.09 2.87-3.525 0-2.06-.93-3.165-2.2-3.165h.005z"/><path id="Vector_50" d="M163.47 23.795l-.22-1.365c-.89.83-2.02 1.565-3.345 1.565-1.8 0-2.73-1.07-2.73-2.77v-6.87h1.76v6.435c0 .97.415 1.625 1.445 1.625.93 0 1.88-.615 2.73-1.525v-6.535h1.76V23.8h-1.405l.005-.005z"/><path id="Vector_51" d="M169.335 18.21v5.585h-1.76V14.35h1.405l.295 1.92c.675-1.07 1.76-2.04 3.305-2.12l.275 1.685c-1.565.08-2.89 1.13-3.525 2.375h.005z"/><path id="Vector_52" d="M178.83 24.785c-.77 2.1-1.8 2.615-3.19 2.615-.375 0-.575-.04-.75-.08l-.255-1.605c.295.08.655.14.93.14.79 0 1.325-.375 1.705-1.385l.24-.635-3.445-9.345 1.78-.275 2.535 7.485 2.475-7.345h1.84l-3.86 10.435-.005-.005z"/><path id="Vector_53" d="M195.225 24.05c-3.84 0-6.315-2.85-6.315-7.07 0-4.22 2.515-7.11 6.355-7.11 1.625 0 2.83.415 3.88 1.13l-.275 1.9c-.99-.75-2.16-1.325-3.625-1.325-2.77 0-4.415 2.1-4.415 5.385 0 3.285 1.665 5.365 4.415 5.365 1.465 0 2.75-.575 3.84-1.365l.275 1.76c-1.05.77-2.575 1.325-4.14 1.325l.005.005z"/><path id="Vector_54" d="M205.3 23.99c-2.515 0-4.335-1.8-4.335-4.91 0-3.11 1.82-4.93 4.335-4.93 2.515 0 4.395 1.82 4.395 4.93 0 3.11-1.86 4.91-4.395 4.91zm0-8.375c-1.705 0-2.555 1.485-2.555 3.465 0 1.98.89 3.445 2.555 3.445s2.615-1.465 2.615-3.445c0-1.98-.91-3.465-2.615-3.465z"/><path id="Vector_55" d="M211.995 23.795V9.775l1.76-.275v14.295h-1.76z"/><path id="Vector_56" d="M216.565 23.795V9.775l1.76-.275v14.295h-1.76z"/><path id="Vector_57" d="M224.98 23.99c-2.455 0-4.375-1.485-4.375-4.95 0-3.03 1.78-4.89 4.16-4.89 2.75 0 4.02 2.12 4.02 4.73v.375h-6.415c.06 2.195 1.11 3.225 2.75 3.225 1.365 0 2.355-.535 3.385-1.345l.26 1.585c-1.01.79-2.22 1.265-3.78 1.265l-.005.005zm-2.535-6.06H227c-.22-1.525-.89-2.395-2.255-2.395-1.09 0-2.02.79-2.295 2.395h-.005z"/><path id="Vector_58" d="M234.33 27.395c-2.455 0-4.415-.77-4.415-2.435 0-.97.675-1.725 2-2.435-.415-.295-.595-.635-.595-.99 0-.455.355-.89.99-1.285-1.07-.535-1.76-1.525-1.76-2.81 0-2.04 1.705-3.285 3.625-3.285.93 0 1.78.295 2.435.81l2.395-.75.255 1.585-1.8.18c.24.435.375.93.375 1.465 0 2.02-1.705 3.245-3.625 3.245-.255 0-.495-.02-.715-.06-.275.18-.475.395-.475.575 0 .335.335.415 2 .715l.675.12c2 .355 3.245.99 3.245 2.455 0 1.98-2.16 2.91-4.615 2.91l.005-.01zm-1.15-4.335c-1.09.555-1.585 1.11-1.585 1.76 0 .75.97 1.305 2.81 1.305s2.87-.635 2.87-1.425c0-.575-.435-.97-1.78-1.21l-1.13-.2c-.515-.1-.81-.14-1.19-.235l.005.005zm.99-7.625c-1.19 0-1.92.91-1.92 2.06 0 1.09.75 1.94 1.92 1.94s1.96-.89 1.96-2.02-.79-1.98-1.96-1.98z"/><path id="Vector_59" d="M244.685 23.99c-2.455 0-4.375-1.485-4.375-4.95 0-3.03 1.78-4.89 4.16-4.89 2.75 0 4.02 2.12 4.02 4.73v.375h-6.415c.06 2.195 1.11 3.225 2.75 3.225 1.365 0 2.355-.535 3.385-1.345l.26 1.585c-1.01.79-2.22 1.265-3.78 1.265l-.005.005zm-2.535-6.06h4.555c-.22-1.525-.89-2.395-2.255-2.395-1.09 0-2.02.79-2.295 2.395h-.005z"/></g></g></g></g></g><defs><clipPath id="clip0_546_70"><path fill="#fff" d="M0 0h363v72H0z"/></clipPath></defs></svg>