<svg width="261" height="72" xmlns="http://www.w3.org/2000/svg"><g fill="none" fill-rule="evenodd"><path d="M175.639 36.484c-1.166 0-2.086.653-2.944 2.098-.003-.023-.006-.045-.007-.067l.002-.24c.008-.103.02-.208.03-.313.027-.227.052-.455.08-.682.036-.335.075-.668.112-1l-3.608.368v.635l1.64.267.225 1.578v4.222l-.225 1.558-1.434.267v.635h5.266v-.635l-1.64-.267-.224-1.558v-3.877c0-.027.002-.054.004-.083.593-.735 1.39-.999 2.004-.999.43 0 .862.143 1.21.306l.513-2.07a3.06 3.06 0 0 0-1.004-.143m76.031-22.49c-1.165 0-2.085.653-2.943 2.097-.003-.021-.007-.044-.008-.065l.003-.24c.007-.104.018-.209.03-.314.026-.227.052-.455.08-.683.036-.334.075-.667.112-1l-3.608.37v.634l1.64.266.225 1.579v4.222l-.225 1.558-1.434.267v.635h5.266v-.635l-1.64-.267-.224-1.558v-3.877c0-.026.002-.054.004-.083.593-.734 1.39-.999 2.004-.999.43 0 .862.143 1.21.307l.513-2.071a3.063 3.063 0 0 0-1.005-.143m8.194 0c-1.165 0-2.086.653-2.944 2.097l-.008-.065.004-.24c.007-.104.019-.209.03-.314l.079-.683.112-1-3.608.37v.634l1.64.266.226 1.579v4.222l-.225 1.558-1.435.267v.635h5.266v-.635l-1.639-.267-.225-1.558v-3.877c0-.026.002-.054.005-.083.593-.734 1.39-.999 2.003-.999.431 0 .862.143 1.21.307l.514-2.071a3.06 3.06 0 0 0-1.005-.143m-182.192 8.69 1.663-.328.205-2.072v-7.368l-.205-2.072-1.663-.329V9.9h4.433l1.047 3.017 3.099 8.065 3.181-8.085.964-2.997h4.433v.616l-1.642.329-.226 2.072v7.368l.226 2.072 1.642.328v.636h-5.664v-.636l1.642-.328.226-2.072v-8.99l-3.53 8.99-1.047 3.036h-1.334l-1.108-3.036-3.55-8.99v8.99l.226 2.072 1.641.328v.636h-4.659zm19.798-12.6a1.3 1.3 0 0 1 1.293-1.293c.699 0 1.294.574 1.294 1.313 0 .657-.533 1.273-1.294 1.273-.697 0-1.293-.513-1.293-1.293Zm-1.066 12.6 1.437-.267.204-1.559V16.63l-.204-1.58-1.643-.267v-.637l3.817-.367-.205 2.851v4.228l.205 1.56 1.437.266v.637h-5.048v-.637Zm12.363-1.621v-6.075c-.574-.246-1.026-.369-1.663-.369-1.929 0-2.995 1.601-2.995 4.125 0 2.237.82 3.592 2.422 3.592.717 0 1.477-.329 2.236-1.273m-6.506-1.887c0-3.202 2.012-5.46 4.927-5.46a6.86 6.86 0 0 1 1.58.184v-2.4l-.227-1.581-1.641-.267v-.635l3.837-.37-.226 2.853v9.357l.226 1.56 1.334.267v.636l-3.304.432.307-1.95c-.942 1.273-1.907 1.95-3.262 1.95-2.072 0-3.55-1.785-3.55-4.576m17.056 1.887v-6.075c-.575-.246-1.026-.369-1.663-.369-1.93 0-2.996 1.601-2.996 4.125 0 2.237.821 3.592 2.422 3.592.718 0 1.477-.329 2.237-1.273m-6.506-1.887c0-3.202 2.011-5.46 4.925-5.46.575 0 1.026.062 1.58.184v-2.4l-.225-1.581-1.642-.267v-.635l3.838-.37-.226 2.853v9.357l.226 1.56 1.334.267v.636l-3.304.432.307-1.95c-.943 1.273-1.908 1.95-3.263 1.95-2.073 0-3.55-1.785-3.55-4.576m11.105 3.508 1.437-.266.226-1.56V11.5l-.226-1.581-1.641-.266v-.636l3.817-.37-.206 2.853v9.357l.226 1.56 1.416.267v.636h-5.049zm10.258-5.479L135.57 17c0-1.622-.76-2.463-1.888-2.463-1.148 0-1.948.863-2.175 2.668h2.668Zm-4.474 1.62c0-3.118 1.58-5.11 4.146-5.11 2.154 0 3.653 1.397 3.57 4.31h-5.93s-.02.287-.02.453c0 2.318 1.129 3.96 3.303 3.96.657 0 1.396-.164 2.113-.698l.41.554c-1.17 1.067-2.051 1.458-3.528 1.458-2.443 0-4.064-1.765-4.064-4.927Zm16.139-.163c0-2.114-.904-3.55-2.278-3.55-.84 0-1.641.348-2.381 1.21v4.536l.206 1.786c.492.164.841.246 1.375.246 2.114 0 3.079-1.888 3.079-4.228m-6.425 4.659V11.499l-.205-1.58-1.642-.266v-.637l3.818-.369-.206 2.852v3.859c.76-1.006 1.868-1.641 3.12-1.641 1.97 0 3.344 1.683 3.344 4.288 0 3.182-1.908 5.747-5.601 5.747-.863 0-1.457 0-2.628-.431m10.611-2.771v-3.92l-.226-1.58-1.6-.266v-.637l3.796-.37-.207 2.854v3.448c0 1.415.657 2.277 1.95 2.277.884 0 1.684-.533 2.259-1.23V16.63l-.206-1.58-1.601-.267v-.637l3.797-.37-.226 2.854v4.226l.226 1.56 1.478.267v.636l-3.468.37.226-1.847c-.966 1.334-1.827 1.909-3.284 1.909-1.807 0-2.914-1.15-2.914-3.202m19.611 7.636v-.699l2.052-.327.882-1.437.884-2.073-2.874-7.02-.842-1.599-.922-.246v-.637h4.493v.637l-1.313.246.493 1.6 1.846 4.74 1.725-4.74.45-1.6-1.292-.246v-.637h3.694v.637l-1.047.246-.78 1.6-4.472 11.821zm-2.739-14.194c-1.164 0-2.085.653-2.943 2.097-.002-.021-.007-.043-.008-.065l.004-.24c.006-.104.018-.209.03-.313l.078-.683.113-1-3.608.369v.634l1.64.267.226 1.578v4.223l-.225 1.557-1.435.267v.636h5.266v-.636l-1.639-.267-.225-1.557v-3.877a.84.84 0 0 1 .004-.084c.594-.733 1.39-.999 2.004-.999.431 0 .86.143 1.21.307l.514-2.07a3.04 3.04 0 0 0-1.006-.144m17.307 2.659c0-3.775 2.134-7.079 7.08-7.079 1.273 0 2.381.102 4.064.45l.205 3.12h-1.006l-.471-2.299a8.945 8.945 0 0 0-2.853-.45c-3.14 0-4.946 2.277-4.946 5.889 0 3.736 1.806 6.547 5.152 6.547.841 0 1.99-.205 2.81-.555l.472-2.194h1.006l-.205 3.138c-1.416.248-2.38.432-4.474.432-4.842 0-6.834-2.996-6.834-6.998m13.156 5.643c0-.677.534-1.313 1.314-1.313.677 0 1.313.534 1.313 1.313 0 .656-.513 1.293-1.313 1.293-.678 0-1.314-.493-1.314-1.293m6.622-2.011-2.565-7.367-.882-2.074-1.498-.327V9.9h5.356v.615l-1.519.327.514 2.074 2.975 8.558 2.833-8.558.45-2.074-1.6-.327V9.9h4.556v.615l-1.498.327-.923 2.115-2.464 7.326-.943 3.283h-1.766zm6.676 2.011a1.31 1.31 0 0 1 1.314-1.313 1.31 1.31 0 0 1 1.314 1.313c0 .656-.513 1.293-1.314 1.293-.678 0-1.313-.493-1.313-1.293m8.867.719-.206-3.12h1.048l.409 2.156c.698.327 1.334.594 2.176.594 1.867 0 3.223-.903 3.223-2.443 0-1.722-1.643-2.359-3.223-2.954-1.95-.74-3.673-1.519-3.673-3.879 0-2.073 1.58-3.961 4.638-3.961 1.046 0 2.339.288 3.447.697l.226 3.1h-1.026l-.452-2.196c-.636-.39-1.62-.616-2.237-.616-2.031 0-3.036 1.129-3.036 2.299 0 1.663 1.435 2.135 2.872 2.709 2.094.841 4.065 1.723 4.065 4.248 0 2.442-1.971 4.043-4.927 4.043-1.005 0-1.867-.102-3.324-.677m10.715-1.478V15.01h-1.6v-.74l1.6-.33v-2.358l1.765-.329v2.894h2.504v.863h-2.504v5.847c0 1.048.37 1.52 1.128 1.52.329 0 .884-.103 1.355-.41l.39.656c-1.026.82-1.703 1.129-2.627 1.129-1.004 0-2.011-.514-2.011-2.217m10.884-.657v-1.991c-1.21 0-2.072.165-2.627.514-.553.307-.841.8-.841 1.437 0 .8.554 1.457 1.354 1.457.679 0 1.499-.513 2.114-1.417m-5.192.39c0-.903.39-1.662 1.212-2.257.8-.595 2.113-.903 3.98-.903V17c0-1.292-.78-2.052-2.032-2.052-.759 0-1.518.307-2.196.924l-.513-.554c.923-1.047 2.176-1.704 3.633-1.704 1.642 0 2.832.883 2.832 2.915v4.33l.226 1.56 1.376.266v.637l-3.366.369.369-2.257c-.76 1.395-1.745 2.318-3.14 2.318-1.355 0-2.38-.923-2.38-2.484M77.645 45.502l-.205-3.118h1.047l.41 2.155c.698.328 1.334.594 2.175.594 1.868 0 3.223-.903 3.223-2.442 0-1.724-1.643-2.36-3.223-2.955-1.949-.738-3.673-1.52-3.673-3.88 0-2.072 1.58-3.96 4.638-3.96 1.046 0 2.34.287 3.448.698l.225 3.098h-1.026l-.451-2.195c-.636-.39-1.621-.616-2.236-.616-2.032 0-3.04 1.128-3.04 2.3 0 1.661 1.439 2.134 2.875 2.707 2.094.842 4.063 1.725 4.063 4.25 0 2.442-1.97 4.043-4.924 4.043-1.006 0-1.87-.104-3.326-.679m9.561-4.124c0-3.037 1.745-5.172 4.372-5.172.882 0 1.54.103 2.668.492l.226 2.463h-.8l-.473-1.58c-.492-.206-1.067-.41-1.724-.41-1.416 0-2.524.985-2.524 3.55 0 2.545 1.129 4.187 3.14 4.187.656 0 1.437-.226 2.155-.74l.452.575c-1.15 1.007-2.36 1.498-3.572 1.498-2.339 0-3.92-1.827-3.92-4.863m8.546 3.796 1.437-.266.226-1.56v-9.359l-.226-1.58-1.643-.266v-.636l3.819-.37-.206 2.852v3.858a3.731 3.731 0 0 1 3.079-1.64c1.846 0 2.955 1.128 2.955 3.2v3.941l.225 1.56 1.416.266v.636h-4.78v-.636l1.168-.266.226-1.56V39.9c0-1.396-.636-2.297-1.991-2.297-.984 0-1.723.594-2.298 1.25v4.495l.226 1.56 1.17.266v.636h-4.803v-.636Zm18.62-4.001c0-2.73-.882-4.126-2.504-4.126-1.641 0-2.544 1.293-2.544 4.146 0 2.791.882 4.186 2.483 4.186 1.642 0 2.565-1.354 2.565-4.206m-7.039.164c0-2.955 1.601-5.151 4.639-5.151 2.626 0 4.37 1.765 4.37 4.965 0 3.121-1.867 5.11-4.597 5.11-2.626 0-4.412-1.867-4.412-4.924m17.285-.164c0-2.73-.882-4.126-2.505-4.126-1.641 0-2.543 1.293-2.543 4.146 0 2.791.882 4.186 2.483 4.186 1.641 0 2.565-1.354 2.565-4.206m-7.04.164c0-2.955 1.601-5.151 4.639-5.151 2.627 0 4.37 1.765 4.37 4.965 0 3.121-1.867 5.11-4.596 5.11-2.627 0-4.413-1.867-4.413-4.924m9.547 3.837 1.437-.266.226-1.56v-9.359l-.226-1.58-1.643-.266v-.636l3.819-.37-.206 2.852v9.36l.226 1.56 1.415.265v.636h-5.048zm6.614.513-.164-2.4h.903l.349 1.58c.635.286 1.13.45 1.908.45 1.108 0 1.807-.553 1.807-1.498 0-1.19-1.129-1.537-2.198-1.929-1.292-.533-2.81-.984-2.81-2.832 0-1.559 1.271-2.975 3.447-2.975.924 0 1.827.184 2.73.595l.205 2.4h-.903l-.451-1.62a4.253 4.253 0 0 0-1.827-.41c-1.088 0-1.703.451-1.703 1.374 0 1.13 1.15 1.477 2.154 1.867 1.458.555 2.833 1.007 2.833 2.915 0 1.724-1.395 3.078-3.469 3.078-.677 0-1.826-.205-2.811-.595m19.642-5.931-1.825-5.356-1.908 5.356h3.733Zm-8.25 5.417 1.561-.327.902-2.072 3.858-10.59h1.294l3.713 10.59.884 2.072 1.456.327v.637h-5.295v-.637l1.478-.327-.553-2.072-.76-2.155h-4.31l-.8 2.155-.534 2.072 1.52.327v.637h-4.413v-.637Zm21.485-4.021c0-2.114-.904-3.55-2.278-3.55-.842 0-1.642.348-2.382 1.211v4.535l.206 1.785c.493.166.841.247 1.376.247 2.114 0 3.078-1.888 3.078-4.228m-6.424 4.658V33.99l-.206-1.58-1.641-.266v-.636l3.817-.37-.206 2.852v3.858c.76-1.005 1.869-1.64 3.12-1.64 1.97 0 3.345 1.682 3.345 4.289 0 3.18-1.909 5.745-5.602 5.745-.863 0-1.457 0-2.627-.43m24.105-4.639c0-2.73-.882-4.126-2.504-4.126-1.642 0-2.544 1.293-2.544 4.146 0 2.791.882 4.186 2.483 4.186 1.642 0 2.565-1.354 2.565-4.206m-7.04.164c0-2.955 1.602-5.151 4.64-5.151 2.626 0 4.37 1.765 4.37 4.965 0 3.121-1.867 5.11-4.597 5.11-2.627 0-4.412-1.867-4.412-4.924m15.6 2.031v-1.99c-1.211 0-2.074.164-2.627.513-.555.308-.842.8-.842 1.436 0 .8.554 1.457 1.355 1.457.678 0 1.498-.512 2.114-1.416m-5.192.39c0-.902.389-1.662 1.21-2.258.8-.594 2.114-.902 3.982-.902V39.49c0-1.294-.78-2.052-2.032-2.052-.758 0-1.518.307-2.196.923l-.513-.554c.923-1.046 2.176-1.703 3.632-1.703 1.643 0 2.832.882 2.832 2.914v4.33l.226 1.56 1.375.265v.637l-3.366.37.37-2.258c-.76 1.395-1.745 2.32-3.14 2.32-1.354 0-2.38-.925-2.38-2.484m15.864-.205v-6.075c-.574-.246-1.025-.37-1.662-.37-1.928 0-2.996 1.602-2.996 4.126 0 2.237.821 3.592 2.422 3.592.718 0 1.477-.329 2.237-1.273m-6.506-1.889c0-3.2 2.011-5.458 4.926-5.458.574 0 1.026.062 1.58.184v-2.4l-.226-1.58-1.642-.268v-.635l3.838-.37-.225 2.853v9.357l.225 1.56 1.335.266v.637l-3.305.432.307-1.95c-.943 1.273-1.908 1.95-3.263 1.95-2.072 0-3.55-1.785-3.55-4.578" fill="#000"/><path d="M1.627 1.627v31.355c0 .053.075 5.68 3.959 13.057C9.147 52.81 16.73 62.47 32.652 70.195c15.933-7.727 23.507-17.389 27.057-24.157 3.871-7.376 3.932-13.002 3.932-13.057V1.627H1.627Z" fill="#FFF"/><path d="M1.627 1.627v31.355c0 .053.075 5.68 3.959 13.057C9.147 52.81 16.73 62.47 32.652 70.195c15.933-7.727 23.507-17.389 27.057-24.157 3.871-7.376 3.932-13.002 3.932-13.057V1.627H1.627ZM32.652 72l-.352-.169c-16.617-7.97-24.51-18.065-28.205-25.13C.062 38.989 0 33.225 0 32.984V0h65.267v32.982c0 .24-.045 6.004-4.066 13.716-3.684 7.063-11.567 17.16-28.198 25.133l-.351.169Zm-11.76-59.742h-1.763c-.282-.878-.65-1.65-1.083-2.278a7.193 7.193 0 0 1 2.846 2.278Zm-5.129-2.74c.795.334 1.56 1.306 2.086 2.74h-2.086v-2.74Zm-3.981 6.402c.035-.887.146-1.706.316-2.442h2.446v2.442h-2.762Zm.676-3.662c.527-1.434 1.292-2.406 2.086-2.74v2.74h-2.086Zm-.36 7.326a13.214 13.214 0 0 1-.316-2.444h2.762v2.444h-2.446Zm2.446 3.96c-.794-.335-1.56-1.307-2.086-2.74h2.086v2.74Zm-3.981-6.404c.032.861.133 1.68.294 2.444H8.682a7.116 7.116 0 0 1-.662-2.444h2.543Zm7.645-3.662c.171.736.282 1.555.318 2.442h-2.762v-2.442h2.444Zm-7.352 0c-.16.763-.26 1.582-.293 2.442H8.02c.073-.867.305-1.69.662-2.442h2.174Zm-1.44 7.326h1.762c.283.876.65 1.648 1.084 2.276a7.186 7.186 0 0 1-2.845-2.276Zm10.33-4.884c-.034-.86-.134-1.68-.295-2.442h2.175a7.11 7.11 0 0 1 .662 2.442h-2.543ZM12.26 9.98c-.434.63-.8 1.4-1.082 2.278H9.416A7.204 7.204 0 0 1 12.26 9.98Zm7.19 9.604c.16-.764.26-1.583.294-2.444h2.543a7.11 7.11 0 0 1-.662 2.444H19.45Zm-.925-2.444a13.21 13.21 0 0 1-.317 2.444h-2.446V17.14h2.763Zm-2.763 6.403v-2.74h2.086c-.526 1.434-1.291 2.405-2.086 2.74Zm2.282-.462c.435-.629.8-1.4 1.084-2.277h1.763a7.2 7.2 0 0 1-2.847 2.277Zm39.575-2.845v-8.852H56.4v8.154l-6.6 3.87-6.603-3.87v-8.154h-1.22v8.852l7.824 4.586 7.819-4.585ZM44.427 10.61c-.046-.053 0 8.176 0 8.176s3.254.053 4.716 2.744v-8.176c-1.462-2.691-4.716-2.744-4.716-2.744Zm5.927 2.814V21.6c1.478-2.691 4.766-2.743 4.766-2.743s.048-8.23 0-8.176c0 0-3.288.053-4.766 2.743ZM39.712 26.027v-1.423h-2.145v-6.997h-9.868v6.997h-2.143v1.423h14.156Zm-24.558-1.113c4.623 0 8.385-3.762 8.385-8.384 0-4.624-3.762-8.386-8.385-8.386-4.623 0-8.385 3.762-8.385 8.386 0 4.622 3.762 8.384 8.385 8.384Zm18.192-21.3h27.927v28.498s-.003 1.96-.796 5.072c-.391-.02-.831-.04-1.435-.068-2.347-.112-4.282.371-6.48.037-2.195-.335-4.094-2.345-7.185-2.905-2.232-.402-4.078-.475-6.556-.4v-6.61H26.447v6.4a30.643 30.643 0 0 0-1.174-.022c-3.501 0-4.841-.968-8.49-.968-3.648 0-9.158 1.787-12.212 2.829l-.147.05c-.424-2.133-.429-3.415-.429-3.415V3.615h27.927v.813c-.62.267-1.058.856-1.058 1.554 0 .695.437 1.285 1.058 1.551v.987c-.933.342-2.615 1.16-3.384 2.814-.72 1.552-.851 2.895-.858 3.63h-.663v1.424h11.234v-1.423h-.663c-.008-.736-.14-2.08-.86-3.63-.768-1.658-2.45-2.473-3.382-2.814v-.987c.62-.265 1.057-.857 1.057-1.552 0-.698-.438-1.288-1.057-1.555v-.812Zm.063 2.367c0 .404-.347.733-.774.733-.43 0-.776-.329-.776-.733 0-.407.347-.736.776-.736.427 0 .774.329.774.736Zm-2.095 27.084v-4.564h2.639v4.564h-2.639Zm0-10.008v-4.095h2.639v4.095h-2.639Zm-2.234-.002v-4.087h.814v4.087h-.814Zm6.292 0v-4.087h.814v4.087h-.814ZM24.145 36.278v-1.22h16.977v1.22H24.145Zm3.316 5.418h10.346v-2.472H27.46v2.472Zm-1.22 1.22v-4.911h12.785v4.911H26.241Zm-1.843-2.79v1.922l-13.17 8.304a43.866 43.866 0 0 1-.944-1.327l14.114-8.9Zm16.47 1.991v-1.924l14.093 8.906c-.301.44-.616.881-.947 1.327l-13.146-8.309ZM30.853 54.611c.177.136.265.33.265.58 0 .473-.386.803-.948.803-.628 0-1.03-.363-1.03-.925 0-.466.282-.788.675-.997.523.217.836.378 1.038.539Zm-.676-1.286c-.377-.153-.933-.419-.933-.886 0-.417.338-.698.853-.698.539 0 .853.256.853.682 0 .444-.42.724-.773.902Zm3.757-.885c.151-.426.393-.675.707-.675.353 0 .627.24.78.867.08.346.12.708.12 1.23 0 .54-.048.999-.152 1.344-.146.467-.418.756-.757.756-.337 0-.626-.266-.772-.892-.072-.297-.11-.716-.11-1.256 0-.571.054-1.03.184-1.374Zm5.194 4.181c1.126 0 1.897-1.109 1.897-2.775 0-1.165-.448-2.75-1.889-2.75-1.07 0-1.874 1.142-1.874 2.726 0 1.15.45 2.8 1.865 2.8Zm-4.503 0c1.126 0 1.898-1.109 1.898-2.775 0-1.165-.451-2.75-1.891-2.75-1.069 0-1.873 1.142-1.873 2.726 0 1.15.45 2.8 1.866 2.8Zm-4.545.032c.925 0 2.012-.578 2.012-1.616 0-.668-.49-1.054-1.271-1.375.554-.209 1.07-.58 1.07-1.238 0-.789-.7-1.327-1.714-1.327-.876 0-1.825.401-1.825 1.423 0 .539.37 1.03.86 1.23-.594.21-1.03.733-1.03 1.384 0 1.061.975 1.519 1.898 1.519Zm-2.677-.152v-.715h-.747v-4.602h-.628l-1.617 1.135.217.474c.097-.033.394-.16.611-.265.217-.104.467-.265.547-.314v3.572h-.933v.715h2.55ZM40.869 44.52l11.918 7.465c-4.239 5.199-10.6 10.621-20.148 15.193-9.527-4.563-15.882-9.975-20.127-15.167l11.915-7.463H40.87v-.028Zm-1.725 7.246c.353 0 .627.24.78.867.08.346.12.708.12 1.23 0 .54-.047.999-.152 1.344-.145.467-.418.756-.756.756-.339 0-.628-.266-.772-.892-.073-.297-.112-.716-.112-1.256 0-.571.055-1.03.184-1.374.153-.426.394-.675.708-.675Z" fill="#0D395F"/></g></svg>