<svg width="261" height="72" xmlns="http://www.w3.org/2000/svg"><g id="schools-abroad-logo" stroke="none" stroke-width="1" fill="none" fill-rule="evenodd"><g id="Group-2" transform="translate(77.399 8.647)" fill="#000"><path d="M98.24 27.838c-1.165 0-2.086.652-2.944 2.098-.002-.024-.006-.045-.007-.068l.002-.24c.008-.103.02-.207.03-.312.028-.227.053-.456.08-.683l.112-1-3.608.369v.634l1.64.267.225 1.578v4.223l-.225 1.558-1.434.266v.636h5.266v-.636l-1.639-.266-.225-1.558v-3.877c0-.027.002-.054.005-.083.592-.735 1.389-1 2.003-1 .431 0 .862.143 1.21.307l.514-2.07a3.06 3.06 0 00-1.005-.143" id="Fill-1"/><path d="M174.27 5.348c-1.163 0-2.084.652-2.942 2.097-.002-.022-.007-.044-.008-.066l.003-.24c.007-.104.018-.209.03-.313l.08-.683.112-1-3.608.369v.634l1.64.267.225 1.578v4.222l-.225 1.559-1.434.266v.636h5.266v-.636l-1.639-.266-.225-1.559V8.337c0-.026.002-.054.005-.084.592-.733 1.389-.999 2.003-.999.431 0 .862.143 1.21.308l.514-2.072a3.063 3.063 0 00-1.006-.142" id="Fill-3"/><path d="M182.466 5.348c-1.166 0-2.086.652-2.945 2.097l-.007-.066.003-.24c.008-.104.019-.209.03-.313l.079-.683.113-1-3.608.369v.634l1.64.267.225 1.578v4.222l-.225 1.559-1.434.266v.636h5.266v-.636l-1.64-.266-.224-1.559V8.337c0-.026.002-.054.004-.084.593-.733 1.39-.999 2.004-.999.43 0 .861.143 1.21.308l.513-2.072a3.06 3.06 0 00-1.004-.142" id="Fill-5"/><path id="Fill-8" d="M.274 14.038l1.663-.329.204-2.072V4.269l-.204-2.072L.274 1.87v-.617h4.432L5.754 4.27l3.098 8.066 3.181-8.086.965-2.997h4.432v.617l-1.641.328-.226 2.072v7.368l.226 2.072 1.641.329v.635h-5.663v-.635l1.641-.329.226-2.072v-8.99l-3.53 8.989-1.046 3.036H7.724l-1.109-3.036-3.55-8.989v8.989l.226 2.072 1.641.329v.635H.274z"/><path d="M20.072 1.438A1.3 1.3 0 0121.364.145c.699 0 1.294.574 1.294 1.313 0 .657-.533 1.272-1.294 1.272-.697 0-1.292-.513-1.292-1.292zm-1.067 12.6l1.437-.267.205-1.56V7.985l-.205-1.58-1.643-.267V5.5l3.818-.368-.205 2.852v4.228l.205 1.559 1.436.267v.636h-5.048v-.636z" id="Fill-10"/><path d="M31.368 12.417V6.342c-.573-.247-1.026-.37-1.662-.37-1.93 0-2.996 1.602-2.996 4.125 0 2.238.821 3.592 2.422 3.592.718 0 1.477-.328 2.236-1.272m-6.505-1.888c0-3.202 2.011-5.46 4.926-5.46a6.8 6.8 0 011.58.185v-2.4l-.227-1.582-1.641-.266V.37L33.338 0l-.226 2.853v9.358l.226 1.56 1.335.267v.635l-3.305.432.308-1.95c-.943 1.273-1.907 1.95-3.263 1.95-2.072 0-3.55-1.785-3.55-4.576" id="Fill-12"/><path d="M41.92 12.417V6.342c-.576-.247-1.027-.37-1.664-.37-1.929 0-2.995 1.602-2.995 4.125 0 2.238.82 3.592 2.422 3.592.717 0 1.477-.328 2.236-1.272m-6.506-1.888c0-3.202 2.012-5.46 4.926-5.46a6.8 6.8 0 011.58.185v-2.4l-.226-1.582-1.641-.266V.37L43.889 0l-.226 2.853v9.358l.226 1.56 1.334.267v.635l-3.304.432.307-1.95c-.942 1.273-1.908 1.95-3.262 1.95-2.074 0-3.55-1.785-3.55-4.576" id="Fill-14"/><path id="Fill-16" d="M46.519 14.038l1.436-.267.226-1.56V2.853l-.226-1.58-1.641-.266V.37L50.13 0l-.206 2.853v9.358l.226 1.56 1.417.267v.635h-5.05z"/><path d="M56.776 8.559l1.395-.206c0-1.621-.759-2.463-1.887-2.463-1.149 0-1.949.863-2.176 2.669h2.669zm-4.474 1.62c0-3.119 1.581-5.11 4.146-5.11 2.154 0 3.653 1.396 3.57 4.31h-5.93s-.02.287-.02.452c0 2.319 1.129 3.96 3.304 3.96.657 0 1.396-.164 2.112-.697l.411.553c-1.17 1.068-2.052 1.458-3.53 1.458-2.442 0-4.063-1.765-4.063-4.926z" id="Fill-18"/><path d="M68.442 10.016c0-2.114-.905-3.55-2.278-3.55-.84 0-1.642.348-2.382 1.21v4.536l.206 1.785c.493.164.841.246 1.376.246 2.114 0 3.078-1.887 3.078-4.227m-6.425 4.658V2.853l-.205-1.58-1.641-.266V.37L63.988 0l-.206 2.853v3.859c.76-1.006 1.869-1.642 3.12-1.642 1.97 0 3.344 1.683 3.344 4.289 0 3.181-1.908 5.746-5.601 5.746-.863 0-1.457 0-2.628-.43" id="Fill-20"/><path d="M72.629 11.904v-3.92l-.226-1.58-1.601-.267V5.5l3.797-.369-.207 2.853v3.448c0 1.416.657 2.277 1.95 2.277.883 0 1.683-.533 2.258-1.23V7.984l-.206-1.58-1.6-.267V5.5l3.796-.369-.226 2.853v4.227l.226 1.56 1.479.267v.635l-3.469.37.226-1.847c-.966 1.335-1.827 1.91-3.284 1.91-1.806 0-2.913-1.15-2.913-3.202" id="Fill-22"/><path id="Fill-24" d="M92.24 19.538v-.699l2.051-.327.882-1.437.885-2.073-2.875-7.019-.841-1.6-.923-.246V5.5h4.493v.637l-1.312.246.492 1.6 1.846 4.741 1.725-4.74.45-1.6-1.291-.247V5.5h3.693v.637l-1.046.246-.78 1.6-4.473 11.822z"/><path d="M89.5 5.345c-1.164 0-2.084.652-2.943 2.097-.002-.022-.006-.044-.007-.065l.003-.24a6.54 6.54 0 01.03-.314l.078-.683c.038-.334.075-.667.114-1l-3.608.37v.634l1.64.266.225 1.579v4.223l-.225 1.557-1.434.267v.635h5.266v-.635l-1.64-.267-.224-1.557V8.334c0-.026 0-.054.003-.083.594-.734 1.39-1 2.005-1 .43 0 .86.144 1.209.308l.514-2.07a3.04 3.04 0 00-1.006-.144" id="Fill-26"/><path d="M106.807 8.004c0-3.775 2.134-7.08 7.08-7.08 1.273 0 2.381.103 4.064.45l.205 3.121h-1.006l-.471-2.3a8.945 8.945 0 00-2.853-.45c-3.14 0-4.945 2.278-4.945 5.889 0 3.736 1.805 6.548 5.15 6.548.842 0 1.991-.205 2.812-.555l.472-2.195h1.005l-.204 3.139c-1.417.247-2.38.432-4.474.432-4.842 0-6.835-2.996-6.835-6.999" id="Fill-28"/><path d="M119.963 13.648a1.31 1.31 0 011.314-1.313c.677 0 1.313.533 1.313 1.313a1.29 1.29 0 01-1.313 1.292c-.678 0-1.314-.492-1.314-1.292" id="Fill-30"/><path id="Fill-32" d="M126.586 11.637l-2.565-7.368-.882-2.073-1.499-.328v-.615h5.356v.615l-1.518.328.514 2.073 2.974 8.558 2.833-8.558.451-2.073-1.6-.328v-.615h4.556v.615l-1.499.328-.922 2.115-2.464 7.326-.944 3.283h-1.765z"/><path d="M133.262 13.648a1.31 1.31 0 011.313-1.313c.677 0 1.314.533 1.314 1.313 0 .656-.513 1.292-1.314 1.292-.677 0-1.313-.492-1.313-1.292" id="Fill-34"/><path d="M142.13 14.366l-.207-3.12h1.048l.41 2.156c.697.328 1.334.594 2.175.594 1.868 0 3.223-.902 3.223-2.442 0-1.723-1.642-2.36-3.223-2.954-1.95-.74-3.673-1.52-3.673-3.88 0-2.073 1.58-3.96 4.638-3.96 1.047 0 2.34.287 3.447.697l.226 3.1h-1.026l-.452-2.197c-.635-.389-1.62-.615-2.236-.615-2.032 0-3.037 1.128-3.037 2.298 0 1.663 1.436 2.135 2.872 2.71 2.094.84 4.065 1.723 4.065 4.247 0 2.443-1.97 4.043-4.926 4.043-1.006 0-1.868-.102-3.325-.677" id="Fill-36"/><path d="M152.844 12.888V6.363h-1.6v-.739l1.6-.33V2.935l1.765-.328V5.5h2.505v.863h-2.505v5.848c0 1.047.37 1.519 1.129 1.519.328 0 .883-.103 1.354-.41l.39.656c-1.025.821-1.703 1.13-2.626 1.13-1.005 0-2.012-.515-2.012-2.218" id="Fill-38"/><path d="M163.728 12.232V10.24c-1.21 0-2.072.166-2.626.515-.554.307-.842.8-.842 1.436 0 .8.555 1.457 1.355 1.457.678 0 1.498-.513 2.113-1.416m-5.191.389c0-.902.389-1.662 1.211-2.257.8-.595 2.113-.902 3.98-.902v-1.11c0-1.292-.78-2.051-2.031-2.051-.76 0-1.519.307-2.196.923l-.513-.553c.922-1.048 2.175-1.705 3.632-1.705 1.643 0 2.832.884 2.832 2.915v4.33l.226 1.56 1.376.266v.637l-3.366.369.369-2.257c-.76 1.395-1.745 2.319-3.14 2.319-1.354 0-2.38-.924-2.38-2.484" id="Fill-40"/><path d="M.246 36.856l-.204-3.119h1.046l.41 2.156c.698.327 1.335.594 2.175.594 1.869 0 3.223-.904 3.223-2.443 0-1.723-1.642-2.36-3.223-2.955C1.725 30.351 0 29.57 0 27.21c0-2.072 1.58-3.96 4.638-3.96 1.047 0 2.34.287 3.448.698l.226 3.098H7.286l-.452-2.195c-.635-.39-1.62-.617-2.236-.617-2.032 0-3.039 1.129-3.039 2.3 0 1.662 1.438 2.134 2.875 2.708 2.093.841 4.062 1.724 4.062 4.249 0 2.442-1.969 4.043-4.924 4.043-1.006 0-1.869-.103-3.326-.678" id="Fill-42"/><path d="M9.808 32.732c0-3.038 1.745-5.172 4.372-5.172.882 0 1.539.102 2.667.492l.226 2.462h-.8l-.472-1.58c-.493-.205-1.068-.41-1.725-.41-1.415 0-2.523.986-2.523 3.55 0 2.545 1.128 4.188 3.14 4.188.655 0 1.436-.226 2.154-.74l.452.574c-1.15 1.007-2.36 1.499-3.572 1.499-2.339 0-3.92-1.827-3.92-4.863" id="Fill-44"/><path d="M18.353 36.527l1.437-.265.226-1.56v-9.36l-.226-1.579-1.642-.266v-.636l3.818-.37-.206 2.852V29.2a3.731 3.731 0 013.08-1.64c1.845 0 2.954 1.128 2.954 3.2v3.942l.225 1.56 1.417.265v.636h-4.781v-.636l1.168-.265.227-1.56v-3.449c0-1.396-.637-2.297-1.992-2.297-.984 0-1.723.594-2.298 1.251v4.495l.226 1.56 1.17.265v.636h-4.803v-.636z" id="Fill-46"/><path d="M36.974 32.526c0-2.73-.882-4.125-2.505-4.125-1.64 0-2.543 1.292-2.543 4.145 0 2.791.882 4.186 2.483 4.186 1.641 0 2.565-1.354 2.565-4.206m-7.04.164c0-2.955 1.601-5.151 4.639-5.151 2.627 0 4.37 1.765 4.37 4.966 0 3.12-1.867 5.11-4.596 5.11-2.627 0-4.412-1.868-4.412-4.925" id="Fill-48"/><path d="M47.219 32.526c0-2.73-.882-4.125-2.504-4.125-1.642 0-2.544 1.292-2.544 4.145 0 2.791.882 4.186 2.483 4.186 1.641 0 2.565-1.354 2.565-4.206m-7.04.164c0-2.955 1.602-5.151 4.64-5.151 2.626 0 4.37 1.765 4.37 4.966 0 3.12-1.868 5.11-4.597 5.11-2.627 0-4.412-1.868-4.412-4.925" id="Fill-50"/><path id="Fill-52" d="M49.727 36.527l1.436-.265.226-1.56v-9.36l-.226-1.579-1.642-.266v-.636l3.818-.37-.206 2.852v9.359l.226 1.56 1.415.265v.636h-5.047z"/><path d="M56.34 37.04l-.164-2.4h.903l.35 1.58c.635.286 1.129.451 1.907.451 1.108 0 1.807-.553 1.807-1.498 0-1.19-1.128-1.538-2.197-1.93-1.293-.533-2.812-.984-2.812-2.831 0-1.56 1.273-2.976 3.449-2.976.923 0 1.827.185 2.73.595l.205 2.401h-.904l-.45-1.621a4.253 4.253 0 00-1.828-.41c-1.088 0-1.703.452-1.703 1.374 0 1.13 1.15 1.477 2.154 1.868 1.458.554 2.833 1.007 2.833 2.915 0 1.723-1.395 3.078-3.468 3.078-.678 0-1.826-.205-2.812-.596" id="Fill-54"/><path d="M75.983 31.11l-1.826-5.356-1.908 5.356h3.734zm-8.25 5.417l1.56-.328.903-2.072 3.857-10.59h1.294l3.714 10.59.883 2.072 1.457.328v.637h-5.296v-.637l1.479-.328-.554-2.072-.76-2.154h-4.309l-.8 2.154-.534 2.072 1.518.328v.637h-4.412v-.637z" id="Fill-56"/><path d="M89.217 32.505c0-2.114-.903-3.55-2.278-3.55-.842 0-1.641.349-2.382 1.211v4.535l.206 1.786c.493.165.842.246 1.376.246 2.114 0 3.078-1.888 3.078-4.228m-6.424 4.659V25.342l-.206-1.58-1.641-.266v-.635l3.817-.37-.206 2.851V29.2c.76-1.005 1.869-1.64 3.121-1.64 1.97 0 3.345 1.683 3.345 4.29 0 3.179-1.91 5.745-5.603 5.745-.863 0-1.457 0-2.627-.431" id="Fill-58"/><path d="M106.898 32.526c0-2.73-.882-4.125-2.504-4.125-1.641 0-2.544 1.292-2.544 4.145 0 2.791.882 4.186 2.483 4.186 1.643 0 2.565-1.354 2.565-4.206m-7.039.164c0-2.955 1.601-5.151 4.639-5.151 2.626 0 4.37 1.765 4.37 4.966 0 3.12-1.866 5.11-4.597 5.11-2.626 0-4.412-1.868-4.412-4.925" id="Fill-60"/><path d="M115.459 34.721v-1.99c-1.21 0-2.074.164-2.627.513-.555.308-.842.8-.842 1.437 0 .8.554 1.457 1.355 1.457.678 0 1.498-.512 2.114-1.417m-5.192.39c0-.902.39-1.661 1.21-2.257.8-.594 2.114-.903 3.982-.903v-1.108c0-1.293-.78-2.052-2.032-2.052-.758 0-1.518.307-2.196.924l-.513-.555c.924-1.046 2.176-1.703 3.633-1.703 1.642 0 2.831.882 2.831 2.915v4.329l.226 1.56 1.375.266v.637l-3.366.37.37-2.258c-.759 1.395-1.745 2.32-3.14 2.32-1.354 0-2.38-.925-2.38-2.484" id="Fill-62"/><path d="M126.132 34.907v-6.075c-.575-.247-1.026-.37-1.663-.37-1.928 0-2.996 1.602-2.996 4.125 0 2.238.822 3.592 2.423 3.592.717 0 1.477-.328 2.236-1.272m-6.506-1.889c0-3.2 2.012-5.459 4.927-5.459.573 0 1.026.062 1.58.185v-2.4l-.227-1.581-1.641-.267v-.636l3.837-.37-.225 2.853v9.358l.225 1.56 1.335.266v.637l-3.305.432.307-1.951c-.943 1.273-1.908 1.95-3.262 1.95-2.073 0-3.55-1.785-3.55-4.577" id="Fill-64"/></g><g id="shield-use-copy"><path d="M1.627 1.627v31.355c0 .053.075 5.68 3.959 13.057C9.147 52.81 16.73 62.47 32.652 70.195c15.933-7.727 23.507-17.389 27.057-24.157 3.871-7.376 3.932-13.002 3.932-13.057V1.627H1.627z" id="Path" fill="#FFF"/><path d="M1.627 1.627v31.355c0 .053.075 5.68 3.959 13.057C9.147 52.81 16.73 62.47 32.652 70.195c15.933-7.727 23.507-17.389 27.057-24.157 3.871-7.376 3.932-13.002 3.932-13.057V1.627H1.627zM32.652 72l-.352-.169c-16.617-7.97-24.51-18.065-28.205-25.13C.062 38.989 0 33.225 0 32.984V0h65.267v32.982c0 .24-.045 6.004-4.066 13.716-3.684 7.063-11.567 17.16-28.198 25.133l-.351.169zm-11.76-59.742h-1.763c-.282-.878-.65-1.65-1.083-2.278a7.193 7.193 0 012.846 2.278zm-5.129-2.74c.795.334 1.56 1.306 2.086 2.74h-2.086v-2.74zm-3.981 6.402c.035-.887.146-1.706.316-2.442h2.446v2.442h-2.762zm.676-3.662c.527-1.434 1.292-2.406 2.086-2.74v2.74h-2.086zm-.36 7.326a13.214 13.214 0 01-.316-2.444h2.762v2.444h-2.446zm2.446 3.96c-.794-.335-1.56-1.307-2.086-2.74h2.086v2.74zm-3.981-6.404c.032.861.133 1.68.294 2.444H8.682a7.116 7.116 0 01-.662-2.444h2.543zm7.645-3.662c.171.736.282 1.555.318 2.442h-2.762v-2.442h2.444zm-7.352 0c-.16.763-.26 1.582-.293 2.442H8.02c.073-.867.305-1.69.662-2.442h2.174zm-1.44 7.326h1.762c.283.876.65 1.648 1.084 2.276a7.186 7.186 0 01-2.845-2.276zm10.33-4.884c-.034-.86-.134-1.68-.295-2.442h2.175a7.11 7.11 0 01.662 2.442h-2.543zM12.26 9.98c-.434.63-.8 1.4-1.082 2.278H9.416A7.204 7.204 0 0112.26 9.98zm7.19 9.604c.16-.764.26-1.583.294-2.444h2.543a7.11 7.11 0 01-.662 2.444H19.45zm-.925-2.444a13.21 13.21 0 01-.317 2.444h-2.446V17.14h2.763zm-2.763 6.403v-2.74h2.086c-.526 1.434-1.291 2.405-2.086 2.74zm2.282-.462c.435-.629.8-1.4 1.084-2.277h1.763a7.2 7.2 0 01-2.847 2.277zm39.575-2.845v-8.852H56.4v8.154l-6.6 3.87-6.603-3.87v-8.154h-1.22v8.852l7.824 4.586 7.819-4.585zM44.427 10.61c-.046-.053 0 8.176 0 8.176s3.254.053 4.716 2.744v-8.176c-1.462-2.691-4.716-2.744-4.716-2.744zm5.927 2.814V21.6c1.478-2.691 4.766-2.743 4.766-2.743s.048-8.23 0-8.176c0 0-3.288.053-4.766 2.743zM39.712 26.027v-1.423h-2.145v-6.997h-9.868v6.997h-2.143v1.423h14.156zm-24.558-1.113c4.623 0 8.385-3.762 8.385-8.384 0-4.624-3.762-8.386-8.385-8.386-4.623 0-8.385 3.762-8.385 8.386 0 4.622 3.762 8.384 8.385 8.384zm18.192-21.3h27.927v28.498s-.003 1.96-.796 5.072c-.391-.02-.831-.04-1.435-.068-2.347-.112-4.282.371-6.48.037-2.195-.335-4.094-2.345-7.185-2.905-2.232-.402-4.078-.475-6.556-.4v-6.61H26.447v6.4a30.643 30.643 0 00-1.174-.022c-3.501 0-4.841-.968-8.49-.968-3.648 0-9.158 1.787-12.212 2.829l-.147.05c-.424-2.133-.429-3.415-.429-3.415V3.615h27.927v.813c-.62.267-1.058.856-1.058 1.554 0 .695.437 1.285 1.058 1.551v.987c-.933.342-2.615 1.16-3.384 2.814-.72 1.552-.851 2.895-.858 3.63h-.663v1.424h11.234v-1.423h-.663c-.008-.736-.14-2.08-.86-3.63-.768-1.658-2.45-2.473-3.382-2.814v-.987c.62-.265 1.057-.857 1.057-1.552 0-.698-.438-1.288-1.057-1.555v-.812zm.063 2.367c0 .404-.347.733-.774.733-.43 0-.776-.329-.776-.733 0-.407.347-.736.776-.736.427 0 .774.329.774.736zm-2.095 27.084v-4.564h2.639v4.564h-2.639zm0-10.008v-4.095h2.639v4.095h-2.639zm-2.234-.002v-4.087h.814v4.087h-.814zm6.292 0v-4.087h.814v4.087h-.814zM24.145 36.278v-1.22h16.977v1.22H24.145zm3.316 5.418h10.346v-2.472H27.46v2.472zm-1.22 1.22v-4.911h12.785v4.911H26.241zm-1.843-2.79v1.922l-13.17 8.304a43.866 43.866 0 01-.944-1.327l14.114-8.9zm16.47 1.991v-1.924l14.093 8.906c-.301.44-.616.881-.947 1.327l-13.146-8.309zM30.853 54.611c.177.136.265.33.265.58 0 .473-.386.803-.948.803-.628 0-1.03-.363-1.03-.925 0-.466.282-.788.675-.997.523.217.836.378 1.038.539zm-.676-1.286c-.377-.153-.933-.419-.933-.886 0-.417.338-.698.853-.698.539 0 .853.256.853.682 0 .444-.42.724-.773.902zm3.757-.885c.151-.426.393-.675.707-.675.353 0 .627.24.78.867.08.346.12.708.12 1.23 0 .54-.048.999-.152 1.344-.146.467-.418.756-.757.756-.337 0-.626-.266-.772-.892-.072-.297-.11-.716-.11-1.256 0-.571.054-1.03.184-1.374zm5.194 4.181c1.126 0 1.897-1.109 1.897-2.775 0-1.165-.448-2.75-1.889-2.75-1.07 0-1.874 1.142-1.874 2.726 0 1.15.45 2.8 1.865 2.8zm-4.503 0c1.126 0 1.898-1.109 1.898-2.775 0-1.165-.451-2.75-1.891-2.75-1.069 0-1.873 1.142-1.873 2.726 0 1.15.45 2.8 1.866 2.8zm-4.545.032c.925 0 2.012-.578 2.012-1.616 0-.668-.49-1.054-1.271-1.375.554-.209 1.07-.58 1.07-1.238 0-.789-.7-1.327-1.714-1.327-.876 0-1.825.401-1.825 1.423 0 .539.37 1.03.86 1.23-.594.21-1.03.733-1.03 1.384 0 1.061.975 1.519 1.898 1.519zm-2.677-.152v-.715h-.747v-4.602h-.628l-1.617 1.135.217.474c.097-.033.394-.16.611-.265.217-.104.467-.265.547-.314v3.572h-.933v.715h2.55zM40.869 44.52l11.918 7.465c-4.239 5.199-10.6 10.621-20.148 15.193-9.527-4.563-15.882-9.975-20.127-15.167l11.915-7.463H40.87v-.028zm-1.725 7.246c.353 0 .627.24.78.867.08.346.12.708.12 1.23 0 .54-.047.999-.152 1.344-.145.467-.418.756-.756.756-.339 0-.628-.266-.772-.892-.073-.297-.112-.716-.112-1.256 0-.571.055-1.03.184-1.374.153-.426.394-.675.708-.675z" id="Shape" fill="#0D395F"/></g></g></svg>