<svg width="91" height="142" fill="none" xmlns="http://www.w3.org/2000/svg"><path d="M51.345.657S91-1.703 91 48.047c0 19.329-8.729 36.439-17.278 51.499-2.96 5.219-7.429 15.349-14.198 22.749-7.27 7.96-19.158 9.67-26.257 16.68-2.53 2.5-12.319 3.76-18.648.09-10.498-6.1-2.82-16.6-7.609-27.72-1.84-4.27-6.859-5.86-7.009-14.11-.09-4.79 5.75-10.47 5.48-17.02-.35-8.64 2.17-14.879 4.699-18.219 2.14-2.82 2.06-3.71 1.11-7.27-1.79-6.74-5.39-10.07-7.07-12.68-4.229-6.56 5.53-19.39 11.17-26.41C22.767 6.467 31.386.547 51.344.667v-.01Z" fill="#fff"/><path d="M18.579 22.476c14.588-20.23 42.665-12.42 47.624-9.75 2.79 1.5 29.456 12.87 6.48 69.59-16.079 39.689-35.816 31.489-36.496 31.249-6.33-2.22-4.6-.42-6.24 3.34-2.01 4.59-3.979-1.07-5.139-3.34-2.57-5.05-3.26-1.24-6.22 3.42-2.399 3.76-7.658.13-8.398-5.13-1.63-11.63-3.93-8.21-2.72-18.39.47-3.95 7.23-2.95 9.909-8.38 1.63-3.31-.09-4.36 3.59-9.58 2.03-2.89-2.14-4.86-2.38-8.3-.24-3.51 2.56-6.07 5.29-.94 4.449 8.38 7.928 6.47 12.228 8.38 10.008 4.45 8.639 14.29 7.499 16.34-1.14 2.05 14.248-9.16 6.36-24.72-6.16-12.15-13.94-13.69-14.71-10.95-.64 2.29-.26 9.58-8.298 2.48-8.77-7.739-14.708-26.519-8.37-35.319h-.01Z" fill="#8ED8ED"/><path d="M66.193 12.727c-3.96-2.13-22.667-7.53-37.465.69-.23 1.62.09 3.13 2.28 2.7 4.389-.85 24.116-2.44 35.565 8.41 6.44 6.1 11.938 14.12 8.889 35.08-1.31 9.01-2.28 13.05-4.16 17.739-1.71 4.26.21 4.06 2.08 3.18 21.697-55.17-4.42-66.32-7.18-67.81l-.01.01Zm-50.173 17.4c4.119-.93 10.448-1.73 11.328 6.22.97 8.77 8.41 8.53 8.89 3.17.13-1.38-.39-8.47-4.06-13.22-3.93-5.08-7.57-7.11-10.09-7.9a31.523 31.523 0 0 0-3.519 4.09c-1.5 2.08-2.31 4.72-2.56 7.64h.01Zm10.918 27.669c8.039 7.1 7.649-.19 8.299-2.48.56-2 4.88-1.71 9.569 3.34-.07-3.67-4.75-6.08-8.93-7.21-7.668-2.07-7.348-4.51-12.908-8.89-2.75-2.17-4.84-3.13-6.239-3.56 1.61 7.28 5.5 14.64 10.219 18.8h-.01Zm16.648 33.19c1.14-2.05 2.51-11.89-7.5-16.34-4.299-1.91-7.779 0-12.228-8.38-2.72-5.13-5.53-2.57-5.29.94.23 3.44 4.41 5.41 2.38 8.3-3.68 5.22-1.96 6.27-3.59 9.58-2.679 5.43-9.428 4.43-9.908 8.38-.27 2.23-.36 3.81-.33 5.04 1.68.99 3.61 2.09 5.37 3.02 4.389 2.31 7.429 0 7.429 0s6.329-4.99 8.279-6.46c1.95-1.46 2.07-3.62 11.088-3.29 1.76.06 3.15-.19 4.26-.59-.02-.04-.01-.1.04-.19v-.01Zm3.91-3.2c-1.18 1.45-2.32 2.48-3.07 3.02 2.37-1.18 3.07-3.02 3.07-3.02Z" fill="#000"/></svg>