<svg width="175" height="146" fill="none" xmlns="http://www.w3.org/2000/svg"><path d="m24.892 120.608-2.232 3.875-11.544-3.083 8.47 8.412-2.225 3.85L0 129.109l1.74-4.513 11.188 3.335-8.244-8.073 2.225-3.851 11.14 3.06-8.422-7.767 2.192-3.802 13.073 13.119v-.009Zm8.956-15.209-7.426.234-.559.961 5.315 3.06-2.192 3.802-15.476-8.896 3.115-5.393c2.16-3.738 5.129-4.949 8.316-3.124 2.152 1.235 2.993 3.148 2.718 5.433l7.88-.509-1.691 4.424v.008Zm-14.554-4.19-.712 1.236 4.506 2.591.688-1.187c.955-1.655.696-3.059-.793-3.915-1.432-.824-2.734-.38-3.697 1.275h.008ZM45.49 84.87l-10.752-5.288 8.705 8.88-2.096 3.625-12.07-3.06 9.975 6.628-1.925 3.335-14.83-10.019 2.857-4.949 12.385 3.125L28.832 78l2.775-4.811 16.123 7.774-2.249 3.89.008.017Zm8.486-14.08c-2.662 4.61-7.37 5.628-12.265 2.818-4.797-2.76-6.334-7.548-3.648-12.206.946-1.63 2.063-2.745 3.357-3.495l3.147 2.518c-1.246.509-2.403 1.268-3.18 2.616-1.399 2.422-.444 5.021 2.517 6.725 3.001 1.727 5.743 1.122 7.143-1.292.72-1.251.898-2.64.841-4.198l3.495 1.348c0 1.647-.348 3.35-1.391 5.159l-.016.008Z" fill="#EE6CB9"/><path d="M16.107 134.227 95.549 0 175 134.227H16.107Z" fill="#EE6CB9"/><mask id="a" style="mask-type:luminance" maskUnits="userSpaceOnUse" x="16" y="0" width="159" height="135"><path d="M16.107 134.227 95.549 0 175 134.227H16.107Z" fill="#fff"/></mask><g mask="url(#a)" fill="#fff"><path d="M117.724 129.924c-.793.501-1.602.775-2.524.775-1.829 0-3.172-1.081-3.172-3.374 0-2.406 1.748-3.907 4.062-3.907 2.475 0 4.206 1.598 4.206 4.617 0 3.924-2.734 6.055-6.472 6.733l-.307-2.131c2.12-.404 3.657-1.227 4.207-2.713Zm.145-1.727v-.032c0-1.954-.76-2.794-1.779-2.794-.923 0-1.554.646-1.554 1.776 0 1.131.518 1.647 1.554 1.647.598 0 1.181-.194 1.779-.597Zm5.776 6.345v-8.396l-2.184.856-.307-2.099 2.799-1.291h2.411v10.93h-2.719Zm4.596 0v-2.777h2.637v2.777h-2.637Zm5.436 0v-8.396l-2.184.856-.308-2.099 2.799-1.291h2.411v10.93h-2.718Zm10.97-8.831v2.276h2.912l.388 2.309h-3.3v4.246h-2.751v-11.14h6.682v2.309h-3.931Zm15.063 8.831-.485-7.459-2.104 7.475H154.5l-2.103-7.475-.485 7.459h-2.411l.809-11.14h3.575l2.169 7.669 2.184-7.669h3.478l.809 11.14h-2.815Z"/></g></svg>